M48
; DRILL file {KiCad (5.1.7)-1} date 11/14/21 22:53:32
; FORMAT={-:-/ absolute / metric / decimal}
; #@! TF.CreationDate,2021-11-14T22:53:32-06:00
; #@! TF.GenerationSoftware,Kicad,Pcbnew,(5.1.7)-1
; #@! TF.FileFunction,Plated,1,2,PTH
FMAT,2
METRIC
T1C0.400
T2C0.714
T3C0.838
T4C1.000
%
G90
G05
T1
X113.41Y-96.66
X130.91Y-93.13
X131.23Y-94.27
X134.629Y-113.329
X136.807Y-101.522
X156.313Y-100.627
X158.8Y-113.961
X162.974Y-116.324
X181.5Y-100.265
X199.57Y-92.02
X200.752Y-98.792
X201.469Y-100.791
T2
X131.0Y-120.46
X131.0Y-125.54
X133.54Y-123.0
T3
X175.361Y-99.749
X175.719Y-96.811
X176.412Y-102.521
X177.4Y-94.372
X180.024Y-92.996
X181.505Y-105.193
X182.986Y-92.996
X185.61Y-94.372
X186.598Y-102.521
X187.291Y-96.811
X187.649Y-99.749
X132.356Y-99.744
X132.714Y-96.805
X133.407Y-102.515
X134.395Y-94.367
X137.019Y-92.99
X138.5Y-105.187
X139.981Y-92.99
X142.605Y-94.367
X143.593Y-102.515
X144.286Y-96.805
X144.644Y-99.744
X158.73Y-99.0
X161.27Y-99.0
X109.356Y-99.744
X109.714Y-96.805
X110.407Y-102.515
X111.395Y-94.367
X114.019Y-92.99
X115.5Y-105.187
X116.981Y-92.99
X119.605Y-94.367
X120.593Y-102.515
X121.286Y-96.805
X121.644Y-99.744
X198.361Y-99.749
X198.719Y-96.811
X199.412Y-102.521
X200.4Y-94.372
X203.024Y-92.996
X204.505Y-105.193
X205.986Y-92.996
X208.61Y-94.372
X209.598Y-102.521
X210.291Y-96.811
X210.649Y-99.749
T4
X148.57Y-125.79
X148.57Y-128.33
X151.11Y-125.79
X151.11Y-128.33
X153.65Y-125.79
X153.65Y-128.33
X156.19Y-125.79
X156.19Y-128.33
X158.73Y-125.79
X158.73Y-128.33
X161.27Y-125.79
X161.27Y-128.33
X163.81Y-125.79
X163.81Y-128.33
X166.35Y-125.79
X166.35Y-128.33
X168.89Y-125.79
X168.89Y-128.33
X171.43Y-125.79
X171.43Y-128.33
T0
M30
