G04 #@! TF.GenerationSoftware,KiCad,Pcbnew,(5.1.7)-1*
G04 #@! TF.CreationDate,2021-11-14T22:53:25-06:00*
G04 #@! TF.ProjectId,in14-socket,696e3134-2d73-46f6-936b-65742e6b6963,rev?*
G04 #@! TF.SameCoordinates,Original*
G04 #@! TF.FileFunction,Copper,L2,Bot*
G04 #@! TF.FilePolarity,Positive*
%FSLAX46Y46*%
G04 Gerber Fmt 4.6, Leading zero omitted, Abs format (unit mm)*
G04 Created by KiCad (PCBNEW (5.1.7)-1) date 2021-11-14 22:53:25*
%MOMM*%
%LPD*%
G01*
G04 APERTURE LIST*
G04 #@! TA.AperFunction,ComponentPad*
%ADD10C,1.346200*%
G04 #@! TD*
G04 #@! TA.AperFunction,ComponentPad*
%ADD11C,1.700000*%
G04 #@! TD*
G04 #@! TA.AperFunction,ComponentPad*
%ADD12R,1.222000X1.222000*%
G04 #@! TD*
G04 #@! TA.AperFunction,ComponentPad*
%ADD13C,1.222000*%
G04 #@! TD*
G04 #@! TA.AperFunction,SMDPad,CuDef*
%ADD14R,0.500000X0.800000*%
G04 #@! TD*
G04 #@! TA.AperFunction,SMDPad,CuDef*
%ADD15R,0.400000X0.800000*%
G04 #@! TD*
G04 #@! TA.AperFunction,SMDPad,CuDef*
%ADD16R,0.400000X0.650000*%
G04 #@! TD*
G04 #@! TA.AperFunction,ViaPad*
%ADD17C,0.800000*%
G04 #@! TD*
G04 #@! TA.AperFunction,Conductor*
%ADD18C,0.250000*%
G04 #@! TD*
G04 APERTURE END LIST*
D10*
X138500000Y-105187440D03*
X132355740Y-99744220D03*
X132713880Y-96805440D03*
X134395360Y-94367040D03*
X137019180Y-92990360D03*
X139980820Y-92990360D03*
X142604640Y-94367040D03*
X144286120Y-96805440D03*
X144644260Y-99744220D03*
X143592700Y-102515360D03*
X133407300Y-102515360D03*
X181505000Y-105192640D03*
X175360740Y-99749420D03*
X175718880Y-96810640D03*
X177400360Y-94372240D03*
X180024180Y-92995560D03*
X182985820Y-92995560D03*
X185609640Y-94372240D03*
X187291120Y-96810640D03*
X187649260Y-99749420D03*
X186597700Y-102520560D03*
X176412300Y-102520560D03*
X204505000Y-105192640D03*
X198360740Y-99749420D03*
X198718880Y-96810640D03*
X200400360Y-94372240D03*
X203024180Y-92995560D03*
X205985820Y-92995560D03*
X208609640Y-94372240D03*
X210291120Y-96810640D03*
X210649260Y-99749420D03*
X209597700Y-102520560D03*
X199412300Y-102520560D03*
X115500000Y-105187440D03*
X109355740Y-99744220D03*
X109713880Y-96805440D03*
X111395360Y-94367040D03*
X114019180Y-92990360D03*
X116980820Y-92990360D03*
X119604640Y-94367040D03*
X121286120Y-96805440D03*
X121644260Y-99744220D03*
X120592700Y-102515360D03*
X110407300Y-102515360D03*
D11*
X148570000Y-128330000D03*
X151110000Y-128330000D03*
X153650000Y-128330000D03*
X156190000Y-128330000D03*
X158730000Y-128330000D03*
X161270000Y-128330000D03*
X163810000Y-128330000D03*
X166350000Y-128330000D03*
X168890000Y-128330000D03*
X171430000Y-128330000D03*
X148570000Y-125790000D03*
X151110000Y-125790000D03*
X153650000Y-125790000D03*
X156190000Y-125790000D03*
X158730000Y-125790000D03*
X161270000Y-125790000D03*
X163810000Y-125790000D03*
X166350000Y-125790000D03*
X168890000Y-125790000D03*
G04 #@! TA.AperFunction,ComponentPad*
G36*
G01*
X172030000Y-126640000D02*
X170830000Y-126640000D01*
G75*
G02*
X170580000Y-126390000I0J250000D01*
G01*
X170580000Y-125190000D01*
G75*
G02*
X170830000Y-124940000I250000J0D01*
G01*
X172030000Y-124940000D01*
G75*
G02*
X172280000Y-125190000I0J-250000D01*
G01*
X172280000Y-126390000D01*
G75*
G02*
X172030000Y-126640000I-250000J0D01*
G01*
G37*
G04 #@! TD.AperFunction*
D10*
X158730000Y-99000000D03*
X161270000Y-99000000D03*
D12*
X131000000Y-125540000D03*
D13*
X133540000Y-123000000D03*
X131000000Y-120460000D03*
D14*
X161200000Y-116900000D03*
D15*
X159600000Y-116900000D03*
X160400000Y-116900000D03*
D14*
X158800000Y-116900000D03*
D15*
X160400000Y-115100000D03*
D14*
X161200000Y-115100000D03*
D15*
X159600000Y-115100000D03*
D14*
X158800000Y-115100000D03*
D16*
X136650000Y-115950000D03*
X135350000Y-115950000D03*
X136000000Y-114050000D03*
X136000000Y-115950000D03*
X135350000Y-114050000D03*
X136650000Y-114050000D03*
X182350000Y-114050000D03*
X183650000Y-114050000D03*
X183000000Y-115950000D03*
X183000000Y-114050000D03*
X183650000Y-115950000D03*
X182350000Y-115950000D03*
D17*
X201469200Y-100790800D03*
X199570000Y-92020000D03*
X130910000Y-93130000D03*
X131230000Y-94270000D03*
X156313100Y-100627200D03*
X162974000Y-116324400D03*
X158800000Y-113961100D03*
X134629400Y-113329400D03*
X200752300Y-98792000D03*
X181500000Y-100265000D03*
X136806800Y-101521800D03*
X113410000Y-96660000D03*
D18*
X171430000Y-128330000D02*
X172681700Y-128330000D01*
X172681700Y-128330000D02*
X184762600Y-116249100D01*
X184762600Y-116249100D02*
X184762600Y-115718700D01*
X184762600Y-115718700D02*
X190581300Y-115718700D01*
X190581300Y-115718700D02*
X199860000Y-106440000D01*
X199860000Y-106440000D02*
X199860000Y-104020000D01*
X201469200Y-102410800D02*
X201469200Y-100790800D01*
X199860000Y-104020000D02*
X201469200Y-102410800D01*
X161270000Y-99000000D02*
X160226500Y-97956500D01*
X160226500Y-97956500D02*
X158339100Y-97956500D01*
X158339100Y-97956500D02*
X157711900Y-98583700D01*
X157711900Y-98583700D02*
X157711900Y-100891100D01*
X157711900Y-100891100D02*
X156867500Y-101735500D01*
X156867500Y-101735500D02*
X156867500Y-118309500D01*
X156867500Y-118309500D02*
X162540000Y-123982000D01*
X162540000Y-123982000D02*
X162540000Y-127060000D01*
X162540000Y-127060000D02*
X163810000Y-128330000D01*
X158730000Y-99000000D02*
X158730000Y-100509900D01*
X158730000Y-100509900D02*
X157317800Y-101922100D01*
X157317800Y-101922100D02*
X157317800Y-118079700D01*
X157317800Y-118079700D02*
X163810000Y-124571900D01*
X163810000Y-124571900D02*
X163810000Y-125790000D01*
X109355700Y-99744200D02*
X109355700Y-105652000D01*
X109355700Y-105652000D02*
X130669100Y-126965400D01*
X130669100Y-126965400D02*
X149745400Y-126965400D01*
X149745400Y-126965400D02*
X151110000Y-128330000D01*
X175360700Y-99749400D02*
X167588000Y-91976700D01*
X167588000Y-91976700D02*
X134720500Y-91976700D01*
X134720500Y-91976700D02*
X131237200Y-95460000D01*
X131237200Y-95460000D02*
X131237200Y-98625700D01*
X131237200Y-98625700D02*
X132355700Y-99744200D01*
X153650000Y-128330000D02*
X152380000Y-127060000D01*
X152380000Y-127060000D02*
X152380000Y-123921500D01*
X152380000Y-123921500D02*
X140350600Y-111892100D01*
X140350600Y-111892100D02*
X140350600Y-100322200D01*
X140350600Y-100322200D02*
X134395400Y-94367000D01*
X199570000Y-92020000D02*
X198080000Y-90530000D01*
X198080000Y-90530000D02*
X179010000Y-90530000D01*
X177400360Y-92139640D02*
X177400360Y-94372240D01*
X179010000Y-90530000D02*
X177400360Y-92139640D01*
X205985800Y-92995600D02*
X203601100Y-95380300D01*
X203601100Y-95380300D02*
X188480800Y-95380300D01*
X188480800Y-95380300D02*
X186096100Y-92995600D01*
X186096100Y-92995600D02*
X182985800Y-92995600D01*
X139980800Y-92990400D02*
X139980800Y-94638000D01*
X139980800Y-94638000D02*
X143638300Y-98295500D01*
X143638300Y-98295500D02*
X145244600Y-98295500D01*
X145244600Y-98295500D02*
X153623700Y-106674600D01*
X153623700Y-106674600D02*
X153623700Y-120196300D01*
X153623700Y-120196300D02*
X154983600Y-121556200D01*
X154983600Y-121556200D02*
X154983600Y-127123600D01*
X154983600Y-127123600D02*
X156190000Y-128330000D01*
X130910000Y-93130000D02*
X130450000Y-93590000D01*
X128180010Y-96449990D02*
X123979990Y-96449990D01*
X130450000Y-94180000D02*
X128180010Y-96449990D01*
X130450000Y-93590000D02*
X130450000Y-94180000D01*
X120520360Y-92990360D02*
X116980820Y-92990360D01*
X123979990Y-96449990D02*
X120520360Y-92990360D01*
X154524300Y-100497500D02*
X154524300Y-119224600D01*
X154524300Y-119224600D02*
X157405500Y-122105800D01*
X157405500Y-122105800D02*
X157405500Y-127005500D01*
X157405500Y-127005500D02*
X158730000Y-128330000D01*
X210291100Y-96810600D02*
X200664200Y-96810600D01*
X200664200Y-96810600D02*
X199649100Y-97825700D01*
X199649100Y-97825700D02*
X188306200Y-97825700D01*
X188306200Y-97825700D02*
X187291100Y-96810600D01*
X187291100Y-96810600D02*
X179912300Y-96810600D01*
X179912300Y-96810600D02*
X175955900Y-100767000D01*
X175955900Y-100767000D02*
X174658700Y-100767000D01*
X174658700Y-100767000D02*
X170947500Y-97055800D01*
X170947500Y-97055800D02*
X157966000Y-97055800D01*
X157966000Y-97055800D02*
X154524300Y-100497500D01*
X144286100Y-96805400D02*
X150832200Y-96805400D01*
X150832200Y-96805400D02*
X154524300Y-100497500D01*
X161200000Y-117262600D02*
X161891800Y-117954400D01*
X161891800Y-117954400D02*
X163594400Y-117954400D01*
X163594400Y-117954400D02*
X171430000Y-125790000D01*
X148570000Y-125790000D02*
X134980600Y-125790000D01*
X134980600Y-125790000D02*
X131000000Y-121809400D01*
X131000000Y-121809400D02*
X131000000Y-120460000D01*
X161200000Y-116900000D02*
X161200000Y-117262600D01*
X158800000Y-116900000D02*
X159600000Y-116900000D01*
X159600000Y-116900000D02*
X160400000Y-116900000D01*
X160400000Y-116900000D02*
X161200000Y-116900000D01*
X134341800Y-99865500D02*
X132982100Y-101225200D01*
X132982100Y-101225200D02*
X114133700Y-101225200D01*
X114133700Y-101225200D02*
X109713900Y-96805400D01*
X132713900Y-96805400D02*
X134341800Y-98433300D01*
X134341800Y-98433300D02*
X134341800Y-99865500D01*
X134341800Y-99865500D02*
X136198600Y-99865500D01*
X136198600Y-99865500D02*
X139498500Y-103165400D01*
X139498500Y-103165400D02*
X139498500Y-114178500D01*
X139498500Y-114178500D02*
X151110000Y-125790000D01*
X153650000Y-125790000D02*
X153173400Y-125313400D01*
X153173400Y-125313400D02*
X153173400Y-106861200D01*
X153173400Y-106861200D02*
X145058000Y-98745800D01*
X145058000Y-98745800D02*
X142774600Y-98745800D01*
X142774600Y-98745800D02*
X137019200Y-92990400D01*
X142604600Y-94367000D02*
X142604600Y-96550700D01*
X142604600Y-96550700D02*
X143899000Y-97845100D01*
X143899000Y-97845100D02*
X145431100Y-97845100D01*
X145431100Y-97845100D02*
X154074000Y-106488000D01*
X154074000Y-106488000D02*
X154074000Y-119784400D01*
X154074000Y-119784400D02*
X156190000Y-121900400D01*
X156190000Y-121900400D02*
X156190000Y-125790000D01*
X131230000Y-94270000D02*
X128600000Y-96900000D01*
X128600000Y-96900000D02*
X123650000Y-96900000D01*
X121117040Y-94367040D02*
X119604640Y-94367040D01*
X123650000Y-96900000D02*
X121117040Y-94367040D01*
X156313100Y-100627200D02*
X155910600Y-101029700D01*
X155910600Y-101029700D02*
X155910600Y-119714200D01*
X155910600Y-119714200D02*
X158730000Y-122533600D01*
X158730000Y-122533600D02*
X158730000Y-125790000D01*
X210649300Y-99749400D02*
X208950700Y-98050800D01*
X208950700Y-98050800D02*
X200286200Y-98050800D01*
X200286200Y-98050800D02*
X199982800Y-98354200D01*
X199982800Y-98354200D02*
X189044500Y-98354200D01*
X189044500Y-98354200D02*
X187649300Y-99749400D01*
X144644300Y-99744200D02*
X141892100Y-99744200D01*
X141892100Y-99744200D02*
X135515600Y-93367700D01*
X135515600Y-93367700D02*
X133974700Y-93367700D01*
X133974700Y-93367700D02*
X131715400Y-95627000D01*
X131715400Y-95627000D02*
X131715400Y-97281900D01*
X131715400Y-97281900D02*
X133359500Y-98926000D01*
X133359500Y-98926000D02*
X133359500Y-100187200D01*
X133359500Y-100187200D02*
X132784500Y-100762200D01*
X132784500Y-100762200D02*
X122662300Y-100762200D01*
X122662300Y-100762200D02*
X121644300Y-99744200D01*
X176412300Y-102520600D02*
X175775400Y-102520600D01*
X175775400Y-102520600D02*
X170760900Y-97506100D01*
X170760900Y-97506100D02*
X158152600Y-97506100D01*
X158152600Y-97506100D02*
X157038400Y-98620300D01*
X157038400Y-98620300D02*
X157038400Y-100927700D01*
X157038400Y-100927700D02*
X156360900Y-101605200D01*
X156360900Y-101605200D02*
X156360900Y-118890800D01*
X156360900Y-118890800D02*
X161270000Y-123799900D01*
X161270000Y-123799900D02*
X161270000Y-125790000D01*
X160400000Y-115100000D02*
X160400000Y-115825300D01*
X183650000Y-115950000D02*
X183650000Y-116634800D01*
X183650000Y-116634800D02*
X183215400Y-117069400D01*
X183215400Y-117069400D02*
X162528300Y-117069400D01*
X162528300Y-117069400D02*
X161284200Y-115825300D01*
X161284200Y-115825300D02*
X160400000Y-115825300D01*
X181824400Y-116324400D02*
X162974000Y-116324400D01*
X181824400Y-116324400D02*
X181824400Y-116465000D01*
X181824400Y-116465000D02*
X181959700Y-116600300D01*
X181959700Y-116600300D02*
X183000000Y-116600300D01*
X183000000Y-114700300D02*
X182277000Y-114700300D01*
X182277000Y-114700300D02*
X181824400Y-115152900D01*
X181824400Y-115152900D02*
X181824400Y-116324400D01*
X133540000Y-123000000D02*
X136000000Y-120540000D01*
X136000000Y-120540000D02*
X136000000Y-115950000D01*
X183000000Y-115950000D02*
X183000000Y-116600300D01*
X183000000Y-114050000D02*
X183000000Y-114700300D01*
X136000000Y-115299700D02*
X136000000Y-114050000D01*
X136000000Y-115950000D02*
X136000000Y-115299700D01*
X161200000Y-115100000D02*
X161200000Y-114374700D01*
X182350000Y-114050000D02*
X161524700Y-114050000D01*
X161524700Y-114050000D02*
X161200000Y-114374700D01*
X158800000Y-114374700D02*
X158800000Y-113961100D01*
X158800000Y-115100000D02*
X158800000Y-114374700D01*
X135350000Y-113399700D02*
X134699700Y-113399700D01*
X134699700Y-113399700D02*
X134629400Y-113329400D01*
X135350000Y-114050000D02*
X135350000Y-113399700D01*
X159600000Y-115100000D02*
X159600000Y-115825300D01*
X136650000Y-115950000D02*
X136650000Y-116600300D01*
X136650000Y-116600300D02*
X141046600Y-116600300D01*
X141046600Y-116600300D02*
X149904600Y-125458300D01*
X149904600Y-125458300D02*
X149904600Y-126251000D01*
X149904600Y-126251000D02*
X150713600Y-127060000D01*
X150713600Y-127060000D02*
X151506400Y-127060000D01*
X151506400Y-127060000D02*
X152380000Y-127933600D01*
X152380000Y-127933600D02*
X152380000Y-128817800D01*
X152380000Y-128817800D02*
X153128600Y-129566400D01*
X153128600Y-129566400D02*
X164297800Y-129566400D01*
X164297800Y-129566400D02*
X164985400Y-128878800D01*
X164985400Y-128878800D02*
X164985400Y-128030400D01*
X164985400Y-128030400D02*
X165955800Y-127060000D01*
X165955800Y-127060000D02*
X166759400Y-127060000D01*
X166759400Y-127060000D02*
X167530100Y-126289300D01*
X167530100Y-126289300D02*
X167530100Y-125296700D01*
X167530100Y-125296700D02*
X160936400Y-118703000D01*
X160936400Y-118703000D02*
X159214900Y-118703000D01*
X159214900Y-118703000D02*
X158218400Y-117706500D01*
X158218400Y-117706500D02*
X158218400Y-116343400D01*
X158218400Y-116343400D02*
X158736500Y-115825300D01*
X158736500Y-115825300D02*
X159600000Y-115825300D01*
X184244600Y-115299700D02*
X182350000Y-115299700D01*
X182350000Y-115950000D02*
X182350000Y-115299700D01*
X184244600Y-114276398D02*
X187620000Y-110900998D01*
X184244600Y-115299700D02*
X184244600Y-114276398D01*
X187620000Y-110900998D02*
X187620000Y-108360000D01*
X187620000Y-108360000D02*
X194950000Y-101030000D01*
X194950000Y-101030000D02*
X199500000Y-101030000D01*
X200752300Y-99777700D02*
X200752300Y-98792000D01*
X199500000Y-101030000D02*
X200752300Y-99777700D01*
X183650000Y-114050000D02*
X183650000Y-105225300D01*
X183650000Y-105225300D02*
X181500000Y-103075300D01*
X181500000Y-103075300D02*
X181500000Y-100265000D01*
X136650000Y-114050000D02*
X136650000Y-101678600D01*
X136650000Y-101678600D02*
X136806800Y-101521800D01*
X135350000Y-115299700D02*
X135350000Y-115950000D01*
X111804400Y-99532800D02*
X127571300Y-115299700D01*
X127571300Y-115299700D02*
X135350000Y-115299700D01*
X110994100Y-99532800D02*
X111804400Y-99532800D01*
X108699300Y-96378400D02*
X108699300Y-97238000D01*
X108699300Y-97238000D02*
X110994100Y-99532800D01*
X109288000Y-95789700D02*
X108699300Y-96378400D01*
X112539700Y-95789700D02*
X109288000Y-95789700D01*
X113410000Y-96660000D02*
X112539700Y-95789700D01*
X204505000Y-105192600D02*
X180178900Y-129518700D01*
X180178900Y-129518700D02*
X170929700Y-129518700D01*
X170929700Y-129518700D02*
X170254600Y-128843600D01*
X170254600Y-128843600D02*
X170254600Y-128028200D01*
X170254600Y-128028200D02*
X169346900Y-127120500D01*
X169346900Y-127120500D02*
X167559500Y-127120500D01*
X167559500Y-127120500D02*
X166350000Y-128330000D01*
X181505000Y-105192600D02*
X173679700Y-113017900D01*
X173679700Y-113017900D02*
X158685000Y-113017900D01*
X158685000Y-113017900D02*
X157768100Y-113934800D01*
X157768100Y-113934800D02*
X157768100Y-117893100D01*
X157768100Y-117893100D02*
X165665000Y-125790000D01*
X165665000Y-125790000D02*
X166350000Y-125790000D01*
M02*
