G04 #@! TF.GenerationSoftware,KiCad,Pcbnew,(5.1.7)-1*
G04 #@! TF.CreationDate,2021-11-14T22:53:26-06:00*
G04 #@! TF.ProjectId,in14-socket,696e3134-2d73-46f6-936b-65742e6b6963,rev?*
G04 #@! TF.SameCoordinates,Original*
G04 #@! TF.FileFunction,Soldermask,Bot*
G04 #@! TF.FilePolarity,Negative*
%FSLAX46Y46*%
G04 Gerber Fmt 4.6, Leading zero omitted, Abs format (unit mm)*
G04 Created by KiCad (PCBNEW (5.1.7)-1) date 2021-11-14 22:53:26*
%MOMM*%
%LPD*%
G01*
G04 APERTURE LIST*
%ADD10C,1.346200*%
%ADD11C,2.700000*%
%ADD12C,1.700000*%
%ADD13R,1.222000X1.222000*%
%ADD14C,1.222000*%
%ADD15R,0.500000X0.800000*%
%ADD16R,0.400000X0.800000*%
%ADD17R,0.400000X0.650000*%
G04 APERTURE END LIST*
D10*
X141375280Y-104478780D03*
X135624720Y-104478780D03*
X138500000Y-105187440D03*
X132355740Y-99744220D03*
X132713880Y-96805440D03*
X134395360Y-94367040D03*
X137019180Y-92990360D03*
X139980820Y-92990360D03*
X142604640Y-94367040D03*
X144286120Y-96805440D03*
X144644260Y-99744220D03*
X143592700Y-102515360D03*
X133407300Y-102515360D03*
X184380280Y-104483980D03*
X178629720Y-104483980D03*
X181505000Y-105192640D03*
X175360740Y-99749420D03*
X175718880Y-96810640D03*
X177400360Y-94372240D03*
X180024180Y-92995560D03*
X182985820Y-92995560D03*
X185609640Y-94372240D03*
X187291120Y-96810640D03*
X187649260Y-99749420D03*
X186597700Y-102520560D03*
X176412300Y-102520560D03*
X207380280Y-104483980D03*
X201629720Y-104483980D03*
X204505000Y-105192640D03*
X198360740Y-99749420D03*
X198718880Y-96810640D03*
X200400360Y-94372240D03*
X203024180Y-92995560D03*
X205985820Y-92995560D03*
X208609640Y-94372240D03*
X210291120Y-96810640D03*
X210649260Y-99749420D03*
X209597700Y-102520560D03*
X199412300Y-102520560D03*
X118375280Y-104478780D03*
X112624720Y-104478780D03*
X115500000Y-105187440D03*
X109355740Y-99744220D03*
X109713880Y-96805440D03*
X111395360Y-94367040D03*
X114019180Y-92990360D03*
X116980820Y-92990360D03*
X119604640Y-94367040D03*
X121286120Y-96805440D03*
X121644260Y-99744220D03*
X120592700Y-102515360D03*
X110407300Y-102515360D03*
D11*
X193000000Y-93000000D03*
X193000000Y-108000000D03*
X160000000Y-108000000D03*
X127000000Y-93000000D03*
X127000000Y-108000000D03*
D12*
X148570000Y-128330000D03*
X151110000Y-128330000D03*
X153650000Y-128330000D03*
X156190000Y-128330000D03*
X158730000Y-128330000D03*
X161270000Y-128330000D03*
X163810000Y-128330000D03*
X166350000Y-128330000D03*
X168890000Y-128330000D03*
X171430000Y-128330000D03*
X148570000Y-125790000D03*
X151110000Y-125790000D03*
X153650000Y-125790000D03*
X156190000Y-125790000D03*
X158730000Y-125790000D03*
X161270000Y-125790000D03*
X163810000Y-125790000D03*
X166350000Y-125790000D03*
X168890000Y-125790000D03*
G36*
G01*
X172030000Y-126640000D02*
X170830000Y-126640000D01*
G75*
G02*
X170580000Y-126390000I0J250000D01*
G01*
X170580000Y-125190000D01*
G75*
G02*
X170830000Y-124940000I250000J0D01*
G01*
X172030000Y-124940000D01*
G75*
G02*
X172280000Y-125190000I0J-250000D01*
G01*
X172280000Y-126390000D01*
G75*
G02*
X172030000Y-126640000I-250000J0D01*
G01*
G37*
D10*
X158730000Y-99000000D03*
X161270000Y-99000000D03*
D13*
X131000000Y-125540000D03*
D14*
X133540000Y-123000000D03*
X131000000Y-120460000D03*
D15*
X161200000Y-116900000D03*
D16*
X159600000Y-116900000D03*
X160400000Y-116900000D03*
D15*
X158800000Y-116900000D03*
D16*
X160400000Y-115100000D03*
D15*
X161200000Y-115100000D03*
D16*
X159600000Y-115100000D03*
D15*
X158800000Y-115100000D03*
D17*
X136650000Y-115950000D03*
X135350000Y-115950000D03*
X136000000Y-114050000D03*
X136000000Y-115950000D03*
X135350000Y-114050000D03*
X136650000Y-114050000D03*
X182350000Y-114050000D03*
X183650000Y-114050000D03*
X183000000Y-115950000D03*
X183000000Y-114050000D03*
X183650000Y-115950000D03*
X182350000Y-115950000D03*
M02*
