M48
; DRILL file {KiCad (5.1.7)-1} date 11/14/21 23:49:51
; FORMAT={-:-/ absolute / metric / decimal}
; #@! TF.CreationDate,2021-11-14T23:49:51-06:00
; #@! TF.GenerationSoftware,Kicad,Pcbnew,(5.1.7)-1
; #@! TF.FileFunction,Plated,1,2,PTH
FMAT,2
METRIC
T1C0.400
T2C0.714
T3C0.798
T4C0.838
T5C1.000
%
G90
G05
T1
X115.267Y-97.317
X125.549Y-105.3
X129.057Y-106.101
X130.04Y-104.499
X134.629Y-113.329
X135.48Y-106.101
X137.008Y-100.807
X139.689Y-112.987
X144.415Y-105.3
X156.017Y-102.73
X157.545Y-127.155
X158.8Y-113.961
X162.974Y-116.324
X164.007Y-101.753
X167.329Y-117.798
X173.631Y-127.972
X175.57Y-106.003
X176.121Y-129.388
X176.26Y-105.254
X176.432Y-101.011
X176.617Y-103.281
X182.931Y-96.974
X184.32Y-112.578
X197.1Y-98.61
X199.0Y-93.5
X207.61Y-99.12
T2
X131.0Y-120.46
X131.0Y-125.54
X133.54Y-123.0
T3
X177.007Y-99.754
X177.256Y-97.507
X177.756Y-101.753
X179.506Y-103.003
X180.507Y-94.507
X182.503Y-94.507
X183.504Y-103.003
X184.505Y-95.508
X185.254Y-101.753
X185.754Y-97.507
X186.003Y-99.754
X134.002Y-99.749
X134.251Y-97.501
X134.751Y-101.748
X136.501Y-102.998
X137.502Y-94.502
X139.498Y-94.502
X140.499Y-102.998
X141.5Y-95.502
X142.249Y-101.748
X142.749Y-97.501
X142.998Y-99.749
X200.007Y-99.754
X200.256Y-97.507
X200.756Y-101.753
X202.506Y-103.003
X203.507Y-94.507
X205.503Y-94.507
X206.504Y-103.003
X207.505Y-95.508
X208.254Y-101.753
X208.754Y-97.507
X209.003Y-99.754
X111.002Y-99.749
X111.251Y-97.501
X111.751Y-101.748
X113.501Y-102.998
X114.502Y-94.502
X116.498Y-94.502
X117.499Y-102.998
X118.5Y-95.502
X119.249Y-101.748
X119.749Y-97.501
X119.998Y-99.749
T4
X158.73Y-99.0
X161.27Y-99.0
T5
X148.57Y-125.79
X148.57Y-128.33
X151.11Y-125.79
X151.11Y-128.33
X153.65Y-125.79
X153.65Y-128.33
X156.19Y-125.79
X156.19Y-128.33
X158.73Y-125.79
X158.73Y-128.33
X161.27Y-125.79
X161.27Y-128.33
X163.81Y-125.79
X163.81Y-128.33
X166.35Y-125.79
X166.35Y-128.33
X168.89Y-125.79
X168.89Y-128.33
X171.43Y-125.79
X171.43Y-128.33
T0
M30
