G04 #@! TF.GenerationSoftware,KiCad,Pcbnew,(5.1.7)-1*
G04 #@! TF.CreationDate,2021-11-14T23:49:46-06:00*
G04 #@! TF.ProjectId,in8-2-socket,696e382d-322d-4736-9f63-6b65742e6b69,rev?*
G04 #@! TF.SameCoordinates,Original*
G04 #@! TF.FileFunction,Copper,L2,Bot*
G04 #@! TF.FilePolarity,Positive*
%FSLAX46Y46*%
G04 Gerber Fmt 4.6, Leading zero omitted, Abs format (unit mm)*
G04 Created by KiCad (PCBNEW (5.1.7)-1) date 2021-11-14 23:49:46*
%MOMM*%
%LPD*%
G01*
G04 APERTURE LIST*
G04 #@! TA.AperFunction,ComponentPad*
%ADD10C,1.305560*%
G04 #@! TD*
G04 #@! TA.AperFunction,WasherPad*
%ADD11C,1.305560*%
G04 #@! TD*
G04 #@! TA.AperFunction,ComponentPad*
%ADD12C,1.700000*%
G04 #@! TD*
G04 #@! TA.AperFunction,ComponentPad*
%ADD13C,1.346200*%
G04 #@! TD*
G04 #@! TA.AperFunction,ComponentPad*
%ADD14R,1.222000X1.222000*%
G04 #@! TD*
G04 #@! TA.AperFunction,ComponentPad*
%ADD15C,1.222000*%
G04 #@! TD*
G04 #@! TA.AperFunction,SMDPad,CuDef*
%ADD16R,0.500000X0.800000*%
G04 #@! TD*
G04 #@! TA.AperFunction,SMDPad,CuDef*
%ADD17R,0.400000X0.800000*%
G04 #@! TD*
G04 #@! TA.AperFunction,SMDPad,CuDef*
%ADD18R,0.400000X0.650000*%
G04 #@! TD*
G04 #@! TA.AperFunction,ViaPad*
%ADD19C,0.800000*%
G04 #@! TD*
G04 #@! TA.AperFunction,Conductor*
%ADD20C,0.250000*%
G04 #@! TD*
G04 APERTURE END LIST*
D10*
X202506020Y-103003160D03*
X200006660Y-99754500D03*
X200255580Y-97506600D03*
X203506780Y-94506860D03*
X205503220Y-94506860D03*
X207504740Y-95507620D03*
X208754420Y-97506600D03*
X209003340Y-99754500D03*
X208254040Y-101753480D03*
X206503980Y-103003160D03*
X200755960Y-101753480D03*
D11*
X201505260Y-95507620D03*
X112500260Y-95502420D03*
D10*
X111750960Y-101748280D03*
X117498980Y-102997960D03*
X119249040Y-101748280D03*
X119998340Y-99749300D03*
X119749420Y-97501400D03*
X118499740Y-95502420D03*
X116498220Y-94501660D03*
X114501780Y-94501660D03*
X111250580Y-97501400D03*
X111001660Y-99749300D03*
X113501020Y-102997960D03*
X136501020Y-102997960D03*
X134001660Y-99749300D03*
X134250580Y-97501400D03*
X137501780Y-94501660D03*
X139498220Y-94501660D03*
X141499740Y-95502420D03*
X142749420Y-97501400D03*
X142998340Y-99749300D03*
X142249040Y-101748280D03*
X140498980Y-102997960D03*
X134750960Y-101748280D03*
D11*
X135500260Y-95502420D03*
D10*
X179506020Y-103003160D03*
X177006660Y-99754500D03*
X177255580Y-97506600D03*
X180506780Y-94506860D03*
X182503220Y-94506860D03*
X184504740Y-95507620D03*
X185754420Y-97506600D03*
X186003340Y-99754500D03*
X185254040Y-101753480D03*
X183503980Y-103003160D03*
X177755960Y-101753480D03*
D11*
X178505260Y-95507620D03*
D12*
X148570000Y-128330000D03*
X151110000Y-128330000D03*
X153650000Y-128330000D03*
X156190000Y-128330000D03*
X158730000Y-128330000D03*
X161270000Y-128330000D03*
X163810000Y-128330000D03*
X166350000Y-128330000D03*
X168890000Y-128330000D03*
X171430000Y-128330000D03*
X148570000Y-125790000D03*
X151110000Y-125790000D03*
X153650000Y-125790000D03*
X156190000Y-125790000D03*
X158730000Y-125790000D03*
X161270000Y-125790000D03*
X163810000Y-125790000D03*
X166350000Y-125790000D03*
X168890000Y-125790000D03*
G04 #@! TA.AperFunction,ComponentPad*
G36*
G01*
X172030000Y-126640000D02*
X170830000Y-126640000D01*
G75*
G02*
X170580000Y-126390000I0J250000D01*
G01*
X170580000Y-125190000D01*
G75*
G02*
X170830000Y-124940000I250000J0D01*
G01*
X172030000Y-124940000D01*
G75*
G02*
X172280000Y-125190000I0J-250000D01*
G01*
X172280000Y-126390000D01*
G75*
G02*
X172030000Y-126640000I-250000J0D01*
G01*
G37*
G04 #@! TD.AperFunction*
D13*
X161270000Y-99000000D03*
X158730000Y-99000000D03*
D14*
X131000000Y-125540000D03*
D15*
X133540000Y-123000000D03*
X131000000Y-120460000D03*
D16*
X161200000Y-116900000D03*
D17*
X159600000Y-116900000D03*
X160400000Y-116900000D03*
D16*
X158800000Y-116900000D03*
D17*
X160400000Y-115100000D03*
D16*
X161200000Y-115100000D03*
D17*
X159600000Y-115100000D03*
D16*
X158800000Y-115100000D03*
D18*
X136650000Y-115950000D03*
X135350000Y-115950000D03*
X136000000Y-114050000D03*
X136000000Y-115950000D03*
X135350000Y-114050000D03*
X136650000Y-114050000D03*
X182350000Y-114050000D03*
X183650000Y-114050000D03*
X183000000Y-115950000D03*
X183000000Y-114050000D03*
X183650000Y-115950000D03*
X182350000Y-115950000D03*
D19*
X176617200Y-103281000D03*
X176431800Y-101011100D03*
X207610000Y-99120000D03*
X197100000Y-98610000D03*
X176259700Y-105254300D03*
X130040500Y-104498700D03*
X125548700Y-105299700D03*
X144414900Y-105299700D03*
X157544600Y-127154600D03*
X129056600Y-106100800D03*
X175569500Y-106002700D03*
X135479800Y-106100800D03*
X199000000Y-93500000D03*
X164006900Y-101753500D03*
X156017400Y-102730000D03*
X162974000Y-116324000D03*
X134629000Y-113329000D03*
X158800000Y-113961000D03*
X184320400Y-112578300D03*
X182930900Y-96973600D03*
X137008000Y-100807300D03*
X115266900Y-97316800D03*
X176120900Y-129388300D03*
X139689000Y-112987300D03*
X167328700Y-117798400D03*
X173631100Y-127971900D03*
D20*
X171430000Y-128330000D02*
X172066800Y-128330000D01*
X172066800Y-128330000D02*
X173150200Y-127246600D01*
X173150200Y-127246600D02*
X173719500Y-127246600D01*
X173719500Y-127246600D02*
X185045700Y-115920400D01*
X185045700Y-115920400D02*
X185045700Y-111709500D01*
X185045700Y-111709500D02*
X176617200Y-103281000D01*
X176617200Y-103281000D02*
X176617200Y-101196500D01*
X176617200Y-101196500D02*
X176431800Y-101011100D01*
X207610000Y-99120000D02*
X207100000Y-98610000D01*
X207100000Y-98610000D02*
X197100000Y-98610000D01*
X163810000Y-128330000D02*
X162550000Y-127070000D01*
X162550000Y-127070000D02*
X162550000Y-125060000D01*
X162550000Y-125060000D02*
X156790000Y-119300000D01*
X156790000Y-119300000D02*
X156790000Y-103920000D01*
X158730000Y-101980000D02*
X158730000Y-99000000D01*
X156790000Y-103920000D02*
X158730000Y-101980000D01*
X161270000Y-99000000D02*
X161270000Y-101940000D01*
X161270000Y-101940000D02*
X163560000Y-104230000D01*
X163560000Y-104230000D02*
X163560000Y-109420000D01*
X163560000Y-109420000D02*
X161530000Y-111450000D01*
X161530000Y-111450000D02*
X158930000Y-111450000D01*
X158930000Y-111450000D02*
X157510000Y-112870000D01*
X157510000Y-112870000D02*
X157510000Y-118400000D01*
X163810000Y-124700000D02*
X163810000Y-125790000D01*
X157510000Y-118400000D02*
X163810000Y-124700000D01*
X177006700Y-99754500D02*
X176576500Y-99754500D01*
X176576500Y-99754500D02*
X175667600Y-100663400D01*
X175667600Y-100663400D02*
X175667600Y-104662200D01*
X175667600Y-104662200D02*
X176259700Y-105254300D01*
X130040500Y-104498700D02*
X130040500Y-103710500D01*
X130040500Y-103710500D02*
X134001700Y-99749300D01*
X151110000Y-128330000D02*
X149840000Y-127060000D01*
X149840000Y-127060000D02*
X135557900Y-127060000D01*
X135557900Y-127060000D02*
X130040500Y-121542600D01*
X130040500Y-121542600D02*
X130040500Y-104498700D01*
X177006700Y-99754500D02*
X177984900Y-100732700D01*
X177984900Y-100732700D02*
X199028500Y-100732700D01*
X199028500Y-100732700D02*
X200006700Y-99754500D01*
X153650000Y-128330000D02*
X152380100Y-127060100D01*
X152380100Y-127060100D02*
X152380100Y-124652600D01*
X152380100Y-124652600D02*
X137744500Y-110017000D01*
X137744500Y-110017000D02*
X137744500Y-94744400D01*
X137744500Y-94744400D02*
X137501800Y-94501700D01*
X203506800Y-94506900D02*
X200970700Y-94506900D01*
X200970700Y-94506900D02*
X198949200Y-96528400D01*
X198949200Y-96528400D02*
X183600700Y-96528400D01*
X183600700Y-96528400D02*
X183276000Y-96203700D01*
X183276000Y-96203700D02*
X182203600Y-96203700D01*
X182203600Y-96203700D02*
X180506800Y-94506900D01*
X141499700Y-95502400D02*
X139047900Y-97954200D01*
X139047900Y-97954200D02*
X139047900Y-108966200D01*
X139047900Y-108966200D02*
X154920000Y-124838300D01*
X154920000Y-124838300D02*
X154920000Y-127060000D01*
X154920000Y-127060000D02*
X156190000Y-128330000D01*
X118499700Y-95502400D02*
X130822600Y-95502400D01*
X130822600Y-95502400D02*
X132816700Y-93508300D01*
X132816700Y-93508300D02*
X139910300Y-93508300D01*
X139910300Y-93508300D02*
X141499700Y-95097700D01*
X141499700Y-95097700D02*
X141499700Y-95502400D01*
X158730000Y-128330000D02*
X159945300Y-127114700D01*
X159945300Y-127114700D02*
X159945300Y-125339700D01*
X159945300Y-125339700D02*
X144414900Y-109809300D01*
X144414900Y-109809300D02*
X144414900Y-105299700D01*
X144414900Y-105299700D02*
X144414900Y-101165900D01*
X144414900Y-101165900D02*
X142998300Y-99749300D01*
X119998300Y-99749300D02*
X125548700Y-105299700D01*
X140499000Y-102998000D02*
X140499000Y-108320200D01*
X140499000Y-108320200D02*
X157544600Y-125365800D01*
X157544600Y-125365800D02*
X157544600Y-127154600D01*
X206504000Y-103003200D02*
X205525000Y-102024200D01*
X205525000Y-102024200D02*
X202056600Y-102024200D01*
X202056600Y-102024200D02*
X200856900Y-103223900D01*
X200856900Y-103223900D02*
X183724700Y-103223900D01*
X183724700Y-103223900D02*
X183504000Y-103003200D01*
X168714100Y-123074000D02*
X171430000Y-125790000D01*
X161200000Y-116900000D02*
X161200000Y-117263000D01*
X161200000Y-117263000D02*
X161892000Y-117954000D01*
X161892000Y-117954000D02*
X163594000Y-117954000D01*
X163594000Y-117954000D02*
X168714100Y-123074000D01*
X159600000Y-116900000D02*
X160400000Y-116900000D01*
X158800000Y-116900000D02*
X159600000Y-116900000D01*
X160400000Y-116900000D02*
X161200000Y-116900000D01*
X148570000Y-125790000D02*
X134981000Y-125790000D01*
X134981000Y-125790000D02*
X131000000Y-121809000D01*
X131000000Y-121809000D02*
X131000000Y-120460000D01*
X129056600Y-98492400D02*
X133259600Y-98492400D01*
X133259600Y-98492400D02*
X134250600Y-97501400D01*
X111250600Y-97501400D02*
X112241600Y-98492400D01*
X112241600Y-98492400D02*
X129056600Y-98492400D01*
X129056600Y-98492400D02*
X129056600Y-106100800D01*
X151110000Y-125790000D02*
X135479800Y-110159800D01*
X135479800Y-110159800D02*
X135479800Y-106100800D01*
X175217300Y-105650500D02*
X175569500Y-106002700D01*
X177255600Y-97506600D02*
X175217300Y-99544900D01*
X178429000Y-98680000D02*
X177255600Y-97506600D01*
X188150000Y-98680000D02*
X178429000Y-98680000D01*
X175217300Y-99544900D02*
X175217300Y-105650500D01*
X189323400Y-97506600D02*
X188150000Y-98680000D01*
X200255580Y-97506600D02*
X189323400Y-97506600D01*
X153650000Y-125790000D02*
X153650000Y-125285600D01*
X153650000Y-125285600D02*
X138597600Y-110233200D01*
X138597600Y-110233200D02*
X138597600Y-95402300D01*
X138597600Y-95402300D02*
X139498200Y-94501700D01*
X183010080Y-94000000D02*
X182503220Y-94506860D01*
X186500000Y-95500000D02*
X185000000Y-94000000D01*
X197000000Y-95500000D02*
X186500000Y-95500000D01*
X185000000Y-94000000D02*
X183010080Y-94000000D01*
X199000000Y-93500000D02*
X197000000Y-95500000D01*
X142749400Y-97501400D02*
X139498200Y-100752600D01*
X139498200Y-100752600D02*
X139498200Y-108080500D01*
X139498200Y-108080500D02*
X156190000Y-124772300D01*
X156190000Y-124772300D02*
X156190000Y-125790000D01*
X158730000Y-125790000D02*
X142249000Y-109309000D01*
X142249000Y-109309000D02*
X142249000Y-101748300D01*
X156017400Y-102730000D02*
X156017400Y-99628900D01*
X156017400Y-99628900D02*
X158180900Y-97465400D01*
X158180900Y-97465400D02*
X161154400Y-97465400D01*
X161154400Y-97465400D02*
X164006900Y-100317900D01*
X164006900Y-100317900D02*
X164006900Y-101753500D01*
X161270000Y-125790000D02*
X156017400Y-120537400D01*
X156017400Y-120537400D02*
X156017400Y-102730000D01*
X200756000Y-101753500D02*
X199735900Y-102773600D01*
X199735900Y-102773600D02*
X184875700Y-102773600D01*
X184875700Y-102773600D02*
X183855600Y-101753500D01*
X183855600Y-101753500D02*
X177756000Y-101753500D01*
X183650000Y-115950000D02*
X183650000Y-116635000D01*
X183650000Y-116635000D02*
X183215000Y-117069000D01*
X183215000Y-117069000D02*
X162528000Y-117069000D01*
X162528000Y-117069000D02*
X161284000Y-115825000D01*
X161284000Y-115825000D02*
X160400000Y-115825000D01*
X160400000Y-115825000D02*
X160400000Y-115100000D01*
X136000000Y-115950000D02*
X136000000Y-114050000D01*
X183000000Y-114050000D02*
X183000000Y-114700000D01*
X183000000Y-114700000D02*
X182277000Y-114700000D01*
X182277000Y-114700000D02*
X181824000Y-115153000D01*
X181824000Y-115153000D02*
X181824000Y-116324000D01*
X183000000Y-115950000D02*
X183000000Y-116600000D01*
X183000000Y-116600000D02*
X181960000Y-116600000D01*
X181960000Y-116600000D02*
X181824000Y-116465000D01*
X181824000Y-116465000D02*
X181824000Y-116324000D01*
X133540000Y-123000000D02*
X136000000Y-120540000D01*
X136000000Y-120540000D02*
X136000000Y-115950000D01*
X181824000Y-116324000D02*
X162974000Y-116324000D01*
X182350000Y-114050000D02*
X161525000Y-114050000D01*
X161525000Y-114050000D02*
X161200000Y-114375000D01*
X161200000Y-114375000D02*
X161200000Y-115100000D01*
X135350000Y-114050000D02*
X135350000Y-113400000D01*
X135350000Y-113400000D02*
X134700000Y-113400000D01*
X134700000Y-113400000D02*
X134629000Y-113329000D01*
X158800000Y-115100000D02*
X158800000Y-113961000D01*
X136650000Y-115950000D02*
X136650000Y-116600000D01*
X136650000Y-116600000D02*
X141047000Y-116600000D01*
X141047000Y-116600000D02*
X149905000Y-125458000D01*
X149905000Y-125458000D02*
X149905000Y-126251000D01*
X149905000Y-126251000D02*
X150714000Y-127060000D01*
X150714000Y-127060000D02*
X151506000Y-127060000D01*
X151506000Y-127060000D02*
X152380000Y-127934000D01*
X152380000Y-127934000D02*
X152380000Y-128818000D01*
X152380000Y-128818000D02*
X153129000Y-129566000D01*
X153129000Y-129566000D02*
X164298000Y-129566000D01*
X164298000Y-129566000D02*
X164985000Y-128879000D01*
X164985000Y-128879000D02*
X164985000Y-128030000D01*
X164985000Y-128030000D02*
X165956000Y-127060000D01*
X165956000Y-127060000D02*
X166759000Y-127060000D01*
X166759000Y-127060000D02*
X167530000Y-126289000D01*
X167530000Y-126289000D02*
X167530000Y-125297000D01*
X167530000Y-125297000D02*
X160936000Y-118703000D01*
X160936000Y-118703000D02*
X159215000Y-118703000D01*
X159215000Y-118703000D02*
X158218000Y-117706000D01*
X158218000Y-117706000D02*
X158218000Y-116343000D01*
X158218000Y-116343000D02*
X158736000Y-115825000D01*
X158736000Y-115825000D02*
X159600000Y-115825000D01*
X159600000Y-115825000D02*
X159600000Y-115100000D01*
X182350000Y-115950000D02*
X182350000Y-115299700D01*
X184320400Y-112578300D02*
X184320400Y-114370400D01*
X184320400Y-114370400D02*
X183391100Y-115299700D01*
X183391100Y-115299700D02*
X182350000Y-115299700D01*
X182930900Y-96973600D02*
X182930900Y-96973500D01*
X182930900Y-96973500D02*
X178502900Y-96973500D01*
X178502900Y-96973500D02*
X178053000Y-96523600D01*
X178053000Y-96523600D02*
X176833200Y-96523600D01*
X176833200Y-96523600D02*
X174767000Y-98589800D01*
X174767000Y-98589800D02*
X174767000Y-106286600D01*
X174767000Y-106286600D02*
X181880100Y-113399700D01*
X181880100Y-113399700D02*
X183650000Y-113399700D01*
X183650000Y-114050000D02*
X183650000Y-113399700D01*
X136650000Y-113399700D02*
X134740000Y-111489700D01*
X134740000Y-111489700D02*
X134740000Y-103219400D01*
X134740000Y-103219400D02*
X137008000Y-100951400D01*
X137008000Y-100951400D02*
X137008000Y-100807300D01*
X136650000Y-114050000D02*
X136650000Y-113399700D01*
X135350000Y-115950000D02*
X135350000Y-115299700D01*
X135350000Y-115299700D02*
X133767100Y-113716800D01*
X133767100Y-113716800D02*
X133767100Y-101343600D01*
X133767100Y-101343600D02*
X134340600Y-100770100D01*
X134340600Y-100770100D02*
X134440000Y-100770100D01*
X134440000Y-100770100D02*
X135262000Y-99948100D01*
X135262000Y-99948100D02*
X135262000Y-97107900D01*
X135262000Y-97107900D02*
X134634700Y-96480600D01*
X134634700Y-96480600D02*
X116103100Y-96480600D01*
X116103100Y-96480600D02*
X115266900Y-97316800D01*
X202506000Y-103003200D02*
X176120900Y-129388300D01*
X168890000Y-128330000D02*
X170198500Y-127021500D01*
X170198500Y-127021500D02*
X172218100Y-127021500D01*
X172218100Y-127021500D02*
X172640900Y-126598700D01*
X172640900Y-126598700D02*
X172640900Y-123110600D01*
X172640900Y-123110600D02*
X167328700Y-117798400D01*
X139689000Y-112987300D02*
X136501000Y-109799300D01*
X136501000Y-109799300D02*
X136501000Y-102998000D01*
X173631100Y-127971900D02*
X185496000Y-116107000D01*
X185496000Y-116107000D02*
X185496000Y-108993200D01*
X185496000Y-108993200D02*
X179506000Y-103003200D01*
M02*
