G04 #@! TF.GenerationSoftware,KiCad,Pcbnew,(5.1.7)-1*
G04 #@! TF.CreationDate,2021-11-14T23:49:46-06:00*
G04 #@! TF.ProjectId,in8-2-socket,696e382d-322d-4736-9f63-6b65742e6b69,rev?*
G04 #@! TF.SameCoordinates,Original*
G04 #@! TF.FileFunction,Copper,L1,Top*
G04 #@! TF.FilePolarity,Positive*
%FSLAX46Y46*%
G04 Gerber Fmt 4.6, Leading zero omitted, Abs format (unit mm)*
G04 Created by KiCad (PCBNEW (5.1.7)-1) date 2021-11-14 23:49:46*
%MOMM*%
%LPD*%
G01*
G04 APERTURE LIST*
G04 #@! TA.AperFunction,ComponentPad*
%ADD10C,1.305560*%
G04 #@! TD*
G04 #@! TA.AperFunction,WasherPad*
%ADD11C,1.305560*%
G04 #@! TD*
G04 #@! TA.AperFunction,ComponentPad*
%ADD12C,1.700000*%
G04 #@! TD*
G04 #@! TA.AperFunction,ComponentPad*
%ADD13C,1.346200*%
G04 #@! TD*
G04 #@! TA.AperFunction,SMDPad,CuDef*
%ADD14R,1.600200X2.387600*%
G04 #@! TD*
G04 #@! TA.AperFunction,ComponentPad*
%ADD15R,1.222000X1.222000*%
G04 #@! TD*
G04 #@! TA.AperFunction,ComponentPad*
%ADD16C,1.222000*%
G04 #@! TD*
G04 #@! TA.AperFunction,ViaPad*
%ADD17C,0.800000*%
G04 #@! TD*
G04 #@! TA.AperFunction,Conductor*
%ADD18C,0.250000*%
G04 #@! TD*
G04 APERTURE END LIST*
D10*
X202506020Y-103003160D03*
X200006660Y-99754500D03*
X200255580Y-97506600D03*
X203506780Y-94506860D03*
X205503220Y-94506860D03*
X207504740Y-95507620D03*
X208754420Y-97506600D03*
X209003340Y-99754500D03*
X208254040Y-101753480D03*
X206503980Y-103003160D03*
X200755960Y-101753480D03*
D11*
X201505260Y-95507620D03*
X112500260Y-95502420D03*
D10*
X111750960Y-101748280D03*
X117498980Y-102997960D03*
X119249040Y-101748280D03*
X119998340Y-99749300D03*
X119749420Y-97501400D03*
X118499740Y-95502420D03*
X116498220Y-94501660D03*
X114501780Y-94501660D03*
X111250580Y-97501400D03*
X111001660Y-99749300D03*
X113501020Y-102997960D03*
X136501020Y-102997960D03*
X134001660Y-99749300D03*
X134250580Y-97501400D03*
X137501780Y-94501660D03*
X139498220Y-94501660D03*
X141499740Y-95502420D03*
X142749420Y-97501400D03*
X142998340Y-99749300D03*
X142249040Y-101748280D03*
X140498980Y-102997960D03*
X134750960Y-101748280D03*
D11*
X135500260Y-95502420D03*
D10*
X179506020Y-103003160D03*
X177006660Y-99754500D03*
X177255580Y-97506600D03*
X180506780Y-94506860D03*
X182503220Y-94506860D03*
X184504740Y-95507620D03*
X185754420Y-97506600D03*
X186003340Y-99754500D03*
X185254040Y-101753480D03*
X183503980Y-103003160D03*
X177755960Y-101753480D03*
D11*
X178505260Y-95507620D03*
D12*
X148570000Y-128330000D03*
X151110000Y-128330000D03*
X153650000Y-128330000D03*
X156190000Y-128330000D03*
X158730000Y-128330000D03*
X161270000Y-128330000D03*
X163810000Y-128330000D03*
X166350000Y-128330000D03*
X168890000Y-128330000D03*
X171430000Y-128330000D03*
X148570000Y-125790000D03*
X151110000Y-125790000D03*
X153650000Y-125790000D03*
X156190000Y-125790000D03*
X158730000Y-125790000D03*
X161270000Y-125790000D03*
X163810000Y-125790000D03*
X166350000Y-125790000D03*
X168890000Y-125790000D03*
G04 #@! TA.AperFunction,ComponentPad*
G36*
G01*
X172030000Y-126640000D02*
X170830000Y-126640000D01*
G75*
G02*
X170580000Y-126390000I0J250000D01*
G01*
X170580000Y-125190000D01*
G75*
G02*
X170830000Y-124940000I250000J0D01*
G01*
X172030000Y-124940000D01*
G75*
G02*
X172280000Y-125190000I0J-250000D01*
G01*
X172280000Y-126390000D01*
G75*
G02*
X172030000Y-126640000I-250000J0D01*
G01*
G37*
G04 #@! TD.AperFunction*
D13*
X161270000Y-99000000D03*
X158730000Y-99000000D03*
D14*
X114080000Y-98994800D03*
X116930000Y-98994800D03*
X137080000Y-98994800D03*
X139930000Y-98994800D03*
X180075000Y-99000000D03*
X182925000Y-99000000D03*
X203075000Y-99000000D03*
X205815000Y-99000000D03*
D15*
X131000000Y-125540000D03*
D16*
X133540000Y-123000000D03*
X131000000Y-120460000D03*
D17*
X176617200Y-103281000D03*
X176431800Y-101011100D03*
X207610000Y-99120000D03*
X197100000Y-98610000D03*
X176259700Y-105254300D03*
X130040500Y-104498700D03*
X125548700Y-105299700D03*
X144414900Y-105299700D03*
X157544600Y-127154600D03*
X129056600Y-106100800D03*
X175569500Y-106002700D03*
X135479800Y-106100800D03*
X199000000Y-93500000D03*
X164006900Y-101753500D03*
X156017400Y-102730000D03*
X162974000Y-116324000D03*
X134629000Y-113329000D03*
X158800000Y-113961000D03*
X184320400Y-112578300D03*
X182930900Y-96973600D03*
X137008000Y-100807300D03*
X115266900Y-97316800D03*
X176120900Y-129388300D03*
X139689000Y-112987300D03*
X167328700Y-117798400D03*
X173631100Y-127971900D03*
D18*
X182362300Y-99000000D02*
X182925000Y-99000000D01*
X116930000Y-98994800D02*
X118055400Y-98994800D01*
X140492700Y-98994800D02*
X138480100Y-96982200D01*
X138480100Y-96982200D02*
X135950600Y-96982200D01*
X135950600Y-96982200D02*
X135228800Y-97704000D01*
X135228800Y-97704000D02*
X135228800Y-97965100D01*
X135228800Y-97965100D02*
X134501800Y-98692100D01*
X134501800Y-98692100D02*
X118358100Y-98692100D01*
X118358100Y-98692100D02*
X118055400Y-98994800D01*
X140492700Y-98994800D02*
X141055400Y-98994800D01*
X139930000Y-98994800D02*
X140492700Y-98994800D01*
X176617200Y-103281000D02*
X159811400Y-103281000D01*
X159811400Y-103281000D02*
X157300500Y-100770100D01*
X157300500Y-100770100D02*
X142621200Y-100770100D01*
X142621200Y-100770100D02*
X141055400Y-99204300D01*
X141055400Y-99204300D02*
X141055400Y-98994800D01*
X182362300Y-99000000D02*
X181799600Y-99000000D01*
X176431800Y-101011100D02*
X176672800Y-100770100D01*
X176672800Y-100770100D02*
X180768000Y-100770100D01*
X180768000Y-100770100D02*
X181799600Y-99738500D01*
X181799600Y-99738500D02*
X181799600Y-99000000D01*
X207490000Y-99000000D02*
X207610000Y-99120000D01*
X205815000Y-99000000D02*
X207490000Y-99000000D01*
X183315000Y-98610000D02*
X182925000Y-99000000D01*
X197100000Y-98610000D02*
X183315000Y-98610000D01*
X131000000Y-125540000D02*
X131936000Y-125540000D01*
X131936000Y-125540000D02*
X134726000Y-128330000D01*
X134726000Y-128330000D02*
X148570000Y-128330000D01*
X130040500Y-104498700D02*
X144689900Y-104498700D01*
X144689900Y-104498700D02*
X145445500Y-105254300D01*
X145445500Y-105254300D02*
X176259700Y-105254300D01*
X111001700Y-99749300D02*
X112022500Y-100770100D01*
X112022500Y-100770100D02*
X132980900Y-100770100D01*
X132980900Y-100770100D02*
X134001700Y-99749300D01*
X137501800Y-94501700D02*
X133723400Y-94501700D01*
X133723400Y-94501700D02*
X131701900Y-96523200D01*
X131701900Y-96523200D02*
X116523300Y-96523200D01*
X116523300Y-96523200D02*
X114501800Y-94501700D01*
X137501800Y-94501700D02*
X138496800Y-95496700D01*
X138496800Y-95496700D02*
X140114000Y-95496700D01*
X140114000Y-95496700D02*
X141620000Y-93990700D01*
X141620000Y-93990700D02*
X179990600Y-93990700D01*
X179990600Y-93990700D02*
X180506800Y-94506900D01*
X141499700Y-95502400D02*
X142506200Y-94495900D01*
X142506200Y-94495900D02*
X178915900Y-94495900D01*
X178915900Y-94495900D02*
X179927600Y-95507600D01*
X179927600Y-95507600D02*
X184504700Y-95507600D01*
X184504700Y-95507600D02*
X197861700Y-95507600D01*
X197861700Y-95507600D02*
X198873400Y-94495900D01*
X198873400Y-94495900D02*
X201915900Y-94495900D01*
X201915900Y-94495900D02*
X202927600Y-95507600D01*
X202927600Y-95507600D02*
X207504700Y-95507600D01*
X144414900Y-105299700D02*
X125548700Y-105299700D01*
X186003300Y-100732700D02*
X184769000Y-100732700D01*
X184769000Y-100732700D02*
X184035600Y-101466100D01*
X184035600Y-101466100D02*
X179497500Y-101466100D01*
X179497500Y-101466100D02*
X178229200Y-102734400D01*
X178229200Y-102734400D02*
X177135500Y-102734400D01*
X177135500Y-102734400D02*
X176949000Y-102547900D01*
X176949000Y-102547900D02*
X160210900Y-102547900D01*
X160210900Y-102547900D02*
X157412300Y-99749300D01*
X157412300Y-99749300D02*
X142998300Y-99749300D01*
X209003300Y-99754500D02*
X208025100Y-100732700D01*
X208025100Y-100732700D02*
X186003300Y-100732700D01*
X186003300Y-99754500D02*
X186003300Y-100732700D01*
X183504000Y-103003200D02*
X182008500Y-104498700D01*
X182008500Y-104498700D02*
X145552100Y-104498700D01*
X145552100Y-104498700D02*
X145101800Y-104048400D01*
X145101800Y-104048400D02*
X141549400Y-104048400D01*
X141549400Y-104048400D02*
X140499000Y-102998000D01*
X140499000Y-102998000D02*
X139471200Y-104025800D01*
X139471200Y-104025800D02*
X130697000Y-104025800D01*
X130697000Y-104025800D02*
X130280300Y-103609100D01*
X130280300Y-103609100D02*
X118110100Y-103609100D01*
X118110100Y-103609100D02*
X117499000Y-102998000D01*
X161270000Y-128330000D02*
X160094600Y-127154600D01*
X160094600Y-127154600D02*
X157544600Y-127154600D01*
X135479800Y-106100800D02*
X175471400Y-106100800D01*
X175471400Y-106100800D02*
X175569500Y-106002700D01*
X135479800Y-106100800D02*
X129056600Y-106100800D01*
X182503200Y-94506900D02*
X181483000Y-93486700D01*
X181483000Y-93486700D02*
X139498200Y-93486700D01*
X139498200Y-93486700D02*
X139498200Y-94501700D01*
X204496360Y-93500000D02*
X199000000Y-93500000D01*
X205503220Y-94506860D02*
X204496360Y-93500000D01*
X130825000Y-95500000D02*
X132838300Y-93486700D01*
X132838300Y-93486700D02*
X139498200Y-93486700D01*
X123000000Y-95500000D02*
X130825000Y-95500000D01*
X122001700Y-94501700D02*
X123000000Y-95500000D01*
X116498200Y-94501700D02*
X122001700Y-94501700D01*
X185754400Y-97506600D02*
X184578900Y-97506600D01*
X184578900Y-97506600D02*
X183276000Y-96203700D01*
X183276000Y-96203700D02*
X182675100Y-96203700D01*
X182675100Y-96203700D02*
X182355600Y-96523200D01*
X182355600Y-96523200D02*
X143727600Y-96523200D01*
X143727600Y-96523200D02*
X142749400Y-97501400D01*
X142749400Y-97501400D02*
X141728500Y-96480500D01*
X141728500Y-96480500D02*
X133139000Y-96480500D01*
X133139000Y-96480500D02*
X132118100Y-97501400D01*
X132118100Y-97501400D02*
X119749400Y-97501400D01*
X185754400Y-97506600D02*
X186775200Y-96485800D01*
X186775200Y-96485800D02*
X207733600Y-96485800D01*
X207733600Y-96485800D02*
X208754400Y-97506600D01*
X185254000Y-102001900D02*
X181890600Y-102001900D01*
X181890600Y-102001900D02*
X179844100Y-104048400D01*
X179844100Y-104048400D02*
X159329000Y-104048400D01*
X159329000Y-104048400D02*
X157028900Y-101748300D01*
X157028900Y-101748300D02*
X142249000Y-101748300D01*
X208254000Y-101753500D02*
X202177800Y-101753500D01*
X202177800Y-101753500D02*
X201156900Y-102774400D01*
X201156900Y-102774400D02*
X186026500Y-102774400D01*
X186026500Y-102774400D02*
X185254000Y-102001900D01*
X185254000Y-102001900D02*
X185254000Y-101753500D01*
X142249000Y-101748300D02*
X141014600Y-100513900D01*
X141014600Y-100513900D02*
X138995100Y-100513900D01*
X138995100Y-100513900D02*
X138354300Y-99873100D01*
X138354300Y-99873100D02*
X138354300Y-97806000D01*
X138354300Y-97806000D02*
X137983000Y-97434700D01*
X137983000Y-97434700D02*
X136179600Y-97434700D01*
X136179600Y-97434700D02*
X135910700Y-97703600D01*
X135910700Y-97703600D02*
X135910700Y-99337800D01*
X135910700Y-99337800D02*
X134521000Y-100727500D01*
X134521000Y-100727500D02*
X134388500Y-100727500D01*
X134388500Y-100727500D02*
X133367700Y-101748300D01*
X133367700Y-101748300D02*
X119249000Y-101748300D01*
X164006900Y-101753500D02*
X177756000Y-101753500D01*
X134751000Y-101748300D02*
X140647800Y-101748300D01*
X140647800Y-101748300D02*
X141629500Y-102730000D01*
X141629500Y-102730000D02*
X156017400Y-102730000D01*
X111751000Y-101748300D02*
X117647800Y-101748300D01*
X117647800Y-101748300D02*
X118636500Y-102737000D01*
X118636500Y-102737000D02*
X133762300Y-102737000D01*
X133762300Y-102737000D02*
X134751000Y-101748300D01*
X133540000Y-123000000D02*
X156298000Y-123000000D01*
X156298000Y-123000000D02*
X162974000Y-116324000D01*
X134629000Y-113329000D02*
X135261000Y-113961000D01*
X135261000Y-113961000D02*
X158800000Y-113961000D01*
X203075000Y-99000000D02*
X204200400Y-99000000D01*
X204200400Y-99000000D02*
X204200400Y-98155900D01*
X204200400Y-98155900D02*
X204895300Y-97461000D01*
X204895300Y-97461000D02*
X207226600Y-97461000D01*
X207226600Y-97461000D02*
X208329300Y-98563700D01*
X208329300Y-98563700D02*
X209262900Y-98563700D01*
X209262900Y-98563700D02*
X209988600Y-99289400D01*
X209988600Y-99289400D02*
X209988600Y-101433900D01*
X209988600Y-101433900D02*
X198844200Y-112578300D01*
X198844200Y-112578300D02*
X184320400Y-112578300D01*
X182930900Y-96973600D02*
X182412500Y-96973600D01*
X182412500Y-96973600D02*
X181200400Y-98185700D01*
X181200400Y-98185700D02*
X181200400Y-99000000D01*
X180075000Y-99000000D02*
X181200400Y-99000000D01*
X137080000Y-98994800D02*
X137080000Y-100735300D01*
X137080000Y-100735300D02*
X137008000Y-100807300D01*
X115266900Y-97316800D02*
X115108000Y-97475700D01*
X115108000Y-97475700D02*
X114080000Y-97475700D01*
X114080000Y-98994800D02*
X114080000Y-97475700D01*
X166350000Y-128330000D02*
X167574100Y-129554100D01*
X167574100Y-129554100D02*
X175955100Y-129554100D01*
X175955100Y-129554100D02*
X176120900Y-129388300D01*
X167328700Y-117798400D02*
X162517600Y-112987300D01*
X162517600Y-112987300D02*
X139689000Y-112987300D01*
X166350000Y-125790000D02*
X167714600Y-127154600D01*
X167714600Y-127154600D02*
X172813800Y-127154600D01*
X172813800Y-127154600D02*
X173631100Y-127971900D01*
X168890000Y-125790000D02*
X168890000Y-121142000D01*
X168890000Y-121142000D02*
X163056400Y-115308400D01*
X163056400Y-115308400D02*
X125811400Y-115308400D01*
X125811400Y-115308400D02*
X113501000Y-102998000D01*
M02*
