G04 #@! TF.GenerationSoftware,KiCad,Pcbnew,(5.1.7)-1*
G04 #@! TF.CreationDate,2021-11-14T21:58:53-06:00*
G04 #@! TF.ProjectId,PIC-nixie,5049432d-6e69-4786-9965-2e6b69636164,rev?*
G04 #@! TF.SameCoordinates,Original*
G04 #@! TF.FileFunction,Legend,Top*
G04 #@! TF.FilePolarity,Positive*
%FSLAX46Y46*%
G04 Gerber Fmt 4.6, Leading zero omitted, Abs format (unit mm)*
G04 Created by KiCad (PCBNEW (5.1.7)-1) date 2021-11-14 21:58:53*
%MOMM*%
%LPD*%
G01*
G04 APERTURE LIST*
%ADD10C,0.120000*%
%ADD11C,0.127000*%
%ADD12C,0.250000*%
%ADD13C,0.150000*%
%ADD14C,0.200000*%
%ADD15C,2.301600*%
%ADD16C,1.701800*%
%ADD17O,2.101600X1.101600*%
%ADD18O,1.701600X1.701600*%
%ADD19C,1.801600*%
%ADD20C,1.901600*%
G04 APERTURE END LIST*
D10*
X151800000Y-96940000D02*
X151800000Y-97940000D01*
X155160000Y-96940000D02*
X155160000Y-97940000D01*
X172301700Y-122741200D02*
X193358300Y-122741200D01*
X172301700Y-113190800D02*
X193358300Y-113190800D01*
X172301700Y-122741200D02*
X172301700Y-113190800D01*
X193358300Y-122741200D02*
X193358300Y-113190800D01*
X130452500Y-107275200D02*
X128547500Y-107275200D01*
X128547500Y-108448639D02*
X128547500Y-109251361D01*
X128547500Y-110424800D02*
X130452500Y-110424800D01*
D11*
X175550000Y-86034000D02*
X172750000Y-86034000D01*
X172750000Y-86034000D02*
X172750000Y-91034000D01*
X172750000Y-91034000D02*
X175550000Y-91034000D01*
X181950000Y-91034000D02*
X184750000Y-91034000D01*
X184750000Y-91034000D02*
X184750000Y-86034000D01*
X184750000Y-86034000D02*
X181950000Y-86034000D01*
D12*
X176000000Y-85534000D02*
G75*
G03*
X176000000Y-85534000I-50000J0D01*
G01*
D10*
X123190000Y-122725000D02*
X123190000Y-112445000D01*
X102630000Y-122725000D02*
X123190000Y-122725000D01*
X102630000Y-112445000D02*
X102630000Y-122725000D01*
X123190000Y-112445000D02*
X102630000Y-112445000D01*
X123130000Y-120235000D02*
X123130000Y-118585000D01*
X102690000Y-120235000D02*
X123130000Y-120235000D01*
X102690000Y-114935000D02*
X102690000Y-120235000D01*
X123130000Y-114935000D02*
X102690000Y-114935000D01*
X123130000Y-116585000D02*
X123130000Y-114935000D01*
X123130000Y-118585000D02*
G75*
G02*
X123130000Y-116585000I0J1000000D01*
G01*
X115925000Y-102245000D02*
X112925000Y-102245000D01*
X115925000Y-104445000D02*
X113725000Y-104445000D01*
X121600000Y-105371000D02*
X121600000Y-106671000D01*
X119800000Y-106921000D02*
X119800000Y-105371000D01*
D13*
X123215000Y-107739000D02*
X122115000Y-107739000D01*
X123215000Y-108939000D02*
X123215000Y-107739000D01*
D10*
X123153500Y-105941224D02*
X123153500Y-105431776D01*
X122108500Y-105941224D02*
X122108500Y-105431776D01*
X124677500Y-105941224D02*
X124677500Y-105431776D01*
X123632500Y-105941224D02*
X123632500Y-105431776D01*
X115389267Y-105891000D02*
X115046733Y-105891000D01*
X115389267Y-104871000D02*
X115046733Y-104871000D01*
X124665000Y-109169267D02*
X124665000Y-108826733D01*
X123645000Y-109169267D02*
X123645000Y-108826733D01*
X120060733Y-104569000D02*
X120403267Y-104569000D01*
X120060733Y-103549000D02*
X120403267Y-103549000D01*
X119331000Y-108943267D02*
X119331000Y-108600733D01*
X118311000Y-108943267D02*
X118311000Y-108600733D01*
X101390000Y-106988000D02*
X101390000Y-108938000D01*
X101390000Y-106988000D02*
X101390000Y-105038000D01*
X110260000Y-106988000D02*
X110260000Y-108938000D01*
X110260000Y-106988000D02*
X110260000Y-103538000D01*
X124105000Y-95010000D02*
X124105000Y-93360000D01*
X124105000Y-93360000D02*
X101125000Y-93360000D01*
X101125000Y-93360000D02*
X101125000Y-98660000D01*
X101125000Y-98660000D02*
X124105000Y-98660000D01*
X124105000Y-98660000D02*
X124105000Y-97010000D01*
X124165000Y-90870000D02*
X101065000Y-90870000D01*
X101065000Y-90870000D02*
X101065000Y-101150000D01*
X101065000Y-101150000D02*
X124165000Y-101150000D01*
X124165000Y-101150000D02*
X124165000Y-90870000D01*
X124105000Y-97010000D02*
G75*
G02*
X124105000Y-95010000I0J1000000D01*
G01*
D14*
X130052000Y-87000000D02*
G75*
G03*
X130052000Y-87000000I-100000J0D01*
G01*
D11*
X133202000Y-93000000D02*
X133202000Y-87000000D01*
X139202000Y-93000000D02*
X133202000Y-93000000D01*
X139202000Y-87000000D02*
X139202000Y-93000000D01*
X133202000Y-87000000D02*
X139202000Y-87000000D01*
D14*
X143492000Y-87000000D02*
G75*
G03*
X143492000Y-87000000I-100000J0D01*
G01*
D11*
X146642000Y-93000000D02*
X146642000Y-87000000D01*
X152642000Y-93000000D02*
X146642000Y-93000000D01*
X152642000Y-87000000D02*
X152642000Y-93000000D01*
X146642000Y-87000000D02*
X152642000Y-87000000D01*
D14*
X156850000Y-87000000D02*
G75*
G03*
X156850000Y-87000000I-100000J0D01*
G01*
D11*
X160000000Y-93000000D02*
X160000000Y-87000000D01*
X166000000Y-93000000D02*
X160000000Y-93000000D01*
X166000000Y-87000000D02*
X166000000Y-93000000D01*
X160000000Y-87000000D02*
X166000000Y-87000000D01*
D10*
X162618000Y-111492000D02*
X162618000Y-108692000D01*
X144668000Y-111492000D02*
X165328000Y-111492000D01*
X144668000Y-108692000D02*
X144668000Y-111492000D01*
X165328000Y-108692000D02*
X144668000Y-108692000D01*
X165328000Y-111492000D02*
X165328000Y-108692000D01*
X164474000Y-116090000D02*
X165474000Y-116090000D01*
X164474000Y-112730000D02*
X165474000Y-112730000D01*
X127625000Y-118420000D02*
X128625000Y-118420000D01*
X127625000Y-116480000D02*
X128625000Y-116480000D01*
X146800000Y-97950000D02*
X146800000Y-96950000D01*
X143440000Y-97950000D02*
X143440000Y-96950000D01*
D13*
X188780000Y-112378000D02*
X188780000Y-94090000D01*
X171508000Y-112378000D02*
X188780000Y-112378000D01*
X171508000Y-94090000D02*
X171508000Y-112378000D01*
X188780000Y-94090000D02*
X171508000Y-94090000D01*
D10*
X126115000Y-109071267D02*
X126115000Y-108728733D01*
X127135000Y-109071267D02*
X127135000Y-108728733D01*
X129796267Y-106810000D02*
X129453733Y-106810000D01*
X129796267Y-105790000D02*
X129453733Y-105790000D01*
D13*
X156722380Y-97165238D02*
X156246190Y-97498571D01*
X156722380Y-97736666D02*
X155722380Y-97736666D01*
X155722380Y-97355714D01*
X155770000Y-97260476D01*
X155817619Y-97212857D01*
X155912857Y-97165238D01*
X156055714Y-97165238D01*
X156150952Y-97212857D01*
X156198571Y-97260476D01*
X156246190Y-97355714D01*
X156246190Y-97736666D01*
X156436666Y-96784285D02*
X156436666Y-96308095D01*
X156722380Y-96879523D02*
X155722380Y-96546190D01*
X156722380Y-96212857D01*
X155722380Y-95974761D02*
X155722380Y-95308095D01*
X156722380Y-95736666D01*
X195132142Y-119317857D02*
X195179761Y-119365476D01*
X195227380Y-119508333D01*
X195227380Y-119603571D01*
X195179761Y-119746428D01*
X195084523Y-119841666D01*
X194989285Y-119889285D01*
X194798809Y-119936904D01*
X194655952Y-119936904D01*
X194465476Y-119889285D01*
X194370238Y-119841666D01*
X194275000Y-119746428D01*
X194227380Y-119603571D01*
X194227380Y-119508333D01*
X194275000Y-119365476D01*
X194322619Y-119317857D01*
X195227380Y-118365476D02*
X195227380Y-118936904D01*
X195227380Y-118651190D02*
X194227380Y-118651190D01*
X194370238Y-118746428D01*
X194465476Y-118841666D01*
X194513095Y-118936904D01*
X195227380Y-117413095D02*
X195227380Y-117984523D01*
X195227380Y-117698809D02*
X194227380Y-117698809D01*
X194370238Y-117794047D01*
X194465476Y-117889285D01*
X194513095Y-117984523D01*
X191580000Y-117418380D02*
X191580000Y-117656476D01*
X191341904Y-117561238D02*
X191580000Y-117656476D01*
X191818095Y-117561238D01*
X191437142Y-117846952D02*
X191580000Y-117656476D01*
X191722857Y-117846952D01*
X131857714Y-109480571D02*
X132474571Y-109480571D01*
X132547142Y-109444285D01*
X132583428Y-109408000D01*
X132619714Y-109335428D01*
X132619714Y-109190285D01*
X132583428Y-109117714D01*
X132547142Y-109081428D01*
X132474571Y-109045142D01*
X131857714Y-109045142D01*
X131857714Y-108355714D02*
X131857714Y-108500857D01*
X131894000Y-108573428D01*
X131930285Y-108609714D01*
X132039142Y-108682285D01*
X132184285Y-108718571D01*
X132474571Y-108718571D01*
X132547142Y-108682285D01*
X132583428Y-108646000D01*
X132619714Y-108573428D01*
X132619714Y-108428285D01*
X132583428Y-108355714D01*
X132547142Y-108319428D01*
X132474571Y-108283142D01*
X132293142Y-108283142D01*
X132220571Y-108319428D01*
X132184285Y-108355714D01*
X132148000Y-108428285D01*
X132148000Y-108573428D01*
X132184285Y-108646000D01*
X132220571Y-108682285D01*
X132293142Y-108718571D01*
X185958333Y-87867333D02*
X185958333Y-88867333D01*
X185891666Y-89067333D01*
X185758333Y-89200666D01*
X185558333Y-89267333D01*
X185425000Y-89267333D01*
X187358333Y-89267333D02*
X186558333Y-89267333D01*
X186958333Y-89267333D02*
X186958333Y-87867333D01*
X186825000Y-88067333D01*
X186691666Y-88200666D01*
X186558333Y-88267333D01*
X123582380Y-118346904D02*
X124391904Y-118346904D01*
X124487142Y-118299285D01*
X124534761Y-118251666D01*
X124582380Y-118156428D01*
X124582380Y-117965952D01*
X124534761Y-117870714D01*
X124487142Y-117823095D01*
X124391904Y-117775476D01*
X123582380Y-117775476D01*
X123677619Y-117346904D02*
X123630000Y-117299285D01*
X123582380Y-117204047D01*
X123582380Y-116965952D01*
X123630000Y-116870714D01*
X123677619Y-116823095D01*
X123772857Y-116775476D01*
X123868095Y-116775476D01*
X124010952Y-116823095D01*
X124582380Y-117394523D01*
X124582380Y-116775476D01*
X110762380Y-104101904D02*
X111571904Y-104101904D01*
X111667142Y-104054285D01*
X111714761Y-104006666D01*
X111762380Y-103911428D01*
X111762380Y-103720952D01*
X111714761Y-103625714D01*
X111667142Y-103578095D01*
X111571904Y-103530476D01*
X110762380Y-103530476D01*
X110762380Y-102578095D02*
X110762380Y-103054285D01*
X111238571Y-103101904D01*
X111190952Y-103054285D01*
X111143333Y-102959047D01*
X111143333Y-102720952D01*
X111190952Y-102625714D01*
X111238571Y-102578095D01*
X111333809Y-102530476D01*
X111571904Y-102530476D01*
X111667142Y-102578095D01*
X111714761Y-102625714D01*
X111762380Y-102720952D01*
X111762380Y-102959047D01*
X111714761Y-103054285D01*
X111667142Y-103101904D01*
X118492380Y-106791904D02*
X119301904Y-106791904D01*
X119397142Y-106744285D01*
X119444761Y-106696666D01*
X119492380Y-106601428D01*
X119492380Y-106410952D01*
X119444761Y-106315714D01*
X119397142Y-106268095D01*
X119301904Y-106220476D01*
X118492380Y-106220476D01*
X118825714Y-105315714D02*
X119492380Y-105315714D01*
X118444761Y-105553809D02*
X119159047Y-105791904D01*
X119159047Y-105172857D01*
X119596190Y-111302380D02*
X120262857Y-112302380D01*
X120262857Y-111302380D02*
X119596190Y-112302380D01*
X120500952Y-111302380D02*
X121072380Y-111302380D01*
X120786666Y-112302380D02*
X120786666Y-111302380D01*
X121358095Y-112016666D02*
X121834285Y-112016666D01*
X121262857Y-112302380D02*
X121596190Y-111302380D01*
X121929523Y-112302380D01*
X122739047Y-112302380D02*
X122262857Y-112302380D01*
X122262857Y-111302380D01*
X123596190Y-112302380D02*
X123024761Y-112302380D01*
X123310476Y-112302380D02*
X123310476Y-111302380D01*
X123215238Y-111445238D01*
X123120000Y-111540476D01*
X123024761Y-111588095D01*
X123457142Y-103342380D02*
X123123809Y-102866190D01*
X122885714Y-103342380D02*
X122885714Y-102342380D01*
X123266666Y-102342380D01*
X123361904Y-102390000D01*
X123409523Y-102437619D01*
X123457142Y-102532857D01*
X123457142Y-102675714D01*
X123409523Y-102770952D01*
X123361904Y-102818571D01*
X123266666Y-102866190D01*
X122885714Y-102866190D01*
X123838095Y-102437619D02*
X123885714Y-102390000D01*
X123980952Y-102342380D01*
X124219047Y-102342380D01*
X124314285Y-102390000D01*
X124361904Y-102437619D01*
X124409523Y-102532857D01*
X124409523Y-102628095D01*
X124361904Y-102770952D01*
X123790476Y-103342380D01*
X124409523Y-103342380D01*
X125361904Y-103342380D02*
X124790476Y-103342380D01*
X125076190Y-103342380D02*
X125076190Y-102342380D01*
X124980952Y-102485238D01*
X124885714Y-102580476D01*
X124790476Y-102628095D01*
X126527380Y-105542857D02*
X126051190Y-105876190D01*
X126527380Y-106114285D02*
X125527380Y-106114285D01*
X125527380Y-105733333D01*
X125575000Y-105638095D01*
X125622619Y-105590476D01*
X125717857Y-105542857D01*
X125860714Y-105542857D01*
X125955952Y-105590476D01*
X126003571Y-105638095D01*
X126051190Y-105733333D01*
X126051190Y-106114285D01*
X125622619Y-105161904D02*
X125575000Y-105114285D01*
X125527380Y-105019047D01*
X125527380Y-104780952D01*
X125575000Y-104685714D01*
X125622619Y-104638095D01*
X125717857Y-104590476D01*
X125813095Y-104590476D01*
X125955952Y-104638095D01*
X126527380Y-105209523D01*
X126527380Y-104590476D01*
X125527380Y-103971428D02*
X125527380Y-103876190D01*
X125575000Y-103780952D01*
X125622619Y-103733333D01*
X125717857Y-103685714D01*
X125908333Y-103638095D01*
X126146428Y-103638095D01*
X126336904Y-103685714D01*
X126432142Y-103733333D01*
X126479761Y-103780952D01*
X126527380Y-103876190D01*
X126527380Y-103971428D01*
X126479761Y-104066666D01*
X126432142Y-104114285D01*
X126336904Y-104161904D01*
X126146428Y-104209523D01*
X125908333Y-104209523D01*
X125717857Y-104161904D01*
X125622619Y-104114285D01*
X125575000Y-104066666D01*
X125527380Y-103971428D01*
X115058333Y-107887142D02*
X115010714Y-107934761D01*
X114867857Y-107982380D01*
X114772619Y-107982380D01*
X114629761Y-107934761D01*
X114534523Y-107839523D01*
X114486904Y-107744285D01*
X114439285Y-107553809D01*
X114439285Y-107410952D01*
X114486904Y-107220476D01*
X114534523Y-107125238D01*
X114629761Y-107030000D01*
X114772619Y-106982380D01*
X114867857Y-106982380D01*
X115010714Y-107030000D01*
X115058333Y-107077619D01*
X115391666Y-106982380D02*
X116058333Y-106982380D01*
X115629761Y-107982380D01*
X124932142Y-112216666D02*
X124979761Y-112264285D01*
X125027380Y-112407142D01*
X125027380Y-112502380D01*
X124979761Y-112645238D01*
X124884523Y-112740476D01*
X124789285Y-112788095D01*
X124598809Y-112835714D01*
X124455952Y-112835714D01*
X124265476Y-112788095D01*
X124170238Y-112740476D01*
X124075000Y-112645238D01*
X124027380Y-112502380D01*
X124027380Y-112407142D01*
X124075000Y-112264285D01*
X124122619Y-112216666D01*
X124027380Y-111359523D02*
X124027380Y-111550000D01*
X124075000Y-111645238D01*
X124122619Y-111692857D01*
X124265476Y-111788095D01*
X124455952Y-111835714D01*
X124836904Y-111835714D01*
X124932142Y-111788095D01*
X124979761Y-111740476D01*
X125027380Y-111645238D01*
X125027380Y-111454761D01*
X124979761Y-111359523D01*
X124932142Y-111311904D01*
X124836904Y-111264285D01*
X124598809Y-111264285D01*
X124503571Y-111311904D01*
X124455952Y-111359523D01*
X124408333Y-111454761D01*
X124408333Y-111645238D01*
X124455952Y-111740476D01*
X124503571Y-111788095D01*
X124598809Y-111835714D01*
X119457142Y-102337142D02*
X119409523Y-102384761D01*
X119266666Y-102432380D01*
X119171428Y-102432380D01*
X119028571Y-102384761D01*
X118933333Y-102289523D01*
X118885714Y-102194285D01*
X118838095Y-102003809D01*
X118838095Y-101860952D01*
X118885714Y-101670476D01*
X118933333Y-101575238D01*
X119028571Y-101480000D01*
X119171428Y-101432380D01*
X119266666Y-101432380D01*
X119409523Y-101480000D01*
X119457142Y-101527619D01*
X120409523Y-102432380D02*
X119838095Y-102432380D01*
X120123809Y-102432380D02*
X120123809Y-101432380D01*
X120028571Y-101575238D01*
X119933333Y-101670476D01*
X119838095Y-101718095D01*
X121028571Y-101432380D02*
X121123809Y-101432380D01*
X121219047Y-101480000D01*
X121266666Y-101527619D01*
X121314285Y-101622857D01*
X121361904Y-101813333D01*
X121361904Y-102051428D01*
X121314285Y-102241904D01*
X121266666Y-102337142D01*
X121219047Y-102384761D01*
X121123809Y-102432380D01*
X121028571Y-102432380D01*
X120933333Y-102384761D01*
X120885714Y-102337142D01*
X120838095Y-102241904D01*
X120790476Y-102051428D01*
X120790476Y-101813333D01*
X120838095Y-101622857D01*
X120885714Y-101527619D01*
X120933333Y-101480000D01*
X121028571Y-101432380D01*
X117332142Y-109591666D02*
X117379761Y-109639285D01*
X117427380Y-109782142D01*
X117427380Y-109877380D01*
X117379761Y-110020238D01*
X117284523Y-110115476D01*
X117189285Y-110163095D01*
X116998809Y-110210714D01*
X116855952Y-110210714D01*
X116665476Y-110163095D01*
X116570238Y-110115476D01*
X116475000Y-110020238D01*
X116427380Y-109877380D01*
X116427380Y-109782142D01*
X116475000Y-109639285D01*
X116522619Y-109591666D01*
X117427380Y-109115476D02*
X117427380Y-108925000D01*
X117379761Y-108829761D01*
X117332142Y-108782142D01*
X117189285Y-108686904D01*
X116998809Y-108639285D01*
X116617857Y-108639285D01*
X116522619Y-108686904D01*
X116475000Y-108734523D01*
X116427380Y-108829761D01*
X116427380Y-109020238D01*
X116475000Y-109115476D01*
X116522619Y-109163095D01*
X116617857Y-109210714D01*
X116855952Y-109210714D01*
X116951190Y-109163095D01*
X116998809Y-109115476D01*
X117046428Y-109020238D01*
X117046428Y-108829761D01*
X116998809Y-108734523D01*
X116951190Y-108686904D01*
X116855952Y-108639285D01*
X110527380Y-107236904D02*
X111336904Y-107236904D01*
X111432142Y-107189285D01*
X111479761Y-107141666D01*
X111527380Y-107046428D01*
X111527380Y-106855952D01*
X111479761Y-106760714D01*
X111432142Y-106713095D01*
X111336904Y-106665476D01*
X110527380Y-106665476D01*
X110527380Y-106284523D02*
X110527380Y-105665476D01*
X110908333Y-105998809D01*
X110908333Y-105855952D01*
X110955952Y-105760714D01*
X111003571Y-105713095D01*
X111098809Y-105665476D01*
X111336904Y-105665476D01*
X111432142Y-105713095D01*
X111479761Y-105760714D01*
X111527380Y-105855952D01*
X111527380Y-106141666D01*
X111479761Y-106236904D01*
X111432142Y-106284523D01*
X124557380Y-96771904D02*
X125366904Y-96771904D01*
X125462142Y-96724285D01*
X125509761Y-96676666D01*
X125557380Y-96581428D01*
X125557380Y-96390952D01*
X125509761Y-96295714D01*
X125462142Y-96248095D01*
X125366904Y-96200476D01*
X124557380Y-96200476D01*
X125557380Y-95200476D02*
X125557380Y-95771904D01*
X125557380Y-95486190D02*
X124557380Y-95486190D01*
X124700238Y-95581428D01*
X124795476Y-95676666D01*
X124843095Y-95771904D01*
X134793666Y-86269761D02*
X134936523Y-86317380D01*
X135174619Y-86317380D01*
X135269857Y-86269761D01*
X135317476Y-86222142D01*
X135365095Y-86126904D01*
X135365095Y-86031666D01*
X135317476Y-85936428D01*
X135269857Y-85888809D01*
X135174619Y-85841190D01*
X134984142Y-85793571D01*
X134888904Y-85745952D01*
X134841285Y-85698333D01*
X134793666Y-85603095D01*
X134793666Y-85507857D01*
X134841285Y-85412619D01*
X134888904Y-85365000D01*
X134984142Y-85317380D01*
X135222238Y-85317380D01*
X135365095Y-85365000D01*
X135698428Y-85317380D02*
X135936523Y-86317380D01*
X136127000Y-85603095D01*
X136317476Y-86317380D01*
X136555571Y-85317380D01*
X136841285Y-85317380D02*
X137460333Y-85317380D01*
X137127000Y-85698333D01*
X137269857Y-85698333D01*
X137365095Y-85745952D01*
X137412714Y-85793571D01*
X137460333Y-85888809D01*
X137460333Y-86126904D01*
X137412714Y-86222142D01*
X137365095Y-86269761D01*
X137269857Y-86317380D01*
X136984142Y-86317380D01*
X136888904Y-86269761D01*
X136841285Y-86222142D01*
X148233666Y-86269761D02*
X148376523Y-86317380D01*
X148614619Y-86317380D01*
X148709857Y-86269761D01*
X148757476Y-86222142D01*
X148805095Y-86126904D01*
X148805095Y-86031666D01*
X148757476Y-85936428D01*
X148709857Y-85888809D01*
X148614619Y-85841190D01*
X148424142Y-85793571D01*
X148328904Y-85745952D01*
X148281285Y-85698333D01*
X148233666Y-85603095D01*
X148233666Y-85507857D01*
X148281285Y-85412619D01*
X148328904Y-85365000D01*
X148424142Y-85317380D01*
X148662238Y-85317380D01*
X148805095Y-85365000D01*
X149138428Y-85317380D02*
X149376523Y-86317380D01*
X149567000Y-85603095D01*
X149757476Y-86317380D01*
X149995571Y-85317380D01*
X150328904Y-85412619D02*
X150376523Y-85365000D01*
X150471761Y-85317380D01*
X150709857Y-85317380D01*
X150805095Y-85365000D01*
X150852714Y-85412619D01*
X150900333Y-85507857D01*
X150900333Y-85603095D01*
X150852714Y-85745952D01*
X150281285Y-86317380D01*
X150900333Y-86317380D01*
X161591666Y-86269761D02*
X161734523Y-86317380D01*
X161972619Y-86317380D01*
X162067857Y-86269761D01*
X162115476Y-86222142D01*
X162163095Y-86126904D01*
X162163095Y-86031666D01*
X162115476Y-85936428D01*
X162067857Y-85888809D01*
X161972619Y-85841190D01*
X161782142Y-85793571D01*
X161686904Y-85745952D01*
X161639285Y-85698333D01*
X161591666Y-85603095D01*
X161591666Y-85507857D01*
X161639285Y-85412619D01*
X161686904Y-85365000D01*
X161782142Y-85317380D01*
X162020238Y-85317380D01*
X162163095Y-85365000D01*
X162496428Y-85317380D02*
X162734523Y-86317380D01*
X162925000Y-85603095D01*
X163115476Y-86317380D01*
X163353571Y-85317380D01*
X164258333Y-86317380D02*
X163686904Y-86317380D01*
X163972619Y-86317380D02*
X163972619Y-85317380D01*
X163877380Y-85460238D01*
X163782142Y-85555476D01*
X163686904Y-85603095D01*
X153132761Y-112944380D02*
X152799428Y-112468190D01*
X152561333Y-112944380D02*
X152561333Y-111944380D01*
X152942285Y-111944380D01*
X153037523Y-111992000D01*
X153085142Y-112039619D01*
X153132761Y-112134857D01*
X153132761Y-112277714D01*
X153085142Y-112372952D01*
X153037523Y-112420571D01*
X152942285Y-112468190D01*
X152561333Y-112468190D01*
X153513714Y-112658666D02*
X153989904Y-112658666D01*
X153418476Y-112944380D02*
X153751809Y-111944380D01*
X154085142Y-112944380D01*
X154466095Y-112944380D02*
X154656571Y-112944380D01*
X154751809Y-112896761D01*
X154799428Y-112849142D01*
X154894666Y-112706285D01*
X154942285Y-112515809D01*
X154942285Y-112134857D01*
X154894666Y-112039619D01*
X154847047Y-111992000D01*
X154751809Y-111944380D01*
X154561333Y-111944380D01*
X154466095Y-111992000D01*
X154418476Y-112039619D01*
X154370857Y-112134857D01*
X154370857Y-112372952D01*
X154418476Y-112468190D01*
X154466095Y-112515809D01*
X154561333Y-112563428D01*
X154751809Y-112563428D01*
X154847047Y-112515809D01*
X154894666Y-112468190D01*
X154942285Y-112372952D01*
X164378761Y-117662380D02*
X164045428Y-117186190D01*
X163807333Y-117662380D02*
X163807333Y-116662380D01*
X164188285Y-116662380D01*
X164283523Y-116710000D01*
X164331142Y-116757619D01*
X164378761Y-116852857D01*
X164378761Y-116995714D01*
X164331142Y-117090952D01*
X164283523Y-117138571D01*
X164188285Y-117186190D01*
X163807333Y-117186190D01*
X164759714Y-117376666D02*
X165235904Y-117376666D01*
X164664476Y-117662380D02*
X164997809Y-116662380D01*
X165331142Y-117662380D01*
X165807333Y-117090952D02*
X165712095Y-117043333D01*
X165664476Y-116995714D01*
X165616857Y-116900476D01*
X165616857Y-116852857D01*
X165664476Y-116757619D01*
X165712095Y-116710000D01*
X165807333Y-116662380D01*
X165997809Y-116662380D01*
X166093047Y-116710000D01*
X166140666Y-116757619D01*
X166188285Y-116852857D01*
X166188285Y-116900476D01*
X166140666Y-116995714D01*
X166093047Y-117043333D01*
X165997809Y-117090952D01*
X165807333Y-117090952D01*
X165712095Y-117138571D01*
X165664476Y-117186190D01*
X165616857Y-117281428D01*
X165616857Y-117471904D01*
X165664476Y-117567142D01*
X165712095Y-117614761D01*
X165807333Y-117662380D01*
X165997809Y-117662380D01*
X166093047Y-117614761D01*
X166140666Y-117567142D01*
X166188285Y-117471904D01*
X166188285Y-117281428D01*
X166140666Y-117186190D01*
X166093047Y-117138571D01*
X165997809Y-117090952D01*
X127404761Y-119952380D02*
X127071428Y-119476190D01*
X126833333Y-119952380D02*
X126833333Y-118952380D01*
X127214285Y-118952380D01*
X127309523Y-119000000D01*
X127357142Y-119047619D01*
X127404761Y-119142857D01*
X127404761Y-119285714D01*
X127357142Y-119380952D01*
X127309523Y-119428571D01*
X127214285Y-119476190D01*
X126833333Y-119476190D01*
X127785714Y-119666666D02*
X128261904Y-119666666D01*
X127690476Y-119952380D02*
X128023809Y-118952380D01*
X128357142Y-119952380D01*
X129119047Y-119285714D02*
X129119047Y-119952380D01*
X128880952Y-118904761D02*
X128642857Y-119619047D01*
X129261904Y-119619047D01*
X148372380Y-98045238D02*
X147896190Y-98378571D01*
X148372380Y-98616666D02*
X147372380Y-98616666D01*
X147372380Y-98235714D01*
X147420000Y-98140476D01*
X147467619Y-98092857D01*
X147562857Y-98045238D01*
X147705714Y-98045238D01*
X147800952Y-98092857D01*
X147848571Y-98140476D01*
X147896190Y-98235714D01*
X147896190Y-98616666D01*
X148086666Y-97664285D02*
X148086666Y-97188095D01*
X148372380Y-97759523D02*
X147372380Y-97426190D01*
X148372380Y-97092857D01*
X147372380Y-96854761D02*
X147372380Y-96235714D01*
X147753333Y-96569047D01*
X147753333Y-96426190D01*
X147800952Y-96330952D01*
X147848571Y-96283333D01*
X147943809Y-96235714D01*
X148181904Y-96235714D01*
X148277142Y-96283333D01*
X148324761Y-96330952D01*
X148372380Y-96426190D01*
X148372380Y-96711904D01*
X148324761Y-96807142D01*
X148277142Y-96854761D01*
X182128380Y-104448285D02*
X181128380Y-104448285D01*
X181128380Y-104067333D01*
X181176000Y-103972095D01*
X181223619Y-103924476D01*
X181318857Y-103876857D01*
X181461714Y-103876857D01*
X181556952Y-103924476D01*
X181604571Y-103972095D01*
X181652190Y-104067333D01*
X181652190Y-104448285D01*
X182080761Y-103495904D02*
X182128380Y-103353047D01*
X182128380Y-103114952D01*
X182080761Y-103019714D01*
X182033142Y-102972095D01*
X181937904Y-102924476D01*
X181842666Y-102924476D01*
X181747428Y-102972095D01*
X181699809Y-103019714D01*
X181652190Y-103114952D01*
X181604571Y-103305428D01*
X181556952Y-103400666D01*
X181509333Y-103448285D01*
X181414095Y-103495904D01*
X181318857Y-103495904D01*
X181223619Y-103448285D01*
X181176000Y-103400666D01*
X181128380Y-103305428D01*
X181128380Y-103067333D01*
X181176000Y-102924476D01*
X182128380Y-101972095D02*
X182128380Y-102543523D01*
X182128380Y-102257809D02*
X181128380Y-102257809D01*
X181271238Y-102353047D01*
X181366476Y-102448285D01*
X181414095Y-102543523D01*
X127107142Y-111666666D02*
X127154761Y-111714285D01*
X127202380Y-111857142D01*
X127202380Y-111952380D01*
X127154761Y-112095238D01*
X127059523Y-112190476D01*
X126964285Y-112238095D01*
X126773809Y-112285714D01*
X126630952Y-112285714D01*
X126440476Y-112238095D01*
X126345238Y-112190476D01*
X126250000Y-112095238D01*
X126202380Y-111952380D01*
X126202380Y-111857142D01*
X126250000Y-111714285D01*
X126297619Y-111666666D01*
X126202380Y-110761904D02*
X126202380Y-111238095D01*
X126678571Y-111285714D01*
X126630952Y-111238095D01*
X126583333Y-111142857D01*
X126583333Y-110904761D01*
X126630952Y-110809523D01*
X126678571Y-110761904D01*
X126773809Y-110714285D01*
X127011904Y-110714285D01*
X127107142Y-110761904D01*
X127154761Y-110809523D01*
X127202380Y-110904761D01*
X127202380Y-111142857D01*
X127154761Y-111238095D01*
X127107142Y-111285714D01*
X131617857Y-106033333D02*
X131570238Y-105985714D01*
X131522619Y-105842857D01*
X131522619Y-105747619D01*
X131570238Y-105604761D01*
X131665476Y-105509523D01*
X131760714Y-105461904D01*
X131951190Y-105414285D01*
X132094047Y-105414285D01*
X132284523Y-105461904D01*
X132379761Y-105509523D01*
X132475000Y-105604761D01*
X132522619Y-105747619D01*
X132522619Y-105842857D01*
X132475000Y-105985714D01*
X132427380Y-106033333D01*
X132189285Y-106890476D02*
X131522619Y-106890476D01*
X132570238Y-106652380D02*
X131855952Y-106414285D01*
X131855952Y-107033333D01*
%LPC*%
X117810000Y-106840000D02*
X118250000Y-106400000D01*
X117810000Y-110640000D02*
X117810000Y-106840000D01*
X118090000Y-110920000D02*
X117810000Y-110640000D01*
X124890000Y-110920000D02*
X118090000Y-110920000D01*
X125180000Y-110640000D02*
X124890000Y-110920000D01*
X125180000Y-110410000D02*
X125180000Y-110640000D01*
X125170000Y-104060000D02*
X125170000Y-109400000D01*
X124900000Y-103800000D02*
X125170000Y-104060000D01*
X122900000Y-103800000D02*
X124900000Y-103800000D01*
X121900000Y-102800000D02*
X122900000Y-103800000D01*
X118600000Y-102800000D02*
X121900000Y-102800000D01*
X118300000Y-103000000D02*
X118600000Y-102800000D01*
X118300000Y-105100000D02*
X118300000Y-103000000D01*
X117490000Y-102540000D02*
X117480000Y-104730000D01*
X116930000Y-102000000D02*
X117490000Y-102540000D01*
X116900000Y-102000000D02*
X116930000Y-102000000D01*
X116500000Y-102000000D02*
X116900000Y-102000000D01*
X116400000Y-101900000D02*
X116500000Y-102000000D01*
X115100000Y-101800000D02*
X115200000Y-101700000D01*
X115100000Y-102000000D02*
X115100000Y-101800000D01*
X112700000Y-102000000D02*
X115100000Y-102000000D01*
X112170000Y-102550000D02*
X112700000Y-102000000D01*
X112170000Y-103630000D02*
X112170000Y-102550000D01*
X112200000Y-103700000D02*
X112170000Y-103630000D01*
X112200000Y-104500000D02*
X112200000Y-103700000D01*
X113900000Y-106200000D02*
X112200000Y-104500000D01*
X114400000Y-106200000D02*
X113900000Y-106200000D01*
X114800000Y-106600000D02*
X114400000Y-106200000D01*
X116500000Y-106600000D02*
X114800000Y-106600000D01*
G36*
G01*
X152029999Y-96089200D02*
X152530001Y-96089200D01*
G75*
G02*
X152580800Y-96139999I0J-50799D01*
G01*
X152580800Y-96940001D01*
G75*
G02*
X152530001Y-96990800I-50799J0D01*
G01*
X152029999Y-96990800D01*
G75*
G02*
X151979200Y-96940001I0J50799D01*
G01*
X151979200Y-96139999D01*
G75*
G02*
X152029999Y-96089200I50799J0D01*
G01*
G37*
G36*
G01*
X152880000Y-96089200D02*
X153280000Y-96089200D01*
G75*
G02*
X153330800Y-96140000I0J-50800D01*
G01*
X153330800Y-96940000D01*
G75*
G02*
X153280000Y-96990800I-50800J0D01*
G01*
X152880000Y-96990800D01*
G75*
G02*
X152829200Y-96940000I0J50800D01*
G01*
X152829200Y-96140000D01*
G75*
G02*
X152880000Y-96089200I50800J0D01*
G01*
G37*
G36*
G01*
X154429999Y-96089200D02*
X154930001Y-96089200D01*
G75*
G02*
X154980800Y-96139999I0J-50799D01*
G01*
X154980800Y-96940001D01*
G75*
G02*
X154930001Y-96990800I-50799J0D01*
G01*
X154429999Y-96990800D01*
G75*
G02*
X154379200Y-96940001I0J50799D01*
G01*
X154379200Y-96139999D01*
G75*
G02*
X154429999Y-96089200I50799J0D01*
G01*
G37*
G36*
G01*
X153680000Y-96089200D02*
X154080000Y-96089200D01*
G75*
G02*
X154130800Y-96140000I0J-50800D01*
G01*
X154130800Y-96940000D01*
G75*
G02*
X154080000Y-96990800I-50800J0D01*
G01*
X153680000Y-96990800D01*
G75*
G02*
X153629200Y-96940000I0J50800D01*
G01*
X153629200Y-96140000D01*
G75*
G02*
X153680000Y-96089200I50800J0D01*
G01*
G37*
G36*
G01*
X152029999Y-97889200D02*
X152530001Y-97889200D01*
G75*
G02*
X152580800Y-97939999I0J-50799D01*
G01*
X152580800Y-98740001D01*
G75*
G02*
X152530001Y-98790800I-50799J0D01*
G01*
X152029999Y-98790800D01*
G75*
G02*
X151979200Y-98740001I0J50799D01*
G01*
X151979200Y-97939999D01*
G75*
G02*
X152029999Y-97889200I50799J0D01*
G01*
G37*
G36*
G01*
X153680000Y-97889200D02*
X154080000Y-97889200D01*
G75*
G02*
X154130800Y-97940000I0J-50800D01*
G01*
X154130800Y-98740000D01*
G75*
G02*
X154080000Y-98790800I-50800J0D01*
G01*
X153680000Y-98790800D01*
G75*
G02*
X153629200Y-98740000I0J50800D01*
G01*
X153629200Y-97940000D01*
G75*
G02*
X153680000Y-97889200I50800J0D01*
G01*
G37*
G36*
G01*
X152880000Y-97889200D02*
X153280000Y-97889200D01*
G75*
G02*
X153330800Y-97940000I0J-50800D01*
G01*
X153330800Y-98740000D01*
G75*
G02*
X153280000Y-98790800I-50800J0D01*
G01*
X152880000Y-98790800D01*
G75*
G02*
X152829200Y-98740000I0J50800D01*
G01*
X152829200Y-97940000D01*
G75*
G02*
X152880000Y-97889200I50800J0D01*
G01*
G37*
G36*
G01*
X154429999Y-97889200D02*
X154930001Y-97889200D01*
G75*
G02*
X154980800Y-97939999I0J-50799D01*
G01*
X154980800Y-98740001D01*
G75*
G02*
X154930001Y-98790800I-50799J0D01*
G01*
X154429999Y-98790800D01*
G75*
G02*
X154379200Y-98740001I0J50799D01*
G01*
X154379200Y-97939999D01*
G75*
G02*
X154429999Y-97889200I50799J0D01*
G01*
G37*
D15*
X125000000Y-88000000D03*
G36*
G01*
X192430900Y-117165900D02*
X192430900Y-118766100D01*
G75*
G02*
X192380100Y-118816900I-50800J0D01*
G01*
X190779900Y-118816900D01*
G75*
G02*
X190729100Y-118766100I0J50800D01*
G01*
X190729100Y-117165900D01*
G75*
G02*
X190779900Y-117115100I50800J0D01*
G01*
X192380100Y-117115100D01*
G75*
G02*
X192430900Y-117165900I0J-50800D01*
G01*
G37*
D16*
X174080000Y-117966000D03*
G36*
G01*
X128725300Y-109584101D02*
X128725300Y-110015901D01*
G75*
G02*
X128674500Y-110066701I-50800J0D01*
G01*
X127747400Y-110066701D01*
G75*
G02*
X127696600Y-110015901I0J50800D01*
G01*
X127696600Y-109584101D01*
G75*
G02*
X127747400Y-109533301I50800J0D01*
G01*
X128674500Y-109533301D01*
G75*
G02*
X128725300Y-109584101I0J-50800D01*
G01*
G37*
G36*
G01*
X128725300Y-107684099D02*
X128725300Y-108115899D01*
G75*
G02*
X128674500Y-108166699I-50800J0D01*
G01*
X127747400Y-108166699D01*
G75*
G02*
X127696600Y-108115899I0J50800D01*
G01*
X127696600Y-107684099D01*
G75*
G02*
X127747400Y-107633299I50800J0D01*
G01*
X128674500Y-107633299D01*
G75*
G02*
X128725300Y-107684099I0J-50800D01*
G01*
G37*
G36*
G01*
X131303400Y-107684099D02*
X131303400Y-108115899D01*
G75*
G02*
X131252600Y-108166699I-50800J0D01*
G01*
X130325500Y-108166699D01*
G75*
G02*
X130274700Y-108115899I0J50800D01*
G01*
X130274700Y-107684099D01*
G75*
G02*
X130325500Y-107633299I50800J0D01*
G01*
X131252600Y-107633299D01*
G75*
G02*
X131303400Y-107684099I0J-50800D01*
G01*
G37*
G36*
G01*
X131303400Y-108634100D02*
X131303400Y-109065900D01*
G75*
G02*
X131252600Y-109116700I-50800J0D01*
G01*
X130325500Y-109116700D01*
G75*
G02*
X130274700Y-109065900I0J50800D01*
G01*
X130274700Y-108634100D01*
G75*
G02*
X130325500Y-108583300I50800J0D01*
G01*
X131252600Y-108583300D01*
G75*
G02*
X131303400Y-108634100I0J-50800D01*
G01*
G37*
G36*
G01*
X131303400Y-109584101D02*
X131303400Y-110015901D01*
G75*
G02*
X131252600Y-110066701I-50800J0D01*
G01*
X130325500Y-110066701D01*
G75*
G02*
X130274700Y-110015901I0J50800D01*
G01*
X130274700Y-109584101D01*
G75*
G02*
X130325500Y-109533301I50800J0D01*
G01*
X131252600Y-109533301D01*
G75*
G02*
X131303400Y-109584101I0J-50800D01*
G01*
G37*
D15*
X195000000Y-88000000D03*
D17*
X174650000Y-87064000D03*
X182850000Y-87064000D03*
X174650000Y-90004000D03*
X182850000Y-90004000D03*
G36*
G01*
X178314200Y-87434000D02*
X178314200Y-86134000D01*
G75*
G02*
X178365000Y-86083200I50800J0D01*
G01*
X178635000Y-86083200D01*
G75*
G02*
X178685800Y-86134000I0J-50800D01*
G01*
X178685800Y-87434000D01*
G75*
G02*
X178635000Y-87484800I-50800J0D01*
G01*
X178365000Y-87484800D01*
G75*
G02*
X178314200Y-87434000I0J50800D01*
G01*
G37*
G36*
G01*
X177814200Y-87434000D02*
X177814200Y-86134000D01*
G75*
G02*
X177865000Y-86083200I50800J0D01*
G01*
X178135000Y-86083200D01*
G75*
G02*
X178185800Y-86134000I0J-50800D01*
G01*
X178185800Y-87434000D01*
G75*
G02*
X178135000Y-87484800I-50800J0D01*
G01*
X177865000Y-87484800D01*
G75*
G02*
X177814200Y-87434000I0J50800D01*
G01*
G37*
G36*
G01*
X177314200Y-87434000D02*
X177314200Y-86134000D01*
G75*
G02*
X177365000Y-86083200I50800J0D01*
G01*
X177635000Y-86083200D01*
G75*
G02*
X177685800Y-86134000I0J-50800D01*
G01*
X177685800Y-87434000D01*
G75*
G02*
X177635000Y-87484800I-50800J0D01*
G01*
X177365000Y-87484800D01*
G75*
G02*
X177314200Y-87434000I0J50800D01*
G01*
G37*
G36*
G01*
X176814200Y-87434000D02*
X176814200Y-86134000D01*
G75*
G02*
X176865000Y-86083200I50800J0D01*
G01*
X177135000Y-86083200D01*
G75*
G02*
X177185800Y-86134000I0J-50800D01*
G01*
X177185800Y-87434000D01*
G75*
G02*
X177135000Y-87484800I-50800J0D01*
G01*
X176865000Y-87484800D01*
G75*
G02*
X176814200Y-87434000I0J50800D01*
G01*
G37*
G36*
G01*
X176314200Y-87434000D02*
X176314200Y-86134000D01*
G75*
G02*
X176365000Y-86083200I50800J0D01*
G01*
X176635000Y-86083200D01*
G75*
G02*
X176685800Y-86134000I0J-50800D01*
G01*
X176685800Y-87434000D01*
G75*
G02*
X176635000Y-87484800I-50800J0D01*
G01*
X176365000Y-87484800D01*
G75*
G02*
X176314200Y-87434000I0J50800D01*
G01*
G37*
G36*
G01*
X175814200Y-87434000D02*
X175814200Y-86134000D01*
G75*
G02*
X175865000Y-86083200I50800J0D01*
G01*
X176135000Y-86083200D01*
G75*
G02*
X176185800Y-86134000I0J-50800D01*
G01*
X176185800Y-87434000D01*
G75*
G02*
X176135000Y-87484800I-50800J0D01*
G01*
X175865000Y-87484800D01*
G75*
G02*
X175814200Y-87434000I0J50800D01*
G01*
G37*
G36*
G01*
X181314200Y-87434000D02*
X181314200Y-86134000D01*
G75*
G02*
X181365000Y-86083200I50800J0D01*
G01*
X181635000Y-86083200D01*
G75*
G02*
X181685800Y-86134000I0J-50800D01*
G01*
X181685800Y-87434000D01*
G75*
G02*
X181635000Y-87484800I-50800J0D01*
G01*
X181365000Y-87484800D01*
G75*
G02*
X181314200Y-87434000I0J50800D01*
G01*
G37*
G36*
G01*
X180814200Y-87434000D02*
X180814200Y-86134000D01*
G75*
G02*
X180865000Y-86083200I50800J0D01*
G01*
X181135000Y-86083200D01*
G75*
G02*
X181185800Y-86134000I0J-50800D01*
G01*
X181185800Y-87434000D01*
G75*
G02*
X181135000Y-87484800I-50800J0D01*
G01*
X180865000Y-87484800D01*
G75*
G02*
X180814200Y-87434000I0J50800D01*
G01*
G37*
G36*
G01*
X180314200Y-87434000D02*
X180314200Y-86134000D01*
G75*
G02*
X180365000Y-86083200I50800J0D01*
G01*
X180635000Y-86083200D01*
G75*
G02*
X180685800Y-86134000I0J-50800D01*
G01*
X180685800Y-87434000D01*
G75*
G02*
X180635000Y-87484800I-50800J0D01*
G01*
X180365000Y-87484800D01*
G75*
G02*
X180314200Y-87434000I0J50800D01*
G01*
G37*
G36*
G01*
X179814200Y-87434000D02*
X179814200Y-86134000D01*
G75*
G02*
X179865000Y-86083200I50800J0D01*
G01*
X180135000Y-86083200D01*
G75*
G02*
X180185800Y-86134000I0J-50800D01*
G01*
X180185800Y-87434000D01*
G75*
G02*
X180135000Y-87484800I-50800J0D01*
G01*
X179865000Y-87484800D01*
G75*
G02*
X179814200Y-87434000I0J50800D01*
G01*
G37*
G36*
G01*
X179314200Y-87434000D02*
X179314200Y-86134000D01*
G75*
G02*
X179365000Y-86083200I50800J0D01*
G01*
X179635000Y-86083200D01*
G75*
G02*
X179685800Y-86134000I0J-50800D01*
G01*
X179685800Y-87434000D01*
G75*
G02*
X179635000Y-87484800I-50800J0D01*
G01*
X179365000Y-87484800D01*
G75*
G02*
X179314200Y-87434000I0J50800D01*
G01*
G37*
G36*
G01*
X178814200Y-87434000D02*
X178814200Y-86134000D01*
G75*
G02*
X178865000Y-86083200I50800J0D01*
G01*
X179135000Y-86083200D01*
G75*
G02*
X179185800Y-86134000I0J-50800D01*
G01*
X179185800Y-87434000D01*
G75*
G02*
X179135000Y-87484800I-50800J0D01*
G01*
X178865000Y-87484800D01*
G75*
G02*
X178814200Y-87434000I0J50800D01*
G01*
G37*
G36*
G01*
X175814200Y-90934000D02*
X175814200Y-89634000D01*
G75*
G02*
X175865000Y-89583200I50800J0D01*
G01*
X176135000Y-89583200D01*
G75*
G02*
X176185800Y-89634000I0J-50800D01*
G01*
X176185800Y-90934000D01*
G75*
G02*
X176135000Y-90984800I-50800J0D01*
G01*
X175865000Y-90984800D01*
G75*
G02*
X175814200Y-90934000I0J50800D01*
G01*
G37*
G36*
G01*
X176314200Y-90934000D02*
X176314200Y-89634000D01*
G75*
G02*
X176365000Y-89583200I50800J0D01*
G01*
X176635000Y-89583200D01*
G75*
G02*
X176685800Y-89634000I0J-50800D01*
G01*
X176685800Y-90934000D01*
G75*
G02*
X176635000Y-90984800I-50800J0D01*
G01*
X176365000Y-90984800D01*
G75*
G02*
X176314200Y-90934000I0J50800D01*
G01*
G37*
G36*
G01*
X176814200Y-90934000D02*
X176814200Y-89634000D01*
G75*
G02*
X176865000Y-89583200I50800J0D01*
G01*
X177135000Y-89583200D01*
G75*
G02*
X177185800Y-89634000I0J-50800D01*
G01*
X177185800Y-90934000D01*
G75*
G02*
X177135000Y-90984800I-50800J0D01*
G01*
X176865000Y-90984800D01*
G75*
G02*
X176814200Y-90934000I0J50800D01*
G01*
G37*
G36*
G01*
X177314200Y-90934000D02*
X177314200Y-89634000D01*
G75*
G02*
X177365000Y-89583200I50800J0D01*
G01*
X177635000Y-89583200D01*
G75*
G02*
X177685800Y-89634000I0J-50800D01*
G01*
X177685800Y-90934000D01*
G75*
G02*
X177635000Y-90984800I-50800J0D01*
G01*
X177365000Y-90984800D01*
G75*
G02*
X177314200Y-90934000I0J50800D01*
G01*
G37*
G36*
G01*
X177814200Y-90934000D02*
X177814200Y-89634000D01*
G75*
G02*
X177865000Y-89583200I50800J0D01*
G01*
X178135000Y-89583200D01*
G75*
G02*
X178185800Y-89634000I0J-50800D01*
G01*
X178185800Y-90934000D01*
G75*
G02*
X178135000Y-90984800I-50800J0D01*
G01*
X177865000Y-90984800D01*
G75*
G02*
X177814200Y-90934000I0J50800D01*
G01*
G37*
G36*
G01*
X178314200Y-90934000D02*
X178314200Y-89634000D01*
G75*
G02*
X178365000Y-89583200I50800J0D01*
G01*
X178635000Y-89583200D01*
G75*
G02*
X178685800Y-89634000I0J-50800D01*
G01*
X178685800Y-90934000D01*
G75*
G02*
X178635000Y-90984800I-50800J0D01*
G01*
X178365000Y-90984800D01*
G75*
G02*
X178314200Y-90934000I0J50800D01*
G01*
G37*
G36*
G01*
X178814200Y-90934000D02*
X178814200Y-89634000D01*
G75*
G02*
X178865000Y-89583200I50800J0D01*
G01*
X179135000Y-89583200D01*
G75*
G02*
X179185800Y-89634000I0J-50800D01*
G01*
X179185800Y-90934000D01*
G75*
G02*
X179135000Y-90984800I-50800J0D01*
G01*
X178865000Y-90984800D01*
G75*
G02*
X178814200Y-90934000I0J50800D01*
G01*
G37*
G36*
G01*
X179814200Y-90934000D02*
X179814200Y-89634000D01*
G75*
G02*
X179865000Y-89583200I50800J0D01*
G01*
X180135000Y-89583200D01*
G75*
G02*
X180185800Y-89634000I0J-50800D01*
G01*
X180185800Y-90934000D01*
G75*
G02*
X180135000Y-90984800I-50800J0D01*
G01*
X179865000Y-90984800D01*
G75*
G02*
X179814200Y-90934000I0J50800D01*
G01*
G37*
G36*
G01*
X179314200Y-90934000D02*
X179314200Y-89634000D01*
G75*
G02*
X179365000Y-89583200I50800J0D01*
G01*
X179635000Y-89583200D01*
G75*
G02*
X179685800Y-89634000I0J-50800D01*
G01*
X179685800Y-90934000D01*
G75*
G02*
X179635000Y-90984800I-50800J0D01*
G01*
X179365000Y-90984800D01*
G75*
G02*
X179314200Y-90934000I0J50800D01*
G01*
G37*
G36*
G01*
X180314200Y-90934000D02*
X180314200Y-89634000D01*
G75*
G02*
X180365000Y-89583200I50800J0D01*
G01*
X180635000Y-89583200D01*
G75*
G02*
X180685800Y-89634000I0J-50800D01*
G01*
X180685800Y-90934000D01*
G75*
G02*
X180635000Y-90984800I-50800J0D01*
G01*
X180365000Y-90984800D01*
G75*
G02*
X180314200Y-90934000I0J50800D01*
G01*
G37*
G36*
G01*
X180814200Y-90934000D02*
X180814200Y-89634000D01*
G75*
G02*
X180865000Y-89583200I50800J0D01*
G01*
X181135000Y-89583200D01*
G75*
G02*
X181185800Y-89634000I0J-50800D01*
G01*
X181185800Y-90934000D01*
G75*
G02*
X181135000Y-90984800I-50800J0D01*
G01*
X180865000Y-90984800D01*
G75*
G02*
X180814200Y-90934000I0J50800D01*
G01*
G37*
G36*
G01*
X181314200Y-90934000D02*
X181314200Y-89634000D01*
G75*
G02*
X181365000Y-89583200I50800J0D01*
G01*
X181635000Y-89583200D01*
G75*
G02*
X181685800Y-89634000I0J-50800D01*
G01*
X181685800Y-90934000D01*
G75*
G02*
X181635000Y-90984800I-50800J0D01*
G01*
X181365000Y-90984800D01*
G75*
G02*
X181314200Y-90934000I0J50800D01*
G01*
G37*
G36*
G01*
X121000000Y-112924200D02*
X122600000Y-112924200D01*
G75*
G02*
X122650800Y-112975000I0J-50800D01*
G01*
X122650800Y-114575000D01*
G75*
G02*
X122600000Y-114625800I-50800J0D01*
G01*
X121000000Y-114625800D01*
G75*
G02*
X120949200Y-114575000I0J50800D01*
G01*
X120949200Y-112975000D01*
G75*
G02*
X121000000Y-112924200I50800J0D01*
G01*
G37*
D18*
X104020000Y-121395000D03*
X119260000Y-113775000D03*
X106560000Y-121395000D03*
X116720000Y-113775000D03*
X109100000Y-121395000D03*
X114180000Y-113775000D03*
X111640000Y-121395000D03*
X111640000Y-113775000D03*
X114180000Y-121395000D03*
X109100000Y-113775000D03*
X116720000Y-121395000D03*
X106560000Y-113775000D03*
X119260000Y-121395000D03*
X104020000Y-113775000D03*
X121800000Y-121395000D03*
G36*
G01*
X162065859Y-121400800D02*
X160794141Y-121400800D01*
G75*
G02*
X160529200Y-121135859I0J264941D01*
G01*
X160529200Y-119864141D01*
G75*
G02*
X160794141Y-119599200I264941J0D01*
G01*
X162065859Y-119599200D01*
G75*
G02*
X162330800Y-119864141I0J-264941D01*
G01*
X162330800Y-121135859D01*
G75*
G02*
X162065859Y-121400800I-264941J0D01*
G01*
G37*
D19*
X158890000Y-120500000D03*
X156350000Y-120500000D03*
X153810000Y-120500000D03*
X151270000Y-120500000D03*
X148730000Y-120500000D03*
X146190000Y-120500000D03*
X143650000Y-120500000D03*
X141110000Y-120500000D03*
X138570000Y-120500000D03*
X161430000Y-117960000D03*
X158890000Y-117960000D03*
X156350000Y-117960000D03*
X153810000Y-117960000D03*
X151270000Y-117960000D03*
X148730000Y-117960000D03*
X146190000Y-117960000D03*
X143650000Y-117960000D03*
X141110000Y-117960000D03*
X138570000Y-117960000D03*
G36*
G01*
X112875000Y-102394200D02*
X113675000Y-102394200D01*
G75*
G02*
X113725800Y-102445000I0J-50800D01*
G01*
X113725800Y-102745000D01*
G75*
G02*
X113675000Y-102795800I-50800J0D01*
G01*
X112875000Y-102795800D01*
G75*
G02*
X112824200Y-102745000I0J50800D01*
G01*
X112824200Y-102445000D01*
G75*
G02*
X112875000Y-102394200I50800J0D01*
G01*
G37*
G36*
G01*
X112875000Y-102894200D02*
X113675000Y-102894200D01*
G75*
G02*
X113725800Y-102945000I0J-50800D01*
G01*
X113725800Y-103245000D01*
G75*
G02*
X113675000Y-103295800I-50800J0D01*
G01*
X112875000Y-103295800D01*
G75*
G02*
X112824200Y-103245000I0J50800D01*
G01*
X112824200Y-102945000D01*
G75*
G02*
X112875000Y-102894200I50800J0D01*
G01*
G37*
G36*
G01*
X112875000Y-103394200D02*
X113675000Y-103394200D01*
G75*
G02*
X113725800Y-103445000I0J-50800D01*
G01*
X113725800Y-103745000D01*
G75*
G02*
X113675000Y-103795800I-50800J0D01*
G01*
X112875000Y-103795800D01*
G75*
G02*
X112824200Y-103745000I0J50800D01*
G01*
X112824200Y-103445000D01*
G75*
G02*
X112875000Y-103394200I50800J0D01*
G01*
G37*
G36*
G01*
X112875000Y-103894200D02*
X113675000Y-103894200D01*
G75*
G02*
X113725800Y-103945000I0J-50800D01*
G01*
X113725800Y-104245000D01*
G75*
G02*
X113675000Y-104295800I-50800J0D01*
G01*
X112875000Y-104295800D01*
G75*
G02*
X112824200Y-104245000I0J50800D01*
G01*
X112824200Y-103945000D01*
G75*
G02*
X112875000Y-103894200I50800J0D01*
G01*
G37*
G36*
G01*
X115975000Y-103894200D02*
X116775000Y-103894200D01*
G75*
G02*
X116825800Y-103945000I0J-50800D01*
G01*
X116825800Y-104245000D01*
G75*
G02*
X116775000Y-104295800I-50800J0D01*
G01*
X115975000Y-104295800D01*
G75*
G02*
X115924200Y-104245000I0J50800D01*
G01*
X115924200Y-103945000D01*
G75*
G02*
X115975000Y-103894200I50800J0D01*
G01*
G37*
G36*
G01*
X115975000Y-103394200D02*
X116775000Y-103394200D01*
G75*
G02*
X116825800Y-103445000I0J-50800D01*
G01*
X116825800Y-103745000D01*
G75*
G02*
X116775000Y-103795800I-50800J0D01*
G01*
X115975000Y-103795800D01*
G75*
G02*
X115924200Y-103745000I0J50800D01*
G01*
X115924200Y-103445000D01*
G75*
G02*
X115975000Y-103394200I50800J0D01*
G01*
G37*
G36*
G01*
X115975000Y-102894200D02*
X116775000Y-102894200D01*
G75*
G02*
X116825800Y-102945000I0J-50800D01*
G01*
X116825800Y-103245000D01*
G75*
G02*
X116775000Y-103295800I-50800J0D01*
G01*
X115975000Y-103295800D01*
G75*
G02*
X115924200Y-103245000I0J50800D01*
G01*
X115924200Y-102945000D01*
G75*
G02*
X115975000Y-102894200I50800J0D01*
G01*
G37*
G36*
G01*
X115975000Y-102394200D02*
X116775000Y-102394200D01*
G75*
G02*
X116825800Y-102445000I0J-50800D01*
G01*
X116825800Y-102745000D01*
G75*
G02*
X116775000Y-102795800I-50800J0D01*
G01*
X115975000Y-102795800D01*
G75*
G02*
X115924200Y-102745000I0J50800D01*
G01*
X115924200Y-102445000D01*
G75*
G02*
X115975000Y-102394200I50800J0D01*
G01*
G37*
G36*
G01*
X121350000Y-105596800D02*
X121050000Y-105596800D01*
G75*
G02*
X120999200Y-105546000I0J50800D01*
G01*
X120999200Y-105096000D01*
G75*
G02*
X121050000Y-105045200I50800J0D01*
G01*
X121350000Y-105045200D01*
G75*
G02*
X121400800Y-105096000I0J-50800D01*
G01*
X121400800Y-105546000D01*
G75*
G02*
X121350000Y-105596800I-50800J0D01*
G01*
G37*
G36*
G01*
X120850000Y-106996800D02*
X120550000Y-106996800D01*
G75*
G02*
X120499200Y-106946000I0J50800D01*
G01*
X120499200Y-106496000D01*
G75*
G02*
X120550000Y-106445200I50800J0D01*
G01*
X120850000Y-106445200D01*
G75*
G02*
X120900800Y-106496000I0J-50800D01*
G01*
X120900800Y-106946000D01*
G75*
G02*
X120850000Y-106996800I-50800J0D01*
G01*
G37*
G36*
G01*
X120350000Y-105596800D02*
X120050000Y-105596800D01*
G75*
G02*
X119999200Y-105546000I0J50800D01*
G01*
X119999200Y-105096000D01*
G75*
G02*
X120050000Y-105045200I50800J0D01*
G01*
X120350000Y-105045200D01*
G75*
G02*
X120400800Y-105096000I0J-50800D01*
G01*
X120400800Y-105546000D01*
G75*
G02*
X120350000Y-105596800I-50800J0D01*
G01*
G37*
G36*
G01*
X121350000Y-106996800D02*
X121050000Y-106996800D01*
G75*
G02*
X120999200Y-106946000I0J50800D01*
G01*
X120999200Y-106496000D01*
G75*
G02*
X121050000Y-106445200I50800J0D01*
G01*
X121350000Y-106445200D01*
G75*
G02*
X121400800Y-106496000I0J-50800D01*
G01*
X121400800Y-106946000D01*
G75*
G02*
X121350000Y-106996800I-50800J0D01*
G01*
G37*
G36*
G01*
X120350000Y-106996800D02*
X120050000Y-106996800D01*
G75*
G02*
X119999200Y-106946000I0J50800D01*
G01*
X119999200Y-106496000D01*
G75*
G02*
X120050000Y-106445200I50800J0D01*
G01*
X120350000Y-106445200D01*
G75*
G02*
X120400800Y-106496000I0J-50800D01*
G01*
X120400800Y-106946000D01*
G75*
G02*
X120350000Y-106996800I-50800J0D01*
G01*
G37*
G36*
G01*
X123065800Y-107939000D02*
X123065800Y-108939000D01*
G75*
G02*
X123015000Y-108989800I-50800J0D01*
G01*
X122215000Y-108989800D01*
G75*
G02*
X122164200Y-108939000I0J50800D01*
G01*
X122164200Y-107939000D01*
G75*
G02*
X122215000Y-107888200I50800J0D01*
G01*
X123015000Y-107888200D01*
G75*
G02*
X123065800Y-107939000I0J-50800D01*
G01*
G37*
G36*
G01*
X120965800Y-107939000D02*
X120965800Y-108939000D01*
G75*
G02*
X120915000Y-108989800I-50800J0D01*
G01*
X120115000Y-108989800D01*
G75*
G02*
X120064200Y-108939000I0J50800D01*
G01*
X120064200Y-107939000D01*
G75*
G02*
X120115000Y-107888200I50800J0D01*
G01*
X120915000Y-107888200D01*
G75*
G02*
X120965800Y-107939000I0J-50800D01*
G01*
G37*
G36*
G01*
X120965800Y-109339000D02*
X120965800Y-110339000D01*
G75*
G02*
X120915000Y-110389800I-50800J0D01*
G01*
X120115000Y-110389800D01*
G75*
G02*
X120064200Y-110339000I0J50800D01*
G01*
X120064200Y-109339000D01*
G75*
G02*
X120115000Y-109288200I50800J0D01*
G01*
X120915000Y-109288200D01*
G75*
G02*
X120965800Y-109339000I0J-50800D01*
G01*
G37*
G36*
G01*
X123065800Y-109339000D02*
X123065800Y-110339000D01*
G75*
G02*
X123015000Y-110389800I-50800J0D01*
G01*
X122215000Y-110389800D01*
G75*
G02*
X122164200Y-110339000I0J50800D01*
G01*
X122164200Y-109339000D01*
G75*
G02*
X122215000Y-109288200I50800J0D01*
G01*
X123015000Y-109288200D01*
G75*
G02*
X123065800Y-109339000I0J-50800D01*
G01*
G37*
G36*
G01*
X122893900Y-107137300D02*
X122368100Y-107137300D01*
G75*
G02*
X122105200Y-106874400I0J262900D01*
G01*
X122105200Y-106323600D01*
G75*
G02*
X122368100Y-106060700I262900J0D01*
G01*
X122893900Y-106060700D01*
G75*
G02*
X123156800Y-106323600I0J-262900D01*
G01*
X123156800Y-106874400D01*
G75*
G02*
X122893900Y-107137300I-262900J0D01*
G01*
G37*
G36*
G01*
X122893900Y-105312300D02*
X122368100Y-105312300D01*
G75*
G02*
X122105200Y-105049400I0J262900D01*
G01*
X122105200Y-104498600D01*
G75*
G02*
X122368100Y-104235700I262900J0D01*
G01*
X122893900Y-104235700D01*
G75*
G02*
X123156800Y-104498600I0J-262900D01*
G01*
X123156800Y-105049400D01*
G75*
G02*
X122893900Y-105312300I-262900J0D01*
G01*
G37*
G36*
G01*
X124417900Y-107137300D02*
X123892100Y-107137300D01*
G75*
G02*
X123629200Y-106874400I0J262900D01*
G01*
X123629200Y-106323600D01*
G75*
G02*
X123892100Y-106060700I262900J0D01*
G01*
X124417900Y-106060700D01*
G75*
G02*
X124680800Y-106323600I0J-262900D01*
G01*
X124680800Y-106874400D01*
G75*
G02*
X124417900Y-107137300I-262900J0D01*
G01*
G37*
G36*
G01*
X124417900Y-105312300D02*
X123892100Y-105312300D01*
G75*
G02*
X123629200Y-105049400I0J262900D01*
G01*
X123629200Y-104498600D01*
G75*
G02*
X123892100Y-104235700I262900J0D01*
G01*
X124417900Y-104235700D01*
G75*
G02*
X124680800Y-104498600I0J-262900D01*
G01*
X124680800Y-105049400D01*
G75*
G02*
X124417900Y-105312300I-262900J0D01*
G01*
G37*
G36*
G01*
X114918800Y-105118100D02*
X114918800Y-105643900D01*
G75*
G02*
X114655900Y-105906800I-262900J0D01*
G01*
X114030100Y-105906800D01*
G75*
G02*
X113767200Y-105643900I0J262900D01*
G01*
X113767200Y-105118100D01*
G75*
G02*
X114030100Y-104855200I262900J0D01*
G01*
X114655900Y-104855200D01*
G75*
G02*
X114918800Y-105118100I0J-262900D01*
G01*
G37*
G36*
G01*
X116668800Y-105118100D02*
X116668800Y-105643900D01*
G75*
G02*
X116405900Y-105906800I-262900J0D01*
G01*
X115780100Y-105906800D01*
G75*
G02*
X115517200Y-105643900I0J262900D01*
G01*
X115517200Y-105118100D01*
G75*
G02*
X115780100Y-104855200I262900J0D01*
G01*
X116405900Y-104855200D01*
G75*
G02*
X116668800Y-105118100I0J-262900D01*
G01*
G37*
G36*
G01*
X124417900Y-110448800D02*
X123892100Y-110448800D01*
G75*
G02*
X123629200Y-110185900I0J262900D01*
G01*
X123629200Y-109560100D01*
G75*
G02*
X123892100Y-109297200I262900J0D01*
G01*
X124417900Y-109297200D01*
G75*
G02*
X124680800Y-109560100I0J-262900D01*
G01*
X124680800Y-110185900D01*
G75*
G02*
X124417900Y-110448800I-262900J0D01*
G01*
G37*
G36*
G01*
X124417900Y-108698800D02*
X123892100Y-108698800D01*
G75*
G02*
X123629200Y-108435900I0J262900D01*
G01*
X123629200Y-107810100D01*
G75*
G02*
X123892100Y-107547200I262900J0D01*
G01*
X124417900Y-107547200D01*
G75*
G02*
X124680800Y-107810100I0J-262900D01*
G01*
X124680800Y-108435900D01*
G75*
G02*
X124417900Y-108698800I-262900J0D01*
G01*
G37*
G36*
G01*
X118781200Y-104321900D02*
X118781200Y-103796100D01*
G75*
G02*
X119044100Y-103533200I262900J0D01*
G01*
X119669900Y-103533200D01*
G75*
G02*
X119932800Y-103796100I0J-262900D01*
G01*
X119932800Y-104321900D01*
G75*
G02*
X119669900Y-104584800I-262900J0D01*
G01*
X119044100Y-104584800D01*
G75*
G02*
X118781200Y-104321900I0J262900D01*
G01*
G37*
G36*
G01*
X120531200Y-104321900D02*
X120531200Y-103796100D01*
G75*
G02*
X120794100Y-103533200I262900J0D01*
G01*
X121419900Y-103533200D01*
G75*
G02*
X121682800Y-103796100I0J-262900D01*
G01*
X121682800Y-104321900D01*
G75*
G02*
X121419900Y-104584800I-262900J0D01*
G01*
X120794100Y-104584800D01*
G75*
G02*
X120531200Y-104321900I0J262900D01*
G01*
G37*
G36*
G01*
X119083900Y-110222800D02*
X118558100Y-110222800D01*
G75*
G02*
X118295200Y-109959900I0J262900D01*
G01*
X118295200Y-109334100D01*
G75*
G02*
X118558100Y-109071200I262900J0D01*
G01*
X119083900Y-109071200D01*
G75*
G02*
X119346800Y-109334100I0J-262900D01*
G01*
X119346800Y-109959900D01*
G75*
G02*
X119083900Y-110222800I-262900J0D01*
G01*
G37*
G36*
G01*
X119083900Y-108472800D02*
X118558100Y-108472800D01*
G75*
G02*
X118295200Y-108209900I0J262900D01*
G01*
X118295200Y-107584100D01*
G75*
G02*
X118558100Y-107321200I262900J0D01*
G01*
X119083900Y-107321200D01*
G75*
G02*
X119346800Y-107584100I0J-262900D01*
G01*
X119346800Y-108209900D01*
G75*
G02*
X119083900Y-108472800I-262900J0D01*
G01*
G37*
G36*
G01*
X109459600Y-108437200D02*
X109810400Y-108437200D01*
G75*
G02*
X109985800Y-108612600I0J-175400D01*
G01*
X109985800Y-110313400D01*
G75*
G02*
X109810400Y-110488800I-175400J0D01*
G01*
X109459600Y-110488800D01*
G75*
G02*
X109284200Y-110313400I0J175400D01*
G01*
X109284200Y-108612600D01*
G75*
G02*
X109459600Y-108437200I175400J0D01*
G01*
G37*
G36*
G01*
X108189600Y-108437200D02*
X108540400Y-108437200D01*
G75*
G02*
X108715800Y-108612600I0J-175400D01*
G01*
X108715800Y-110313400D01*
G75*
G02*
X108540400Y-110488800I-175400J0D01*
G01*
X108189600Y-110488800D01*
G75*
G02*
X108014200Y-110313400I0J175400D01*
G01*
X108014200Y-108612600D01*
G75*
G02*
X108189600Y-108437200I175400J0D01*
G01*
G37*
G36*
G01*
X106919600Y-108437200D02*
X107270400Y-108437200D01*
G75*
G02*
X107445800Y-108612600I0J-175400D01*
G01*
X107445800Y-110313400D01*
G75*
G02*
X107270400Y-110488800I-175400J0D01*
G01*
X106919600Y-110488800D01*
G75*
G02*
X106744200Y-110313400I0J175400D01*
G01*
X106744200Y-108612600D01*
G75*
G02*
X106919600Y-108437200I175400J0D01*
G01*
G37*
G36*
G01*
X105649600Y-108437200D02*
X106000400Y-108437200D01*
G75*
G02*
X106175800Y-108612600I0J-175400D01*
G01*
X106175800Y-110313400D01*
G75*
G02*
X106000400Y-110488800I-175400J0D01*
G01*
X105649600Y-110488800D01*
G75*
G02*
X105474200Y-110313400I0J175400D01*
G01*
X105474200Y-108612600D01*
G75*
G02*
X105649600Y-108437200I175400J0D01*
G01*
G37*
G36*
G01*
X104379600Y-108437200D02*
X104730400Y-108437200D01*
G75*
G02*
X104905800Y-108612600I0J-175400D01*
G01*
X104905800Y-110313400D01*
G75*
G02*
X104730400Y-110488800I-175400J0D01*
G01*
X104379600Y-110488800D01*
G75*
G02*
X104204200Y-110313400I0J175400D01*
G01*
X104204200Y-108612600D01*
G75*
G02*
X104379600Y-108437200I175400J0D01*
G01*
G37*
G36*
G01*
X103109600Y-108437200D02*
X103460400Y-108437200D01*
G75*
G02*
X103635800Y-108612600I0J-175400D01*
G01*
X103635800Y-110313400D01*
G75*
G02*
X103460400Y-110488800I-175400J0D01*
G01*
X103109600Y-110488800D01*
G75*
G02*
X102934200Y-110313400I0J175400D01*
G01*
X102934200Y-108612600D01*
G75*
G02*
X103109600Y-108437200I175400J0D01*
G01*
G37*
G36*
G01*
X101839600Y-108437200D02*
X102190400Y-108437200D01*
G75*
G02*
X102365800Y-108612600I0J-175400D01*
G01*
X102365800Y-110313400D01*
G75*
G02*
X102190400Y-110488800I-175400J0D01*
G01*
X101839600Y-110488800D01*
G75*
G02*
X101664200Y-110313400I0J175400D01*
G01*
X101664200Y-108612600D01*
G75*
G02*
X101839600Y-108437200I175400J0D01*
G01*
G37*
G36*
G01*
X101839600Y-103487200D02*
X102190400Y-103487200D01*
G75*
G02*
X102365800Y-103662600I0J-175400D01*
G01*
X102365800Y-105363400D01*
G75*
G02*
X102190400Y-105538800I-175400J0D01*
G01*
X101839600Y-105538800D01*
G75*
G02*
X101664200Y-105363400I0J175400D01*
G01*
X101664200Y-103662600D01*
G75*
G02*
X101839600Y-103487200I175400J0D01*
G01*
G37*
G36*
G01*
X103109600Y-103487200D02*
X103460400Y-103487200D01*
G75*
G02*
X103635800Y-103662600I0J-175400D01*
G01*
X103635800Y-105363400D01*
G75*
G02*
X103460400Y-105538800I-175400J0D01*
G01*
X103109600Y-105538800D01*
G75*
G02*
X102934200Y-105363400I0J175400D01*
G01*
X102934200Y-103662600D01*
G75*
G02*
X103109600Y-103487200I175400J0D01*
G01*
G37*
G36*
G01*
X104379600Y-103487200D02*
X104730400Y-103487200D01*
G75*
G02*
X104905800Y-103662600I0J-175400D01*
G01*
X104905800Y-105363400D01*
G75*
G02*
X104730400Y-105538800I-175400J0D01*
G01*
X104379600Y-105538800D01*
G75*
G02*
X104204200Y-105363400I0J175400D01*
G01*
X104204200Y-103662600D01*
G75*
G02*
X104379600Y-103487200I175400J0D01*
G01*
G37*
G36*
G01*
X105649600Y-103487200D02*
X106000400Y-103487200D01*
G75*
G02*
X106175800Y-103662600I0J-175400D01*
G01*
X106175800Y-105363400D01*
G75*
G02*
X106000400Y-105538800I-175400J0D01*
G01*
X105649600Y-105538800D01*
G75*
G02*
X105474200Y-105363400I0J175400D01*
G01*
X105474200Y-103662600D01*
G75*
G02*
X105649600Y-103487200I175400J0D01*
G01*
G37*
G36*
G01*
X106919600Y-103487200D02*
X107270400Y-103487200D01*
G75*
G02*
X107445800Y-103662600I0J-175400D01*
G01*
X107445800Y-105363400D01*
G75*
G02*
X107270400Y-105538800I-175400J0D01*
G01*
X106919600Y-105538800D01*
G75*
G02*
X106744200Y-105363400I0J175400D01*
G01*
X106744200Y-103662600D01*
G75*
G02*
X106919600Y-103487200I175400J0D01*
G01*
G37*
G36*
G01*
X108189600Y-103487200D02*
X108540400Y-103487200D01*
G75*
G02*
X108715800Y-103662600I0J-175400D01*
G01*
X108715800Y-105363400D01*
G75*
G02*
X108540400Y-105538800I-175400J0D01*
G01*
X108189600Y-105538800D01*
G75*
G02*
X108014200Y-105363400I0J175400D01*
G01*
X108014200Y-103662600D01*
G75*
G02*
X108189600Y-103487200I175400J0D01*
G01*
G37*
G36*
G01*
X109459600Y-103487200D02*
X109810400Y-103487200D01*
G75*
G02*
X109985800Y-103662600I0J-175400D01*
G01*
X109985800Y-105363400D01*
G75*
G02*
X109810400Y-105538800I-175400J0D01*
G01*
X109459600Y-105538800D01*
G75*
G02*
X109284200Y-105363400I0J175400D01*
G01*
X109284200Y-103662600D01*
G75*
G02*
X109459600Y-103487200I175400J0D01*
G01*
G37*
D18*
X122775000Y-99820000D03*
X102455000Y-92200000D03*
X120235000Y-99820000D03*
X104995000Y-92200000D03*
X117695000Y-99820000D03*
X107535000Y-92200000D03*
X115155000Y-99820000D03*
X110075000Y-92200000D03*
X112615000Y-99820000D03*
X112615000Y-92200000D03*
X110075000Y-99820000D03*
X115155000Y-92200000D03*
X107535000Y-99820000D03*
X117695000Y-92200000D03*
X104995000Y-99820000D03*
X120235000Y-92200000D03*
X102455000Y-99820000D03*
G36*
G01*
X121975000Y-91349200D02*
X123575000Y-91349200D01*
G75*
G02*
X123625800Y-91400000I0J-50800D01*
G01*
X123625800Y-93000000D01*
G75*
G02*
X123575000Y-93050800I-50800J0D01*
G01*
X121975000Y-93050800D01*
G75*
G02*
X121924200Y-93000000I0J50800D01*
G01*
X121924200Y-91400000D01*
G75*
G02*
X121975000Y-91349200I50800J0D01*
G01*
G37*
G36*
G01*
X130551200Y-88450000D02*
X130551200Y-87050000D01*
G75*
G02*
X130602000Y-86999200I50800J0D01*
G01*
X132702000Y-86999200D01*
G75*
G02*
X132752800Y-87050000I0J-50800D01*
G01*
X132752800Y-88450000D01*
G75*
G02*
X132702000Y-88500800I-50800J0D01*
G01*
X130602000Y-88500800D01*
G75*
G02*
X130551200Y-88450000I0J50800D01*
G01*
G37*
G36*
G01*
X139651200Y-88450000D02*
X139651200Y-87050000D01*
G75*
G02*
X139702000Y-86999200I50800J0D01*
G01*
X141802000Y-86999200D01*
G75*
G02*
X141852800Y-87050000I0J-50800D01*
G01*
X141852800Y-88450000D01*
G75*
G02*
X141802000Y-88500800I-50800J0D01*
G01*
X139702000Y-88500800D01*
G75*
G02*
X139651200Y-88450000I0J50800D01*
G01*
G37*
G36*
G01*
X130551200Y-92950000D02*
X130551200Y-91550000D01*
G75*
G02*
X130602000Y-91499200I50800J0D01*
G01*
X132702000Y-91499200D01*
G75*
G02*
X132752800Y-91550000I0J-50800D01*
G01*
X132752800Y-92950000D01*
G75*
G02*
X132702000Y-93000800I-50800J0D01*
G01*
X130602000Y-93000800D01*
G75*
G02*
X130551200Y-92950000I0J50800D01*
G01*
G37*
G36*
G01*
X139651200Y-92950000D02*
X139651200Y-91550000D01*
G75*
G02*
X139702000Y-91499200I50800J0D01*
G01*
X141802000Y-91499200D01*
G75*
G02*
X141852800Y-91550000I0J-50800D01*
G01*
X141852800Y-92950000D01*
G75*
G02*
X141802000Y-93000800I-50800J0D01*
G01*
X139702000Y-93000800D01*
G75*
G02*
X139651200Y-92950000I0J50800D01*
G01*
G37*
G36*
G01*
X143991200Y-88450000D02*
X143991200Y-87050000D01*
G75*
G02*
X144042000Y-86999200I50800J0D01*
G01*
X146142000Y-86999200D01*
G75*
G02*
X146192800Y-87050000I0J-50800D01*
G01*
X146192800Y-88450000D01*
G75*
G02*
X146142000Y-88500800I-50800J0D01*
G01*
X144042000Y-88500800D01*
G75*
G02*
X143991200Y-88450000I0J50800D01*
G01*
G37*
G36*
G01*
X153091200Y-88450000D02*
X153091200Y-87050000D01*
G75*
G02*
X153142000Y-86999200I50800J0D01*
G01*
X155242000Y-86999200D01*
G75*
G02*
X155292800Y-87050000I0J-50800D01*
G01*
X155292800Y-88450000D01*
G75*
G02*
X155242000Y-88500800I-50800J0D01*
G01*
X153142000Y-88500800D01*
G75*
G02*
X153091200Y-88450000I0J50800D01*
G01*
G37*
G36*
G01*
X143991200Y-92950000D02*
X143991200Y-91550000D01*
G75*
G02*
X144042000Y-91499200I50800J0D01*
G01*
X146142000Y-91499200D01*
G75*
G02*
X146192800Y-91550000I0J-50800D01*
G01*
X146192800Y-92950000D01*
G75*
G02*
X146142000Y-93000800I-50800J0D01*
G01*
X144042000Y-93000800D01*
G75*
G02*
X143991200Y-92950000I0J50800D01*
G01*
G37*
G36*
G01*
X153091200Y-92950000D02*
X153091200Y-91550000D01*
G75*
G02*
X153142000Y-91499200I50800J0D01*
G01*
X155242000Y-91499200D01*
G75*
G02*
X155292800Y-91550000I0J-50800D01*
G01*
X155292800Y-92950000D01*
G75*
G02*
X155242000Y-93000800I-50800J0D01*
G01*
X153142000Y-93000800D01*
G75*
G02*
X153091200Y-92950000I0J50800D01*
G01*
G37*
G36*
G01*
X157349200Y-88450000D02*
X157349200Y-87050000D01*
G75*
G02*
X157400000Y-86999200I50800J0D01*
G01*
X159500000Y-86999200D01*
G75*
G02*
X159550800Y-87050000I0J-50800D01*
G01*
X159550800Y-88450000D01*
G75*
G02*
X159500000Y-88500800I-50800J0D01*
G01*
X157400000Y-88500800D01*
G75*
G02*
X157349200Y-88450000I0J50800D01*
G01*
G37*
G36*
G01*
X166449200Y-88450000D02*
X166449200Y-87050000D01*
G75*
G02*
X166500000Y-86999200I50800J0D01*
G01*
X168600000Y-86999200D01*
G75*
G02*
X168650800Y-87050000I0J-50800D01*
G01*
X168650800Y-88450000D01*
G75*
G02*
X168600000Y-88500800I-50800J0D01*
G01*
X166500000Y-88500800D01*
G75*
G02*
X166449200Y-88450000I0J50800D01*
G01*
G37*
G36*
G01*
X157349200Y-92950000D02*
X157349200Y-91550000D01*
G75*
G02*
X157400000Y-91499200I50800J0D01*
G01*
X159500000Y-91499200D01*
G75*
G02*
X159550800Y-91550000I0J-50800D01*
G01*
X159550800Y-92950000D01*
G75*
G02*
X159500000Y-93000800I-50800J0D01*
G01*
X157400000Y-93000800D01*
G75*
G02*
X157349200Y-92950000I0J50800D01*
G01*
G37*
G36*
G01*
X166449200Y-92950000D02*
X166449200Y-91550000D01*
G75*
G02*
X166500000Y-91499200I50800J0D01*
G01*
X168600000Y-91499200D01*
G75*
G02*
X168650800Y-91550000I0J-50800D01*
G01*
X168650800Y-92950000D01*
G75*
G02*
X168600000Y-93000800I-50800J0D01*
G01*
X166500000Y-93000800D01*
G75*
G02*
X166449200Y-92950000I0J50800D01*
G01*
G37*
G36*
G01*
X164738800Y-109292000D02*
X164738800Y-110892000D01*
G75*
G02*
X164688000Y-110942800I-50800J0D01*
G01*
X163088000Y-110942800D01*
G75*
G02*
X163037200Y-110892000I0J50800D01*
G01*
X163037200Y-109292000D01*
G75*
G02*
X163088000Y-109241200I50800J0D01*
G01*
X164688000Y-109241200D01*
G75*
G02*
X164738800Y-109292000I0J-50800D01*
G01*
G37*
X161348000Y-110092000D03*
X158808000Y-110092000D03*
X156268000Y-110092000D03*
X153728000Y-110092000D03*
X151188000Y-110092000D03*
X148648000Y-110092000D03*
X146108000Y-110092000D03*
G36*
G01*
X166324800Y-115359999D02*
X166324800Y-115860001D01*
G75*
G02*
X166274001Y-115910800I-50799J0D01*
G01*
X165473999Y-115910800D01*
G75*
G02*
X165423200Y-115860001I0J50799D01*
G01*
X165423200Y-115359999D01*
G75*
G02*
X165473999Y-115309200I50799J0D01*
G01*
X166274001Y-115309200D01*
G75*
G02*
X166324800Y-115359999I0J-50799D01*
G01*
G37*
G36*
G01*
X166324800Y-113810000D02*
X166324800Y-114210000D01*
G75*
G02*
X166274000Y-114260800I-50800J0D01*
G01*
X165474000Y-114260800D01*
G75*
G02*
X165423200Y-114210000I0J50800D01*
G01*
X165423200Y-113810000D01*
G75*
G02*
X165474000Y-113759200I50800J0D01*
G01*
X166274000Y-113759200D01*
G75*
G02*
X166324800Y-113810000I0J-50800D01*
G01*
G37*
G36*
G01*
X166324800Y-114610000D02*
X166324800Y-115010000D01*
G75*
G02*
X166274000Y-115060800I-50800J0D01*
G01*
X165474000Y-115060800D01*
G75*
G02*
X165423200Y-115010000I0J50800D01*
G01*
X165423200Y-114610000D01*
G75*
G02*
X165474000Y-114559200I50800J0D01*
G01*
X166274000Y-114559200D01*
G75*
G02*
X166324800Y-114610000I0J-50800D01*
G01*
G37*
G36*
G01*
X166324800Y-112959999D02*
X166324800Y-113460001D01*
G75*
G02*
X166274001Y-113510800I-50799J0D01*
G01*
X165473999Y-113510800D01*
G75*
G02*
X165423200Y-113460001I0J50799D01*
G01*
X165423200Y-112959999D01*
G75*
G02*
X165473999Y-112909200I50799J0D01*
G01*
X166274001Y-112909200D01*
G75*
G02*
X166324800Y-112959999I0J-50799D01*
G01*
G37*
G36*
G01*
X164524800Y-114610000D02*
X164524800Y-115010000D01*
G75*
G02*
X164474000Y-115060800I-50800J0D01*
G01*
X163674000Y-115060800D01*
G75*
G02*
X163623200Y-115010000I0J50800D01*
G01*
X163623200Y-114610000D01*
G75*
G02*
X163674000Y-114559200I50800J0D01*
G01*
X164474000Y-114559200D01*
G75*
G02*
X164524800Y-114610000I0J-50800D01*
G01*
G37*
G36*
G01*
X164524800Y-115359999D02*
X164524800Y-115860001D01*
G75*
G02*
X164474001Y-115910800I-50799J0D01*
G01*
X163673999Y-115910800D01*
G75*
G02*
X163623200Y-115860001I0J50799D01*
G01*
X163623200Y-115359999D01*
G75*
G02*
X163673999Y-115309200I50799J0D01*
G01*
X164474001Y-115309200D01*
G75*
G02*
X164524800Y-115359999I0J-50799D01*
G01*
G37*
G36*
G01*
X164524800Y-113810000D02*
X164524800Y-114210000D01*
G75*
G02*
X164474000Y-114260800I-50800J0D01*
G01*
X163674000Y-114260800D01*
G75*
G02*
X163623200Y-114210000I0J50800D01*
G01*
X163623200Y-113810000D01*
G75*
G02*
X163674000Y-113759200I50800J0D01*
G01*
X164474000Y-113759200D01*
G75*
G02*
X164524800Y-113810000I0J-50800D01*
G01*
G37*
G36*
G01*
X164524800Y-112959999D02*
X164524800Y-113460001D01*
G75*
G02*
X164474001Y-113510800I-50799J0D01*
G01*
X163673999Y-113510800D01*
G75*
G02*
X163623200Y-113460001I0J50799D01*
G01*
X163623200Y-112959999D01*
G75*
G02*
X163673999Y-112909200I50799J0D01*
G01*
X164474001Y-112909200D01*
G75*
G02*
X164524800Y-112959999I0J-50799D01*
G01*
G37*
G36*
G01*
X129475800Y-117699999D02*
X129475800Y-118200001D01*
G75*
G02*
X129425001Y-118250800I-50799J0D01*
G01*
X128624999Y-118250800D01*
G75*
G02*
X128574200Y-118200001I0J50799D01*
G01*
X128574200Y-117699999D01*
G75*
G02*
X128624999Y-117649200I50799J0D01*
G01*
X129425001Y-117649200D01*
G75*
G02*
X129475800Y-117699999I0J-50799D01*
G01*
G37*
G36*
G01*
X129475800Y-116699999D02*
X129475800Y-117200001D01*
G75*
G02*
X129425001Y-117250800I-50799J0D01*
G01*
X128624999Y-117250800D01*
G75*
G02*
X128574200Y-117200001I0J50799D01*
G01*
X128574200Y-116699999D01*
G75*
G02*
X128624999Y-116649200I50799J0D01*
G01*
X129425001Y-116649200D01*
G75*
G02*
X129475800Y-116699999I0J-50799D01*
G01*
G37*
G36*
G01*
X127675800Y-116699999D02*
X127675800Y-117200001D01*
G75*
G02*
X127625001Y-117250800I-50799J0D01*
G01*
X126824999Y-117250800D01*
G75*
G02*
X126774200Y-117200001I0J50799D01*
G01*
X126774200Y-116699999D01*
G75*
G02*
X126824999Y-116649200I50799J0D01*
G01*
X127625001Y-116649200D01*
G75*
G02*
X127675800Y-116699999I0J-50799D01*
G01*
G37*
G36*
G01*
X127675800Y-117699999D02*
X127675800Y-118200001D01*
G75*
G02*
X127625001Y-118250800I-50799J0D01*
G01*
X126824999Y-118250800D01*
G75*
G02*
X126774200Y-118200001I0J50799D01*
G01*
X126774200Y-117699999D01*
G75*
G02*
X126824999Y-117649200I50799J0D01*
G01*
X127625001Y-117649200D01*
G75*
G02*
X127675800Y-117699999I0J-50799D01*
G01*
G37*
G36*
G01*
X146069999Y-96099200D02*
X146570001Y-96099200D01*
G75*
G02*
X146620800Y-96149999I0J-50799D01*
G01*
X146620800Y-96950001D01*
G75*
G02*
X146570001Y-97000800I-50799J0D01*
G01*
X146069999Y-97000800D01*
G75*
G02*
X146019200Y-96950001I0J50799D01*
G01*
X146019200Y-96149999D01*
G75*
G02*
X146069999Y-96099200I50799J0D01*
G01*
G37*
G36*
G01*
X144520000Y-96099200D02*
X144920000Y-96099200D01*
G75*
G02*
X144970800Y-96150000I0J-50800D01*
G01*
X144970800Y-96950000D01*
G75*
G02*
X144920000Y-97000800I-50800J0D01*
G01*
X144520000Y-97000800D01*
G75*
G02*
X144469200Y-96950000I0J50800D01*
G01*
X144469200Y-96150000D01*
G75*
G02*
X144520000Y-96099200I50800J0D01*
G01*
G37*
G36*
G01*
X145320000Y-96099200D02*
X145720000Y-96099200D01*
G75*
G02*
X145770800Y-96150000I0J-50800D01*
G01*
X145770800Y-96950000D01*
G75*
G02*
X145720000Y-97000800I-50800J0D01*
G01*
X145320000Y-97000800D01*
G75*
G02*
X145269200Y-96950000I0J50800D01*
G01*
X145269200Y-96150000D01*
G75*
G02*
X145320000Y-96099200I50800J0D01*
G01*
G37*
G36*
G01*
X143669999Y-96099200D02*
X144170001Y-96099200D01*
G75*
G02*
X144220800Y-96149999I0J-50799D01*
G01*
X144220800Y-96950001D01*
G75*
G02*
X144170001Y-97000800I-50799J0D01*
G01*
X143669999Y-97000800D01*
G75*
G02*
X143619200Y-96950001I0J50799D01*
G01*
X143619200Y-96149999D01*
G75*
G02*
X143669999Y-96099200I50799J0D01*
G01*
G37*
G36*
G01*
X145320000Y-97899200D02*
X145720000Y-97899200D01*
G75*
G02*
X145770800Y-97950000I0J-50800D01*
G01*
X145770800Y-98750000D01*
G75*
G02*
X145720000Y-98800800I-50800J0D01*
G01*
X145320000Y-98800800D01*
G75*
G02*
X145269200Y-98750000I0J50800D01*
G01*
X145269200Y-97950000D01*
G75*
G02*
X145320000Y-97899200I50800J0D01*
G01*
G37*
G36*
G01*
X146069999Y-97899200D02*
X146570001Y-97899200D01*
G75*
G02*
X146620800Y-97949999I0J-50799D01*
G01*
X146620800Y-98750001D01*
G75*
G02*
X146570001Y-98800800I-50799J0D01*
G01*
X146069999Y-98800800D01*
G75*
G02*
X146019200Y-98750001I0J50799D01*
G01*
X146019200Y-97949999D01*
G75*
G02*
X146069999Y-97899200I50799J0D01*
G01*
G37*
G36*
G01*
X144520000Y-97899200D02*
X144920000Y-97899200D01*
G75*
G02*
X144970800Y-97950000I0J-50800D01*
G01*
X144970800Y-98750000D01*
G75*
G02*
X144920000Y-98800800I-50800J0D01*
G01*
X144520000Y-98800800D01*
G75*
G02*
X144469200Y-98750000I0J50800D01*
G01*
X144469200Y-97950000D01*
G75*
G02*
X144520000Y-97899200I50800J0D01*
G01*
G37*
G36*
G01*
X143669999Y-97899200D02*
X144170001Y-97899200D01*
G75*
G02*
X144220800Y-97949999I0J-50799D01*
G01*
X144220800Y-98750001D01*
G75*
G02*
X144170001Y-98800800I-50799J0D01*
G01*
X143669999Y-98800800D01*
G75*
G02*
X143619200Y-98750001I0J50799D01*
G01*
X143619200Y-97949999D01*
G75*
G02*
X143669999Y-97899200I50799J0D01*
G01*
G37*
D20*
X187256000Y-95614000D03*
X179636000Y-95614000D03*
X187256000Y-110854000D03*
X174556000Y-110854000D03*
G36*
G01*
X126887900Y-108600800D02*
X126362100Y-108600800D01*
G75*
G02*
X126099200Y-108337900I0J262900D01*
G01*
X126099200Y-107712100D01*
G75*
G02*
X126362100Y-107449200I262900J0D01*
G01*
X126887900Y-107449200D01*
G75*
G02*
X127150800Y-107712100I0J-262900D01*
G01*
X127150800Y-108337900D01*
G75*
G02*
X126887900Y-108600800I-262900J0D01*
G01*
G37*
G36*
G01*
X126887900Y-110350800D02*
X126362100Y-110350800D01*
G75*
G02*
X126099200Y-110087900I0J262900D01*
G01*
X126099200Y-109462100D01*
G75*
G02*
X126362100Y-109199200I262900J0D01*
G01*
X126887900Y-109199200D01*
G75*
G02*
X127150800Y-109462100I0J-262900D01*
G01*
X127150800Y-110087900D01*
G75*
G02*
X126887900Y-110350800I-262900J0D01*
G01*
G37*
G36*
G01*
X129325800Y-106037100D02*
X129325800Y-106562900D01*
G75*
G02*
X129062900Y-106825800I-262900J0D01*
G01*
X128437100Y-106825800D01*
G75*
G02*
X128174200Y-106562900I0J262900D01*
G01*
X128174200Y-106037100D01*
G75*
G02*
X128437100Y-105774200I262900J0D01*
G01*
X129062900Y-105774200D01*
G75*
G02*
X129325800Y-106037100I0J-262900D01*
G01*
G37*
G36*
G01*
X131075800Y-106037100D02*
X131075800Y-106562900D01*
G75*
G02*
X130812900Y-106825800I-262900J0D01*
G01*
X130187100Y-106825800D01*
G75*
G02*
X129924200Y-106562900I0J262900D01*
G01*
X129924200Y-106037100D01*
G75*
G02*
X130187100Y-105774200I262900J0D01*
G01*
X130812900Y-105774200D01*
G75*
G02*
X131075800Y-106037100I0J-262900D01*
G01*
G37*
M02*
