G04 #@! TF.GenerationSoftware,KiCad,Pcbnew,(5.1.7)-1*
G04 #@! TF.CreationDate,2021-11-14T21:58:52-06:00*
G04 #@! TF.ProjectId,PIC-nixie,5049432d-6e69-4786-9965-2e6b69636164,rev?*
G04 #@! TF.SameCoordinates,Original*
G04 #@! TF.FileFunction,Paste,Bot*
G04 #@! TF.FilePolarity,Positive*
%FSLAX46Y46*%
G04 Gerber Fmt 4.6, Leading zero omitted, Abs format (unit mm)*
G04 Created by KiCad (PCBNEW (5.1.7)-1) date 2021-11-14 21:58:52*
%MOMM*%
%LPD*%
G01*
G04 APERTURE LIST*
%ADD10R,0.700000X0.450000*%
%ADD11R,0.500000X0.800000*%
%ADD12R,0.400000X0.800000*%
%ADD13R,0.900000X0.800000*%
%ADD14R,0.800000X0.900000*%
G04 APERTURE END LIST*
D10*
X137910000Y-99236000D03*
X137910000Y-100186000D03*
X137910000Y-101136000D03*
X135510000Y-101136000D03*
X135510000Y-100186000D03*
X135510000Y-99236000D03*
D11*
X116300000Y-117600000D03*
D12*
X117900000Y-117600000D03*
X117100000Y-117600000D03*
D11*
X118700000Y-117600000D03*
D12*
X117100000Y-119400000D03*
D11*
X116300000Y-119400000D03*
D12*
X117900000Y-119400000D03*
D11*
X118700000Y-119400000D03*
X105325000Y-117525000D03*
D12*
X106925000Y-117525000D03*
X106125000Y-117525000D03*
D11*
X107725000Y-117525000D03*
D12*
X106125000Y-119325000D03*
D11*
X105325000Y-119325000D03*
D12*
X106925000Y-119325000D03*
D11*
X107725000Y-119325000D03*
X102325000Y-96100000D03*
D12*
X103925000Y-96100000D03*
X103125000Y-96100000D03*
D11*
X104725000Y-96100000D03*
D12*
X103125000Y-97900000D03*
D11*
X102325000Y-97900000D03*
D12*
X103925000Y-97900000D03*
D11*
X104725000Y-97900000D03*
X108975000Y-96425000D03*
D12*
X107375000Y-96425000D03*
X108175000Y-96425000D03*
D11*
X106575000Y-96425000D03*
D12*
X108175000Y-94625000D03*
D11*
X108975000Y-94625000D03*
D12*
X107375000Y-94625000D03*
D11*
X106575000Y-94625000D03*
G36*
G01*
X167368000Y-110542001D02*
X167368000Y-109641999D01*
G75*
G02*
X167617999Y-109392000I249999J0D01*
G01*
X168268001Y-109392000D01*
G75*
G02*
X168518000Y-109641999I0J-249999D01*
G01*
X168518000Y-110542001D01*
G75*
G02*
X168268001Y-110792000I-249999J0D01*
G01*
X167617999Y-110792000D01*
G75*
G02*
X167368000Y-110542001I0J249999D01*
G01*
G37*
G36*
G01*
X169418000Y-110542001D02*
X169418000Y-109641999D01*
G75*
G02*
X169667999Y-109392000I249999J0D01*
G01*
X170318001Y-109392000D01*
G75*
G02*
X170568000Y-109641999I0J-249999D01*
G01*
X170568000Y-110542001D01*
G75*
G02*
X170318001Y-110792000I-249999J0D01*
G01*
X169667999Y-110792000D01*
G75*
G02*
X169418000Y-110542001I0J249999D01*
G01*
G37*
G36*
G01*
X136269000Y-104053999D02*
X136269000Y-104954001D01*
G75*
G02*
X136019001Y-105204000I-249999J0D01*
G01*
X135368999Y-105204000D01*
G75*
G02*
X135119000Y-104954001I0J249999D01*
G01*
X135119000Y-104053999D01*
G75*
G02*
X135368999Y-103804000I249999J0D01*
G01*
X136019001Y-103804000D01*
G75*
G02*
X136269000Y-104053999I0J-249999D01*
G01*
G37*
G36*
G01*
X134219000Y-104053999D02*
X134219000Y-104954001D01*
G75*
G02*
X133969001Y-105204000I-249999J0D01*
G01*
X133318999Y-105204000D01*
G75*
G02*
X133069000Y-104954001I0J249999D01*
G01*
X133069000Y-104053999D01*
G75*
G02*
X133318999Y-103804000I249999J0D01*
G01*
X133969001Y-103804000D01*
G75*
G02*
X134219000Y-104053999I0J-249999D01*
G01*
G37*
G36*
G01*
X140596000Y-104053999D02*
X140596000Y-104954001D01*
G75*
G02*
X140346001Y-105204000I-249999J0D01*
G01*
X139695999Y-105204000D01*
G75*
G02*
X139446000Y-104954001I0J249999D01*
G01*
X139446000Y-104053999D01*
G75*
G02*
X139695999Y-103804000I249999J0D01*
G01*
X140346001Y-103804000D01*
G75*
G02*
X140596000Y-104053999I0J-249999D01*
G01*
G37*
G36*
G01*
X138546000Y-104053999D02*
X138546000Y-104954001D01*
G75*
G02*
X138296001Y-105204000I-249999J0D01*
G01*
X137645999Y-105204000D01*
G75*
G02*
X137396000Y-104954001I0J249999D01*
G01*
X137396000Y-104053999D01*
G75*
G02*
X137645999Y-103804000I249999J0D01*
G01*
X138296001Y-103804000D01*
G75*
G02*
X138546000Y-104053999I0J-249999D01*
G01*
G37*
G36*
G01*
X141550001Y-101475000D02*
X140649999Y-101475000D01*
G75*
G02*
X140400000Y-101225001I0J249999D01*
G01*
X140400000Y-100574999D01*
G75*
G02*
X140649999Y-100325000I249999J0D01*
G01*
X141550001Y-100325000D01*
G75*
G02*
X141800000Y-100574999I0J-249999D01*
G01*
X141800000Y-101225001D01*
G75*
G02*
X141550001Y-101475000I-249999J0D01*
G01*
G37*
G36*
G01*
X141550001Y-99425000D02*
X140649999Y-99425000D01*
G75*
G02*
X140400000Y-99175001I0J249999D01*
G01*
X140400000Y-98524999D01*
G75*
G02*
X140649999Y-98275000I249999J0D01*
G01*
X141550001Y-98275000D01*
G75*
G02*
X141800000Y-98524999I0J-249999D01*
G01*
X141800000Y-99175001D01*
G75*
G02*
X141550001Y-99425000I-249999J0D01*
G01*
G37*
G36*
G01*
X164735000Y-95417999D02*
X164735000Y-96318001D01*
G75*
G02*
X164485001Y-96568000I-249999J0D01*
G01*
X163834999Y-96568000D01*
G75*
G02*
X163585000Y-96318001I0J249999D01*
G01*
X163585000Y-95417999D01*
G75*
G02*
X163834999Y-95168000I249999J0D01*
G01*
X164485001Y-95168000D01*
G75*
G02*
X164735000Y-95417999I0J-249999D01*
G01*
G37*
G36*
G01*
X162685000Y-95417999D02*
X162685000Y-96318001D01*
G75*
G02*
X162435001Y-96568000I-249999J0D01*
G01*
X161784999Y-96568000D01*
G75*
G02*
X161535000Y-96318001I0J249999D01*
G01*
X161535000Y-95417999D01*
G75*
G02*
X161784999Y-95168000I249999J0D01*
G01*
X162435001Y-95168000D01*
G75*
G02*
X162685000Y-95417999I0J-249999D01*
G01*
G37*
G36*
G01*
X115600001Y-95000000D02*
X114699999Y-95000000D01*
G75*
G02*
X114450000Y-94750001I0J249999D01*
G01*
X114450000Y-94099999D01*
G75*
G02*
X114699999Y-93850000I249999J0D01*
G01*
X115600001Y-93850000D01*
G75*
G02*
X115850000Y-94099999I0J-249999D01*
G01*
X115850000Y-94750001D01*
G75*
G02*
X115600001Y-95000000I-249999J0D01*
G01*
G37*
G36*
G01*
X115600001Y-97050000D02*
X114699999Y-97050000D01*
G75*
G02*
X114450000Y-96800001I0J249999D01*
G01*
X114450000Y-96149999D01*
G75*
G02*
X114699999Y-95900000I249999J0D01*
G01*
X115600001Y-95900000D01*
G75*
G02*
X115850000Y-96149999I0J-249999D01*
G01*
X115850000Y-96800001D01*
G75*
G02*
X115600001Y-97050000I-249999J0D01*
G01*
G37*
D13*
X135584000Y-107974000D03*
X135584000Y-109874000D03*
X133584000Y-108924000D03*
X139980000Y-107872000D03*
X139980000Y-109772000D03*
X137980000Y-108822000D03*
D14*
X150106000Y-100408000D03*
X148206000Y-100408000D03*
X149156000Y-98408000D03*
X155186000Y-100424000D03*
X153286000Y-100424000D03*
X154236000Y-98424000D03*
X160250000Y-100424000D03*
X158350000Y-100424000D03*
X159300000Y-98424000D03*
X165600000Y-100424000D03*
X163700000Y-100424000D03*
X164650000Y-98424000D03*
D13*
X145632000Y-104438000D03*
X147632000Y-105388000D03*
X147632000Y-103488000D03*
X152712000Y-103488000D03*
X152712000Y-105388000D03*
X150712000Y-104438000D03*
X157776000Y-103554000D03*
X157776000Y-105454000D03*
X155776000Y-104504000D03*
X162856000Y-103554000D03*
X162856000Y-105454000D03*
X160856000Y-104504000D03*
X172540000Y-106724000D03*
X172540000Y-104824000D03*
X174540000Y-105774000D03*
G36*
G01*
X185055000Y-98973999D02*
X185055000Y-99874001D01*
G75*
G02*
X184805001Y-100124000I-249999J0D01*
G01*
X184154999Y-100124000D01*
G75*
G02*
X183905000Y-99874001I0J249999D01*
G01*
X183905000Y-98973999D01*
G75*
G02*
X184154999Y-98724000I249999J0D01*
G01*
X184805001Y-98724000D01*
G75*
G02*
X185055000Y-98973999I0J-249999D01*
G01*
G37*
G36*
G01*
X183005000Y-98973999D02*
X183005000Y-99874001D01*
G75*
G02*
X182755001Y-100124000I-249999J0D01*
G01*
X182104999Y-100124000D01*
G75*
G02*
X181855000Y-99874001I0J249999D01*
G01*
X181855000Y-98973999D01*
G75*
G02*
X182104999Y-98724000I249999J0D01*
G01*
X182755001Y-98724000D01*
G75*
G02*
X183005000Y-98973999I0J-249999D01*
G01*
G37*
G36*
G01*
X134187500Y-100575000D02*
X133712500Y-100575000D01*
G75*
G02*
X133475000Y-100337500I0J237500D01*
G01*
X133475000Y-99762500D01*
G75*
G02*
X133712500Y-99525000I237500J0D01*
G01*
X134187500Y-99525000D01*
G75*
G02*
X134425000Y-99762500I0J-237500D01*
G01*
X134425000Y-100337500D01*
G75*
G02*
X134187500Y-100575000I-237500J0D01*
G01*
G37*
G36*
G01*
X134187500Y-98825000D02*
X133712500Y-98825000D01*
G75*
G02*
X133475000Y-98587500I0J237500D01*
G01*
X133475000Y-98012500D01*
G75*
G02*
X133712500Y-97775000I237500J0D01*
G01*
X134187500Y-97775000D01*
G75*
G02*
X134425000Y-98012500I0J-237500D01*
G01*
X134425000Y-98587500D01*
G75*
G02*
X134187500Y-98825000I-237500J0D01*
G01*
G37*
G36*
G01*
X104625000Y-107087500D02*
X104625000Y-106612500D01*
G75*
G02*
X104862500Y-106375000I237500J0D01*
G01*
X105437500Y-106375000D01*
G75*
G02*
X105675000Y-106612500I0J-237500D01*
G01*
X105675000Y-107087500D01*
G75*
G02*
X105437500Y-107325000I-237500J0D01*
G01*
X104862500Y-107325000D01*
G75*
G02*
X104625000Y-107087500I0J237500D01*
G01*
G37*
G36*
G01*
X106375000Y-107087500D02*
X106375000Y-106612500D01*
G75*
G02*
X106612500Y-106375000I237500J0D01*
G01*
X107187500Y-106375000D01*
G75*
G02*
X107425000Y-106612500I0J-237500D01*
G01*
X107425000Y-107087500D01*
G75*
G02*
X107187500Y-107325000I-237500J0D01*
G01*
X106612500Y-107325000D01*
G75*
G02*
X106375000Y-107087500I0J237500D01*
G01*
G37*
G36*
G01*
X111337500Y-116125000D02*
X111812500Y-116125000D01*
G75*
G02*
X112050000Y-116362500I0J-237500D01*
G01*
X112050000Y-116937500D01*
G75*
G02*
X111812500Y-117175000I-237500J0D01*
G01*
X111337500Y-117175000D01*
G75*
G02*
X111100000Y-116937500I0J237500D01*
G01*
X111100000Y-116362500D01*
G75*
G02*
X111337500Y-116125000I237500J0D01*
G01*
G37*
G36*
G01*
X111337500Y-117875000D02*
X111812500Y-117875000D01*
G75*
G02*
X112050000Y-118112500I0J-237500D01*
G01*
X112050000Y-118687500D01*
G75*
G02*
X111812500Y-118925000I-237500J0D01*
G01*
X111337500Y-118925000D01*
G75*
G02*
X111100000Y-118687500I0J237500D01*
G01*
X111100000Y-118112500D01*
G75*
G02*
X111337500Y-117875000I237500J0D01*
G01*
G37*
G36*
G01*
X112837500Y-95900000D02*
X112362500Y-95900000D01*
G75*
G02*
X112125000Y-95662500I0J237500D01*
G01*
X112125000Y-95087500D01*
G75*
G02*
X112362500Y-94850000I237500J0D01*
G01*
X112837500Y-94850000D01*
G75*
G02*
X113075000Y-95087500I0J-237500D01*
G01*
X113075000Y-95662500D01*
G75*
G02*
X112837500Y-95900000I-237500J0D01*
G01*
G37*
G36*
G01*
X112837500Y-97650000D02*
X112362500Y-97650000D01*
G75*
G02*
X112125000Y-97412500I0J237500D01*
G01*
X112125000Y-96837500D01*
G75*
G02*
X112362500Y-96600000I237500J0D01*
G01*
X112837500Y-96600000D01*
G75*
G02*
X113075000Y-96837500I0J-237500D01*
G01*
X113075000Y-97412500D01*
G75*
G02*
X112837500Y-97650000I-237500J0D01*
G01*
G37*
M02*
