G04 #@! TF.GenerationSoftware,KiCad,Pcbnew,(5.1.7)-1*
G04 #@! TF.CreationDate,2021-11-01T12:52:46-05:00*
G04 #@! TF.ProjectId,PIC-nixie,5049432d-6e69-4786-9965-2e6b69636164,rev?*
G04 #@! TF.SameCoordinates,Original*
G04 #@! TF.FileFunction,Legend,Bot*
G04 #@! TF.FilePolarity,Positive*
%FSLAX46Y46*%
G04 Gerber Fmt 4.6, Leading zero omitted, Abs format (unit mm)*
G04 Created by KiCad (PCBNEW (5.1.7)-1) date 2021-11-01 12:52:46*
%MOMM*%
%LPD*%
G01*
G04 APERTURE LIST*
%ADD10C,0.120000*%
%ADD11C,0.150000*%
%ADD12C,0.250000*%
%ADD13C,2.301600*%
%ADD14O,1.101600X2.101600*%
%ADD15O,1.701600X1.701600*%
%ADD16C,1.801600*%
%ADD17C,1.701800*%
%ADD18C,1.901600*%
G04 APERTURE END LIST*
D10*
X170930000Y-102790000D02*
X171430000Y-101790000D01*
X171930000Y-102790000D02*
X170930000Y-102790000D01*
X171430000Y-101790000D02*
X171930000Y-102790000D01*
X157950000Y-102440000D02*
X157950000Y-103750000D01*
X157950000Y-102440000D02*
X157950000Y-102440000D01*
X144660000Y-102440000D02*
X157950000Y-102440000D01*
X144660000Y-95940000D02*
X144660000Y-102440000D01*
X175340000Y-95940000D02*
X144660000Y-95940000D01*
X175340000Y-102440000D02*
X175340000Y-95940000D01*
X162050000Y-102440000D02*
X175340000Y-102440000D01*
X162050000Y-103750000D02*
X162050000Y-102440000D01*
X143360000Y-103750000D02*
X176640000Y-103750000D01*
X143360000Y-94630000D02*
X143360000Y-103750000D01*
X176640000Y-94630000D02*
X143360000Y-94630000D01*
X176640000Y-103750000D02*
X176640000Y-94630000D01*
D11*
X147135000Y-79636000D02*
X146285000Y-79636000D01*
X147135000Y-82736000D02*
X146285000Y-82736000D01*
D12*
X149035000Y-80236000D02*
G75*
G03*
X149035000Y-80236000I-125000J0D01*
G01*
D10*
X129180000Y-100000000D02*
X129180000Y-99000000D01*
X125820000Y-100000000D02*
X125820000Y-99000000D01*
X118205000Y-99925000D02*
X118205000Y-98925000D01*
X114845000Y-99925000D02*
X114845000Y-98925000D01*
X115205000Y-78500000D02*
X115205000Y-77500000D01*
X111845000Y-78500000D02*
X111845000Y-77500000D01*
X116095000Y-76025000D02*
X116095000Y-77025000D01*
X119455000Y-76025000D02*
X119455000Y-77025000D01*
X178706748Y-91802000D02*
X179229252Y-91802000D01*
X178706748Y-90382000D02*
X179229252Y-90382000D01*
X144930252Y-84794000D02*
X144407748Y-84794000D01*
X144930252Y-86214000D02*
X144407748Y-86214000D01*
X149257252Y-84794000D02*
X148734748Y-84794000D01*
X149257252Y-86214000D02*
X148734748Y-86214000D01*
X151810000Y-81136252D02*
X151810000Y-80613748D01*
X150390000Y-81136252D02*
X150390000Y-80613748D01*
X173396252Y-76158000D02*
X172873748Y-76158000D01*
X173396252Y-77578000D02*
X172873748Y-77578000D01*
X124440000Y-76711252D02*
X124440000Y-76188748D01*
X125860000Y-76711252D02*
X125860000Y-76188748D01*
X143824000Y-91504000D02*
X143824000Y-90574000D01*
X143824000Y-88344000D02*
X143824000Y-89274000D01*
X143824000Y-88344000D02*
X145984000Y-88344000D01*
X143824000Y-91504000D02*
X145284000Y-91504000D01*
X148220000Y-91402000D02*
X148220000Y-90472000D01*
X148220000Y-88242000D02*
X148220000Y-89172000D01*
X148220000Y-88242000D02*
X150380000Y-88242000D01*
X148220000Y-91402000D02*
X149680000Y-91402000D01*
X157576000Y-79648000D02*
X158506000Y-79648000D01*
X160736000Y-79648000D02*
X159806000Y-79648000D01*
X160736000Y-79648000D02*
X160736000Y-81808000D01*
X157576000Y-79648000D02*
X157576000Y-81108000D01*
X162656000Y-79664000D02*
X163586000Y-79664000D01*
X165816000Y-79664000D02*
X164886000Y-79664000D01*
X165816000Y-79664000D02*
X165816000Y-81824000D01*
X162656000Y-79664000D02*
X162656000Y-81124000D01*
X167720000Y-79664000D02*
X168650000Y-79664000D01*
X170880000Y-79664000D02*
X169950000Y-79664000D01*
X170880000Y-79664000D02*
X170880000Y-81824000D01*
X167720000Y-79664000D02*
X167720000Y-81124000D01*
X173070000Y-79664000D02*
X174000000Y-79664000D01*
X176230000Y-79664000D02*
X175300000Y-79664000D01*
X176230000Y-79664000D02*
X176230000Y-81824000D01*
X173070000Y-79664000D02*
X173070000Y-81124000D01*
X155872000Y-87018000D02*
X157332000Y-87018000D01*
X155872000Y-83858000D02*
X158032000Y-83858000D01*
X155872000Y-83858000D02*
X155872000Y-84788000D01*
X155872000Y-87018000D02*
X155872000Y-86088000D01*
X160952000Y-87018000D02*
X160952000Y-86088000D01*
X160952000Y-83858000D02*
X160952000Y-84788000D01*
X160952000Y-83858000D02*
X163112000Y-83858000D01*
X160952000Y-87018000D02*
X162412000Y-87018000D01*
X166016000Y-87084000D02*
X166016000Y-86154000D01*
X166016000Y-83924000D02*
X166016000Y-84854000D01*
X166016000Y-83924000D02*
X168176000Y-83924000D01*
X166016000Y-87084000D02*
X167476000Y-87084000D01*
X171096000Y-87084000D02*
X171096000Y-86154000D01*
X171096000Y-83924000D02*
X171096000Y-84854000D01*
X171096000Y-83924000D02*
X173256000Y-83924000D01*
X171096000Y-87084000D02*
X172556000Y-87084000D01*
X184300000Y-85194000D02*
X184300000Y-86124000D01*
X184300000Y-88354000D02*
X184300000Y-87424000D01*
X184300000Y-88354000D02*
X182140000Y-88354000D01*
X184300000Y-85194000D02*
X182840000Y-85194000D01*
X193716252Y-79714000D02*
X193193748Y-79714000D01*
X193716252Y-81134000D02*
X193193748Y-81134000D01*
X144460000Y-80346267D02*
X144460000Y-80003733D01*
X143440000Y-80346267D02*
X143440000Y-80003733D01*
X115853733Y-88360000D02*
X116196267Y-88360000D01*
X115853733Y-87340000D02*
X116196267Y-87340000D01*
X121065000Y-98353733D02*
X121065000Y-98696267D01*
X122085000Y-98353733D02*
X122085000Y-98696267D01*
X122090000Y-77421267D02*
X122090000Y-77078733D01*
X123110000Y-77421267D02*
X123110000Y-77078733D01*
D11*
X177427380Y-98866666D02*
X178141666Y-98866666D01*
X178284523Y-98819047D01*
X178379761Y-98723809D01*
X178427380Y-98580952D01*
X178427380Y-98485714D01*
X177522619Y-99295238D02*
X177475000Y-99342857D01*
X177427380Y-99438095D01*
X177427380Y-99676190D01*
X177475000Y-99771428D01*
X177522619Y-99819047D01*
X177617857Y-99866666D01*
X177713095Y-99866666D01*
X177855952Y-99819047D01*
X178427380Y-99247619D01*
X178427380Y-99866666D01*
X147749404Y-78113380D02*
X147749404Y-78922904D01*
X147701785Y-79018142D01*
X147654166Y-79065761D01*
X147558928Y-79113380D01*
X147368452Y-79113380D01*
X147273214Y-79065761D01*
X147225595Y-79018142D01*
X147177976Y-78922904D01*
X147177976Y-78113380D01*
X146797023Y-78113380D02*
X146130357Y-78113380D01*
X146558928Y-79113380D01*
X125152380Y-98904761D02*
X124676190Y-98571428D01*
X125152380Y-98333333D02*
X124152380Y-98333333D01*
X124152380Y-98714285D01*
X124200000Y-98809523D01*
X124247619Y-98857142D01*
X124342857Y-98904761D01*
X124485714Y-98904761D01*
X124580952Y-98857142D01*
X124628571Y-98809523D01*
X124676190Y-98714285D01*
X124676190Y-98333333D01*
X124866666Y-99285714D02*
X124866666Y-99761904D01*
X125152380Y-99190476D02*
X124152380Y-99523809D01*
X125152380Y-99857142D01*
X124152380Y-100619047D02*
X124152380Y-100428571D01*
X124200000Y-100333333D01*
X124247619Y-100285714D01*
X124390476Y-100190476D01*
X124580952Y-100142857D01*
X124961904Y-100142857D01*
X125057142Y-100190476D01*
X125104761Y-100238095D01*
X125152380Y-100333333D01*
X125152380Y-100523809D01*
X125104761Y-100619047D01*
X125057142Y-100666666D01*
X124961904Y-100714285D01*
X124723809Y-100714285D01*
X124628571Y-100666666D01*
X124580952Y-100619047D01*
X124533333Y-100523809D01*
X124533333Y-100333333D01*
X124580952Y-100238095D01*
X124628571Y-100190476D01*
X124723809Y-100142857D01*
X114177380Y-98829761D02*
X113701190Y-98496428D01*
X114177380Y-98258333D02*
X113177380Y-98258333D01*
X113177380Y-98639285D01*
X113225000Y-98734523D01*
X113272619Y-98782142D01*
X113367857Y-98829761D01*
X113510714Y-98829761D01*
X113605952Y-98782142D01*
X113653571Y-98734523D01*
X113701190Y-98639285D01*
X113701190Y-98258333D01*
X113891666Y-99210714D02*
X113891666Y-99686904D01*
X114177380Y-99115476D02*
X113177380Y-99448809D01*
X114177380Y-99782142D01*
X113177380Y-100591666D02*
X113177380Y-100115476D01*
X113653571Y-100067857D01*
X113605952Y-100115476D01*
X113558333Y-100210714D01*
X113558333Y-100448809D01*
X113605952Y-100544047D01*
X113653571Y-100591666D01*
X113748809Y-100639285D01*
X113986904Y-100639285D01*
X114082142Y-100591666D01*
X114129761Y-100544047D01*
X114177380Y-100448809D01*
X114177380Y-100210714D01*
X114129761Y-100115476D01*
X114082142Y-100067857D01*
X113970238Y-76302380D02*
X114303571Y-75826190D01*
X114541666Y-76302380D02*
X114541666Y-75302380D01*
X114160714Y-75302380D01*
X114065476Y-75350000D01*
X114017857Y-75397619D01*
X113970238Y-75492857D01*
X113970238Y-75635714D01*
X114017857Y-75730952D01*
X114065476Y-75778571D01*
X114160714Y-75826190D01*
X114541666Y-75826190D01*
X113589285Y-76016666D02*
X113113095Y-76016666D01*
X113684523Y-76302380D02*
X113351190Y-75302380D01*
X113017857Y-76302380D01*
X112732142Y-75397619D02*
X112684523Y-75350000D01*
X112589285Y-75302380D01*
X112351190Y-75302380D01*
X112255952Y-75350000D01*
X112208333Y-75397619D01*
X112160714Y-75492857D01*
X112160714Y-75588095D01*
X112208333Y-75730952D01*
X112779761Y-76302380D01*
X112160714Y-76302380D01*
X120122619Y-77120238D02*
X120598809Y-77453571D01*
X120122619Y-77691666D02*
X121122619Y-77691666D01*
X121122619Y-77310714D01*
X121075000Y-77215476D01*
X121027380Y-77167857D01*
X120932142Y-77120238D01*
X120789285Y-77120238D01*
X120694047Y-77167857D01*
X120646428Y-77215476D01*
X120598809Y-77310714D01*
X120598809Y-77691666D01*
X120408333Y-76739285D02*
X120408333Y-76263095D01*
X120122619Y-76834523D02*
X121122619Y-76501190D01*
X120122619Y-76167857D01*
X120122619Y-75310714D02*
X120122619Y-75882142D01*
X120122619Y-75596428D02*
X121122619Y-75596428D01*
X120979761Y-75691666D01*
X120884523Y-75786904D01*
X120836904Y-75882142D01*
X179610857Y-93194380D02*
X179944190Y-92718190D01*
X180182285Y-93194380D02*
X180182285Y-92194380D01*
X179801333Y-92194380D01*
X179706095Y-92242000D01*
X179658476Y-92289619D01*
X179610857Y-92384857D01*
X179610857Y-92527714D01*
X179658476Y-92622952D01*
X179706095Y-92670571D01*
X179801333Y-92718190D01*
X180182285Y-92718190D01*
X178658476Y-93194380D02*
X179229904Y-93194380D01*
X178944190Y-93194380D02*
X178944190Y-92194380D01*
X179039428Y-92337238D01*
X179134666Y-92432476D01*
X179229904Y-92480095D01*
X178325142Y-92194380D02*
X177658476Y-92194380D01*
X178087047Y-93194380D01*
X145311857Y-84306380D02*
X145645190Y-83830190D01*
X145883285Y-84306380D02*
X145883285Y-83306380D01*
X145502333Y-83306380D01*
X145407095Y-83354000D01*
X145359476Y-83401619D01*
X145311857Y-83496857D01*
X145311857Y-83639714D01*
X145359476Y-83734952D01*
X145407095Y-83782571D01*
X145502333Y-83830190D01*
X145883285Y-83830190D01*
X144359476Y-84306380D02*
X144930904Y-84306380D01*
X144645190Y-84306380D02*
X144645190Y-83306380D01*
X144740428Y-83449238D01*
X144835666Y-83544476D01*
X144930904Y-83592095D01*
X143978523Y-83401619D02*
X143930904Y-83354000D01*
X143835666Y-83306380D01*
X143597571Y-83306380D01*
X143502333Y-83354000D01*
X143454714Y-83401619D01*
X143407095Y-83496857D01*
X143407095Y-83592095D01*
X143454714Y-83734952D01*
X144026142Y-84306380D01*
X143407095Y-84306380D01*
X149638857Y-84306380D02*
X149972190Y-83830190D01*
X150210285Y-84306380D02*
X150210285Y-83306380D01*
X149829333Y-83306380D01*
X149734095Y-83354000D01*
X149686476Y-83401619D01*
X149638857Y-83496857D01*
X149638857Y-83639714D01*
X149686476Y-83734952D01*
X149734095Y-83782571D01*
X149829333Y-83830190D01*
X150210285Y-83830190D01*
X148686476Y-84306380D02*
X149257904Y-84306380D01*
X148972190Y-84306380D02*
X148972190Y-83306380D01*
X149067428Y-83449238D01*
X149162666Y-83544476D01*
X149257904Y-83592095D01*
X147734095Y-84306380D02*
X148305523Y-84306380D01*
X148019809Y-84306380D02*
X148019809Y-83306380D01*
X148115047Y-83449238D01*
X148210285Y-83544476D01*
X148305523Y-83592095D01*
X153202380Y-80232142D02*
X152726190Y-79898809D01*
X153202380Y-79660714D02*
X152202380Y-79660714D01*
X152202380Y-80041666D01*
X152250000Y-80136904D01*
X152297619Y-80184523D01*
X152392857Y-80232142D01*
X152535714Y-80232142D01*
X152630952Y-80184523D01*
X152678571Y-80136904D01*
X152726190Y-80041666D01*
X152726190Y-79660714D01*
X153202380Y-81184523D02*
X153202380Y-80613095D01*
X153202380Y-80898809D02*
X152202380Y-80898809D01*
X152345238Y-80803571D01*
X152440476Y-80708333D01*
X152488095Y-80613095D01*
X152202380Y-81803571D02*
X152202380Y-81898809D01*
X152250000Y-81994047D01*
X152297619Y-82041666D01*
X152392857Y-82089285D01*
X152583333Y-82136904D01*
X152821428Y-82136904D01*
X153011904Y-82089285D01*
X153107142Y-82041666D01*
X153154761Y-81994047D01*
X153202380Y-81898809D01*
X153202380Y-81803571D01*
X153154761Y-81708333D01*
X153107142Y-81660714D01*
X153011904Y-81613095D01*
X152821428Y-81565476D01*
X152583333Y-81565476D01*
X152392857Y-81613095D01*
X152297619Y-81660714D01*
X152250000Y-81708333D01*
X152202380Y-81803571D01*
X173301666Y-75670380D02*
X173635000Y-75194190D01*
X173873095Y-75670380D02*
X173873095Y-74670380D01*
X173492142Y-74670380D01*
X173396904Y-74718000D01*
X173349285Y-74765619D01*
X173301666Y-74860857D01*
X173301666Y-75003714D01*
X173349285Y-75098952D01*
X173396904Y-75146571D01*
X173492142Y-75194190D01*
X173873095Y-75194190D01*
X172396904Y-74670380D02*
X172873095Y-74670380D01*
X172920714Y-75146571D01*
X172873095Y-75098952D01*
X172777857Y-75051333D01*
X172539761Y-75051333D01*
X172444523Y-75098952D01*
X172396904Y-75146571D01*
X172349285Y-75241809D01*
X172349285Y-75479904D01*
X172396904Y-75575142D01*
X172444523Y-75622761D01*
X172539761Y-75670380D01*
X172777857Y-75670380D01*
X172873095Y-75622761D01*
X172920714Y-75575142D01*
X127252380Y-76283333D02*
X126776190Y-75950000D01*
X127252380Y-75711904D02*
X126252380Y-75711904D01*
X126252380Y-76092857D01*
X126300000Y-76188095D01*
X126347619Y-76235714D01*
X126442857Y-76283333D01*
X126585714Y-76283333D01*
X126680952Y-76235714D01*
X126728571Y-76188095D01*
X126776190Y-76092857D01*
X126776190Y-75711904D01*
X127252380Y-77235714D02*
X127252380Y-76664285D01*
X127252380Y-76950000D02*
X126252380Y-76950000D01*
X126395238Y-76854761D01*
X126490476Y-76759523D01*
X126538095Y-76664285D01*
X144679238Y-87971619D02*
X144774476Y-87924000D01*
X144869714Y-87828761D01*
X145012571Y-87685904D01*
X145107809Y-87638285D01*
X145203047Y-87638285D01*
X145155428Y-87876380D02*
X145250666Y-87828761D01*
X145345904Y-87733523D01*
X145393523Y-87543047D01*
X145393523Y-87209714D01*
X145345904Y-87019238D01*
X145250666Y-86924000D01*
X145155428Y-86876380D01*
X144964952Y-86876380D01*
X144869714Y-86924000D01*
X144774476Y-87019238D01*
X144726857Y-87209714D01*
X144726857Y-87543047D01*
X144774476Y-87733523D01*
X144869714Y-87828761D01*
X144964952Y-87876380D01*
X145155428Y-87876380D01*
X143869714Y-86876380D02*
X144060190Y-86876380D01*
X144155428Y-86924000D01*
X144203047Y-86971619D01*
X144298285Y-87114476D01*
X144345904Y-87304952D01*
X144345904Y-87685904D01*
X144298285Y-87781142D01*
X144250666Y-87828761D01*
X144155428Y-87876380D01*
X143964952Y-87876380D01*
X143869714Y-87828761D01*
X143822095Y-87781142D01*
X143774476Y-87685904D01*
X143774476Y-87447809D01*
X143822095Y-87352571D01*
X143869714Y-87304952D01*
X143964952Y-87257333D01*
X144155428Y-87257333D01*
X144250666Y-87304952D01*
X144298285Y-87352571D01*
X144345904Y-87447809D01*
X149075238Y-87869619D02*
X149170476Y-87822000D01*
X149265714Y-87726761D01*
X149408571Y-87583904D01*
X149503809Y-87536285D01*
X149599047Y-87536285D01*
X149551428Y-87774380D02*
X149646666Y-87726761D01*
X149741904Y-87631523D01*
X149789523Y-87441047D01*
X149789523Y-87107714D01*
X149741904Y-86917238D01*
X149646666Y-86822000D01*
X149551428Y-86774380D01*
X149360952Y-86774380D01*
X149265714Y-86822000D01*
X149170476Y-86917238D01*
X149122857Y-87107714D01*
X149122857Y-87441047D01*
X149170476Y-87631523D01*
X149265714Y-87726761D01*
X149360952Y-87774380D01*
X149551428Y-87774380D01*
X148218095Y-86774380D02*
X148694285Y-86774380D01*
X148741904Y-87250571D01*
X148694285Y-87202952D01*
X148599047Y-87155333D01*
X148360952Y-87155333D01*
X148265714Y-87202952D01*
X148218095Y-87250571D01*
X148170476Y-87345809D01*
X148170476Y-87583904D01*
X148218095Y-87679142D01*
X148265714Y-87726761D01*
X148360952Y-87774380D01*
X148599047Y-87774380D01*
X148694285Y-87726761D01*
X148741904Y-87679142D01*
X162203619Y-80312761D02*
X162156000Y-80217523D01*
X162060761Y-80122285D01*
X161917904Y-79979428D01*
X161870285Y-79884190D01*
X161870285Y-79788952D01*
X162108380Y-79836571D02*
X162060761Y-79741333D01*
X161965523Y-79646095D01*
X161775047Y-79598476D01*
X161441714Y-79598476D01*
X161251238Y-79646095D01*
X161156000Y-79741333D01*
X161108380Y-79836571D01*
X161108380Y-80027047D01*
X161156000Y-80122285D01*
X161251238Y-80217523D01*
X161441714Y-80265142D01*
X161775047Y-80265142D01*
X161965523Y-80217523D01*
X162060761Y-80122285D01*
X162108380Y-80027047D01*
X162108380Y-79836571D01*
X161441714Y-81122285D02*
X162108380Y-81122285D01*
X161060761Y-80884190D02*
X161775047Y-80646095D01*
X161775047Y-81265142D01*
X167283619Y-80328761D02*
X167236000Y-80233523D01*
X167140761Y-80138285D01*
X166997904Y-79995428D01*
X166950285Y-79900190D01*
X166950285Y-79804952D01*
X167188380Y-79852571D02*
X167140761Y-79757333D01*
X167045523Y-79662095D01*
X166855047Y-79614476D01*
X166521714Y-79614476D01*
X166331238Y-79662095D01*
X166236000Y-79757333D01*
X166188380Y-79852571D01*
X166188380Y-80043047D01*
X166236000Y-80138285D01*
X166331238Y-80233523D01*
X166521714Y-80281142D01*
X166855047Y-80281142D01*
X167045523Y-80233523D01*
X167140761Y-80138285D01*
X167188380Y-80043047D01*
X167188380Y-79852571D01*
X166188380Y-80614476D02*
X166188380Y-81233523D01*
X166569333Y-80900190D01*
X166569333Y-81043047D01*
X166616952Y-81138285D01*
X166664571Y-81185904D01*
X166759809Y-81233523D01*
X166997904Y-81233523D01*
X167093142Y-81185904D01*
X167140761Y-81138285D01*
X167188380Y-81043047D01*
X167188380Y-80757333D01*
X167140761Y-80662095D01*
X167093142Y-80614476D01*
X172347619Y-80328761D02*
X172300000Y-80233523D01*
X172204761Y-80138285D01*
X172061904Y-79995428D01*
X172014285Y-79900190D01*
X172014285Y-79804952D01*
X172252380Y-79852571D02*
X172204761Y-79757333D01*
X172109523Y-79662095D01*
X171919047Y-79614476D01*
X171585714Y-79614476D01*
X171395238Y-79662095D01*
X171300000Y-79757333D01*
X171252380Y-79852571D01*
X171252380Y-80043047D01*
X171300000Y-80138285D01*
X171395238Y-80233523D01*
X171585714Y-80281142D01*
X171919047Y-80281142D01*
X172109523Y-80233523D01*
X172204761Y-80138285D01*
X172252380Y-80043047D01*
X172252380Y-79852571D01*
X171347619Y-80662095D02*
X171300000Y-80709714D01*
X171252380Y-80804952D01*
X171252380Y-81043047D01*
X171300000Y-81138285D01*
X171347619Y-81185904D01*
X171442857Y-81233523D01*
X171538095Y-81233523D01*
X171680952Y-81185904D01*
X172252380Y-80614476D01*
X172252380Y-81233523D01*
X177697619Y-80328761D02*
X177650000Y-80233523D01*
X177554761Y-80138285D01*
X177411904Y-79995428D01*
X177364285Y-79900190D01*
X177364285Y-79804952D01*
X177602380Y-79852571D02*
X177554761Y-79757333D01*
X177459523Y-79662095D01*
X177269047Y-79614476D01*
X176935714Y-79614476D01*
X176745238Y-79662095D01*
X176650000Y-79757333D01*
X176602380Y-79852571D01*
X176602380Y-80043047D01*
X176650000Y-80138285D01*
X176745238Y-80233523D01*
X176935714Y-80281142D01*
X177269047Y-80281142D01*
X177459523Y-80233523D01*
X177554761Y-80138285D01*
X177602380Y-80043047D01*
X177602380Y-79852571D01*
X177602380Y-81233523D02*
X177602380Y-80662095D01*
X177602380Y-80947809D02*
X176602380Y-80947809D01*
X176745238Y-80852571D01*
X176840476Y-80757333D01*
X176888095Y-80662095D01*
X157441523Y-83390380D02*
X157441523Y-82390380D01*
X157108190Y-83104666D01*
X156774857Y-82390380D01*
X156774857Y-83390380D01*
X155870095Y-82723714D02*
X155870095Y-83390380D01*
X156108190Y-82342761D02*
X156346285Y-83057047D01*
X155727238Y-83057047D01*
X162521523Y-83390380D02*
X162521523Y-82390380D01*
X162188190Y-83104666D01*
X161854857Y-82390380D01*
X161854857Y-83390380D01*
X161473904Y-82390380D02*
X160854857Y-82390380D01*
X161188190Y-82771333D01*
X161045333Y-82771333D01*
X160950095Y-82818952D01*
X160902476Y-82866571D01*
X160854857Y-82961809D01*
X160854857Y-83199904D01*
X160902476Y-83295142D01*
X160950095Y-83342761D01*
X161045333Y-83390380D01*
X161331047Y-83390380D01*
X161426285Y-83342761D01*
X161473904Y-83295142D01*
X167585523Y-83456380D02*
X167585523Y-82456380D01*
X167252190Y-83170666D01*
X166918857Y-82456380D01*
X166918857Y-83456380D01*
X166490285Y-82551619D02*
X166442666Y-82504000D01*
X166347428Y-82456380D01*
X166109333Y-82456380D01*
X166014095Y-82504000D01*
X165966476Y-82551619D01*
X165918857Y-82646857D01*
X165918857Y-82742095D01*
X165966476Y-82884952D01*
X166537904Y-83456380D01*
X165918857Y-83456380D01*
X172665523Y-83456380D02*
X172665523Y-82456380D01*
X172332190Y-83170666D01*
X171998857Y-82456380D01*
X171998857Y-83456380D01*
X170998857Y-83456380D02*
X171570285Y-83456380D01*
X171284571Y-83456380D02*
X171284571Y-82456380D01*
X171379809Y-82599238D01*
X171475047Y-82694476D01*
X171570285Y-82742095D01*
X184278095Y-89726380D02*
X184278095Y-88726380D01*
X184040000Y-88726380D01*
X183897142Y-88774000D01*
X183801904Y-88869238D01*
X183754285Y-88964476D01*
X183706666Y-89154952D01*
X183706666Y-89297809D01*
X183754285Y-89488285D01*
X183801904Y-89583523D01*
X183897142Y-89678761D01*
X184040000Y-89726380D01*
X184278095Y-89726380D01*
X182754285Y-89726380D02*
X183325714Y-89726380D01*
X183040000Y-89726380D02*
X183040000Y-88726380D01*
X183135238Y-88869238D01*
X183230476Y-88964476D01*
X183325714Y-89012095D01*
X194097857Y-79131142D02*
X194145476Y-79178761D01*
X194288333Y-79226380D01*
X194383571Y-79226380D01*
X194526428Y-79178761D01*
X194621666Y-79083523D01*
X194669285Y-78988285D01*
X194716904Y-78797809D01*
X194716904Y-78654952D01*
X194669285Y-78464476D01*
X194621666Y-78369238D01*
X194526428Y-78274000D01*
X194383571Y-78226380D01*
X194288333Y-78226380D01*
X194145476Y-78274000D01*
X194097857Y-78321619D01*
X193145476Y-79226380D02*
X193716904Y-79226380D01*
X193431190Y-79226380D02*
X193431190Y-78226380D01*
X193526428Y-78369238D01*
X193621666Y-78464476D01*
X193716904Y-78512095D01*
X192764523Y-78321619D02*
X192716904Y-78274000D01*
X192621666Y-78226380D01*
X192383571Y-78226380D01*
X192288333Y-78274000D01*
X192240714Y-78321619D01*
X192193095Y-78416857D01*
X192193095Y-78512095D01*
X192240714Y-78654952D01*
X192812142Y-79226380D01*
X192193095Y-79226380D01*
X142783142Y-80121333D02*
X142830761Y-80073714D01*
X142878380Y-79930857D01*
X142878380Y-79835619D01*
X142830761Y-79692761D01*
X142735523Y-79597523D01*
X142640285Y-79549904D01*
X142449809Y-79502285D01*
X142306952Y-79502285D01*
X142116476Y-79549904D01*
X142021238Y-79597523D01*
X141926000Y-79692761D01*
X141878380Y-79835619D01*
X141878380Y-79930857D01*
X141926000Y-80073714D01*
X141973619Y-80121333D01*
X142306952Y-80692761D02*
X142259333Y-80597523D01*
X142211714Y-80549904D01*
X142116476Y-80502285D01*
X142068857Y-80502285D01*
X141973619Y-80549904D01*
X141926000Y-80597523D01*
X141878380Y-80692761D01*
X141878380Y-80883238D01*
X141926000Y-80978476D01*
X141973619Y-81026095D01*
X142068857Y-81073714D01*
X142116476Y-81073714D01*
X142211714Y-81026095D01*
X142259333Y-80978476D01*
X142306952Y-80883238D01*
X142306952Y-80692761D01*
X142354571Y-80597523D01*
X142402190Y-80549904D01*
X142497428Y-80502285D01*
X142687904Y-80502285D01*
X142783142Y-80549904D01*
X142830761Y-80597523D01*
X142878380Y-80692761D01*
X142878380Y-80883238D01*
X142830761Y-80978476D01*
X142783142Y-81026095D01*
X142687904Y-81073714D01*
X142497428Y-81073714D01*
X142402190Y-81026095D01*
X142354571Y-80978476D01*
X142306952Y-80883238D01*
X118882142Y-87783333D02*
X118929761Y-87735714D01*
X118977380Y-87592857D01*
X118977380Y-87497619D01*
X118929761Y-87354761D01*
X118834523Y-87259523D01*
X118739285Y-87211904D01*
X118548809Y-87164285D01*
X118405952Y-87164285D01*
X118215476Y-87211904D01*
X118120238Y-87259523D01*
X118025000Y-87354761D01*
X117977380Y-87497619D01*
X117977380Y-87592857D01*
X118025000Y-87735714D01*
X118072619Y-87783333D01*
X117977380Y-88116666D02*
X117977380Y-88735714D01*
X118358333Y-88402380D01*
X118358333Y-88545238D01*
X118405952Y-88640476D01*
X118453571Y-88688095D01*
X118548809Y-88735714D01*
X118786904Y-88735714D01*
X118882142Y-88688095D01*
X118929761Y-88640476D01*
X118977380Y-88545238D01*
X118977380Y-88259523D01*
X118929761Y-88164285D01*
X118882142Y-88116666D01*
X120502142Y-98358333D02*
X120549761Y-98310714D01*
X120597380Y-98167857D01*
X120597380Y-98072619D01*
X120549761Y-97929761D01*
X120454523Y-97834523D01*
X120359285Y-97786904D01*
X120168809Y-97739285D01*
X120025952Y-97739285D01*
X119835476Y-97786904D01*
X119740238Y-97834523D01*
X119645000Y-97929761D01*
X119597380Y-98072619D01*
X119597380Y-98167857D01*
X119645000Y-98310714D01*
X119692619Y-98358333D01*
X119692619Y-98739285D02*
X119645000Y-98786904D01*
X119597380Y-98882142D01*
X119597380Y-99120238D01*
X119645000Y-99215476D01*
X119692619Y-99263095D01*
X119787857Y-99310714D01*
X119883095Y-99310714D01*
X120025952Y-99263095D01*
X120597380Y-98691666D01*
X120597380Y-99310714D01*
X120916666Y-79107142D02*
X120964285Y-79154761D01*
X121107142Y-79202380D01*
X121202380Y-79202380D01*
X121345238Y-79154761D01*
X121440476Y-79059523D01*
X121488095Y-78964285D01*
X121535714Y-78773809D01*
X121535714Y-78630952D01*
X121488095Y-78440476D01*
X121440476Y-78345238D01*
X121345238Y-78250000D01*
X121202380Y-78202380D01*
X121107142Y-78202380D01*
X120964285Y-78250000D01*
X120916666Y-78297619D01*
X119964285Y-79202380D02*
X120535714Y-79202380D01*
X120250000Y-79202380D02*
X120250000Y-78202380D01*
X120345238Y-78345238D01*
X120440476Y-78440476D01*
X120535714Y-78488095D01*
%LPC*%
D13*
X205000000Y-75000000D03*
X124000000Y-90000000D03*
D14*
X202905000Y-89200000D03*
X202905000Y-81000000D03*
X205845000Y-89200000D03*
X205845000Y-81000000D03*
D15*
X131800000Y-102395000D03*
X114020000Y-94775000D03*
X129260000Y-102395000D03*
X116560000Y-94775000D03*
X126720000Y-102395000D03*
X119100000Y-94775000D03*
X124180000Y-102395000D03*
X121640000Y-94775000D03*
X121640000Y-102395000D03*
X124180000Y-94775000D03*
X119100000Y-102395000D03*
X126720000Y-94775000D03*
X116560000Y-102395000D03*
X129260000Y-94775000D03*
X114020000Y-102395000D03*
G36*
G01*
X131000000Y-93924200D02*
X132600000Y-93924200D01*
G75*
G02*
X132650800Y-93975000I0J-50800D01*
G01*
X132650800Y-95575000D01*
G75*
G02*
X132600000Y-95625800I-50800J0D01*
G01*
X131000000Y-95625800D01*
G75*
G02*
X130949200Y-95575000I0J50800D01*
G01*
X130949200Y-93975000D01*
G75*
G02*
X131000000Y-93924200I50800J0D01*
G01*
G37*
G36*
G01*
X172065859Y-101360800D02*
X170794141Y-101360800D01*
G75*
G02*
X170529200Y-101095859I0J264941D01*
G01*
X170529200Y-99824141D01*
G75*
G02*
X170794141Y-99559200I264941J0D01*
G01*
X172065859Y-99559200D01*
G75*
G02*
X172330800Y-99824141I0J-264941D01*
G01*
X172330800Y-101095859D01*
G75*
G02*
X172065859Y-101360800I-264941J0D01*
G01*
G37*
D16*
X168890000Y-100460000D03*
X166350000Y-100460000D03*
X163810000Y-100460000D03*
X161270000Y-100460000D03*
X158730000Y-100460000D03*
X156190000Y-100460000D03*
X153650000Y-100460000D03*
X151110000Y-100460000D03*
X148570000Y-100460000D03*
X171430000Y-97920000D03*
X168890000Y-97920000D03*
X166350000Y-97920000D03*
X163810000Y-97920000D03*
X161270000Y-97920000D03*
X158730000Y-97920000D03*
X156190000Y-97920000D03*
X153650000Y-97920000D03*
X151110000Y-97920000D03*
X148570000Y-97920000D03*
D17*
X184080000Y-98966000D03*
G36*
G01*
X202430900Y-98165900D02*
X202430900Y-99766100D01*
G75*
G02*
X202380100Y-99816900I-50800J0D01*
G01*
X200779900Y-99816900D01*
G75*
G02*
X200729100Y-99766100I0J50800D01*
G01*
X200729100Y-98165900D01*
G75*
G02*
X200779900Y-98115100I50800J0D01*
G01*
X202380100Y-98115100D01*
G75*
G02*
X202430900Y-98165900I0J-50800D01*
G01*
G37*
G36*
G01*
X145960800Y-79961000D02*
X145960800Y-80511000D01*
G75*
G02*
X145910000Y-80561800I-50800J0D01*
G01*
X145110000Y-80561800D01*
G75*
G02*
X145059200Y-80511000I0J50800D01*
G01*
X145059200Y-79961000D01*
G75*
G02*
X145110000Y-79910200I50800J0D01*
G01*
X145910000Y-79910200D01*
G75*
G02*
X145960800Y-79961000I0J-50800D01*
G01*
G37*
G36*
G01*
X145960800Y-80911000D02*
X145960800Y-81461000D01*
G75*
G02*
X145910000Y-81511800I-50800J0D01*
G01*
X145110000Y-81511800D01*
G75*
G02*
X145059200Y-81461000I0J50800D01*
G01*
X145059200Y-80911000D01*
G75*
G02*
X145110000Y-80860200I50800J0D01*
G01*
X145910000Y-80860200D01*
G75*
G02*
X145960800Y-80911000I0J-50800D01*
G01*
G37*
G36*
G01*
X145960800Y-81861000D02*
X145960800Y-82411000D01*
G75*
G02*
X145910000Y-82461800I-50800J0D01*
G01*
X145110000Y-82461800D01*
G75*
G02*
X145059200Y-82411000I0J50800D01*
G01*
X145059200Y-81861000D01*
G75*
G02*
X145110000Y-81810200I50800J0D01*
G01*
X145910000Y-81810200D01*
G75*
G02*
X145960800Y-81861000I0J-50800D01*
G01*
G37*
G36*
G01*
X148360800Y-81861000D02*
X148360800Y-82411000D01*
G75*
G02*
X148310000Y-82461800I-50800J0D01*
G01*
X147510000Y-82461800D01*
G75*
G02*
X147459200Y-82411000I0J50800D01*
G01*
X147459200Y-81861000D01*
G75*
G02*
X147510000Y-81810200I50800J0D01*
G01*
X148310000Y-81810200D01*
G75*
G02*
X148360800Y-81861000I0J-50800D01*
G01*
G37*
G36*
G01*
X148360800Y-80911000D02*
X148360800Y-81461000D01*
G75*
G02*
X148310000Y-81511800I-50800J0D01*
G01*
X147510000Y-81511800D01*
G75*
G02*
X147459200Y-81461000I0J50800D01*
G01*
X147459200Y-80911000D01*
G75*
G02*
X147510000Y-80860200I50800J0D01*
G01*
X148310000Y-80860200D01*
G75*
G02*
X148360800Y-80911000I0J-50800D01*
G01*
G37*
G36*
G01*
X148360800Y-79961000D02*
X148360800Y-80511000D01*
G75*
G02*
X148310000Y-80561800I-50800J0D01*
G01*
X147510000Y-80561800D01*
G75*
G02*
X147459200Y-80511000I0J50800D01*
G01*
X147459200Y-79961000D01*
G75*
G02*
X147510000Y-79910200I50800J0D01*
G01*
X148310000Y-79910200D01*
G75*
G02*
X148360800Y-79961000I0J-50800D01*
G01*
G37*
G36*
G01*
X131975000Y-72349200D02*
X133575000Y-72349200D01*
G75*
G02*
X133625800Y-72400000I0J-50800D01*
G01*
X133625800Y-74000000D01*
G75*
G02*
X133575000Y-74050800I-50800J0D01*
G01*
X131975000Y-74050800D01*
G75*
G02*
X131924200Y-74000000I0J50800D01*
G01*
X131924200Y-72400000D01*
G75*
G02*
X131975000Y-72349200I50800J0D01*
G01*
G37*
D15*
X112455000Y-80820000D03*
X130235000Y-73200000D03*
X114995000Y-80820000D03*
X127695000Y-73200000D03*
X117535000Y-80820000D03*
X125155000Y-73200000D03*
X120075000Y-80820000D03*
X122615000Y-73200000D03*
X122615000Y-80820000D03*
X120075000Y-73200000D03*
X125155000Y-80820000D03*
X117535000Y-73200000D03*
X127695000Y-80820000D03*
X114995000Y-73200000D03*
X130235000Y-80820000D03*
X112455000Y-73200000D03*
X132775000Y-80820000D03*
X156108000Y-91092000D03*
X158648000Y-91092000D03*
X161188000Y-91092000D03*
X163728000Y-91092000D03*
X166268000Y-91092000D03*
X168808000Y-91092000D03*
X171348000Y-91092000D03*
G36*
G01*
X174738800Y-90292000D02*
X174738800Y-91892000D01*
G75*
G02*
X174688000Y-91942800I-50800J0D01*
G01*
X173088000Y-91942800D01*
G75*
G02*
X173037200Y-91892000I0J50800D01*
G01*
X173037200Y-90292000D01*
G75*
G02*
X173088000Y-90241200I50800J0D01*
G01*
X174688000Y-90241200D01*
G75*
G02*
X174738800Y-90292000I0J-50800D01*
G01*
G37*
G36*
G01*
X128449999Y-99949200D02*
X128950001Y-99949200D01*
G75*
G02*
X129000800Y-99999999I0J-50799D01*
G01*
X129000800Y-100800001D01*
G75*
G02*
X128950001Y-100850800I-50799J0D01*
G01*
X128449999Y-100850800D01*
G75*
G02*
X128399200Y-100800001I0J50799D01*
G01*
X128399200Y-99999999D01*
G75*
G02*
X128449999Y-99949200I50799J0D01*
G01*
G37*
G36*
G01*
X127700000Y-99949200D02*
X128100000Y-99949200D01*
G75*
G02*
X128150800Y-100000000I0J-50800D01*
G01*
X128150800Y-100800000D01*
G75*
G02*
X128100000Y-100850800I-50800J0D01*
G01*
X127700000Y-100850800D01*
G75*
G02*
X127649200Y-100800000I0J50800D01*
G01*
X127649200Y-100000000D01*
G75*
G02*
X127700000Y-99949200I50800J0D01*
G01*
G37*
G36*
G01*
X126049999Y-99949200D02*
X126550001Y-99949200D01*
G75*
G02*
X126600800Y-99999999I0J-50799D01*
G01*
X126600800Y-100800001D01*
G75*
G02*
X126550001Y-100850800I-50799J0D01*
G01*
X126049999Y-100850800D01*
G75*
G02*
X125999200Y-100800001I0J50799D01*
G01*
X125999200Y-99999999D01*
G75*
G02*
X126049999Y-99949200I50799J0D01*
G01*
G37*
G36*
G01*
X126900000Y-99949200D02*
X127300000Y-99949200D01*
G75*
G02*
X127350800Y-100000000I0J-50800D01*
G01*
X127350800Y-100800000D01*
G75*
G02*
X127300000Y-100850800I-50800J0D01*
G01*
X126900000Y-100850800D01*
G75*
G02*
X126849200Y-100800000I0J50800D01*
G01*
X126849200Y-100000000D01*
G75*
G02*
X126900000Y-99949200I50800J0D01*
G01*
G37*
G36*
G01*
X128449999Y-98149200D02*
X128950001Y-98149200D01*
G75*
G02*
X129000800Y-98199999I0J-50799D01*
G01*
X129000800Y-99000001D01*
G75*
G02*
X128950001Y-99050800I-50799J0D01*
G01*
X128449999Y-99050800D01*
G75*
G02*
X128399200Y-99000001I0J50799D01*
G01*
X128399200Y-98199999D01*
G75*
G02*
X128449999Y-98149200I50799J0D01*
G01*
G37*
G36*
G01*
X126900000Y-98149200D02*
X127300000Y-98149200D01*
G75*
G02*
X127350800Y-98200000I0J-50800D01*
G01*
X127350800Y-99000000D01*
G75*
G02*
X127300000Y-99050800I-50800J0D01*
G01*
X126900000Y-99050800D01*
G75*
G02*
X126849200Y-99000000I0J50800D01*
G01*
X126849200Y-98200000D01*
G75*
G02*
X126900000Y-98149200I50800J0D01*
G01*
G37*
G36*
G01*
X127700000Y-98149200D02*
X128100000Y-98149200D01*
G75*
G02*
X128150800Y-98200000I0J-50800D01*
G01*
X128150800Y-99000000D01*
G75*
G02*
X128100000Y-99050800I-50800J0D01*
G01*
X127700000Y-99050800D01*
G75*
G02*
X127649200Y-99000000I0J50800D01*
G01*
X127649200Y-98200000D01*
G75*
G02*
X127700000Y-98149200I50800J0D01*
G01*
G37*
G36*
G01*
X126049999Y-98149200D02*
X126550001Y-98149200D01*
G75*
G02*
X126600800Y-98199999I0J-50799D01*
G01*
X126600800Y-99000001D01*
G75*
G02*
X126550001Y-99050800I-50799J0D01*
G01*
X126049999Y-99050800D01*
G75*
G02*
X125999200Y-99000001I0J50799D01*
G01*
X125999200Y-98199999D01*
G75*
G02*
X126049999Y-98149200I50799J0D01*
G01*
G37*
G36*
G01*
X117474999Y-99874200D02*
X117975001Y-99874200D01*
G75*
G02*
X118025800Y-99924999I0J-50799D01*
G01*
X118025800Y-100725001D01*
G75*
G02*
X117975001Y-100775800I-50799J0D01*
G01*
X117474999Y-100775800D01*
G75*
G02*
X117424200Y-100725001I0J50799D01*
G01*
X117424200Y-99924999D01*
G75*
G02*
X117474999Y-99874200I50799J0D01*
G01*
G37*
G36*
G01*
X116725000Y-99874200D02*
X117125000Y-99874200D01*
G75*
G02*
X117175800Y-99925000I0J-50800D01*
G01*
X117175800Y-100725000D01*
G75*
G02*
X117125000Y-100775800I-50800J0D01*
G01*
X116725000Y-100775800D01*
G75*
G02*
X116674200Y-100725000I0J50800D01*
G01*
X116674200Y-99925000D01*
G75*
G02*
X116725000Y-99874200I50800J0D01*
G01*
G37*
G36*
G01*
X115074999Y-99874200D02*
X115575001Y-99874200D01*
G75*
G02*
X115625800Y-99924999I0J-50799D01*
G01*
X115625800Y-100725001D01*
G75*
G02*
X115575001Y-100775800I-50799J0D01*
G01*
X115074999Y-100775800D01*
G75*
G02*
X115024200Y-100725001I0J50799D01*
G01*
X115024200Y-99924999D01*
G75*
G02*
X115074999Y-99874200I50799J0D01*
G01*
G37*
G36*
G01*
X115925000Y-99874200D02*
X116325000Y-99874200D01*
G75*
G02*
X116375800Y-99925000I0J-50800D01*
G01*
X116375800Y-100725000D01*
G75*
G02*
X116325000Y-100775800I-50800J0D01*
G01*
X115925000Y-100775800D01*
G75*
G02*
X115874200Y-100725000I0J50800D01*
G01*
X115874200Y-99925000D01*
G75*
G02*
X115925000Y-99874200I50800J0D01*
G01*
G37*
G36*
G01*
X117474999Y-98074200D02*
X117975001Y-98074200D01*
G75*
G02*
X118025800Y-98124999I0J-50799D01*
G01*
X118025800Y-98925001D01*
G75*
G02*
X117975001Y-98975800I-50799J0D01*
G01*
X117474999Y-98975800D01*
G75*
G02*
X117424200Y-98925001I0J50799D01*
G01*
X117424200Y-98124999D01*
G75*
G02*
X117474999Y-98074200I50799J0D01*
G01*
G37*
G36*
G01*
X115925000Y-98074200D02*
X116325000Y-98074200D01*
G75*
G02*
X116375800Y-98125000I0J-50800D01*
G01*
X116375800Y-98925000D01*
G75*
G02*
X116325000Y-98975800I-50800J0D01*
G01*
X115925000Y-98975800D01*
G75*
G02*
X115874200Y-98925000I0J50800D01*
G01*
X115874200Y-98125000D01*
G75*
G02*
X115925000Y-98074200I50800J0D01*
G01*
G37*
G36*
G01*
X116725000Y-98074200D02*
X117125000Y-98074200D01*
G75*
G02*
X117175800Y-98125000I0J-50800D01*
G01*
X117175800Y-98925000D01*
G75*
G02*
X117125000Y-98975800I-50800J0D01*
G01*
X116725000Y-98975800D01*
G75*
G02*
X116674200Y-98925000I0J50800D01*
G01*
X116674200Y-98125000D01*
G75*
G02*
X116725000Y-98074200I50800J0D01*
G01*
G37*
G36*
G01*
X115074999Y-98074200D02*
X115575001Y-98074200D01*
G75*
G02*
X115625800Y-98124999I0J-50799D01*
G01*
X115625800Y-98925001D01*
G75*
G02*
X115575001Y-98975800I-50799J0D01*
G01*
X115074999Y-98975800D01*
G75*
G02*
X115024200Y-98925001I0J50799D01*
G01*
X115024200Y-98124999D01*
G75*
G02*
X115074999Y-98074200I50799J0D01*
G01*
G37*
G36*
G01*
X114474999Y-78449200D02*
X114975001Y-78449200D01*
G75*
G02*
X115025800Y-78499999I0J-50799D01*
G01*
X115025800Y-79300001D01*
G75*
G02*
X114975001Y-79350800I-50799J0D01*
G01*
X114474999Y-79350800D01*
G75*
G02*
X114424200Y-79300001I0J50799D01*
G01*
X114424200Y-78499999D01*
G75*
G02*
X114474999Y-78449200I50799J0D01*
G01*
G37*
G36*
G01*
X113725000Y-78449200D02*
X114125000Y-78449200D01*
G75*
G02*
X114175800Y-78500000I0J-50800D01*
G01*
X114175800Y-79300000D01*
G75*
G02*
X114125000Y-79350800I-50800J0D01*
G01*
X113725000Y-79350800D01*
G75*
G02*
X113674200Y-79300000I0J50800D01*
G01*
X113674200Y-78500000D01*
G75*
G02*
X113725000Y-78449200I50800J0D01*
G01*
G37*
G36*
G01*
X112074999Y-78449200D02*
X112575001Y-78449200D01*
G75*
G02*
X112625800Y-78499999I0J-50799D01*
G01*
X112625800Y-79300001D01*
G75*
G02*
X112575001Y-79350800I-50799J0D01*
G01*
X112074999Y-79350800D01*
G75*
G02*
X112024200Y-79300001I0J50799D01*
G01*
X112024200Y-78499999D01*
G75*
G02*
X112074999Y-78449200I50799J0D01*
G01*
G37*
G36*
G01*
X112925000Y-78449200D02*
X113325000Y-78449200D01*
G75*
G02*
X113375800Y-78500000I0J-50800D01*
G01*
X113375800Y-79300000D01*
G75*
G02*
X113325000Y-79350800I-50800J0D01*
G01*
X112925000Y-79350800D01*
G75*
G02*
X112874200Y-79300000I0J50800D01*
G01*
X112874200Y-78500000D01*
G75*
G02*
X112925000Y-78449200I50800J0D01*
G01*
G37*
G36*
G01*
X114474999Y-76649200D02*
X114975001Y-76649200D01*
G75*
G02*
X115025800Y-76699999I0J-50799D01*
G01*
X115025800Y-77500001D01*
G75*
G02*
X114975001Y-77550800I-50799J0D01*
G01*
X114474999Y-77550800D01*
G75*
G02*
X114424200Y-77500001I0J50799D01*
G01*
X114424200Y-76699999D01*
G75*
G02*
X114474999Y-76649200I50799J0D01*
G01*
G37*
G36*
G01*
X112925000Y-76649200D02*
X113325000Y-76649200D01*
G75*
G02*
X113375800Y-76700000I0J-50800D01*
G01*
X113375800Y-77500000D01*
G75*
G02*
X113325000Y-77550800I-50800J0D01*
G01*
X112925000Y-77550800D01*
G75*
G02*
X112874200Y-77500000I0J50800D01*
G01*
X112874200Y-76700000D01*
G75*
G02*
X112925000Y-76649200I50800J0D01*
G01*
G37*
G36*
G01*
X113725000Y-76649200D02*
X114125000Y-76649200D01*
G75*
G02*
X114175800Y-76700000I0J-50800D01*
G01*
X114175800Y-77500000D01*
G75*
G02*
X114125000Y-77550800I-50800J0D01*
G01*
X113725000Y-77550800D01*
G75*
G02*
X113674200Y-77500000I0J50800D01*
G01*
X113674200Y-76700000D01*
G75*
G02*
X113725000Y-76649200I50800J0D01*
G01*
G37*
G36*
G01*
X112074999Y-76649200D02*
X112575001Y-76649200D01*
G75*
G02*
X112625800Y-76699999I0J-50799D01*
G01*
X112625800Y-77500001D01*
G75*
G02*
X112575001Y-77550800I-50799J0D01*
G01*
X112074999Y-77550800D01*
G75*
G02*
X112024200Y-77500001I0J50799D01*
G01*
X112024200Y-76699999D01*
G75*
G02*
X112074999Y-76649200I50799J0D01*
G01*
G37*
G36*
G01*
X116825001Y-76075800D02*
X116324999Y-76075800D01*
G75*
G02*
X116274200Y-76025001I0J50799D01*
G01*
X116274200Y-75224999D01*
G75*
G02*
X116324999Y-75174200I50799J0D01*
G01*
X116825001Y-75174200D01*
G75*
G02*
X116875800Y-75224999I0J-50799D01*
G01*
X116875800Y-76025001D01*
G75*
G02*
X116825001Y-76075800I-50799J0D01*
G01*
G37*
G36*
G01*
X117575000Y-76075800D02*
X117175000Y-76075800D01*
G75*
G02*
X117124200Y-76025000I0J50800D01*
G01*
X117124200Y-75225000D01*
G75*
G02*
X117175000Y-75174200I50800J0D01*
G01*
X117575000Y-75174200D01*
G75*
G02*
X117625800Y-75225000I0J-50800D01*
G01*
X117625800Y-76025000D01*
G75*
G02*
X117575000Y-76075800I-50800J0D01*
G01*
G37*
G36*
G01*
X119225001Y-76075800D02*
X118724999Y-76075800D01*
G75*
G02*
X118674200Y-76025001I0J50799D01*
G01*
X118674200Y-75224999D01*
G75*
G02*
X118724999Y-75174200I50799J0D01*
G01*
X119225001Y-75174200D01*
G75*
G02*
X119275800Y-75224999I0J-50799D01*
G01*
X119275800Y-76025001D01*
G75*
G02*
X119225001Y-76075800I-50799J0D01*
G01*
G37*
G36*
G01*
X118375000Y-76075800D02*
X117975000Y-76075800D01*
G75*
G02*
X117924200Y-76025000I0J50800D01*
G01*
X117924200Y-75225000D01*
G75*
G02*
X117975000Y-75174200I50800J0D01*
G01*
X118375000Y-75174200D01*
G75*
G02*
X118425800Y-75225000I0J-50800D01*
G01*
X118425800Y-76025000D01*
G75*
G02*
X118375000Y-76075800I-50800J0D01*
G01*
G37*
G36*
G01*
X116825001Y-77875800D02*
X116324999Y-77875800D01*
G75*
G02*
X116274200Y-77825001I0J50799D01*
G01*
X116274200Y-77024999D01*
G75*
G02*
X116324999Y-76974200I50799J0D01*
G01*
X116825001Y-76974200D01*
G75*
G02*
X116875800Y-77024999I0J-50799D01*
G01*
X116875800Y-77825001D01*
G75*
G02*
X116825001Y-77875800I-50799J0D01*
G01*
G37*
G36*
G01*
X118375000Y-77875800D02*
X117975000Y-77875800D01*
G75*
G02*
X117924200Y-77825000I0J50800D01*
G01*
X117924200Y-77025000D01*
G75*
G02*
X117975000Y-76974200I50800J0D01*
G01*
X118375000Y-76974200D01*
G75*
G02*
X118425800Y-77025000I0J-50800D01*
G01*
X118425800Y-77825000D01*
G75*
G02*
X118375000Y-77875800I-50800J0D01*
G01*
G37*
G36*
G01*
X117575000Y-77875800D02*
X117175000Y-77875800D01*
G75*
G02*
X117124200Y-77825000I0J50800D01*
G01*
X117124200Y-77025000D01*
G75*
G02*
X117175000Y-76974200I50800J0D01*
G01*
X117575000Y-76974200D01*
G75*
G02*
X117625800Y-77025000I0J-50800D01*
G01*
X117625800Y-77825000D01*
G75*
G02*
X117575000Y-77875800I-50800J0D01*
G01*
G37*
G36*
G01*
X119225001Y-77875800D02*
X118724999Y-77875800D01*
G75*
G02*
X118674200Y-77825001I0J50799D01*
G01*
X118674200Y-77024999D01*
G75*
G02*
X118724999Y-76974200I50799J0D01*
G01*
X119225001Y-76974200D01*
G75*
G02*
X119275800Y-77024999I0J-50799D01*
G01*
X119275800Y-77825001D01*
G75*
G02*
X119225001Y-77875800I-50799J0D01*
G01*
G37*
G36*
G01*
X179367200Y-91570715D02*
X179367200Y-90613285D01*
G75*
G02*
X179639285Y-90341200I272085J0D01*
G01*
X180346715Y-90341200D01*
G75*
G02*
X180618800Y-90613285I0J-272085D01*
G01*
X180618800Y-91570715D01*
G75*
G02*
X180346715Y-91842800I-272085J0D01*
G01*
X179639285Y-91842800D01*
G75*
G02*
X179367200Y-91570715I0J272085D01*
G01*
G37*
G36*
G01*
X177317200Y-91570715D02*
X177317200Y-90613285D01*
G75*
G02*
X177589285Y-90341200I272085J0D01*
G01*
X178296715Y-90341200D01*
G75*
G02*
X178568800Y-90613285I0J-272085D01*
G01*
X178568800Y-91570715D01*
G75*
G02*
X178296715Y-91842800I-272085J0D01*
G01*
X177589285Y-91842800D01*
G75*
G02*
X177317200Y-91570715I0J272085D01*
G01*
G37*
G36*
G01*
X144269800Y-85025285D02*
X144269800Y-85982715D01*
G75*
G02*
X143997715Y-86254800I-272085J0D01*
G01*
X143290285Y-86254800D01*
G75*
G02*
X143018200Y-85982715I0J272085D01*
G01*
X143018200Y-85025285D01*
G75*
G02*
X143290285Y-84753200I272085J0D01*
G01*
X143997715Y-84753200D01*
G75*
G02*
X144269800Y-85025285I0J-272085D01*
G01*
G37*
G36*
G01*
X146319800Y-85025285D02*
X146319800Y-85982715D01*
G75*
G02*
X146047715Y-86254800I-272085J0D01*
G01*
X145340285Y-86254800D01*
G75*
G02*
X145068200Y-85982715I0J272085D01*
G01*
X145068200Y-85025285D01*
G75*
G02*
X145340285Y-84753200I272085J0D01*
G01*
X146047715Y-84753200D01*
G75*
G02*
X146319800Y-85025285I0J-272085D01*
G01*
G37*
G36*
G01*
X148596800Y-85025285D02*
X148596800Y-85982715D01*
G75*
G02*
X148324715Y-86254800I-272085J0D01*
G01*
X147617285Y-86254800D01*
G75*
G02*
X147345200Y-85982715I0J272085D01*
G01*
X147345200Y-85025285D01*
G75*
G02*
X147617285Y-84753200I272085J0D01*
G01*
X148324715Y-84753200D01*
G75*
G02*
X148596800Y-85025285I0J-272085D01*
G01*
G37*
G36*
G01*
X150646800Y-85025285D02*
X150646800Y-85982715D01*
G75*
G02*
X150374715Y-86254800I-272085J0D01*
G01*
X149667285Y-86254800D01*
G75*
G02*
X149395200Y-85982715I0J272085D01*
G01*
X149395200Y-85025285D01*
G75*
G02*
X149667285Y-84753200I272085J0D01*
G01*
X150374715Y-84753200D01*
G75*
G02*
X150646800Y-85025285I0J-272085D01*
G01*
G37*
G36*
G01*
X151578715Y-80475800D02*
X150621285Y-80475800D01*
G75*
G02*
X150349200Y-80203715I0J272085D01*
G01*
X150349200Y-79496285D01*
G75*
G02*
X150621285Y-79224200I272085J0D01*
G01*
X151578715Y-79224200D01*
G75*
G02*
X151850800Y-79496285I0J-272085D01*
G01*
X151850800Y-80203715D01*
G75*
G02*
X151578715Y-80475800I-272085J0D01*
G01*
G37*
G36*
G01*
X151578715Y-82525800D02*
X150621285Y-82525800D01*
G75*
G02*
X150349200Y-82253715I0J272085D01*
G01*
X150349200Y-81546285D01*
G75*
G02*
X150621285Y-81274200I272085J0D01*
G01*
X151578715Y-81274200D01*
G75*
G02*
X151850800Y-81546285I0J-272085D01*
G01*
X151850800Y-82253715D01*
G75*
G02*
X151578715Y-82525800I-272085J0D01*
G01*
G37*
G36*
G01*
X172735800Y-76389285D02*
X172735800Y-77346715D01*
G75*
G02*
X172463715Y-77618800I-272085J0D01*
G01*
X171756285Y-77618800D01*
G75*
G02*
X171484200Y-77346715I0J272085D01*
G01*
X171484200Y-76389285D01*
G75*
G02*
X171756285Y-76117200I272085J0D01*
G01*
X172463715Y-76117200D01*
G75*
G02*
X172735800Y-76389285I0J-272085D01*
G01*
G37*
G36*
G01*
X174785800Y-76389285D02*
X174785800Y-77346715D01*
G75*
G02*
X174513715Y-77618800I-272085J0D01*
G01*
X173806285Y-77618800D01*
G75*
G02*
X173534200Y-77346715I0J272085D01*
G01*
X173534200Y-76389285D01*
G75*
G02*
X173806285Y-76117200I272085J0D01*
G01*
X174513715Y-76117200D01*
G75*
G02*
X174785800Y-76389285I0J-272085D01*
G01*
G37*
G36*
G01*
X125628715Y-78100800D02*
X124671285Y-78100800D01*
G75*
G02*
X124399200Y-77828715I0J272085D01*
G01*
X124399200Y-77121285D01*
G75*
G02*
X124671285Y-76849200I272085J0D01*
G01*
X125628715Y-76849200D01*
G75*
G02*
X125900800Y-77121285I0J-272085D01*
G01*
X125900800Y-77828715D01*
G75*
G02*
X125628715Y-78100800I-272085J0D01*
G01*
G37*
G36*
G01*
X125628715Y-76050800D02*
X124671285Y-76050800D01*
G75*
G02*
X124399200Y-75778715I0J272085D01*
G01*
X124399200Y-75071285D01*
G75*
G02*
X124671285Y-74799200I272085J0D01*
G01*
X125628715Y-74799200D01*
G75*
G02*
X125900800Y-75071285I0J-272085D01*
G01*
X125900800Y-75778715D01*
G75*
G02*
X125628715Y-76050800I-272085J0D01*
G01*
G37*
G36*
G01*
X144084800Y-89524000D02*
X144084800Y-90324000D01*
G75*
G02*
X144034000Y-90374800I-50800J0D01*
G01*
X143134000Y-90374800D01*
G75*
G02*
X143083200Y-90324000I0J50800D01*
G01*
X143083200Y-89524000D01*
G75*
G02*
X143134000Y-89473200I50800J0D01*
G01*
X144034000Y-89473200D01*
G75*
G02*
X144084800Y-89524000I0J-50800D01*
G01*
G37*
G36*
G01*
X146084800Y-90474000D02*
X146084800Y-91274000D01*
G75*
G02*
X146034000Y-91324800I-50800J0D01*
G01*
X145134000Y-91324800D01*
G75*
G02*
X145083200Y-91274000I0J50800D01*
G01*
X145083200Y-90474000D01*
G75*
G02*
X145134000Y-90423200I50800J0D01*
G01*
X146034000Y-90423200D01*
G75*
G02*
X146084800Y-90474000I0J-50800D01*
G01*
G37*
G36*
G01*
X146084800Y-88574000D02*
X146084800Y-89374000D01*
G75*
G02*
X146034000Y-89424800I-50800J0D01*
G01*
X145134000Y-89424800D01*
G75*
G02*
X145083200Y-89374000I0J50800D01*
G01*
X145083200Y-88574000D01*
G75*
G02*
X145134000Y-88523200I50800J0D01*
G01*
X146034000Y-88523200D01*
G75*
G02*
X146084800Y-88574000I0J-50800D01*
G01*
G37*
G36*
G01*
X148480800Y-89422000D02*
X148480800Y-90222000D01*
G75*
G02*
X148430000Y-90272800I-50800J0D01*
G01*
X147530000Y-90272800D01*
G75*
G02*
X147479200Y-90222000I0J50800D01*
G01*
X147479200Y-89422000D01*
G75*
G02*
X147530000Y-89371200I50800J0D01*
G01*
X148430000Y-89371200D01*
G75*
G02*
X148480800Y-89422000I0J-50800D01*
G01*
G37*
G36*
G01*
X150480800Y-90372000D02*
X150480800Y-91172000D01*
G75*
G02*
X150430000Y-91222800I-50800J0D01*
G01*
X149530000Y-91222800D01*
G75*
G02*
X149479200Y-91172000I0J50800D01*
G01*
X149479200Y-90372000D01*
G75*
G02*
X149530000Y-90321200I50800J0D01*
G01*
X150430000Y-90321200D01*
G75*
G02*
X150480800Y-90372000I0J-50800D01*
G01*
G37*
G36*
G01*
X150480800Y-88472000D02*
X150480800Y-89272000D01*
G75*
G02*
X150430000Y-89322800I-50800J0D01*
G01*
X149530000Y-89322800D01*
G75*
G02*
X149479200Y-89272000I0J50800D01*
G01*
X149479200Y-88472000D01*
G75*
G02*
X149530000Y-88421200I50800J0D01*
G01*
X150430000Y-88421200D01*
G75*
G02*
X150480800Y-88472000I0J-50800D01*
G01*
G37*
G36*
G01*
X159556000Y-79908800D02*
X158756000Y-79908800D01*
G75*
G02*
X158705200Y-79858000I0J50800D01*
G01*
X158705200Y-78958000D01*
G75*
G02*
X158756000Y-78907200I50800J0D01*
G01*
X159556000Y-78907200D01*
G75*
G02*
X159606800Y-78958000I0J-50800D01*
G01*
X159606800Y-79858000D01*
G75*
G02*
X159556000Y-79908800I-50800J0D01*
G01*
G37*
G36*
G01*
X158606000Y-81908800D02*
X157806000Y-81908800D01*
G75*
G02*
X157755200Y-81858000I0J50800D01*
G01*
X157755200Y-80958000D01*
G75*
G02*
X157806000Y-80907200I50800J0D01*
G01*
X158606000Y-80907200D01*
G75*
G02*
X158656800Y-80958000I0J-50800D01*
G01*
X158656800Y-81858000D01*
G75*
G02*
X158606000Y-81908800I-50800J0D01*
G01*
G37*
G36*
G01*
X160506000Y-81908800D02*
X159706000Y-81908800D01*
G75*
G02*
X159655200Y-81858000I0J50800D01*
G01*
X159655200Y-80958000D01*
G75*
G02*
X159706000Y-80907200I50800J0D01*
G01*
X160506000Y-80907200D01*
G75*
G02*
X160556800Y-80958000I0J-50800D01*
G01*
X160556800Y-81858000D01*
G75*
G02*
X160506000Y-81908800I-50800J0D01*
G01*
G37*
G36*
G01*
X164636000Y-79924800D02*
X163836000Y-79924800D01*
G75*
G02*
X163785200Y-79874000I0J50800D01*
G01*
X163785200Y-78974000D01*
G75*
G02*
X163836000Y-78923200I50800J0D01*
G01*
X164636000Y-78923200D01*
G75*
G02*
X164686800Y-78974000I0J-50800D01*
G01*
X164686800Y-79874000D01*
G75*
G02*
X164636000Y-79924800I-50800J0D01*
G01*
G37*
G36*
G01*
X163686000Y-81924800D02*
X162886000Y-81924800D01*
G75*
G02*
X162835200Y-81874000I0J50800D01*
G01*
X162835200Y-80974000D01*
G75*
G02*
X162886000Y-80923200I50800J0D01*
G01*
X163686000Y-80923200D01*
G75*
G02*
X163736800Y-80974000I0J-50800D01*
G01*
X163736800Y-81874000D01*
G75*
G02*
X163686000Y-81924800I-50800J0D01*
G01*
G37*
G36*
G01*
X165586000Y-81924800D02*
X164786000Y-81924800D01*
G75*
G02*
X164735200Y-81874000I0J50800D01*
G01*
X164735200Y-80974000D01*
G75*
G02*
X164786000Y-80923200I50800J0D01*
G01*
X165586000Y-80923200D01*
G75*
G02*
X165636800Y-80974000I0J-50800D01*
G01*
X165636800Y-81874000D01*
G75*
G02*
X165586000Y-81924800I-50800J0D01*
G01*
G37*
G36*
G01*
X169700000Y-79924800D02*
X168900000Y-79924800D01*
G75*
G02*
X168849200Y-79874000I0J50800D01*
G01*
X168849200Y-78974000D01*
G75*
G02*
X168900000Y-78923200I50800J0D01*
G01*
X169700000Y-78923200D01*
G75*
G02*
X169750800Y-78974000I0J-50800D01*
G01*
X169750800Y-79874000D01*
G75*
G02*
X169700000Y-79924800I-50800J0D01*
G01*
G37*
G36*
G01*
X168750000Y-81924800D02*
X167950000Y-81924800D01*
G75*
G02*
X167899200Y-81874000I0J50800D01*
G01*
X167899200Y-80974000D01*
G75*
G02*
X167950000Y-80923200I50800J0D01*
G01*
X168750000Y-80923200D01*
G75*
G02*
X168800800Y-80974000I0J-50800D01*
G01*
X168800800Y-81874000D01*
G75*
G02*
X168750000Y-81924800I-50800J0D01*
G01*
G37*
G36*
G01*
X170650000Y-81924800D02*
X169850000Y-81924800D01*
G75*
G02*
X169799200Y-81874000I0J50800D01*
G01*
X169799200Y-80974000D01*
G75*
G02*
X169850000Y-80923200I50800J0D01*
G01*
X170650000Y-80923200D01*
G75*
G02*
X170700800Y-80974000I0J-50800D01*
G01*
X170700800Y-81874000D01*
G75*
G02*
X170650000Y-81924800I-50800J0D01*
G01*
G37*
G36*
G01*
X175050000Y-79924800D02*
X174250000Y-79924800D01*
G75*
G02*
X174199200Y-79874000I0J50800D01*
G01*
X174199200Y-78974000D01*
G75*
G02*
X174250000Y-78923200I50800J0D01*
G01*
X175050000Y-78923200D01*
G75*
G02*
X175100800Y-78974000I0J-50800D01*
G01*
X175100800Y-79874000D01*
G75*
G02*
X175050000Y-79924800I-50800J0D01*
G01*
G37*
G36*
G01*
X174100000Y-81924800D02*
X173300000Y-81924800D01*
G75*
G02*
X173249200Y-81874000I0J50800D01*
G01*
X173249200Y-80974000D01*
G75*
G02*
X173300000Y-80923200I50800J0D01*
G01*
X174100000Y-80923200D01*
G75*
G02*
X174150800Y-80974000I0J-50800D01*
G01*
X174150800Y-81874000D01*
G75*
G02*
X174100000Y-81924800I-50800J0D01*
G01*
G37*
G36*
G01*
X176000000Y-81924800D02*
X175200000Y-81924800D01*
G75*
G02*
X175149200Y-81874000I0J50800D01*
G01*
X175149200Y-80974000D01*
G75*
G02*
X175200000Y-80923200I50800J0D01*
G01*
X176000000Y-80923200D01*
G75*
G02*
X176050800Y-80974000I0J-50800D01*
G01*
X176050800Y-81874000D01*
G75*
G02*
X176000000Y-81924800I-50800J0D01*
G01*
G37*
D18*
X184556000Y-91854000D03*
X197256000Y-91854000D03*
X189636000Y-76614000D03*
X197256000Y-76614000D03*
G36*
G01*
X158132800Y-84088000D02*
X158132800Y-84888000D01*
G75*
G02*
X158082000Y-84938800I-50800J0D01*
G01*
X157182000Y-84938800D01*
G75*
G02*
X157131200Y-84888000I0J50800D01*
G01*
X157131200Y-84088000D01*
G75*
G02*
X157182000Y-84037200I50800J0D01*
G01*
X158082000Y-84037200D01*
G75*
G02*
X158132800Y-84088000I0J-50800D01*
G01*
G37*
G36*
G01*
X158132800Y-85988000D02*
X158132800Y-86788000D01*
G75*
G02*
X158082000Y-86838800I-50800J0D01*
G01*
X157182000Y-86838800D01*
G75*
G02*
X157131200Y-86788000I0J50800D01*
G01*
X157131200Y-85988000D01*
G75*
G02*
X157182000Y-85937200I50800J0D01*
G01*
X158082000Y-85937200D01*
G75*
G02*
X158132800Y-85988000I0J-50800D01*
G01*
G37*
G36*
G01*
X156132800Y-85038000D02*
X156132800Y-85838000D01*
G75*
G02*
X156082000Y-85888800I-50800J0D01*
G01*
X155182000Y-85888800D01*
G75*
G02*
X155131200Y-85838000I0J50800D01*
G01*
X155131200Y-85038000D01*
G75*
G02*
X155182000Y-84987200I50800J0D01*
G01*
X156082000Y-84987200D01*
G75*
G02*
X156132800Y-85038000I0J-50800D01*
G01*
G37*
G36*
G01*
X161212800Y-85038000D02*
X161212800Y-85838000D01*
G75*
G02*
X161162000Y-85888800I-50800J0D01*
G01*
X160262000Y-85888800D01*
G75*
G02*
X160211200Y-85838000I0J50800D01*
G01*
X160211200Y-85038000D01*
G75*
G02*
X160262000Y-84987200I50800J0D01*
G01*
X161162000Y-84987200D01*
G75*
G02*
X161212800Y-85038000I0J-50800D01*
G01*
G37*
G36*
G01*
X163212800Y-85988000D02*
X163212800Y-86788000D01*
G75*
G02*
X163162000Y-86838800I-50800J0D01*
G01*
X162262000Y-86838800D01*
G75*
G02*
X162211200Y-86788000I0J50800D01*
G01*
X162211200Y-85988000D01*
G75*
G02*
X162262000Y-85937200I50800J0D01*
G01*
X163162000Y-85937200D01*
G75*
G02*
X163212800Y-85988000I0J-50800D01*
G01*
G37*
G36*
G01*
X163212800Y-84088000D02*
X163212800Y-84888000D01*
G75*
G02*
X163162000Y-84938800I-50800J0D01*
G01*
X162262000Y-84938800D01*
G75*
G02*
X162211200Y-84888000I0J50800D01*
G01*
X162211200Y-84088000D01*
G75*
G02*
X162262000Y-84037200I50800J0D01*
G01*
X163162000Y-84037200D01*
G75*
G02*
X163212800Y-84088000I0J-50800D01*
G01*
G37*
G36*
G01*
X166276800Y-85104000D02*
X166276800Y-85904000D01*
G75*
G02*
X166226000Y-85954800I-50800J0D01*
G01*
X165326000Y-85954800D01*
G75*
G02*
X165275200Y-85904000I0J50800D01*
G01*
X165275200Y-85104000D01*
G75*
G02*
X165326000Y-85053200I50800J0D01*
G01*
X166226000Y-85053200D01*
G75*
G02*
X166276800Y-85104000I0J-50800D01*
G01*
G37*
G36*
G01*
X168276800Y-86054000D02*
X168276800Y-86854000D01*
G75*
G02*
X168226000Y-86904800I-50800J0D01*
G01*
X167326000Y-86904800D01*
G75*
G02*
X167275200Y-86854000I0J50800D01*
G01*
X167275200Y-86054000D01*
G75*
G02*
X167326000Y-86003200I50800J0D01*
G01*
X168226000Y-86003200D01*
G75*
G02*
X168276800Y-86054000I0J-50800D01*
G01*
G37*
G36*
G01*
X168276800Y-84154000D02*
X168276800Y-84954000D01*
G75*
G02*
X168226000Y-85004800I-50800J0D01*
G01*
X167326000Y-85004800D01*
G75*
G02*
X167275200Y-84954000I0J50800D01*
G01*
X167275200Y-84154000D01*
G75*
G02*
X167326000Y-84103200I50800J0D01*
G01*
X168226000Y-84103200D01*
G75*
G02*
X168276800Y-84154000I0J-50800D01*
G01*
G37*
G36*
G01*
X171356800Y-85104000D02*
X171356800Y-85904000D01*
G75*
G02*
X171306000Y-85954800I-50800J0D01*
G01*
X170406000Y-85954800D01*
G75*
G02*
X170355200Y-85904000I0J50800D01*
G01*
X170355200Y-85104000D01*
G75*
G02*
X170406000Y-85053200I50800J0D01*
G01*
X171306000Y-85053200D01*
G75*
G02*
X171356800Y-85104000I0J-50800D01*
G01*
G37*
G36*
G01*
X173356800Y-86054000D02*
X173356800Y-86854000D01*
G75*
G02*
X173306000Y-86904800I-50800J0D01*
G01*
X172406000Y-86904800D01*
G75*
G02*
X172355200Y-86854000I0J50800D01*
G01*
X172355200Y-86054000D01*
G75*
G02*
X172406000Y-86003200I50800J0D01*
G01*
X173306000Y-86003200D01*
G75*
G02*
X173356800Y-86054000I0J-50800D01*
G01*
G37*
G36*
G01*
X173356800Y-84154000D02*
X173356800Y-84954000D01*
G75*
G02*
X173306000Y-85004800I-50800J0D01*
G01*
X172406000Y-85004800D01*
G75*
G02*
X172355200Y-84954000I0J50800D01*
G01*
X172355200Y-84154000D01*
G75*
G02*
X172406000Y-84103200I50800J0D01*
G01*
X173306000Y-84103200D01*
G75*
G02*
X173356800Y-84154000I0J-50800D01*
G01*
G37*
G36*
G01*
X184039200Y-87174000D02*
X184039200Y-86374000D01*
G75*
G02*
X184090000Y-86323200I50800J0D01*
G01*
X184990000Y-86323200D01*
G75*
G02*
X185040800Y-86374000I0J-50800D01*
G01*
X185040800Y-87174000D01*
G75*
G02*
X184990000Y-87224800I-50800J0D01*
G01*
X184090000Y-87224800D01*
G75*
G02*
X184039200Y-87174000I0J50800D01*
G01*
G37*
G36*
G01*
X182039200Y-86224000D02*
X182039200Y-85424000D01*
G75*
G02*
X182090000Y-85373200I50800J0D01*
G01*
X182990000Y-85373200D01*
G75*
G02*
X183040800Y-85424000I0J-50800D01*
G01*
X183040800Y-86224000D01*
G75*
G02*
X182990000Y-86274800I-50800J0D01*
G01*
X182090000Y-86274800D01*
G75*
G02*
X182039200Y-86224000I0J50800D01*
G01*
G37*
G36*
G01*
X182039200Y-88124000D02*
X182039200Y-87324000D01*
G75*
G02*
X182090000Y-87273200I50800J0D01*
G01*
X182990000Y-87273200D01*
G75*
G02*
X183040800Y-87324000I0J-50800D01*
G01*
X183040800Y-88124000D01*
G75*
G02*
X182990000Y-88174800I-50800J0D01*
G01*
X182090000Y-88174800D01*
G75*
G02*
X182039200Y-88124000I0J50800D01*
G01*
G37*
G36*
G01*
X193055800Y-79945285D02*
X193055800Y-80902715D01*
G75*
G02*
X192783715Y-81174800I-272085J0D01*
G01*
X192076285Y-81174800D01*
G75*
G02*
X191804200Y-80902715I0J272085D01*
G01*
X191804200Y-79945285D01*
G75*
G02*
X192076285Y-79673200I272085J0D01*
G01*
X192783715Y-79673200D01*
G75*
G02*
X193055800Y-79945285I0J-272085D01*
G01*
G37*
G36*
G01*
X195105800Y-79945285D02*
X195105800Y-80902715D01*
G75*
G02*
X194833715Y-81174800I-272085J0D01*
G01*
X194126285Y-81174800D01*
G75*
G02*
X193854200Y-80902715I0J272085D01*
G01*
X193854200Y-79945285D01*
G75*
G02*
X194126285Y-79673200I272085J0D01*
G01*
X194833715Y-79673200D01*
G75*
G02*
X195105800Y-79945285I0J-272085D01*
G01*
G37*
G36*
G01*
X144212900Y-79875800D02*
X143687100Y-79875800D01*
G75*
G02*
X143424200Y-79612900I0J262900D01*
G01*
X143424200Y-78987100D01*
G75*
G02*
X143687100Y-78724200I262900J0D01*
G01*
X144212900Y-78724200D01*
G75*
G02*
X144475800Y-78987100I0J-262900D01*
G01*
X144475800Y-79612900D01*
G75*
G02*
X144212900Y-79875800I-262900J0D01*
G01*
G37*
G36*
G01*
X144212900Y-81625800D02*
X143687100Y-81625800D01*
G75*
G02*
X143424200Y-81362900I0J262900D01*
G01*
X143424200Y-80737100D01*
G75*
G02*
X143687100Y-80474200I262900J0D01*
G01*
X144212900Y-80474200D01*
G75*
G02*
X144475800Y-80737100I0J-262900D01*
G01*
X144475800Y-81362900D01*
G75*
G02*
X144212900Y-81625800I-262900J0D01*
G01*
G37*
G36*
G01*
X116324200Y-88112900D02*
X116324200Y-87587100D01*
G75*
G02*
X116587100Y-87324200I262900J0D01*
G01*
X117212900Y-87324200D01*
G75*
G02*
X117475800Y-87587100I0J-262900D01*
G01*
X117475800Y-88112900D01*
G75*
G02*
X117212900Y-88375800I-262900J0D01*
G01*
X116587100Y-88375800D01*
G75*
G02*
X116324200Y-88112900I0J262900D01*
G01*
G37*
G36*
G01*
X114574200Y-88112900D02*
X114574200Y-87587100D01*
G75*
G02*
X114837100Y-87324200I262900J0D01*
G01*
X115462900Y-87324200D01*
G75*
G02*
X115725800Y-87587100I0J-262900D01*
G01*
X115725800Y-88112900D01*
G75*
G02*
X115462900Y-88375800I-262900J0D01*
G01*
X114837100Y-88375800D01*
G75*
G02*
X114574200Y-88112900I0J262900D01*
G01*
G37*
G36*
G01*
X121312100Y-98824200D02*
X121837900Y-98824200D01*
G75*
G02*
X122100800Y-99087100I0J-262900D01*
G01*
X122100800Y-99712900D01*
G75*
G02*
X121837900Y-99975800I-262900J0D01*
G01*
X121312100Y-99975800D01*
G75*
G02*
X121049200Y-99712900I0J262900D01*
G01*
X121049200Y-99087100D01*
G75*
G02*
X121312100Y-98824200I262900J0D01*
G01*
G37*
G36*
G01*
X121312100Y-97074200D02*
X121837900Y-97074200D01*
G75*
G02*
X122100800Y-97337100I0J-262900D01*
G01*
X122100800Y-97962900D01*
G75*
G02*
X121837900Y-98225800I-262900J0D01*
G01*
X121312100Y-98225800D01*
G75*
G02*
X121049200Y-97962900I0J262900D01*
G01*
X121049200Y-97337100D01*
G75*
G02*
X121312100Y-97074200I262900J0D01*
G01*
G37*
G36*
G01*
X122862900Y-78700800D02*
X122337100Y-78700800D01*
G75*
G02*
X122074200Y-78437900I0J262900D01*
G01*
X122074200Y-77812100D01*
G75*
G02*
X122337100Y-77549200I262900J0D01*
G01*
X122862900Y-77549200D01*
G75*
G02*
X123125800Y-77812100I0J-262900D01*
G01*
X123125800Y-78437900D01*
G75*
G02*
X122862900Y-78700800I-262900J0D01*
G01*
G37*
G36*
G01*
X122862900Y-76950800D02*
X122337100Y-76950800D01*
G75*
G02*
X122074200Y-76687900I0J262900D01*
G01*
X122074200Y-76062100D01*
G75*
G02*
X122337100Y-75799200I262900J0D01*
G01*
X122862900Y-75799200D01*
G75*
G02*
X123125800Y-76062100I0J-262900D01*
G01*
X123125800Y-76687900D01*
G75*
G02*
X122862900Y-76950800I-262900J0D01*
G01*
G37*
M02*
