M48
; DRILL file {KiCad (5.1.7)-1} date 11/14/21 21:59:46
; FORMAT={-:-/ absolute / metric / decimal}
; #@! TF.CreationDate,2021-11-14T21:59:46-06:00
; #@! TF.GenerationSoftware,Kicad,Pcbnew,(5.1.7)-1
; #@! TF.FileFunction,Plated,1,2,PTH
FMAT,2
METRIC
T1C0.200
T2C0.330
T3C0.800
T4C1.000
T5C1.092
%
G90
G05
T1
X102.0Y-106.025
X102.65Y-109.36
X104.55Y-108.075
X105.825Y-105.95
X106.304Y-103.009
X106.46Y-109.36
X107.461Y-105.937
X108.35Y-108.0
X109.625Y-107.925
X109.65Y-106.0
X110.6Y-107.5
X112.067Y-103.089
X112.167Y-103.889
X112.2Y-111.8
X112.267Y-104.589
X112.3Y-102.289
X112.767Y-105.089
X112.967Y-101.989
X113.267Y-105.589
X113.767Y-101.989
X113.767Y-106.089
X114.15Y-104.2
X114.567Y-106.389
X114.8Y-101.989
X115.267Y-106.589
X116.2Y-106.7
X116.367Y-101.889
X116.75Y-104.75
X117.0Y-107.25
X117.1Y-102.1
X117.567Y-102.889
X117.567Y-103.589
X117.567Y-104.289
X117.805Y-107.361
X117.805Y-108.123
X117.805Y-108.885
X117.805Y-109.647
X117.805Y-110.409
X118.059Y-106.599
X118.313Y-103.551
X118.313Y-104.313
X118.313Y-105.075
X118.567Y-102.789
X118.821Y-110.917
X119.065Y-104.895
X119.288Y-102.8
X119.583Y-110.917
X120.091Y-102.789
X120.345Y-110.917
X120.853Y-102.789
X121.107Y-110.917
X121.615Y-102.789
X121.869Y-110.917
X122.267Y-103.189
X122.631Y-110.917
X122.967Y-103.789
X123.393Y-107.361
X123.393Y-110.917
X123.901Y-103.805
X124.155Y-110.917
X124.663Y-103.805
X125.171Y-104.567
X125.171Y-105.329
X125.171Y-106.091
X125.171Y-106.853
X125.171Y-107.615
X125.171Y-108.377
X125.171Y-109.139
X125.171Y-110.409
X125.442Y-97.454
X126.47Y-97.87
X127.5Y-106.25
X127.795Y-101.716
X128.701Y-101.313
X136.544Y-97.87
X138.214Y-95.987
X138.28Y-92.83
X141.053Y-96.982
X155.212Y-101.716
X156.233Y-100.695
X156.268Y-98.154
X160.586Y-98.408
X164.65Y-97.392
X174.556Y-103.488
T2
X110.5Y-119.7
X113.0Y-119.7
X116.9Y-96.5
X117.9Y-102.0
X118.0Y-115.4
X119.6Y-117.8
X120.4Y-116.1
X121.4Y-119.1
X122.5Y-96.5
X124.7Y-115.4
X125.0Y-113.8
X127.0Y-121.4
X129.8Y-100.8
X130.3Y-117.5
X130.4Y-113.0
X135.3Y-114.5
X138.5Y-111.75
X141.536Y-108.822
X141.6Y-106.2
X142.4Y-111.1
X143.8Y-109.6
X148.648Y-107.298
X150.73Y-98.41
X151.304Y-91.704
X153.982Y-107.298
X158.554Y-107.298
X164.142Y-107.298
X166.428Y-111.616
X175.98Y-88.45
X178.746Y-91.704
X181.5Y-88.49
T3
X102.455Y-92.2
X102.455Y-99.82
X104.995Y-92.2
X104.995Y-99.82
X107.535Y-92.2
X107.535Y-99.82
X110.075Y-92.2
X110.075Y-99.82
X112.615Y-92.2
X112.615Y-99.82
X115.155Y-92.2
X115.155Y-99.82
X117.695Y-92.2
X117.695Y-99.82
X120.235Y-92.2
X120.235Y-99.82
X122.775Y-92.2
X122.775Y-99.82
X104.02Y-113.775
X104.02Y-121.395
X106.56Y-113.775
X106.56Y-121.395
X109.1Y-113.775
X109.1Y-121.395
X111.64Y-113.775
X111.64Y-121.395
X114.18Y-113.775
X114.18Y-121.395
X116.72Y-113.775
X116.72Y-121.395
X119.26Y-113.775
X119.26Y-121.395
X121.8Y-113.775
X121.8Y-121.395
X146.108Y-110.092
X148.648Y-110.092
X151.188Y-110.092
X153.728Y-110.092
X156.268Y-110.092
X158.808Y-110.092
X161.348Y-110.092
X163.888Y-110.092
T4
X138.57Y-117.96
X138.57Y-120.5
X141.11Y-117.96
X141.11Y-120.5
X143.65Y-117.96
X143.65Y-120.5
X146.19Y-117.96
X146.19Y-120.5
X148.73Y-117.96
X148.73Y-120.5
X151.27Y-117.96
X151.27Y-120.5
X153.81Y-117.96
X153.81Y-120.5
X156.35Y-117.96
X156.35Y-120.5
X158.89Y-117.96
X158.89Y-120.5
X161.43Y-117.96
X161.43Y-120.5
X174.556Y-110.854
X179.636Y-95.614
X187.256Y-95.614
X187.256Y-110.854
T5
X174.08Y-117.966
X191.58Y-117.966
T3
X174.4Y-87.064G85X174.9Y-87.064
G05
X174.4Y-90.004G85X174.9Y-90.004
G05
X182.6Y-87.064G85X183.1Y-87.064
G05
X182.6Y-90.004G85X183.1Y-90.004
G05
T0
M30
