G04 #@! TF.GenerationSoftware,KiCad,Pcbnew,(5.1.7)-1*
G04 #@! TF.CreationDate,2021-11-14T21:58:53-06:00*
G04 #@! TF.ProjectId,PIC-nixie,5049432d-6e69-4786-9965-2e6b69636164,rev?*
G04 #@! TF.SameCoordinates,Original*
G04 #@! TF.FileFunction,Legend,Bot*
G04 #@! TF.FilePolarity,Positive*
%FSLAX46Y46*%
G04 Gerber Fmt 4.6, Leading zero omitted, Abs format (unit mm)*
G04 Created by KiCad (PCBNEW (5.1.7)-1) date 2021-11-14 21:58:53*
%MOMM*%
%LPD*%
G01*
G04 APERTURE LIST*
%ADD10C,0.120000*%
%ADD11C,0.250000*%
%ADD12C,0.150000*%
%ADD13C,2.301600*%
%ADD14C,1.701800*%
%ADD15O,2.101600X1.101600*%
%ADD16O,1.701600X1.701600*%
%ADD17C,1.801600*%
%ADD18C,1.901600*%
G04 APERTURE END LIST*
D10*
X160930000Y-122830000D02*
X161430000Y-121830000D01*
X161930000Y-122830000D02*
X160930000Y-122830000D01*
X161430000Y-121830000D02*
X161930000Y-122830000D01*
X147950000Y-122480000D02*
X147950000Y-123790000D01*
X147950000Y-122480000D02*
X147950000Y-122480000D01*
X134660000Y-122480000D02*
X147950000Y-122480000D01*
X134660000Y-115980000D02*
X134660000Y-122480000D01*
X165340000Y-115980000D02*
X134660000Y-115980000D01*
X165340000Y-122480000D02*
X165340000Y-115980000D01*
X152050000Y-122480000D02*
X165340000Y-122480000D01*
X152050000Y-123790000D02*
X152050000Y-122480000D01*
X133360000Y-123790000D02*
X166640000Y-123790000D01*
X133360000Y-114670000D02*
X133360000Y-123790000D01*
X166640000Y-114670000D02*
X133360000Y-114670000D01*
X166640000Y-123790000D02*
X166640000Y-114670000D01*
D11*
X139035000Y-99236000D02*
G75*
G03*
X139035000Y-99236000I-125000J0D01*
G01*
D12*
X137135000Y-101736000D02*
X136285000Y-101736000D01*
X137135000Y-98636000D02*
X136285000Y-98636000D01*
D10*
X115820000Y-119000000D02*
X115820000Y-118000000D01*
X119180000Y-119000000D02*
X119180000Y-118000000D01*
X104845000Y-118925000D02*
X104845000Y-117925000D01*
X108205000Y-118925000D02*
X108205000Y-117925000D01*
X101845000Y-97500000D02*
X101845000Y-96500000D01*
X105205000Y-97500000D02*
X105205000Y-96500000D01*
X109455000Y-95025000D02*
X109455000Y-96025000D01*
X106095000Y-95025000D02*
X106095000Y-96025000D01*
X168706748Y-109382000D02*
X169229252Y-109382000D01*
X168706748Y-110802000D02*
X169229252Y-110802000D01*
X134930252Y-105214000D02*
X134407748Y-105214000D01*
X134930252Y-103794000D02*
X134407748Y-103794000D01*
X139257252Y-105214000D02*
X138734748Y-105214000D01*
X139257252Y-103794000D02*
X138734748Y-103794000D01*
X140390000Y-100136252D02*
X140390000Y-99613748D01*
X141810000Y-100136252D02*
X141810000Y-99613748D01*
X163396252Y-96578000D02*
X162873748Y-96578000D01*
X163396252Y-95158000D02*
X162873748Y-95158000D01*
X115860000Y-95711252D02*
X115860000Y-95188748D01*
X114440000Y-95711252D02*
X114440000Y-95188748D01*
X133824000Y-110504000D02*
X135284000Y-110504000D01*
X133824000Y-107344000D02*
X135984000Y-107344000D01*
X133824000Y-107344000D02*
X133824000Y-108274000D01*
X133824000Y-110504000D02*
X133824000Y-109574000D01*
X138220000Y-110402000D02*
X139680000Y-110402000D01*
X138220000Y-107242000D02*
X140380000Y-107242000D01*
X138220000Y-107242000D02*
X138220000Y-108172000D01*
X138220000Y-110402000D02*
X138220000Y-109472000D01*
X147576000Y-98648000D02*
X147576000Y-100108000D01*
X150736000Y-98648000D02*
X150736000Y-100808000D01*
X150736000Y-98648000D02*
X149806000Y-98648000D01*
X147576000Y-98648000D02*
X148506000Y-98648000D01*
X152656000Y-98664000D02*
X152656000Y-100124000D01*
X155816000Y-98664000D02*
X155816000Y-100824000D01*
X155816000Y-98664000D02*
X154886000Y-98664000D01*
X152656000Y-98664000D02*
X153586000Y-98664000D01*
X157720000Y-98664000D02*
X157720000Y-100124000D01*
X160880000Y-98664000D02*
X160880000Y-100824000D01*
X160880000Y-98664000D02*
X159950000Y-98664000D01*
X157720000Y-98664000D02*
X158650000Y-98664000D01*
X163070000Y-98664000D02*
X163070000Y-100124000D01*
X166230000Y-98664000D02*
X166230000Y-100824000D01*
X166230000Y-98664000D02*
X165300000Y-98664000D01*
X163070000Y-98664000D02*
X164000000Y-98664000D01*
X145872000Y-106018000D02*
X145872000Y-105088000D01*
X145872000Y-102858000D02*
X145872000Y-103788000D01*
X145872000Y-102858000D02*
X148032000Y-102858000D01*
X145872000Y-106018000D02*
X147332000Y-106018000D01*
X150952000Y-106018000D02*
X152412000Y-106018000D01*
X150952000Y-102858000D02*
X153112000Y-102858000D01*
X150952000Y-102858000D02*
X150952000Y-103788000D01*
X150952000Y-106018000D02*
X150952000Y-105088000D01*
X156016000Y-106084000D02*
X157476000Y-106084000D01*
X156016000Y-102924000D02*
X158176000Y-102924000D01*
X156016000Y-102924000D02*
X156016000Y-103854000D01*
X156016000Y-106084000D02*
X156016000Y-105154000D01*
X161096000Y-106084000D02*
X162556000Y-106084000D01*
X161096000Y-102924000D02*
X163256000Y-102924000D01*
X161096000Y-102924000D02*
X161096000Y-103854000D01*
X161096000Y-106084000D02*
X161096000Y-105154000D01*
X174300000Y-104194000D02*
X172840000Y-104194000D01*
X174300000Y-107354000D02*
X172140000Y-107354000D01*
X174300000Y-107354000D02*
X174300000Y-106424000D01*
X174300000Y-104194000D02*
X174300000Y-105124000D01*
X183716252Y-100134000D02*
X183193748Y-100134000D01*
X183716252Y-98714000D02*
X183193748Y-98714000D01*
X133440000Y-99346267D02*
X133440000Y-99003733D01*
X134460000Y-99346267D02*
X134460000Y-99003733D01*
X105853733Y-106340000D02*
X106196267Y-106340000D01*
X105853733Y-107360000D02*
X106196267Y-107360000D01*
X112085000Y-117353733D02*
X112085000Y-117696267D01*
X111065000Y-117353733D02*
X111065000Y-117696267D01*
X113110000Y-96421267D02*
X113110000Y-96078733D01*
X112090000Y-96421267D02*
X112090000Y-96078733D01*
D12*
X167427380Y-118906666D02*
X168141666Y-118906666D01*
X168284523Y-118859047D01*
X168379761Y-118763809D01*
X168427380Y-118620952D01*
X168427380Y-118525714D01*
X167522619Y-119335238D02*
X167475000Y-119382857D01*
X167427380Y-119478095D01*
X167427380Y-119716190D01*
X167475000Y-119811428D01*
X167522619Y-119859047D01*
X167617857Y-119906666D01*
X167713095Y-119906666D01*
X167855952Y-119859047D01*
X168427380Y-119287619D01*
X168427380Y-119906666D01*
X137484404Y-97352380D02*
X137484404Y-98161904D01*
X137436785Y-98257142D01*
X137389166Y-98304761D01*
X137293928Y-98352380D01*
X137103452Y-98352380D01*
X137008214Y-98304761D01*
X136960595Y-98257142D01*
X136912976Y-98161904D01*
X136912976Y-97352380D01*
X136532023Y-97352380D02*
X135865357Y-97352380D01*
X136293928Y-98352380D01*
X115152380Y-117904761D02*
X114676190Y-117571428D01*
X115152380Y-117333333D02*
X114152380Y-117333333D01*
X114152380Y-117714285D01*
X114200000Y-117809523D01*
X114247619Y-117857142D01*
X114342857Y-117904761D01*
X114485714Y-117904761D01*
X114580952Y-117857142D01*
X114628571Y-117809523D01*
X114676190Y-117714285D01*
X114676190Y-117333333D01*
X114866666Y-118285714D02*
X114866666Y-118761904D01*
X115152380Y-118190476D02*
X114152380Y-118523809D01*
X115152380Y-118857142D01*
X114152380Y-119619047D02*
X114152380Y-119428571D01*
X114200000Y-119333333D01*
X114247619Y-119285714D01*
X114390476Y-119190476D01*
X114580952Y-119142857D01*
X114961904Y-119142857D01*
X115057142Y-119190476D01*
X115104761Y-119238095D01*
X115152380Y-119333333D01*
X115152380Y-119523809D01*
X115104761Y-119619047D01*
X115057142Y-119666666D01*
X114961904Y-119714285D01*
X114723809Y-119714285D01*
X114628571Y-119666666D01*
X114580952Y-119619047D01*
X114533333Y-119523809D01*
X114533333Y-119333333D01*
X114580952Y-119238095D01*
X114628571Y-119190476D01*
X114723809Y-119142857D01*
X104177380Y-117829761D02*
X103701190Y-117496428D01*
X104177380Y-117258333D02*
X103177380Y-117258333D01*
X103177380Y-117639285D01*
X103225000Y-117734523D01*
X103272619Y-117782142D01*
X103367857Y-117829761D01*
X103510714Y-117829761D01*
X103605952Y-117782142D01*
X103653571Y-117734523D01*
X103701190Y-117639285D01*
X103701190Y-117258333D01*
X103891666Y-118210714D02*
X103891666Y-118686904D01*
X104177380Y-118115476D02*
X103177380Y-118448809D01*
X104177380Y-118782142D01*
X103177380Y-119591666D02*
X103177380Y-119115476D01*
X103653571Y-119067857D01*
X103605952Y-119115476D01*
X103558333Y-119210714D01*
X103558333Y-119448809D01*
X103605952Y-119544047D01*
X103653571Y-119591666D01*
X103748809Y-119639285D01*
X103986904Y-119639285D01*
X104082142Y-119591666D01*
X104129761Y-119544047D01*
X104177380Y-119448809D01*
X104177380Y-119210714D01*
X104129761Y-119115476D01*
X104082142Y-119067857D01*
X103970238Y-95302380D02*
X104303571Y-94826190D01*
X104541666Y-95302380D02*
X104541666Y-94302380D01*
X104160714Y-94302380D01*
X104065476Y-94350000D01*
X104017857Y-94397619D01*
X103970238Y-94492857D01*
X103970238Y-94635714D01*
X104017857Y-94730952D01*
X104065476Y-94778571D01*
X104160714Y-94826190D01*
X104541666Y-94826190D01*
X103589285Y-95016666D02*
X103113095Y-95016666D01*
X103684523Y-95302380D02*
X103351190Y-94302380D01*
X103017857Y-95302380D01*
X102732142Y-94397619D02*
X102684523Y-94350000D01*
X102589285Y-94302380D01*
X102351190Y-94302380D01*
X102255952Y-94350000D01*
X102208333Y-94397619D01*
X102160714Y-94492857D01*
X102160714Y-94588095D01*
X102208333Y-94730952D01*
X102779761Y-95302380D01*
X102160714Y-95302380D01*
X110122619Y-96120238D02*
X110598809Y-96453571D01*
X110122619Y-96691666D02*
X111122619Y-96691666D01*
X111122619Y-96310714D01*
X111075000Y-96215476D01*
X111027380Y-96167857D01*
X110932142Y-96120238D01*
X110789285Y-96120238D01*
X110694047Y-96167857D01*
X110646428Y-96215476D01*
X110598809Y-96310714D01*
X110598809Y-96691666D01*
X110408333Y-95739285D02*
X110408333Y-95263095D01*
X110122619Y-95834523D02*
X111122619Y-95501190D01*
X110122619Y-95167857D01*
X110122619Y-94310714D02*
X110122619Y-94882142D01*
X110122619Y-94596428D02*
X111122619Y-94596428D01*
X110979761Y-94691666D01*
X110884523Y-94786904D01*
X110836904Y-94882142D01*
X169610857Y-112194380D02*
X169944190Y-111718190D01*
X170182285Y-112194380D02*
X170182285Y-111194380D01*
X169801333Y-111194380D01*
X169706095Y-111242000D01*
X169658476Y-111289619D01*
X169610857Y-111384857D01*
X169610857Y-111527714D01*
X169658476Y-111622952D01*
X169706095Y-111670571D01*
X169801333Y-111718190D01*
X170182285Y-111718190D01*
X168658476Y-112194380D02*
X169229904Y-112194380D01*
X168944190Y-112194380D02*
X168944190Y-111194380D01*
X169039428Y-111337238D01*
X169134666Y-111432476D01*
X169229904Y-111480095D01*
X168325142Y-111194380D02*
X167658476Y-111194380D01*
X168087047Y-112194380D01*
X135311857Y-103306380D02*
X135645190Y-102830190D01*
X135883285Y-103306380D02*
X135883285Y-102306380D01*
X135502333Y-102306380D01*
X135407095Y-102354000D01*
X135359476Y-102401619D01*
X135311857Y-102496857D01*
X135311857Y-102639714D01*
X135359476Y-102734952D01*
X135407095Y-102782571D01*
X135502333Y-102830190D01*
X135883285Y-102830190D01*
X134359476Y-103306380D02*
X134930904Y-103306380D01*
X134645190Y-103306380D02*
X134645190Y-102306380D01*
X134740428Y-102449238D01*
X134835666Y-102544476D01*
X134930904Y-102592095D01*
X133978523Y-102401619D02*
X133930904Y-102354000D01*
X133835666Y-102306380D01*
X133597571Y-102306380D01*
X133502333Y-102354000D01*
X133454714Y-102401619D01*
X133407095Y-102496857D01*
X133407095Y-102592095D01*
X133454714Y-102734952D01*
X134026142Y-103306380D01*
X133407095Y-103306380D01*
X139638857Y-103306380D02*
X139972190Y-102830190D01*
X140210285Y-103306380D02*
X140210285Y-102306380D01*
X139829333Y-102306380D01*
X139734095Y-102354000D01*
X139686476Y-102401619D01*
X139638857Y-102496857D01*
X139638857Y-102639714D01*
X139686476Y-102734952D01*
X139734095Y-102782571D01*
X139829333Y-102830190D01*
X140210285Y-102830190D01*
X138686476Y-103306380D02*
X139257904Y-103306380D01*
X138972190Y-103306380D02*
X138972190Y-102306380D01*
X139067428Y-102449238D01*
X139162666Y-102544476D01*
X139257904Y-102592095D01*
X137734095Y-103306380D02*
X138305523Y-103306380D01*
X138019809Y-103306380D02*
X138019809Y-102306380D01*
X138115047Y-102449238D01*
X138210285Y-102544476D01*
X138305523Y-102592095D01*
X143202380Y-99232142D02*
X142726190Y-98898809D01*
X143202380Y-98660714D02*
X142202380Y-98660714D01*
X142202380Y-99041666D01*
X142250000Y-99136904D01*
X142297619Y-99184523D01*
X142392857Y-99232142D01*
X142535714Y-99232142D01*
X142630952Y-99184523D01*
X142678571Y-99136904D01*
X142726190Y-99041666D01*
X142726190Y-98660714D01*
X143202380Y-100184523D02*
X143202380Y-99613095D01*
X143202380Y-99898809D02*
X142202380Y-99898809D01*
X142345238Y-99803571D01*
X142440476Y-99708333D01*
X142488095Y-99613095D01*
X142202380Y-100803571D02*
X142202380Y-100898809D01*
X142250000Y-100994047D01*
X142297619Y-101041666D01*
X142392857Y-101089285D01*
X142583333Y-101136904D01*
X142821428Y-101136904D01*
X143011904Y-101089285D01*
X143107142Y-101041666D01*
X143154761Y-100994047D01*
X143202380Y-100898809D01*
X143202380Y-100803571D01*
X143154761Y-100708333D01*
X143107142Y-100660714D01*
X143011904Y-100613095D01*
X142821428Y-100565476D01*
X142583333Y-100565476D01*
X142392857Y-100613095D01*
X142297619Y-100660714D01*
X142250000Y-100708333D01*
X142202380Y-100803571D01*
X163301666Y-94670380D02*
X163635000Y-94194190D01*
X163873095Y-94670380D02*
X163873095Y-93670380D01*
X163492142Y-93670380D01*
X163396904Y-93718000D01*
X163349285Y-93765619D01*
X163301666Y-93860857D01*
X163301666Y-94003714D01*
X163349285Y-94098952D01*
X163396904Y-94146571D01*
X163492142Y-94194190D01*
X163873095Y-94194190D01*
X162396904Y-93670380D02*
X162873095Y-93670380D01*
X162920714Y-94146571D01*
X162873095Y-94098952D01*
X162777857Y-94051333D01*
X162539761Y-94051333D01*
X162444523Y-94098952D01*
X162396904Y-94146571D01*
X162349285Y-94241809D01*
X162349285Y-94479904D01*
X162396904Y-94575142D01*
X162444523Y-94622761D01*
X162539761Y-94670380D01*
X162777857Y-94670380D01*
X162873095Y-94622761D01*
X162920714Y-94575142D01*
X117252380Y-95283333D02*
X116776190Y-94950000D01*
X117252380Y-94711904D02*
X116252380Y-94711904D01*
X116252380Y-95092857D01*
X116300000Y-95188095D01*
X116347619Y-95235714D01*
X116442857Y-95283333D01*
X116585714Y-95283333D01*
X116680952Y-95235714D01*
X116728571Y-95188095D01*
X116776190Y-95092857D01*
X116776190Y-94711904D01*
X117252380Y-96235714D02*
X117252380Y-95664285D01*
X117252380Y-95950000D02*
X116252380Y-95950000D01*
X116395238Y-95854761D01*
X116490476Y-95759523D01*
X116538095Y-95664285D01*
X134679238Y-106971619D02*
X134774476Y-106924000D01*
X134869714Y-106828761D01*
X135012571Y-106685904D01*
X135107809Y-106638285D01*
X135203047Y-106638285D01*
X135155428Y-106876380D02*
X135250666Y-106828761D01*
X135345904Y-106733523D01*
X135393523Y-106543047D01*
X135393523Y-106209714D01*
X135345904Y-106019238D01*
X135250666Y-105924000D01*
X135155428Y-105876380D01*
X134964952Y-105876380D01*
X134869714Y-105924000D01*
X134774476Y-106019238D01*
X134726857Y-106209714D01*
X134726857Y-106543047D01*
X134774476Y-106733523D01*
X134869714Y-106828761D01*
X134964952Y-106876380D01*
X135155428Y-106876380D01*
X133869714Y-105876380D02*
X134060190Y-105876380D01*
X134155428Y-105924000D01*
X134203047Y-105971619D01*
X134298285Y-106114476D01*
X134345904Y-106304952D01*
X134345904Y-106685904D01*
X134298285Y-106781142D01*
X134250666Y-106828761D01*
X134155428Y-106876380D01*
X133964952Y-106876380D01*
X133869714Y-106828761D01*
X133822095Y-106781142D01*
X133774476Y-106685904D01*
X133774476Y-106447809D01*
X133822095Y-106352571D01*
X133869714Y-106304952D01*
X133964952Y-106257333D01*
X134155428Y-106257333D01*
X134250666Y-106304952D01*
X134298285Y-106352571D01*
X134345904Y-106447809D01*
X139075238Y-106869619D02*
X139170476Y-106822000D01*
X139265714Y-106726761D01*
X139408571Y-106583904D01*
X139503809Y-106536285D01*
X139599047Y-106536285D01*
X139551428Y-106774380D02*
X139646666Y-106726761D01*
X139741904Y-106631523D01*
X139789523Y-106441047D01*
X139789523Y-106107714D01*
X139741904Y-105917238D01*
X139646666Y-105822000D01*
X139551428Y-105774380D01*
X139360952Y-105774380D01*
X139265714Y-105822000D01*
X139170476Y-105917238D01*
X139122857Y-106107714D01*
X139122857Y-106441047D01*
X139170476Y-106631523D01*
X139265714Y-106726761D01*
X139360952Y-106774380D01*
X139551428Y-106774380D01*
X138218095Y-105774380D02*
X138694285Y-105774380D01*
X138741904Y-106250571D01*
X138694285Y-106202952D01*
X138599047Y-106155333D01*
X138360952Y-106155333D01*
X138265714Y-106202952D01*
X138218095Y-106250571D01*
X138170476Y-106345809D01*
X138170476Y-106583904D01*
X138218095Y-106679142D01*
X138265714Y-106726761D01*
X138360952Y-106774380D01*
X138599047Y-106774380D01*
X138694285Y-106726761D01*
X138741904Y-106679142D01*
X152203619Y-99312761D02*
X152156000Y-99217523D01*
X152060761Y-99122285D01*
X151917904Y-98979428D01*
X151870285Y-98884190D01*
X151870285Y-98788952D01*
X152108380Y-98836571D02*
X152060761Y-98741333D01*
X151965523Y-98646095D01*
X151775047Y-98598476D01*
X151441714Y-98598476D01*
X151251238Y-98646095D01*
X151156000Y-98741333D01*
X151108380Y-98836571D01*
X151108380Y-99027047D01*
X151156000Y-99122285D01*
X151251238Y-99217523D01*
X151441714Y-99265142D01*
X151775047Y-99265142D01*
X151965523Y-99217523D01*
X152060761Y-99122285D01*
X152108380Y-99027047D01*
X152108380Y-98836571D01*
X151441714Y-100122285D02*
X152108380Y-100122285D01*
X151060761Y-99884190D02*
X151775047Y-99646095D01*
X151775047Y-100265142D01*
X157283619Y-99328761D02*
X157236000Y-99233523D01*
X157140761Y-99138285D01*
X156997904Y-98995428D01*
X156950285Y-98900190D01*
X156950285Y-98804952D01*
X157188380Y-98852571D02*
X157140761Y-98757333D01*
X157045523Y-98662095D01*
X156855047Y-98614476D01*
X156521714Y-98614476D01*
X156331238Y-98662095D01*
X156236000Y-98757333D01*
X156188380Y-98852571D01*
X156188380Y-99043047D01*
X156236000Y-99138285D01*
X156331238Y-99233523D01*
X156521714Y-99281142D01*
X156855047Y-99281142D01*
X157045523Y-99233523D01*
X157140761Y-99138285D01*
X157188380Y-99043047D01*
X157188380Y-98852571D01*
X156188380Y-99614476D02*
X156188380Y-100233523D01*
X156569333Y-99900190D01*
X156569333Y-100043047D01*
X156616952Y-100138285D01*
X156664571Y-100185904D01*
X156759809Y-100233523D01*
X156997904Y-100233523D01*
X157093142Y-100185904D01*
X157140761Y-100138285D01*
X157188380Y-100043047D01*
X157188380Y-99757333D01*
X157140761Y-99662095D01*
X157093142Y-99614476D01*
X162347619Y-99328761D02*
X162300000Y-99233523D01*
X162204761Y-99138285D01*
X162061904Y-98995428D01*
X162014285Y-98900190D01*
X162014285Y-98804952D01*
X162252380Y-98852571D02*
X162204761Y-98757333D01*
X162109523Y-98662095D01*
X161919047Y-98614476D01*
X161585714Y-98614476D01*
X161395238Y-98662095D01*
X161300000Y-98757333D01*
X161252380Y-98852571D01*
X161252380Y-99043047D01*
X161300000Y-99138285D01*
X161395238Y-99233523D01*
X161585714Y-99281142D01*
X161919047Y-99281142D01*
X162109523Y-99233523D01*
X162204761Y-99138285D01*
X162252380Y-99043047D01*
X162252380Y-98852571D01*
X161347619Y-99662095D02*
X161300000Y-99709714D01*
X161252380Y-99804952D01*
X161252380Y-100043047D01*
X161300000Y-100138285D01*
X161347619Y-100185904D01*
X161442857Y-100233523D01*
X161538095Y-100233523D01*
X161680952Y-100185904D01*
X162252380Y-99614476D01*
X162252380Y-100233523D01*
X167697619Y-99328761D02*
X167650000Y-99233523D01*
X167554761Y-99138285D01*
X167411904Y-98995428D01*
X167364285Y-98900190D01*
X167364285Y-98804952D01*
X167602380Y-98852571D02*
X167554761Y-98757333D01*
X167459523Y-98662095D01*
X167269047Y-98614476D01*
X166935714Y-98614476D01*
X166745238Y-98662095D01*
X166650000Y-98757333D01*
X166602380Y-98852571D01*
X166602380Y-99043047D01*
X166650000Y-99138285D01*
X166745238Y-99233523D01*
X166935714Y-99281142D01*
X167269047Y-99281142D01*
X167459523Y-99233523D01*
X167554761Y-99138285D01*
X167602380Y-99043047D01*
X167602380Y-98852571D01*
X167602380Y-100233523D02*
X167602380Y-99662095D01*
X167602380Y-99947809D02*
X166602380Y-99947809D01*
X166745238Y-99852571D01*
X166840476Y-99757333D01*
X166888095Y-99662095D01*
X147441523Y-102390380D02*
X147441523Y-101390380D01*
X147108190Y-102104666D01*
X146774857Y-101390380D01*
X146774857Y-102390380D01*
X145870095Y-101723714D02*
X145870095Y-102390380D01*
X146108190Y-101342761D02*
X146346285Y-102057047D01*
X145727238Y-102057047D01*
X152521523Y-102390380D02*
X152521523Y-101390380D01*
X152188190Y-102104666D01*
X151854857Y-101390380D01*
X151854857Y-102390380D01*
X151473904Y-101390380D02*
X150854857Y-101390380D01*
X151188190Y-101771333D01*
X151045333Y-101771333D01*
X150950095Y-101818952D01*
X150902476Y-101866571D01*
X150854857Y-101961809D01*
X150854857Y-102199904D01*
X150902476Y-102295142D01*
X150950095Y-102342761D01*
X151045333Y-102390380D01*
X151331047Y-102390380D01*
X151426285Y-102342761D01*
X151473904Y-102295142D01*
X157585523Y-102456380D02*
X157585523Y-101456380D01*
X157252190Y-102170666D01*
X156918857Y-101456380D01*
X156918857Y-102456380D01*
X156490285Y-101551619D02*
X156442666Y-101504000D01*
X156347428Y-101456380D01*
X156109333Y-101456380D01*
X156014095Y-101504000D01*
X155966476Y-101551619D01*
X155918857Y-101646857D01*
X155918857Y-101742095D01*
X155966476Y-101884952D01*
X156537904Y-102456380D01*
X155918857Y-102456380D01*
X162665523Y-102456380D02*
X162665523Y-101456380D01*
X162332190Y-102170666D01*
X161998857Y-101456380D01*
X161998857Y-102456380D01*
X160998857Y-102456380D02*
X161570285Y-102456380D01*
X161284571Y-102456380D02*
X161284571Y-101456380D01*
X161379809Y-101599238D01*
X161475047Y-101694476D01*
X161570285Y-101742095D01*
X174278095Y-108726380D02*
X174278095Y-107726380D01*
X174040000Y-107726380D01*
X173897142Y-107774000D01*
X173801904Y-107869238D01*
X173754285Y-107964476D01*
X173706666Y-108154952D01*
X173706666Y-108297809D01*
X173754285Y-108488285D01*
X173801904Y-108583523D01*
X173897142Y-108678761D01*
X174040000Y-108726380D01*
X174278095Y-108726380D01*
X172754285Y-108726380D02*
X173325714Y-108726380D01*
X173040000Y-108726380D02*
X173040000Y-107726380D01*
X173135238Y-107869238D01*
X173230476Y-107964476D01*
X173325714Y-108012095D01*
X184097857Y-98131142D02*
X184145476Y-98178761D01*
X184288333Y-98226380D01*
X184383571Y-98226380D01*
X184526428Y-98178761D01*
X184621666Y-98083523D01*
X184669285Y-97988285D01*
X184716904Y-97797809D01*
X184716904Y-97654952D01*
X184669285Y-97464476D01*
X184621666Y-97369238D01*
X184526428Y-97274000D01*
X184383571Y-97226380D01*
X184288333Y-97226380D01*
X184145476Y-97274000D01*
X184097857Y-97321619D01*
X183145476Y-98226380D02*
X183716904Y-98226380D01*
X183431190Y-98226380D02*
X183431190Y-97226380D01*
X183526428Y-97369238D01*
X183621666Y-97464476D01*
X183716904Y-97512095D01*
X182764523Y-97321619D02*
X182716904Y-97274000D01*
X182621666Y-97226380D01*
X182383571Y-97226380D01*
X182288333Y-97274000D01*
X182240714Y-97321619D01*
X182193095Y-97416857D01*
X182193095Y-97512095D01*
X182240714Y-97654952D01*
X182812142Y-98226380D01*
X182193095Y-98226380D01*
X132783142Y-99121333D02*
X132830761Y-99073714D01*
X132878380Y-98930857D01*
X132878380Y-98835619D01*
X132830761Y-98692761D01*
X132735523Y-98597523D01*
X132640285Y-98549904D01*
X132449809Y-98502285D01*
X132306952Y-98502285D01*
X132116476Y-98549904D01*
X132021238Y-98597523D01*
X131926000Y-98692761D01*
X131878380Y-98835619D01*
X131878380Y-98930857D01*
X131926000Y-99073714D01*
X131973619Y-99121333D01*
X132306952Y-99692761D02*
X132259333Y-99597523D01*
X132211714Y-99549904D01*
X132116476Y-99502285D01*
X132068857Y-99502285D01*
X131973619Y-99549904D01*
X131926000Y-99597523D01*
X131878380Y-99692761D01*
X131878380Y-99883238D01*
X131926000Y-99978476D01*
X131973619Y-100026095D01*
X132068857Y-100073714D01*
X132116476Y-100073714D01*
X132211714Y-100026095D01*
X132259333Y-99978476D01*
X132306952Y-99883238D01*
X132306952Y-99692761D01*
X132354571Y-99597523D01*
X132402190Y-99549904D01*
X132497428Y-99502285D01*
X132687904Y-99502285D01*
X132783142Y-99549904D01*
X132830761Y-99597523D01*
X132878380Y-99692761D01*
X132878380Y-99883238D01*
X132830761Y-99978476D01*
X132783142Y-100026095D01*
X132687904Y-100073714D01*
X132497428Y-100073714D01*
X132402190Y-100026095D01*
X132354571Y-99978476D01*
X132306952Y-99883238D01*
X108882142Y-106783333D02*
X108929761Y-106735714D01*
X108977380Y-106592857D01*
X108977380Y-106497619D01*
X108929761Y-106354761D01*
X108834523Y-106259523D01*
X108739285Y-106211904D01*
X108548809Y-106164285D01*
X108405952Y-106164285D01*
X108215476Y-106211904D01*
X108120238Y-106259523D01*
X108025000Y-106354761D01*
X107977380Y-106497619D01*
X107977380Y-106592857D01*
X108025000Y-106735714D01*
X108072619Y-106783333D01*
X107977380Y-107116666D02*
X107977380Y-107735714D01*
X108358333Y-107402380D01*
X108358333Y-107545238D01*
X108405952Y-107640476D01*
X108453571Y-107688095D01*
X108548809Y-107735714D01*
X108786904Y-107735714D01*
X108882142Y-107688095D01*
X108929761Y-107640476D01*
X108977380Y-107545238D01*
X108977380Y-107259523D01*
X108929761Y-107164285D01*
X108882142Y-107116666D01*
X110502142Y-117358333D02*
X110549761Y-117310714D01*
X110597380Y-117167857D01*
X110597380Y-117072619D01*
X110549761Y-116929761D01*
X110454523Y-116834523D01*
X110359285Y-116786904D01*
X110168809Y-116739285D01*
X110025952Y-116739285D01*
X109835476Y-116786904D01*
X109740238Y-116834523D01*
X109645000Y-116929761D01*
X109597380Y-117072619D01*
X109597380Y-117167857D01*
X109645000Y-117310714D01*
X109692619Y-117358333D01*
X109692619Y-117739285D02*
X109645000Y-117786904D01*
X109597380Y-117882142D01*
X109597380Y-118120238D01*
X109645000Y-118215476D01*
X109692619Y-118263095D01*
X109787857Y-118310714D01*
X109883095Y-118310714D01*
X110025952Y-118263095D01*
X110597380Y-117691666D01*
X110597380Y-118310714D01*
X110916666Y-98107142D02*
X110964285Y-98154761D01*
X111107142Y-98202380D01*
X111202380Y-98202380D01*
X111345238Y-98154761D01*
X111440476Y-98059523D01*
X111488095Y-97964285D01*
X111535714Y-97773809D01*
X111535714Y-97630952D01*
X111488095Y-97440476D01*
X111440476Y-97345238D01*
X111345238Y-97250000D01*
X111202380Y-97202380D01*
X111107142Y-97202380D01*
X110964285Y-97250000D01*
X110916666Y-97297619D01*
X109964285Y-98202380D02*
X110535714Y-98202380D01*
X110250000Y-98202380D02*
X110250000Y-97202380D01*
X110345238Y-97345238D01*
X110440476Y-97440476D01*
X110535714Y-97488095D01*
%LPC*%
D13*
X125000000Y-88000000D03*
G36*
G01*
X192430900Y-117165900D02*
X192430900Y-118766100D01*
G75*
G02*
X192380100Y-118816900I-50800J0D01*
G01*
X190779900Y-118816900D01*
G75*
G02*
X190729100Y-118766100I0J50800D01*
G01*
X190729100Y-117165900D01*
G75*
G02*
X190779900Y-117115100I50800J0D01*
G01*
X192380100Y-117115100D01*
G75*
G02*
X192430900Y-117165900I0J-50800D01*
G01*
G37*
D14*
X174080000Y-117966000D03*
D13*
X195000000Y-88000000D03*
D15*
X174650000Y-87064000D03*
X182850000Y-87064000D03*
X174650000Y-90004000D03*
X182850000Y-90004000D03*
G36*
G01*
X121000000Y-112924200D02*
X122600000Y-112924200D01*
G75*
G02*
X122650800Y-112975000I0J-50800D01*
G01*
X122650800Y-114575000D01*
G75*
G02*
X122600000Y-114625800I-50800J0D01*
G01*
X121000000Y-114625800D01*
G75*
G02*
X120949200Y-114575000I0J50800D01*
G01*
X120949200Y-112975000D01*
G75*
G02*
X121000000Y-112924200I50800J0D01*
G01*
G37*
D16*
X104020000Y-121395000D03*
X119260000Y-113775000D03*
X106560000Y-121395000D03*
X116720000Y-113775000D03*
X109100000Y-121395000D03*
X114180000Y-113775000D03*
X111640000Y-121395000D03*
X111640000Y-113775000D03*
X114180000Y-121395000D03*
X109100000Y-113775000D03*
X116720000Y-121395000D03*
X106560000Y-113775000D03*
X119260000Y-121395000D03*
X104020000Y-113775000D03*
X121800000Y-121395000D03*
G36*
G01*
X162065859Y-121400800D02*
X160794141Y-121400800D01*
G75*
G02*
X160529200Y-121135859I0J264941D01*
G01*
X160529200Y-119864141D01*
G75*
G02*
X160794141Y-119599200I264941J0D01*
G01*
X162065859Y-119599200D01*
G75*
G02*
X162330800Y-119864141I0J-264941D01*
G01*
X162330800Y-121135859D01*
G75*
G02*
X162065859Y-121400800I-264941J0D01*
G01*
G37*
D17*
X158890000Y-120500000D03*
X156350000Y-120500000D03*
X153810000Y-120500000D03*
X151270000Y-120500000D03*
X148730000Y-120500000D03*
X146190000Y-120500000D03*
X143650000Y-120500000D03*
X141110000Y-120500000D03*
X138570000Y-120500000D03*
X161430000Y-117960000D03*
X158890000Y-117960000D03*
X156350000Y-117960000D03*
X153810000Y-117960000D03*
X151270000Y-117960000D03*
X148730000Y-117960000D03*
X146190000Y-117960000D03*
X143650000Y-117960000D03*
X141110000Y-117960000D03*
X138570000Y-117960000D03*
G36*
G01*
X138360800Y-98961000D02*
X138360800Y-99511000D01*
G75*
G02*
X138310000Y-99561800I-50800J0D01*
G01*
X137510000Y-99561800D01*
G75*
G02*
X137459200Y-99511000I0J50800D01*
G01*
X137459200Y-98961000D01*
G75*
G02*
X137510000Y-98910200I50800J0D01*
G01*
X138310000Y-98910200D01*
G75*
G02*
X138360800Y-98961000I0J-50800D01*
G01*
G37*
G36*
G01*
X138360800Y-99911000D02*
X138360800Y-100461000D01*
G75*
G02*
X138310000Y-100511800I-50800J0D01*
G01*
X137510000Y-100511800D01*
G75*
G02*
X137459200Y-100461000I0J50800D01*
G01*
X137459200Y-99911000D01*
G75*
G02*
X137510000Y-99860200I50800J0D01*
G01*
X138310000Y-99860200D01*
G75*
G02*
X138360800Y-99911000I0J-50800D01*
G01*
G37*
G36*
G01*
X138360800Y-100861000D02*
X138360800Y-101411000D01*
G75*
G02*
X138310000Y-101461800I-50800J0D01*
G01*
X137510000Y-101461800D01*
G75*
G02*
X137459200Y-101411000I0J50800D01*
G01*
X137459200Y-100861000D01*
G75*
G02*
X137510000Y-100810200I50800J0D01*
G01*
X138310000Y-100810200D01*
G75*
G02*
X138360800Y-100861000I0J-50800D01*
G01*
G37*
G36*
G01*
X135960800Y-100861000D02*
X135960800Y-101411000D01*
G75*
G02*
X135910000Y-101461800I-50800J0D01*
G01*
X135110000Y-101461800D01*
G75*
G02*
X135059200Y-101411000I0J50800D01*
G01*
X135059200Y-100861000D01*
G75*
G02*
X135110000Y-100810200I50800J0D01*
G01*
X135910000Y-100810200D01*
G75*
G02*
X135960800Y-100861000I0J-50800D01*
G01*
G37*
G36*
G01*
X135960800Y-99911000D02*
X135960800Y-100461000D01*
G75*
G02*
X135910000Y-100511800I-50800J0D01*
G01*
X135110000Y-100511800D01*
G75*
G02*
X135059200Y-100461000I0J50800D01*
G01*
X135059200Y-99911000D01*
G75*
G02*
X135110000Y-99860200I50800J0D01*
G01*
X135910000Y-99860200D01*
G75*
G02*
X135960800Y-99911000I0J-50800D01*
G01*
G37*
G36*
G01*
X135960800Y-98961000D02*
X135960800Y-99511000D01*
G75*
G02*
X135910000Y-99561800I-50800J0D01*
G01*
X135110000Y-99561800D01*
G75*
G02*
X135059200Y-99511000I0J50800D01*
G01*
X135059200Y-98961000D01*
G75*
G02*
X135110000Y-98910200I50800J0D01*
G01*
X135910000Y-98910200D01*
G75*
G02*
X135960800Y-98961000I0J-50800D01*
G01*
G37*
D16*
X122775000Y-99820000D03*
X102455000Y-92200000D03*
X120235000Y-99820000D03*
X104995000Y-92200000D03*
X117695000Y-99820000D03*
X107535000Y-92200000D03*
X115155000Y-99820000D03*
X110075000Y-92200000D03*
X112615000Y-99820000D03*
X112615000Y-92200000D03*
X110075000Y-99820000D03*
X115155000Y-92200000D03*
X107535000Y-99820000D03*
X117695000Y-92200000D03*
X104995000Y-99820000D03*
X120235000Y-92200000D03*
X102455000Y-99820000D03*
G36*
G01*
X121975000Y-91349200D02*
X123575000Y-91349200D01*
G75*
G02*
X123625800Y-91400000I0J-50800D01*
G01*
X123625800Y-93000000D01*
G75*
G02*
X123575000Y-93050800I-50800J0D01*
G01*
X121975000Y-93050800D01*
G75*
G02*
X121924200Y-93000000I0J50800D01*
G01*
X121924200Y-91400000D01*
G75*
G02*
X121975000Y-91349200I50800J0D01*
G01*
G37*
G36*
G01*
X164738800Y-109292000D02*
X164738800Y-110892000D01*
G75*
G02*
X164688000Y-110942800I-50800J0D01*
G01*
X163088000Y-110942800D01*
G75*
G02*
X163037200Y-110892000I0J50800D01*
G01*
X163037200Y-109292000D01*
G75*
G02*
X163088000Y-109241200I50800J0D01*
G01*
X164688000Y-109241200D01*
G75*
G02*
X164738800Y-109292000I0J-50800D01*
G01*
G37*
X161348000Y-110092000D03*
X158808000Y-110092000D03*
X156268000Y-110092000D03*
X153728000Y-110092000D03*
X151188000Y-110092000D03*
X148648000Y-110092000D03*
X146108000Y-110092000D03*
G36*
G01*
X116049999Y-117149200D02*
X116550001Y-117149200D01*
G75*
G02*
X116600800Y-117199999I0J-50799D01*
G01*
X116600800Y-118000001D01*
G75*
G02*
X116550001Y-118050800I-50799J0D01*
G01*
X116049999Y-118050800D01*
G75*
G02*
X115999200Y-118000001I0J50799D01*
G01*
X115999200Y-117199999D01*
G75*
G02*
X116049999Y-117149200I50799J0D01*
G01*
G37*
G36*
G01*
X117700000Y-117149200D02*
X118100000Y-117149200D01*
G75*
G02*
X118150800Y-117200000I0J-50800D01*
G01*
X118150800Y-118000000D01*
G75*
G02*
X118100000Y-118050800I-50800J0D01*
G01*
X117700000Y-118050800D01*
G75*
G02*
X117649200Y-118000000I0J50800D01*
G01*
X117649200Y-117200000D01*
G75*
G02*
X117700000Y-117149200I50800J0D01*
G01*
G37*
G36*
G01*
X116900000Y-117149200D02*
X117300000Y-117149200D01*
G75*
G02*
X117350800Y-117200000I0J-50800D01*
G01*
X117350800Y-118000000D01*
G75*
G02*
X117300000Y-118050800I-50800J0D01*
G01*
X116900000Y-118050800D01*
G75*
G02*
X116849200Y-118000000I0J50800D01*
G01*
X116849200Y-117200000D01*
G75*
G02*
X116900000Y-117149200I50800J0D01*
G01*
G37*
G36*
G01*
X118449999Y-117149200D02*
X118950001Y-117149200D01*
G75*
G02*
X119000800Y-117199999I0J-50799D01*
G01*
X119000800Y-118000001D01*
G75*
G02*
X118950001Y-118050800I-50799J0D01*
G01*
X118449999Y-118050800D01*
G75*
G02*
X118399200Y-118000001I0J50799D01*
G01*
X118399200Y-117199999D01*
G75*
G02*
X118449999Y-117149200I50799J0D01*
G01*
G37*
G36*
G01*
X116900000Y-118949200D02*
X117300000Y-118949200D01*
G75*
G02*
X117350800Y-119000000I0J-50800D01*
G01*
X117350800Y-119800000D01*
G75*
G02*
X117300000Y-119850800I-50800J0D01*
G01*
X116900000Y-119850800D01*
G75*
G02*
X116849200Y-119800000I0J50800D01*
G01*
X116849200Y-119000000D01*
G75*
G02*
X116900000Y-118949200I50800J0D01*
G01*
G37*
G36*
G01*
X116049999Y-118949200D02*
X116550001Y-118949200D01*
G75*
G02*
X116600800Y-118999999I0J-50799D01*
G01*
X116600800Y-119800001D01*
G75*
G02*
X116550001Y-119850800I-50799J0D01*
G01*
X116049999Y-119850800D01*
G75*
G02*
X115999200Y-119800001I0J50799D01*
G01*
X115999200Y-118999999D01*
G75*
G02*
X116049999Y-118949200I50799J0D01*
G01*
G37*
G36*
G01*
X117700000Y-118949200D02*
X118100000Y-118949200D01*
G75*
G02*
X118150800Y-119000000I0J-50800D01*
G01*
X118150800Y-119800000D01*
G75*
G02*
X118100000Y-119850800I-50800J0D01*
G01*
X117700000Y-119850800D01*
G75*
G02*
X117649200Y-119800000I0J50800D01*
G01*
X117649200Y-119000000D01*
G75*
G02*
X117700000Y-118949200I50800J0D01*
G01*
G37*
G36*
G01*
X118449999Y-118949200D02*
X118950001Y-118949200D01*
G75*
G02*
X119000800Y-118999999I0J-50799D01*
G01*
X119000800Y-119800001D01*
G75*
G02*
X118950001Y-119850800I-50799J0D01*
G01*
X118449999Y-119850800D01*
G75*
G02*
X118399200Y-119800001I0J50799D01*
G01*
X118399200Y-118999999D01*
G75*
G02*
X118449999Y-118949200I50799J0D01*
G01*
G37*
G36*
G01*
X105074999Y-117074200D02*
X105575001Y-117074200D01*
G75*
G02*
X105625800Y-117124999I0J-50799D01*
G01*
X105625800Y-117925001D01*
G75*
G02*
X105575001Y-117975800I-50799J0D01*
G01*
X105074999Y-117975800D01*
G75*
G02*
X105024200Y-117925001I0J50799D01*
G01*
X105024200Y-117124999D01*
G75*
G02*
X105074999Y-117074200I50799J0D01*
G01*
G37*
G36*
G01*
X106725000Y-117074200D02*
X107125000Y-117074200D01*
G75*
G02*
X107175800Y-117125000I0J-50800D01*
G01*
X107175800Y-117925000D01*
G75*
G02*
X107125000Y-117975800I-50800J0D01*
G01*
X106725000Y-117975800D01*
G75*
G02*
X106674200Y-117925000I0J50800D01*
G01*
X106674200Y-117125000D01*
G75*
G02*
X106725000Y-117074200I50800J0D01*
G01*
G37*
G36*
G01*
X105925000Y-117074200D02*
X106325000Y-117074200D01*
G75*
G02*
X106375800Y-117125000I0J-50800D01*
G01*
X106375800Y-117925000D01*
G75*
G02*
X106325000Y-117975800I-50800J0D01*
G01*
X105925000Y-117975800D01*
G75*
G02*
X105874200Y-117925000I0J50800D01*
G01*
X105874200Y-117125000D01*
G75*
G02*
X105925000Y-117074200I50800J0D01*
G01*
G37*
G36*
G01*
X107474999Y-117074200D02*
X107975001Y-117074200D01*
G75*
G02*
X108025800Y-117124999I0J-50799D01*
G01*
X108025800Y-117925001D01*
G75*
G02*
X107975001Y-117975800I-50799J0D01*
G01*
X107474999Y-117975800D01*
G75*
G02*
X107424200Y-117925001I0J50799D01*
G01*
X107424200Y-117124999D01*
G75*
G02*
X107474999Y-117074200I50799J0D01*
G01*
G37*
G36*
G01*
X105925000Y-118874200D02*
X106325000Y-118874200D01*
G75*
G02*
X106375800Y-118925000I0J-50800D01*
G01*
X106375800Y-119725000D01*
G75*
G02*
X106325000Y-119775800I-50800J0D01*
G01*
X105925000Y-119775800D01*
G75*
G02*
X105874200Y-119725000I0J50800D01*
G01*
X105874200Y-118925000D01*
G75*
G02*
X105925000Y-118874200I50800J0D01*
G01*
G37*
G36*
G01*
X105074999Y-118874200D02*
X105575001Y-118874200D01*
G75*
G02*
X105625800Y-118924999I0J-50799D01*
G01*
X105625800Y-119725001D01*
G75*
G02*
X105575001Y-119775800I-50799J0D01*
G01*
X105074999Y-119775800D01*
G75*
G02*
X105024200Y-119725001I0J50799D01*
G01*
X105024200Y-118924999D01*
G75*
G02*
X105074999Y-118874200I50799J0D01*
G01*
G37*
G36*
G01*
X106725000Y-118874200D02*
X107125000Y-118874200D01*
G75*
G02*
X107175800Y-118925000I0J-50800D01*
G01*
X107175800Y-119725000D01*
G75*
G02*
X107125000Y-119775800I-50800J0D01*
G01*
X106725000Y-119775800D01*
G75*
G02*
X106674200Y-119725000I0J50800D01*
G01*
X106674200Y-118925000D01*
G75*
G02*
X106725000Y-118874200I50800J0D01*
G01*
G37*
G36*
G01*
X107474999Y-118874200D02*
X107975001Y-118874200D01*
G75*
G02*
X108025800Y-118924999I0J-50799D01*
G01*
X108025800Y-119725001D01*
G75*
G02*
X107975001Y-119775800I-50799J0D01*
G01*
X107474999Y-119775800D01*
G75*
G02*
X107424200Y-119725001I0J50799D01*
G01*
X107424200Y-118924999D01*
G75*
G02*
X107474999Y-118874200I50799J0D01*
G01*
G37*
G36*
G01*
X102074999Y-95649200D02*
X102575001Y-95649200D01*
G75*
G02*
X102625800Y-95699999I0J-50799D01*
G01*
X102625800Y-96500001D01*
G75*
G02*
X102575001Y-96550800I-50799J0D01*
G01*
X102074999Y-96550800D01*
G75*
G02*
X102024200Y-96500001I0J50799D01*
G01*
X102024200Y-95699999D01*
G75*
G02*
X102074999Y-95649200I50799J0D01*
G01*
G37*
G36*
G01*
X103725000Y-95649200D02*
X104125000Y-95649200D01*
G75*
G02*
X104175800Y-95700000I0J-50800D01*
G01*
X104175800Y-96500000D01*
G75*
G02*
X104125000Y-96550800I-50800J0D01*
G01*
X103725000Y-96550800D01*
G75*
G02*
X103674200Y-96500000I0J50800D01*
G01*
X103674200Y-95700000D01*
G75*
G02*
X103725000Y-95649200I50800J0D01*
G01*
G37*
G36*
G01*
X102925000Y-95649200D02*
X103325000Y-95649200D01*
G75*
G02*
X103375800Y-95700000I0J-50800D01*
G01*
X103375800Y-96500000D01*
G75*
G02*
X103325000Y-96550800I-50800J0D01*
G01*
X102925000Y-96550800D01*
G75*
G02*
X102874200Y-96500000I0J50800D01*
G01*
X102874200Y-95700000D01*
G75*
G02*
X102925000Y-95649200I50800J0D01*
G01*
G37*
G36*
G01*
X104474999Y-95649200D02*
X104975001Y-95649200D01*
G75*
G02*
X105025800Y-95699999I0J-50799D01*
G01*
X105025800Y-96500001D01*
G75*
G02*
X104975001Y-96550800I-50799J0D01*
G01*
X104474999Y-96550800D01*
G75*
G02*
X104424200Y-96500001I0J50799D01*
G01*
X104424200Y-95699999D01*
G75*
G02*
X104474999Y-95649200I50799J0D01*
G01*
G37*
G36*
G01*
X102925000Y-97449200D02*
X103325000Y-97449200D01*
G75*
G02*
X103375800Y-97500000I0J-50800D01*
G01*
X103375800Y-98300000D01*
G75*
G02*
X103325000Y-98350800I-50800J0D01*
G01*
X102925000Y-98350800D01*
G75*
G02*
X102874200Y-98300000I0J50800D01*
G01*
X102874200Y-97500000D01*
G75*
G02*
X102925000Y-97449200I50800J0D01*
G01*
G37*
G36*
G01*
X102074999Y-97449200D02*
X102575001Y-97449200D01*
G75*
G02*
X102625800Y-97499999I0J-50799D01*
G01*
X102625800Y-98300001D01*
G75*
G02*
X102575001Y-98350800I-50799J0D01*
G01*
X102074999Y-98350800D01*
G75*
G02*
X102024200Y-98300001I0J50799D01*
G01*
X102024200Y-97499999D01*
G75*
G02*
X102074999Y-97449200I50799J0D01*
G01*
G37*
G36*
G01*
X103725000Y-97449200D02*
X104125000Y-97449200D01*
G75*
G02*
X104175800Y-97500000I0J-50800D01*
G01*
X104175800Y-98300000D01*
G75*
G02*
X104125000Y-98350800I-50800J0D01*
G01*
X103725000Y-98350800D01*
G75*
G02*
X103674200Y-98300000I0J50800D01*
G01*
X103674200Y-97500000D01*
G75*
G02*
X103725000Y-97449200I50800J0D01*
G01*
G37*
G36*
G01*
X104474999Y-97449200D02*
X104975001Y-97449200D01*
G75*
G02*
X105025800Y-97499999I0J-50799D01*
G01*
X105025800Y-98300001D01*
G75*
G02*
X104975001Y-98350800I-50799J0D01*
G01*
X104474999Y-98350800D01*
G75*
G02*
X104424200Y-98300001I0J50799D01*
G01*
X104424200Y-97499999D01*
G75*
G02*
X104474999Y-97449200I50799J0D01*
G01*
G37*
G36*
G01*
X109225001Y-96875800D02*
X108724999Y-96875800D01*
G75*
G02*
X108674200Y-96825001I0J50799D01*
G01*
X108674200Y-96024999D01*
G75*
G02*
X108724999Y-95974200I50799J0D01*
G01*
X109225001Y-95974200D01*
G75*
G02*
X109275800Y-96024999I0J-50799D01*
G01*
X109275800Y-96825001D01*
G75*
G02*
X109225001Y-96875800I-50799J0D01*
G01*
G37*
G36*
G01*
X107575000Y-96875800D02*
X107175000Y-96875800D01*
G75*
G02*
X107124200Y-96825000I0J50800D01*
G01*
X107124200Y-96025000D01*
G75*
G02*
X107175000Y-95974200I50800J0D01*
G01*
X107575000Y-95974200D01*
G75*
G02*
X107625800Y-96025000I0J-50800D01*
G01*
X107625800Y-96825000D01*
G75*
G02*
X107575000Y-96875800I-50800J0D01*
G01*
G37*
G36*
G01*
X108375000Y-96875800D02*
X107975000Y-96875800D01*
G75*
G02*
X107924200Y-96825000I0J50800D01*
G01*
X107924200Y-96025000D01*
G75*
G02*
X107975000Y-95974200I50800J0D01*
G01*
X108375000Y-95974200D01*
G75*
G02*
X108425800Y-96025000I0J-50800D01*
G01*
X108425800Y-96825000D01*
G75*
G02*
X108375000Y-96875800I-50800J0D01*
G01*
G37*
G36*
G01*
X106825001Y-96875800D02*
X106324999Y-96875800D01*
G75*
G02*
X106274200Y-96825001I0J50799D01*
G01*
X106274200Y-96024999D01*
G75*
G02*
X106324999Y-95974200I50799J0D01*
G01*
X106825001Y-95974200D01*
G75*
G02*
X106875800Y-96024999I0J-50799D01*
G01*
X106875800Y-96825001D01*
G75*
G02*
X106825001Y-96875800I-50799J0D01*
G01*
G37*
G36*
G01*
X108375000Y-95075800D02*
X107975000Y-95075800D01*
G75*
G02*
X107924200Y-95025000I0J50800D01*
G01*
X107924200Y-94225000D01*
G75*
G02*
X107975000Y-94174200I50800J0D01*
G01*
X108375000Y-94174200D01*
G75*
G02*
X108425800Y-94225000I0J-50800D01*
G01*
X108425800Y-95025000D01*
G75*
G02*
X108375000Y-95075800I-50800J0D01*
G01*
G37*
G36*
G01*
X109225001Y-95075800D02*
X108724999Y-95075800D01*
G75*
G02*
X108674200Y-95025001I0J50799D01*
G01*
X108674200Y-94224999D01*
G75*
G02*
X108724999Y-94174200I50799J0D01*
G01*
X109225001Y-94174200D01*
G75*
G02*
X109275800Y-94224999I0J-50799D01*
G01*
X109275800Y-95025001D01*
G75*
G02*
X109225001Y-95075800I-50799J0D01*
G01*
G37*
G36*
G01*
X107575000Y-95075800D02*
X107175000Y-95075800D01*
G75*
G02*
X107124200Y-95025000I0J50800D01*
G01*
X107124200Y-94225000D01*
G75*
G02*
X107175000Y-94174200I50800J0D01*
G01*
X107575000Y-94174200D01*
G75*
G02*
X107625800Y-94225000I0J-50800D01*
G01*
X107625800Y-95025000D01*
G75*
G02*
X107575000Y-95075800I-50800J0D01*
G01*
G37*
G36*
G01*
X106825001Y-95075800D02*
X106324999Y-95075800D01*
G75*
G02*
X106274200Y-95025001I0J50799D01*
G01*
X106274200Y-94224999D01*
G75*
G02*
X106324999Y-94174200I50799J0D01*
G01*
X106825001Y-94174200D01*
G75*
G02*
X106875800Y-94224999I0J-50799D01*
G01*
X106875800Y-95025001D01*
G75*
G02*
X106825001Y-95075800I-50799J0D01*
G01*
G37*
G36*
G01*
X167317200Y-110570715D02*
X167317200Y-109613285D01*
G75*
G02*
X167589285Y-109341200I272085J0D01*
G01*
X168296715Y-109341200D01*
G75*
G02*
X168568800Y-109613285I0J-272085D01*
G01*
X168568800Y-110570715D01*
G75*
G02*
X168296715Y-110842800I-272085J0D01*
G01*
X167589285Y-110842800D01*
G75*
G02*
X167317200Y-110570715I0J272085D01*
G01*
G37*
G36*
G01*
X169367200Y-110570715D02*
X169367200Y-109613285D01*
G75*
G02*
X169639285Y-109341200I272085J0D01*
G01*
X170346715Y-109341200D01*
G75*
G02*
X170618800Y-109613285I0J-272085D01*
G01*
X170618800Y-110570715D01*
G75*
G02*
X170346715Y-110842800I-272085J0D01*
G01*
X169639285Y-110842800D01*
G75*
G02*
X169367200Y-110570715I0J272085D01*
G01*
G37*
G36*
G01*
X136319800Y-104025285D02*
X136319800Y-104982715D01*
G75*
G02*
X136047715Y-105254800I-272085J0D01*
G01*
X135340285Y-105254800D01*
G75*
G02*
X135068200Y-104982715I0J272085D01*
G01*
X135068200Y-104025285D01*
G75*
G02*
X135340285Y-103753200I272085J0D01*
G01*
X136047715Y-103753200D01*
G75*
G02*
X136319800Y-104025285I0J-272085D01*
G01*
G37*
G36*
G01*
X134269800Y-104025285D02*
X134269800Y-104982715D01*
G75*
G02*
X133997715Y-105254800I-272085J0D01*
G01*
X133290285Y-105254800D01*
G75*
G02*
X133018200Y-104982715I0J272085D01*
G01*
X133018200Y-104025285D01*
G75*
G02*
X133290285Y-103753200I272085J0D01*
G01*
X133997715Y-103753200D01*
G75*
G02*
X134269800Y-104025285I0J-272085D01*
G01*
G37*
G36*
G01*
X140646800Y-104025285D02*
X140646800Y-104982715D01*
G75*
G02*
X140374715Y-105254800I-272085J0D01*
G01*
X139667285Y-105254800D01*
G75*
G02*
X139395200Y-104982715I0J272085D01*
G01*
X139395200Y-104025285D01*
G75*
G02*
X139667285Y-103753200I272085J0D01*
G01*
X140374715Y-103753200D01*
G75*
G02*
X140646800Y-104025285I0J-272085D01*
G01*
G37*
G36*
G01*
X138596800Y-104025285D02*
X138596800Y-104982715D01*
G75*
G02*
X138324715Y-105254800I-272085J0D01*
G01*
X137617285Y-105254800D01*
G75*
G02*
X137345200Y-104982715I0J272085D01*
G01*
X137345200Y-104025285D01*
G75*
G02*
X137617285Y-103753200I272085J0D01*
G01*
X138324715Y-103753200D01*
G75*
G02*
X138596800Y-104025285I0J-272085D01*
G01*
G37*
G36*
G01*
X141578715Y-101525800D02*
X140621285Y-101525800D01*
G75*
G02*
X140349200Y-101253715I0J272085D01*
G01*
X140349200Y-100546285D01*
G75*
G02*
X140621285Y-100274200I272085J0D01*
G01*
X141578715Y-100274200D01*
G75*
G02*
X141850800Y-100546285I0J-272085D01*
G01*
X141850800Y-101253715D01*
G75*
G02*
X141578715Y-101525800I-272085J0D01*
G01*
G37*
G36*
G01*
X141578715Y-99475800D02*
X140621285Y-99475800D01*
G75*
G02*
X140349200Y-99203715I0J272085D01*
G01*
X140349200Y-98496285D01*
G75*
G02*
X140621285Y-98224200I272085J0D01*
G01*
X141578715Y-98224200D01*
G75*
G02*
X141850800Y-98496285I0J-272085D01*
G01*
X141850800Y-99203715D01*
G75*
G02*
X141578715Y-99475800I-272085J0D01*
G01*
G37*
G36*
G01*
X164785800Y-95389285D02*
X164785800Y-96346715D01*
G75*
G02*
X164513715Y-96618800I-272085J0D01*
G01*
X163806285Y-96618800D01*
G75*
G02*
X163534200Y-96346715I0J272085D01*
G01*
X163534200Y-95389285D01*
G75*
G02*
X163806285Y-95117200I272085J0D01*
G01*
X164513715Y-95117200D01*
G75*
G02*
X164785800Y-95389285I0J-272085D01*
G01*
G37*
G36*
G01*
X162735800Y-95389285D02*
X162735800Y-96346715D01*
G75*
G02*
X162463715Y-96618800I-272085J0D01*
G01*
X161756285Y-96618800D01*
G75*
G02*
X161484200Y-96346715I0J272085D01*
G01*
X161484200Y-95389285D01*
G75*
G02*
X161756285Y-95117200I272085J0D01*
G01*
X162463715Y-95117200D01*
G75*
G02*
X162735800Y-95389285I0J-272085D01*
G01*
G37*
G36*
G01*
X115628715Y-95050800D02*
X114671285Y-95050800D01*
G75*
G02*
X114399200Y-94778715I0J272085D01*
G01*
X114399200Y-94071285D01*
G75*
G02*
X114671285Y-93799200I272085J0D01*
G01*
X115628715Y-93799200D01*
G75*
G02*
X115900800Y-94071285I0J-272085D01*
G01*
X115900800Y-94778715D01*
G75*
G02*
X115628715Y-95050800I-272085J0D01*
G01*
G37*
G36*
G01*
X115628715Y-97100800D02*
X114671285Y-97100800D01*
G75*
G02*
X114399200Y-96828715I0J272085D01*
G01*
X114399200Y-96121285D01*
G75*
G02*
X114671285Y-95849200I272085J0D01*
G01*
X115628715Y-95849200D01*
G75*
G02*
X115900800Y-96121285I0J-272085D01*
G01*
X115900800Y-96828715D01*
G75*
G02*
X115628715Y-97100800I-272085J0D01*
G01*
G37*
G36*
G01*
X136084800Y-107574000D02*
X136084800Y-108374000D01*
G75*
G02*
X136034000Y-108424800I-50800J0D01*
G01*
X135134000Y-108424800D01*
G75*
G02*
X135083200Y-108374000I0J50800D01*
G01*
X135083200Y-107574000D01*
G75*
G02*
X135134000Y-107523200I50800J0D01*
G01*
X136034000Y-107523200D01*
G75*
G02*
X136084800Y-107574000I0J-50800D01*
G01*
G37*
G36*
G01*
X136084800Y-109474000D02*
X136084800Y-110274000D01*
G75*
G02*
X136034000Y-110324800I-50800J0D01*
G01*
X135134000Y-110324800D01*
G75*
G02*
X135083200Y-110274000I0J50800D01*
G01*
X135083200Y-109474000D01*
G75*
G02*
X135134000Y-109423200I50800J0D01*
G01*
X136034000Y-109423200D01*
G75*
G02*
X136084800Y-109474000I0J-50800D01*
G01*
G37*
G36*
G01*
X134084800Y-108524000D02*
X134084800Y-109324000D01*
G75*
G02*
X134034000Y-109374800I-50800J0D01*
G01*
X133134000Y-109374800D01*
G75*
G02*
X133083200Y-109324000I0J50800D01*
G01*
X133083200Y-108524000D01*
G75*
G02*
X133134000Y-108473200I50800J0D01*
G01*
X134034000Y-108473200D01*
G75*
G02*
X134084800Y-108524000I0J-50800D01*
G01*
G37*
G36*
G01*
X140480800Y-107472000D02*
X140480800Y-108272000D01*
G75*
G02*
X140430000Y-108322800I-50800J0D01*
G01*
X139530000Y-108322800D01*
G75*
G02*
X139479200Y-108272000I0J50800D01*
G01*
X139479200Y-107472000D01*
G75*
G02*
X139530000Y-107421200I50800J0D01*
G01*
X140430000Y-107421200D01*
G75*
G02*
X140480800Y-107472000I0J-50800D01*
G01*
G37*
G36*
G01*
X140480800Y-109372000D02*
X140480800Y-110172000D01*
G75*
G02*
X140430000Y-110222800I-50800J0D01*
G01*
X139530000Y-110222800D01*
G75*
G02*
X139479200Y-110172000I0J50800D01*
G01*
X139479200Y-109372000D01*
G75*
G02*
X139530000Y-109321200I50800J0D01*
G01*
X140430000Y-109321200D01*
G75*
G02*
X140480800Y-109372000I0J-50800D01*
G01*
G37*
G36*
G01*
X138480800Y-108422000D02*
X138480800Y-109222000D01*
G75*
G02*
X138430000Y-109272800I-50800J0D01*
G01*
X137530000Y-109272800D01*
G75*
G02*
X137479200Y-109222000I0J50800D01*
G01*
X137479200Y-108422000D01*
G75*
G02*
X137530000Y-108371200I50800J0D01*
G01*
X138430000Y-108371200D01*
G75*
G02*
X138480800Y-108422000I0J-50800D01*
G01*
G37*
G36*
G01*
X150506000Y-100908800D02*
X149706000Y-100908800D01*
G75*
G02*
X149655200Y-100858000I0J50800D01*
G01*
X149655200Y-99958000D01*
G75*
G02*
X149706000Y-99907200I50800J0D01*
G01*
X150506000Y-99907200D01*
G75*
G02*
X150556800Y-99958000I0J-50800D01*
G01*
X150556800Y-100858000D01*
G75*
G02*
X150506000Y-100908800I-50800J0D01*
G01*
G37*
G36*
G01*
X148606000Y-100908800D02*
X147806000Y-100908800D01*
G75*
G02*
X147755200Y-100858000I0J50800D01*
G01*
X147755200Y-99958000D01*
G75*
G02*
X147806000Y-99907200I50800J0D01*
G01*
X148606000Y-99907200D01*
G75*
G02*
X148656800Y-99958000I0J-50800D01*
G01*
X148656800Y-100858000D01*
G75*
G02*
X148606000Y-100908800I-50800J0D01*
G01*
G37*
G36*
G01*
X149556000Y-98908800D02*
X148756000Y-98908800D01*
G75*
G02*
X148705200Y-98858000I0J50800D01*
G01*
X148705200Y-97958000D01*
G75*
G02*
X148756000Y-97907200I50800J0D01*
G01*
X149556000Y-97907200D01*
G75*
G02*
X149606800Y-97958000I0J-50800D01*
G01*
X149606800Y-98858000D01*
G75*
G02*
X149556000Y-98908800I-50800J0D01*
G01*
G37*
G36*
G01*
X155586000Y-100924800D02*
X154786000Y-100924800D01*
G75*
G02*
X154735200Y-100874000I0J50800D01*
G01*
X154735200Y-99974000D01*
G75*
G02*
X154786000Y-99923200I50800J0D01*
G01*
X155586000Y-99923200D01*
G75*
G02*
X155636800Y-99974000I0J-50800D01*
G01*
X155636800Y-100874000D01*
G75*
G02*
X155586000Y-100924800I-50800J0D01*
G01*
G37*
G36*
G01*
X153686000Y-100924800D02*
X152886000Y-100924800D01*
G75*
G02*
X152835200Y-100874000I0J50800D01*
G01*
X152835200Y-99974000D01*
G75*
G02*
X152886000Y-99923200I50800J0D01*
G01*
X153686000Y-99923200D01*
G75*
G02*
X153736800Y-99974000I0J-50800D01*
G01*
X153736800Y-100874000D01*
G75*
G02*
X153686000Y-100924800I-50800J0D01*
G01*
G37*
G36*
G01*
X154636000Y-98924800D02*
X153836000Y-98924800D01*
G75*
G02*
X153785200Y-98874000I0J50800D01*
G01*
X153785200Y-97974000D01*
G75*
G02*
X153836000Y-97923200I50800J0D01*
G01*
X154636000Y-97923200D01*
G75*
G02*
X154686800Y-97974000I0J-50800D01*
G01*
X154686800Y-98874000D01*
G75*
G02*
X154636000Y-98924800I-50800J0D01*
G01*
G37*
G36*
G01*
X160650000Y-100924800D02*
X159850000Y-100924800D01*
G75*
G02*
X159799200Y-100874000I0J50800D01*
G01*
X159799200Y-99974000D01*
G75*
G02*
X159850000Y-99923200I50800J0D01*
G01*
X160650000Y-99923200D01*
G75*
G02*
X160700800Y-99974000I0J-50800D01*
G01*
X160700800Y-100874000D01*
G75*
G02*
X160650000Y-100924800I-50800J0D01*
G01*
G37*
G36*
G01*
X158750000Y-100924800D02*
X157950000Y-100924800D01*
G75*
G02*
X157899200Y-100874000I0J50800D01*
G01*
X157899200Y-99974000D01*
G75*
G02*
X157950000Y-99923200I50800J0D01*
G01*
X158750000Y-99923200D01*
G75*
G02*
X158800800Y-99974000I0J-50800D01*
G01*
X158800800Y-100874000D01*
G75*
G02*
X158750000Y-100924800I-50800J0D01*
G01*
G37*
G36*
G01*
X159700000Y-98924800D02*
X158900000Y-98924800D01*
G75*
G02*
X158849200Y-98874000I0J50800D01*
G01*
X158849200Y-97974000D01*
G75*
G02*
X158900000Y-97923200I50800J0D01*
G01*
X159700000Y-97923200D01*
G75*
G02*
X159750800Y-97974000I0J-50800D01*
G01*
X159750800Y-98874000D01*
G75*
G02*
X159700000Y-98924800I-50800J0D01*
G01*
G37*
G36*
G01*
X166000000Y-100924800D02*
X165200000Y-100924800D01*
G75*
G02*
X165149200Y-100874000I0J50800D01*
G01*
X165149200Y-99974000D01*
G75*
G02*
X165200000Y-99923200I50800J0D01*
G01*
X166000000Y-99923200D01*
G75*
G02*
X166050800Y-99974000I0J-50800D01*
G01*
X166050800Y-100874000D01*
G75*
G02*
X166000000Y-100924800I-50800J0D01*
G01*
G37*
G36*
G01*
X164100000Y-100924800D02*
X163300000Y-100924800D01*
G75*
G02*
X163249200Y-100874000I0J50800D01*
G01*
X163249200Y-99974000D01*
G75*
G02*
X163300000Y-99923200I50800J0D01*
G01*
X164100000Y-99923200D01*
G75*
G02*
X164150800Y-99974000I0J-50800D01*
G01*
X164150800Y-100874000D01*
G75*
G02*
X164100000Y-100924800I-50800J0D01*
G01*
G37*
G36*
G01*
X165050000Y-98924800D02*
X164250000Y-98924800D01*
G75*
G02*
X164199200Y-98874000I0J50800D01*
G01*
X164199200Y-97974000D01*
G75*
G02*
X164250000Y-97923200I50800J0D01*
G01*
X165050000Y-97923200D01*
G75*
G02*
X165100800Y-97974000I0J-50800D01*
G01*
X165100800Y-98874000D01*
G75*
G02*
X165050000Y-98924800I-50800J0D01*
G01*
G37*
D18*
X187256000Y-95614000D03*
X179636000Y-95614000D03*
X187256000Y-110854000D03*
X174556000Y-110854000D03*
G36*
G01*
X146132800Y-104038000D02*
X146132800Y-104838000D01*
G75*
G02*
X146082000Y-104888800I-50800J0D01*
G01*
X145182000Y-104888800D01*
G75*
G02*
X145131200Y-104838000I0J50800D01*
G01*
X145131200Y-104038000D01*
G75*
G02*
X145182000Y-103987200I50800J0D01*
G01*
X146082000Y-103987200D01*
G75*
G02*
X146132800Y-104038000I0J-50800D01*
G01*
G37*
G36*
G01*
X148132800Y-104988000D02*
X148132800Y-105788000D01*
G75*
G02*
X148082000Y-105838800I-50800J0D01*
G01*
X147182000Y-105838800D01*
G75*
G02*
X147131200Y-105788000I0J50800D01*
G01*
X147131200Y-104988000D01*
G75*
G02*
X147182000Y-104937200I50800J0D01*
G01*
X148082000Y-104937200D01*
G75*
G02*
X148132800Y-104988000I0J-50800D01*
G01*
G37*
G36*
G01*
X148132800Y-103088000D02*
X148132800Y-103888000D01*
G75*
G02*
X148082000Y-103938800I-50800J0D01*
G01*
X147182000Y-103938800D01*
G75*
G02*
X147131200Y-103888000I0J50800D01*
G01*
X147131200Y-103088000D01*
G75*
G02*
X147182000Y-103037200I50800J0D01*
G01*
X148082000Y-103037200D01*
G75*
G02*
X148132800Y-103088000I0J-50800D01*
G01*
G37*
G36*
G01*
X153212800Y-103088000D02*
X153212800Y-103888000D01*
G75*
G02*
X153162000Y-103938800I-50800J0D01*
G01*
X152262000Y-103938800D01*
G75*
G02*
X152211200Y-103888000I0J50800D01*
G01*
X152211200Y-103088000D01*
G75*
G02*
X152262000Y-103037200I50800J0D01*
G01*
X153162000Y-103037200D01*
G75*
G02*
X153212800Y-103088000I0J-50800D01*
G01*
G37*
G36*
G01*
X153212800Y-104988000D02*
X153212800Y-105788000D01*
G75*
G02*
X153162000Y-105838800I-50800J0D01*
G01*
X152262000Y-105838800D01*
G75*
G02*
X152211200Y-105788000I0J50800D01*
G01*
X152211200Y-104988000D01*
G75*
G02*
X152262000Y-104937200I50800J0D01*
G01*
X153162000Y-104937200D01*
G75*
G02*
X153212800Y-104988000I0J-50800D01*
G01*
G37*
G36*
G01*
X151212800Y-104038000D02*
X151212800Y-104838000D01*
G75*
G02*
X151162000Y-104888800I-50800J0D01*
G01*
X150262000Y-104888800D01*
G75*
G02*
X150211200Y-104838000I0J50800D01*
G01*
X150211200Y-104038000D01*
G75*
G02*
X150262000Y-103987200I50800J0D01*
G01*
X151162000Y-103987200D01*
G75*
G02*
X151212800Y-104038000I0J-50800D01*
G01*
G37*
G36*
G01*
X158276800Y-103154000D02*
X158276800Y-103954000D01*
G75*
G02*
X158226000Y-104004800I-50800J0D01*
G01*
X157326000Y-104004800D01*
G75*
G02*
X157275200Y-103954000I0J50800D01*
G01*
X157275200Y-103154000D01*
G75*
G02*
X157326000Y-103103200I50800J0D01*
G01*
X158226000Y-103103200D01*
G75*
G02*
X158276800Y-103154000I0J-50800D01*
G01*
G37*
G36*
G01*
X158276800Y-105054000D02*
X158276800Y-105854000D01*
G75*
G02*
X158226000Y-105904800I-50800J0D01*
G01*
X157326000Y-105904800D01*
G75*
G02*
X157275200Y-105854000I0J50800D01*
G01*
X157275200Y-105054000D01*
G75*
G02*
X157326000Y-105003200I50800J0D01*
G01*
X158226000Y-105003200D01*
G75*
G02*
X158276800Y-105054000I0J-50800D01*
G01*
G37*
G36*
G01*
X156276800Y-104104000D02*
X156276800Y-104904000D01*
G75*
G02*
X156226000Y-104954800I-50800J0D01*
G01*
X155326000Y-104954800D01*
G75*
G02*
X155275200Y-104904000I0J50800D01*
G01*
X155275200Y-104104000D01*
G75*
G02*
X155326000Y-104053200I50800J0D01*
G01*
X156226000Y-104053200D01*
G75*
G02*
X156276800Y-104104000I0J-50800D01*
G01*
G37*
G36*
G01*
X163356800Y-103154000D02*
X163356800Y-103954000D01*
G75*
G02*
X163306000Y-104004800I-50800J0D01*
G01*
X162406000Y-104004800D01*
G75*
G02*
X162355200Y-103954000I0J50800D01*
G01*
X162355200Y-103154000D01*
G75*
G02*
X162406000Y-103103200I50800J0D01*
G01*
X163306000Y-103103200D01*
G75*
G02*
X163356800Y-103154000I0J-50800D01*
G01*
G37*
G36*
G01*
X163356800Y-105054000D02*
X163356800Y-105854000D01*
G75*
G02*
X163306000Y-105904800I-50800J0D01*
G01*
X162406000Y-105904800D01*
G75*
G02*
X162355200Y-105854000I0J50800D01*
G01*
X162355200Y-105054000D01*
G75*
G02*
X162406000Y-105003200I50800J0D01*
G01*
X163306000Y-105003200D01*
G75*
G02*
X163356800Y-105054000I0J-50800D01*
G01*
G37*
G36*
G01*
X161356800Y-104104000D02*
X161356800Y-104904000D01*
G75*
G02*
X161306000Y-104954800I-50800J0D01*
G01*
X160406000Y-104954800D01*
G75*
G02*
X160355200Y-104904000I0J50800D01*
G01*
X160355200Y-104104000D01*
G75*
G02*
X160406000Y-104053200I50800J0D01*
G01*
X161306000Y-104053200D01*
G75*
G02*
X161356800Y-104104000I0J-50800D01*
G01*
G37*
G36*
G01*
X172039200Y-107124000D02*
X172039200Y-106324000D01*
G75*
G02*
X172090000Y-106273200I50800J0D01*
G01*
X172990000Y-106273200D01*
G75*
G02*
X173040800Y-106324000I0J-50800D01*
G01*
X173040800Y-107124000D01*
G75*
G02*
X172990000Y-107174800I-50800J0D01*
G01*
X172090000Y-107174800D01*
G75*
G02*
X172039200Y-107124000I0J50800D01*
G01*
G37*
G36*
G01*
X172039200Y-105224000D02*
X172039200Y-104424000D01*
G75*
G02*
X172090000Y-104373200I50800J0D01*
G01*
X172990000Y-104373200D01*
G75*
G02*
X173040800Y-104424000I0J-50800D01*
G01*
X173040800Y-105224000D01*
G75*
G02*
X172990000Y-105274800I-50800J0D01*
G01*
X172090000Y-105274800D01*
G75*
G02*
X172039200Y-105224000I0J50800D01*
G01*
G37*
G36*
G01*
X174039200Y-106174000D02*
X174039200Y-105374000D01*
G75*
G02*
X174090000Y-105323200I50800J0D01*
G01*
X174990000Y-105323200D01*
G75*
G02*
X175040800Y-105374000I0J-50800D01*
G01*
X175040800Y-106174000D01*
G75*
G02*
X174990000Y-106224800I-50800J0D01*
G01*
X174090000Y-106224800D01*
G75*
G02*
X174039200Y-106174000I0J50800D01*
G01*
G37*
G36*
G01*
X185105800Y-98945285D02*
X185105800Y-99902715D01*
G75*
G02*
X184833715Y-100174800I-272085J0D01*
G01*
X184126285Y-100174800D01*
G75*
G02*
X183854200Y-99902715I0J272085D01*
G01*
X183854200Y-98945285D01*
G75*
G02*
X184126285Y-98673200I272085J0D01*
G01*
X184833715Y-98673200D01*
G75*
G02*
X185105800Y-98945285I0J-272085D01*
G01*
G37*
G36*
G01*
X183055800Y-98945285D02*
X183055800Y-99902715D01*
G75*
G02*
X182783715Y-100174800I-272085J0D01*
G01*
X182076285Y-100174800D01*
G75*
G02*
X181804200Y-99902715I0J272085D01*
G01*
X181804200Y-98945285D01*
G75*
G02*
X182076285Y-98673200I272085J0D01*
G01*
X182783715Y-98673200D01*
G75*
G02*
X183055800Y-98945285I0J-272085D01*
G01*
G37*
G36*
G01*
X134212900Y-100625800D02*
X133687100Y-100625800D01*
G75*
G02*
X133424200Y-100362900I0J262900D01*
G01*
X133424200Y-99737100D01*
G75*
G02*
X133687100Y-99474200I262900J0D01*
G01*
X134212900Y-99474200D01*
G75*
G02*
X134475800Y-99737100I0J-262900D01*
G01*
X134475800Y-100362900D01*
G75*
G02*
X134212900Y-100625800I-262900J0D01*
G01*
G37*
G36*
G01*
X134212900Y-98875800D02*
X133687100Y-98875800D01*
G75*
G02*
X133424200Y-98612900I0J262900D01*
G01*
X133424200Y-97987100D01*
G75*
G02*
X133687100Y-97724200I262900J0D01*
G01*
X134212900Y-97724200D01*
G75*
G02*
X134475800Y-97987100I0J-262900D01*
G01*
X134475800Y-98612900D01*
G75*
G02*
X134212900Y-98875800I-262900J0D01*
G01*
G37*
G36*
G01*
X104574200Y-107112900D02*
X104574200Y-106587100D01*
G75*
G02*
X104837100Y-106324200I262900J0D01*
G01*
X105462900Y-106324200D01*
G75*
G02*
X105725800Y-106587100I0J-262900D01*
G01*
X105725800Y-107112900D01*
G75*
G02*
X105462900Y-107375800I-262900J0D01*
G01*
X104837100Y-107375800D01*
G75*
G02*
X104574200Y-107112900I0J262900D01*
G01*
G37*
G36*
G01*
X106324200Y-107112900D02*
X106324200Y-106587100D01*
G75*
G02*
X106587100Y-106324200I262900J0D01*
G01*
X107212900Y-106324200D01*
G75*
G02*
X107475800Y-106587100I0J-262900D01*
G01*
X107475800Y-107112900D01*
G75*
G02*
X107212900Y-107375800I-262900J0D01*
G01*
X106587100Y-107375800D01*
G75*
G02*
X106324200Y-107112900I0J262900D01*
G01*
G37*
G36*
G01*
X111312100Y-116074200D02*
X111837900Y-116074200D01*
G75*
G02*
X112100800Y-116337100I0J-262900D01*
G01*
X112100800Y-116962900D01*
G75*
G02*
X111837900Y-117225800I-262900J0D01*
G01*
X111312100Y-117225800D01*
G75*
G02*
X111049200Y-116962900I0J262900D01*
G01*
X111049200Y-116337100D01*
G75*
G02*
X111312100Y-116074200I262900J0D01*
G01*
G37*
G36*
G01*
X111312100Y-117824200D02*
X111837900Y-117824200D01*
G75*
G02*
X112100800Y-118087100I0J-262900D01*
G01*
X112100800Y-118712900D01*
G75*
G02*
X111837900Y-118975800I-262900J0D01*
G01*
X111312100Y-118975800D01*
G75*
G02*
X111049200Y-118712900I0J262900D01*
G01*
X111049200Y-118087100D01*
G75*
G02*
X111312100Y-117824200I262900J0D01*
G01*
G37*
G36*
G01*
X112862900Y-95950800D02*
X112337100Y-95950800D01*
G75*
G02*
X112074200Y-95687900I0J262900D01*
G01*
X112074200Y-95062100D01*
G75*
G02*
X112337100Y-94799200I262900J0D01*
G01*
X112862900Y-94799200D01*
G75*
G02*
X113125800Y-95062100I0J-262900D01*
G01*
X113125800Y-95687900D01*
G75*
G02*
X112862900Y-95950800I-262900J0D01*
G01*
G37*
G36*
G01*
X112862900Y-97700800D02*
X112337100Y-97700800D01*
G75*
G02*
X112074200Y-97437900I0J262900D01*
G01*
X112074200Y-96812100D01*
G75*
G02*
X112337100Y-96549200I262900J0D01*
G01*
X112862900Y-96549200D01*
G75*
G02*
X113125800Y-96812100I0J-262900D01*
G01*
X113125800Y-97437900D01*
G75*
G02*
X112862900Y-97700800I-262900J0D01*
G01*
G37*
M02*
