G04 #@! TF.GenerationSoftware,KiCad,Pcbnew,(5.1.7)-1*
G04 #@! TF.CreationDate,2021-11-01T12:52:46-05:00*
G04 #@! TF.ProjectId,PIC-nixie,5049432d-6e69-4786-9965-2e6b69636164,rev?*
G04 #@! TF.SameCoordinates,Original*
G04 #@! TF.FileFunction,Paste,Bot*
G04 #@! TF.FilePolarity,Positive*
%FSLAX46Y46*%
G04 Gerber Fmt 4.6, Leading zero omitted, Abs format (unit mm)*
G04 Created by KiCad (PCBNEW (5.1.7)-1) date 2021-11-01 12:52:46*
%MOMM*%
%LPD*%
G01*
G04 APERTURE LIST*
%ADD10R,0.700000X0.450000*%
%ADD11R,0.500000X0.800000*%
%ADD12R,0.400000X0.800000*%
%ADD13R,0.900000X0.800000*%
%ADD14R,0.800000X0.900000*%
G04 APERTURE END LIST*
D10*
X145510000Y-80236000D03*
X145510000Y-81186000D03*
X145510000Y-82136000D03*
X147910000Y-82136000D03*
X147910000Y-81186000D03*
X147910000Y-80236000D03*
D11*
X128700000Y-100400000D03*
D12*
X127900000Y-100400000D03*
D11*
X126300000Y-100400000D03*
D12*
X127100000Y-100400000D03*
D11*
X128700000Y-98600000D03*
D12*
X127100000Y-98600000D03*
X127900000Y-98600000D03*
D11*
X126300000Y-98600000D03*
X117725000Y-100325000D03*
D12*
X116925000Y-100325000D03*
D11*
X115325000Y-100325000D03*
D12*
X116125000Y-100325000D03*
D11*
X117725000Y-98525000D03*
D12*
X116125000Y-98525000D03*
X116925000Y-98525000D03*
D11*
X115325000Y-98525000D03*
X114725000Y-78900000D03*
D12*
X113925000Y-78900000D03*
D11*
X112325000Y-78900000D03*
D12*
X113125000Y-78900000D03*
D11*
X114725000Y-77100000D03*
D12*
X113125000Y-77100000D03*
X113925000Y-77100000D03*
D11*
X112325000Y-77100000D03*
X116575000Y-75625000D03*
D12*
X117375000Y-75625000D03*
D11*
X118975000Y-75625000D03*
D12*
X118175000Y-75625000D03*
D11*
X116575000Y-77425000D03*
D12*
X118175000Y-77425000D03*
X117375000Y-77425000D03*
D11*
X118975000Y-77425000D03*
G36*
G01*
X179418000Y-91542001D02*
X179418000Y-90641999D01*
G75*
G02*
X179667999Y-90392000I249999J0D01*
G01*
X180318001Y-90392000D01*
G75*
G02*
X180568000Y-90641999I0J-249999D01*
G01*
X180568000Y-91542001D01*
G75*
G02*
X180318001Y-91792000I-249999J0D01*
G01*
X179667999Y-91792000D01*
G75*
G02*
X179418000Y-91542001I0J249999D01*
G01*
G37*
G36*
G01*
X177368000Y-91542001D02*
X177368000Y-90641999D01*
G75*
G02*
X177617999Y-90392000I249999J0D01*
G01*
X178268001Y-90392000D01*
G75*
G02*
X178518000Y-90641999I0J-249999D01*
G01*
X178518000Y-91542001D01*
G75*
G02*
X178268001Y-91792000I-249999J0D01*
G01*
X177617999Y-91792000D01*
G75*
G02*
X177368000Y-91542001I0J249999D01*
G01*
G37*
G36*
G01*
X144219000Y-85053999D02*
X144219000Y-85954001D01*
G75*
G02*
X143969001Y-86204000I-249999J0D01*
G01*
X143318999Y-86204000D01*
G75*
G02*
X143069000Y-85954001I0J249999D01*
G01*
X143069000Y-85053999D01*
G75*
G02*
X143318999Y-84804000I249999J0D01*
G01*
X143969001Y-84804000D01*
G75*
G02*
X144219000Y-85053999I0J-249999D01*
G01*
G37*
G36*
G01*
X146269000Y-85053999D02*
X146269000Y-85954001D01*
G75*
G02*
X146019001Y-86204000I-249999J0D01*
G01*
X145368999Y-86204000D01*
G75*
G02*
X145119000Y-85954001I0J249999D01*
G01*
X145119000Y-85053999D01*
G75*
G02*
X145368999Y-84804000I249999J0D01*
G01*
X146019001Y-84804000D01*
G75*
G02*
X146269000Y-85053999I0J-249999D01*
G01*
G37*
G36*
G01*
X148546000Y-85053999D02*
X148546000Y-85954001D01*
G75*
G02*
X148296001Y-86204000I-249999J0D01*
G01*
X147645999Y-86204000D01*
G75*
G02*
X147396000Y-85954001I0J249999D01*
G01*
X147396000Y-85053999D01*
G75*
G02*
X147645999Y-84804000I249999J0D01*
G01*
X148296001Y-84804000D01*
G75*
G02*
X148546000Y-85053999I0J-249999D01*
G01*
G37*
G36*
G01*
X150596000Y-85053999D02*
X150596000Y-85954001D01*
G75*
G02*
X150346001Y-86204000I-249999J0D01*
G01*
X149695999Y-86204000D01*
G75*
G02*
X149446000Y-85954001I0J249999D01*
G01*
X149446000Y-85053999D01*
G75*
G02*
X149695999Y-84804000I249999J0D01*
G01*
X150346001Y-84804000D01*
G75*
G02*
X150596000Y-85053999I0J-249999D01*
G01*
G37*
G36*
G01*
X151550001Y-80425000D02*
X150649999Y-80425000D01*
G75*
G02*
X150400000Y-80175001I0J249999D01*
G01*
X150400000Y-79524999D01*
G75*
G02*
X150649999Y-79275000I249999J0D01*
G01*
X151550001Y-79275000D01*
G75*
G02*
X151800000Y-79524999I0J-249999D01*
G01*
X151800000Y-80175001D01*
G75*
G02*
X151550001Y-80425000I-249999J0D01*
G01*
G37*
G36*
G01*
X151550001Y-82475000D02*
X150649999Y-82475000D01*
G75*
G02*
X150400000Y-82225001I0J249999D01*
G01*
X150400000Y-81574999D01*
G75*
G02*
X150649999Y-81325000I249999J0D01*
G01*
X151550001Y-81325000D01*
G75*
G02*
X151800000Y-81574999I0J-249999D01*
G01*
X151800000Y-82225001D01*
G75*
G02*
X151550001Y-82475000I-249999J0D01*
G01*
G37*
G36*
G01*
X172685000Y-76417999D02*
X172685000Y-77318001D01*
G75*
G02*
X172435001Y-77568000I-249999J0D01*
G01*
X171784999Y-77568000D01*
G75*
G02*
X171535000Y-77318001I0J249999D01*
G01*
X171535000Y-76417999D01*
G75*
G02*
X171784999Y-76168000I249999J0D01*
G01*
X172435001Y-76168000D01*
G75*
G02*
X172685000Y-76417999I0J-249999D01*
G01*
G37*
G36*
G01*
X174735000Y-76417999D02*
X174735000Y-77318001D01*
G75*
G02*
X174485001Y-77568000I-249999J0D01*
G01*
X173834999Y-77568000D01*
G75*
G02*
X173585000Y-77318001I0J249999D01*
G01*
X173585000Y-76417999D01*
G75*
G02*
X173834999Y-76168000I249999J0D01*
G01*
X174485001Y-76168000D01*
G75*
G02*
X174735000Y-76417999I0J-249999D01*
G01*
G37*
G36*
G01*
X125600001Y-78050000D02*
X124699999Y-78050000D01*
G75*
G02*
X124450000Y-77800001I0J249999D01*
G01*
X124450000Y-77149999D01*
G75*
G02*
X124699999Y-76900000I249999J0D01*
G01*
X125600001Y-76900000D01*
G75*
G02*
X125850000Y-77149999I0J-249999D01*
G01*
X125850000Y-77800001D01*
G75*
G02*
X125600001Y-78050000I-249999J0D01*
G01*
G37*
G36*
G01*
X125600001Y-76000000D02*
X124699999Y-76000000D01*
G75*
G02*
X124450000Y-75750001I0J249999D01*
G01*
X124450000Y-75099999D01*
G75*
G02*
X124699999Y-74850000I249999J0D01*
G01*
X125600001Y-74850000D01*
G75*
G02*
X125850000Y-75099999I0J-249999D01*
G01*
X125850000Y-75750001D01*
G75*
G02*
X125600001Y-76000000I-249999J0D01*
G01*
G37*
D13*
X143584000Y-89924000D03*
X145584000Y-90874000D03*
X145584000Y-88974000D03*
X147980000Y-89822000D03*
X149980000Y-90772000D03*
X149980000Y-88872000D03*
D14*
X159156000Y-79408000D03*
X158206000Y-81408000D03*
X160106000Y-81408000D03*
X164236000Y-79424000D03*
X163286000Y-81424000D03*
X165186000Y-81424000D03*
X169300000Y-79424000D03*
X168350000Y-81424000D03*
X170250000Y-81424000D03*
X174650000Y-79424000D03*
X173700000Y-81424000D03*
X175600000Y-81424000D03*
D13*
X157632000Y-84488000D03*
X157632000Y-86388000D03*
X155632000Y-85438000D03*
X160712000Y-85438000D03*
X162712000Y-86388000D03*
X162712000Y-84488000D03*
X165776000Y-85504000D03*
X167776000Y-86454000D03*
X167776000Y-84554000D03*
X170856000Y-85504000D03*
X172856000Y-86454000D03*
X172856000Y-84554000D03*
X184540000Y-86774000D03*
X182540000Y-85824000D03*
X182540000Y-87724000D03*
G36*
G01*
X193005000Y-79973999D02*
X193005000Y-80874001D01*
G75*
G02*
X192755001Y-81124000I-249999J0D01*
G01*
X192104999Y-81124000D01*
G75*
G02*
X191855000Y-80874001I0J249999D01*
G01*
X191855000Y-79973999D01*
G75*
G02*
X192104999Y-79724000I249999J0D01*
G01*
X192755001Y-79724000D01*
G75*
G02*
X193005000Y-79973999I0J-249999D01*
G01*
G37*
G36*
G01*
X195055000Y-79973999D02*
X195055000Y-80874001D01*
G75*
G02*
X194805001Y-81124000I-249999J0D01*
G01*
X194154999Y-81124000D01*
G75*
G02*
X193905000Y-80874001I0J249999D01*
G01*
X193905000Y-79973999D01*
G75*
G02*
X194154999Y-79724000I249999J0D01*
G01*
X194805001Y-79724000D01*
G75*
G02*
X195055000Y-79973999I0J-249999D01*
G01*
G37*
G36*
G01*
X144187500Y-79825000D02*
X143712500Y-79825000D01*
G75*
G02*
X143475000Y-79587500I0J237500D01*
G01*
X143475000Y-79012500D01*
G75*
G02*
X143712500Y-78775000I237500J0D01*
G01*
X144187500Y-78775000D01*
G75*
G02*
X144425000Y-79012500I0J-237500D01*
G01*
X144425000Y-79587500D01*
G75*
G02*
X144187500Y-79825000I-237500J0D01*
G01*
G37*
G36*
G01*
X144187500Y-81575000D02*
X143712500Y-81575000D01*
G75*
G02*
X143475000Y-81337500I0J237500D01*
G01*
X143475000Y-80762500D01*
G75*
G02*
X143712500Y-80525000I237500J0D01*
G01*
X144187500Y-80525000D01*
G75*
G02*
X144425000Y-80762500I0J-237500D01*
G01*
X144425000Y-81337500D01*
G75*
G02*
X144187500Y-81575000I-237500J0D01*
G01*
G37*
G36*
G01*
X116375000Y-88087500D02*
X116375000Y-87612500D01*
G75*
G02*
X116612500Y-87375000I237500J0D01*
G01*
X117187500Y-87375000D01*
G75*
G02*
X117425000Y-87612500I0J-237500D01*
G01*
X117425000Y-88087500D01*
G75*
G02*
X117187500Y-88325000I-237500J0D01*
G01*
X116612500Y-88325000D01*
G75*
G02*
X116375000Y-88087500I0J237500D01*
G01*
G37*
G36*
G01*
X114625000Y-88087500D02*
X114625000Y-87612500D01*
G75*
G02*
X114862500Y-87375000I237500J0D01*
G01*
X115437500Y-87375000D01*
G75*
G02*
X115675000Y-87612500I0J-237500D01*
G01*
X115675000Y-88087500D01*
G75*
G02*
X115437500Y-88325000I-237500J0D01*
G01*
X114862500Y-88325000D01*
G75*
G02*
X114625000Y-88087500I0J237500D01*
G01*
G37*
G36*
G01*
X121337500Y-98875000D02*
X121812500Y-98875000D01*
G75*
G02*
X122050000Y-99112500I0J-237500D01*
G01*
X122050000Y-99687500D01*
G75*
G02*
X121812500Y-99925000I-237500J0D01*
G01*
X121337500Y-99925000D01*
G75*
G02*
X121100000Y-99687500I0J237500D01*
G01*
X121100000Y-99112500D01*
G75*
G02*
X121337500Y-98875000I237500J0D01*
G01*
G37*
G36*
G01*
X121337500Y-97125000D02*
X121812500Y-97125000D01*
G75*
G02*
X122050000Y-97362500I0J-237500D01*
G01*
X122050000Y-97937500D01*
G75*
G02*
X121812500Y-98175000I-237500J0D01*
G01*
X121337500Y-98175000D01*
G75*
G02*
X121100000Y-97937500I0J237500D01*
G01*
X121100000Y-97362500D01*
G75*
G02*
X121337500Y-97125000I237500J0D01*
G01*
G37*
G36*
G01*
X122837500Y-78650000D02*
X122362500Y-78650000D01*
G75*
G02*
X122125000Y-78412500I0J237500D01*
G01*
X122125000Y-77837500D01*
G75*
G02*
X122362500Y-77600000I237500J0D01*
G01*
X122837500Y-77600000D01*
G75*
G02*
X123075000Y-77837500I0J-237500D01*
G01*
X123075000Y-78412500D01*
G75*
G02*
X122837500Y-78650000I-237500J0D01*
G01*
G37*
G36*
G01*
X122837500Y-76900000D02*
X122362500Y-76900000D01*
G75*
G02*
X122125000Y-76662500I0J237500D01*
G01*
X122125000Y-76087500D01*
G75*
G02*
X122362500Y-75850000I237500J0D01*
G01*
X122837500Y-75850000D01*
G75*
G02*
X123075000Y-76087500I0J-237500D01*
G01*
X123075000Y-76662500D01*
G75*
G02*
X122837500Y-76900000I-237500J0D01*
G01*
G37*
M02*
