G04 #@! TF.GenerationSoftware,KiCad,Pcbnew,(5.1.7)-1*
G04 #@! TF.CreationDate,2021-11-01T12:52:46-05:00*
G04 #@! TF.ProjectId,PIC-nixie,5049432d-6e69-4786-9965-2e6b69636164,rev?*
G04 #@! TF.SameCoordinates,Original*
G04 #@! TF.FileFunction,Soldermask,Bot*
G04 #@! TF.FilePolarity,Negative*
%FSLAX46Y46*%
G04 Gerber Fmt 4.6, Leading zero omitted, Abs format (unit mm)*
G04 Created by KiCad (PCBNEW (5.1.7)-1) date 2021-11-01 12:52:46*
%MOMM*%
%LPD*%
G01*
G04 APERTURE LIST*
%ADD10C,2.301600*%
%ADD11O,1.101600X2.101600*%
%ADD12O,1.701600X1.701600*%
%ADD13C,1.801600*%
%ADD14C,1.701800*%
%ADD15C,1.901600*%
G04 APERTURE END LIST*
D10*
X205000000Y-75000000D03*
X124000000Y-90000000D03*
D11*
X202905000Y-89200000D03*
X202905000Y-81000000D03*
X205845000Y-89200000D03*
X205845000Y-81000000D03*
D12*
X131800000Y-102395000D03*
X114020000Y-94775000D03*
X129260000Y-102395000D03*
X116560000Y-94775000D03*
X126720000Y-102395000D03*
X119100000Y-94775000D03*
X124180000Y-102395000D03*
X121640000Y-94775000D03*
X121640000Y-102395000D03*
X124180000Y-94775000D03*
X119100000Y-102395000D03*
X126720000Y-94775000D03*
X116560000Y-102395000D03*
X129260000Y-94775000D03*
X114020000Y-102395000D03*
G36*
G01*
X131000000Y-93924200D02*
X132600000Y-93924200D01*
G75*
G02*
X132650800Y-93975000I0J-50800D01*
G01*
X132650800Y-95575000D01*
G75*
G02*
X132600000Y-95625800I-50800J0D01*
G01*
X131000000Y-95625800D01*
G75*
G02*
X130949200Y-95575000I0J50800D01*
G01*
X130949200Y-93975000D01*
G75*
G02*
X131000000Y-93924200I50800J0D01*
G01*
G37*
G36*
G01*
X172065859Y-101360800D02*
X170794141Y-101360800D01*
G75*
G02*
X170529200Y-101095859I0J264941D01*
G01*
X170529200Y-99824141D01*
G75*
G02*
X170794141Y-99559200I264941J0D01*
G01*
X172065859Y-99559200D01*
G75*
G02*
X172330800Y-99824141I0J-264941D01*
G01*
X172330800Y-101095859D01*
G75*
G02*
X172065859Y-101360800I-264941J0D01*
G01*
G37*
D13*
X168890000Y-100460000D03*
X166350000Y-100460000D03*
X163810000Y-100460000D03*
X161270000Y-100460000D03*
X158730000Y-100460000D03*
X156190000Y-100460000D03*
X153650000Y-100460000D03*
X151110000Y-100460000D03*
X148570000Y-100460000D03*
X171430000Y-97920000D03*
X168890000Y-97920000D03*
X166350000Y-97920000D03*
X163810000Y-97920000D03*
X161270000Y-97920000D03*
X158730000Y-97920000D03*
X156190000Y-97920000D03*
X153650000Y-97920000D03*
X151110000Y-97920000D03*
X148570000Y-97920000D03*
D14*
X184080000Y-98966000D03*
G36*
G01*
X202430900Y-98165900D02*
X202430900Y-99766100D01*
G75*
G02*
X202380100Y-99816900I-50800J0D01*
G01*
X200779900Y-99816900D01*
G75*
G02*
X200729100Y-99766100I0J50800D01*
G01*
X200729100Y-98165900D01*
G75*
G02*
X200779900Y-98115100I50800J0D01*
G01*
X202380100Y-98115100D01*
G75*
G02*
X202430900Y-98165900I0J-50800D01*
G01*
G37*
G36*
G01*
X145960800Y-79961000D02*
X145960800Y-80511000D01*
G75*
G02*
X145910000Y-80561800I-50800J0D01*
G01*
X145110000Y-80561800D01*
G75*
G02*
X145059200Y-80511000I0J50800D01*
G01*
X145059200Y-79961000D01*
G75*
G02*
X145110000Y-79910200I50800J0D01*
G01*
X145910000Y-79910200D01*
G75*
G02*
X145960800Y-79961000I0J-50800D01*
G01*
G37*
G36*
G01*
X145960800Y-80911000D02*
X145960800Y-81461000D01*
G75*
G02*
X145910000Y-81511800I-50800J0D01*
G01*
X145110000Y-81511800D01*
G75*
G02*
X145059200Y-81461000I0J50800D01*
G01*
X145059200Y-80911000D01*
G75*
G02*
X145110000Y-80860200I50800J0D01*
G01*
X145910000Y-80860200D01*
G75*
G02*
X145960800Y-80911000I0J-50800D01*
G01*
G37*
G36*
G01*
X145960800Y-81861000D02*
X145960800Y-82411000D01*
G75*
G02*
X145910000Y-82461800I-50800J0D01*
G01*
X145110000Y-82461800D01*
G75*
G02*
X145059200Y-82411000I0J50800D01*
G01*
X145059200Y-81861000D01*
G75*
G02*
X145110000Y-81810200I50800J0D01*
G01*
X145910000Y-81810200D01*
G75*
G02*
X145960800Y-81861000I0J-50800D01*
G01*
G37*
G36*
G01*
X148360800Y-81861000D02*
X148360800Y-82411000D01*
G75*
G02*
X148310000Y-82461800I-50800J0D01*
G01*
X147510000Y-82461800D01*
G75*
G02*
X147459200Y-82411000I0J50800D01*
G01*
X147459200Y-81861000D01*
G75*
G02*
X147510000Y-81810200I50800J0D01*
G01*
X148310000Y-81810200D01*
G75*
G02*
X148360800Y-81861000I0J-50800D01*
G01*
G37*
G36*
G01*
X148360800Y-80911000D02*
X148360800Y-81461000D01*
G75*
G02*
X148310000Y-81511800I-50800J0D01*
G01*
X147510000Y-81511800D01*
G75*
G02*
X147459200Y-81461000I0J50800D01*
G01*
X147459200Y-80911000D01*
G75*
G02*
X147510000Y-80860200I50800J0D01*
G01*
X148310000Y-80860200D01*
G75*
G02*
X148360800Y-80911000I0J-50800D01*
G01*
G37*
G36*
G01*
X148360800Y-79961000D02*
X148360800Y-80511000D01*
G75*
G02*
X148310000Y-80561800I-50800J0D01*
G01*
X147510000Y-80561800D01*
G75*
G02*
X147459200Y-80511000I0J50800D01*
G01*
X147459200Y-79961000D01*
G75*
G02*
X147510000Y-79910200I50800J0D01*
G01*
X148310000Y-79910200D01*
G75*
G02*
X148360800Y-79961000I0J-50800D01*
G01*
G37*
G36*
G01*
X131975000Y-72349200D02*
X133575000Y-72349200D01*
G75*
G02*
X133625800Y-72400000I0J-50800D01*
G01*
X133625800Y-74000000D01*
G75*
G02*
X133575000Y-74050800I-50800J0D01*
G01*
X131975000Y-74050800D01*
G75*
G02*
X131924200Y-74000000I0J50800D01*
G01*
X131924200Y-72400000D01*
G75*
G02*
X131975000Y-72349200I50800J0D01*
G01*
G37*
D12*
X112455000Y-80820000D03*
X130235000Y-73200000D03*
X114995000Y-80820000D03*
X127695000Y-73200000D03*
X117535000Y-80820000D03*
X125155000Y-73200000D03*
X120075000Y-80820000D03*
X122615000Y-73200000D03*
X122615000Y-80820000D03*
X120075000Y-73200000D03*
X125155000Y-80820000D03*
X117535000Y-73200000D03*
X127695000Y-80820000D03*
X114995000Y-73200000D03*
X130235000Y-80820000D03*
X112455000Y-73200000D03*
X132775000Y-80820000D03*
X156108000Y-91092000D03*
X158648000Y-91092000D03*
X161188000Y-91092000D03*
X163728000Y-91092000D03*
X166268000Y-91092000D03*
X168808000Y-91092000D03*
X171348000Y-91092000D03*
G36*
G01*
X174738800Y-90292000D02*
X174738800Y-91892000D01*
G75*
G02*
X174688000Y-91942800I-50800J0D01*
G01*
X173088000Y-91942800D01*
G75*
G02*
X173037200Y-91892000I0J50800D01*
G01*
X173037200Y-90292000D01*
G75*
G02*
X173088000Y-90241200I50800J0D01*
G01*
X174688000Y-90241200D01*
G75*
G02*
X174738800Y-90292000I0J-50800D01*
G01*
G37*
G36*
G01*
X128449999Y-99949200D02*
X128950001Y-99949200D01*
G75*
G02*
X129000800Y-99999999I0J-50799D01*
G01*
X129000800Y-100800001D01*
G75*
G02*
X128950001Y-100850800I-50799J0D01*
G01*
X128449999Y-100850800D01*
G75*
G02*
X128399200Y-100800001I0J50799D01*
G01*
X128399200Y-99999999D01*
G75*
G02*
X128449999Y-99949200I50799J0D01*
G01*
G37*
G36*
G01*
X127700000Y-99949200D02*
X128100000Y-99949200D01*
G75*
G02*
X128150800Y-100000000I0J-50800D01*
G01*
X128150800Y-100800000D01*
G75*
G02*
X128100000Y-100850800I-50800J0D01*
G01*
X127700000Y-100850800D01*
G75*
G02*
X127649200Y-100800000I0J50800D01*
G01*
X127649200Y-100000000D01*
G75*
G02*
X127700000Y-99949200I50800J0D01*
G01*
G37*
G36*
G01*
X126049999Y-99949200D02*
X126550001Y-99949200D01*
G75*
G02*
X126600800Y-99999999I0J-50799D01*
G01*
X126600800Y-100800001D01*
G75*
G02*
X126550001Y-100850800I-50799J0D01*
G01*
X126049999Y-100850800D01*
G75*
G02*
X125999200Y-100800001I0J50799D01*
G01*
X125999200Y-99999999D01*
G75*
G02*
X126049999Y-99949200I50799J0D01*
G01*
G37*
G36*
G01*
X126900000Y-99949200D02*
X127300000Y-99949200D01*
G75*
G02*
X127350800Y-100000000I0J-50800D01*
G01*
X127350800Y-100800000D01*
G75*
G02*
X127300000Y-100850800I-50800J0D01*
G01*
X126900000Y-100850800D01*
G75*
G02*
X126849200Y-100800000I0J50800D01*
G01*
X126849200Y-100000000D01*
G75*
G02*
X126900000Y-99949200I50800J0D01*
G01*
G37*
G36*
G01*
X128449999Y-98149200D02*
X128950001Y-98149200D01*
G75*
G02*
X129000800Y-98199999I0J-50799D01*
G01*
X129000800Y-99000001D01*
G75*
G02*
X128950001Y-99050800I-50799J0D01*
G01*
X128449999Y-99050800D01*
G75*
G02*
X128399200Y-99000001I0J50799D01*
G01*
X128399200Y-98199999D01*
G75*
G02*
X128449999Y-98149200I50799J0D01*
G01*
G37*
G36*
G01*
X126900000Y-98149200D02*
X127300000Y-98149200D01*
G75*
G02*
X127350800Y-98200000I0J-50800D01*
G01*
X127350800Y-99000000D01*
G75*
G02*
X127300000Y-99050800I-50800J0D01*
G01*
X126900000Y-99050800D01*
G75*
G02*
X126849200Y-99000000I0J50800D01*
G01*
X126849200Y-98200000D01*
G75*
G02*
X126900000Y-98149200I50800J0D01*
G01*
G37*
G36*
G01*
X127700000Y-98149200D02*
X128100000Y-98149200D01*
G75*
G02*
X128150800Y-98200000I0J-50800D01*
G01*
X128150800Y-99000000D01*
G75*
G02*
X128100000Y-99050800I-50800J0D01*
G01*
X127700000Y-99050800D01*
G75*
G02*
X127649200Y-99000000I0J50800D01*
G01*
X127649200Y-98200000D01*
G75*
G02*
X127700000Y-98149200I50800J0D01*
G01*
G37*
G36*
G01*
X126049999Y-98149200D02*
X126550001Y-98149200D01*
G75*
G02*
X126600800Y-98199999I0J-50799D01*
G01*
X126600800Y-99000001D01*
G75*
G02*
X126550001Y-99050800I-50799J0D01*
G01*
X126049999Y-99050800D01*
G75*
G02*
X125999200Y-99000001I0J50799D01*
G01*
X125999200Y-98199999D01*
G75*
G02*
X126049999Y-98149200I50799J0D01*
G01*
G37*
G36*
G01*
X117474999Y-99874200D02*
X117975001Y-99874200D01*
G75*
G02*
X118025800Y-99924999I0J-50799D01*
G01*
X118025800Y-100725001D01*
G75*
G02*
X117975001Y-100775800I-50799J0D01*
G01*
X117474999Y-100775800D01*
G75*
G02*
X117424200Y-100725001I0J50799D01*
G01*
X117424200Y-99924999D01*
G75*
G02*
X117474999Y-99874200I50799J0D01*
G01*
G37*
G36*
G01*
X116725000Y-99874200D02*
X117125000Y-99874200D01*
G75*
G02*
X117175800Y-99925000I0J-50800D01*
G01*
X117175800Y-100725000D01*
G75*
G02*
X117125000Y-100775800I-50800J0D01*
G01*
X116725000Y-100775800D01*
G75*
G02*
X116674200Y-100725000I0J50800D01*
G01*
X116674200Y-99925000D01*
G75*
G02*
X116725000Y-99874200I50800J0D01*
G01*
G37*
G36*
G01*
X115074999Y-99874200D02*
X115575001Y-99874200D01*
G75*
G02*
X115625800Y-99924999I0J-50799D01*
G01*
X115625800Y-100725001D01*
G75*
G02*
X115575001Y-100775800I-50799J0D01*
G01*
X115074999Y-100775800D01*
G75*
G02*
X115024200Y-100725001I0J50799D01*
G01*
X115024200Y-99924999D01*
G75*
G02*
X115074999Y-99874200I50799J0D01*
G01*
G37*
G36*
G01*
X115925000Y-99874200D02*
X116325000Y-99874200D01*
G75*
G02*
X116375800Y-99925000I0J-50800D01*
G01*
X116375800Y-100725000D01*
G75*
G02*
X116325000Y-100775800I-50800J0D01*
G01*
X115925000Y-100775800D01*
G75*
G02*
X115874200Y-100725000I0J50800D01*
G01*
X115874200Y-99925000D01*
G75*
G02*
X115925000Y-99874200I50800J0D01*
G01*
G37*
G36*
G01*
X117474999Y-98074200D02*
X117975001Y-98074200D01*
G75*
G02*
X118025800Y-98124999I0J-50799D01*
G01*
X118025800Y-98925001D01*
G75*
G02*
X117975001Y-98975800I-50799J0D01*
G01*
X117474999Y-98975800D01*
G75*
G02*
X117424200Y-98925001I0J50799D01*
G01*
X117424200Y-98124999D01*
G75*
G02*
X117474999Y-98074200I50799J0D01*
G01*
G37*
G36*
G01*
X115925000Y-98074200D02*
X116325000Y-98074200D01*
G75*
G02*
X116375800Y-98125000I0J-50800D01*
G01*
X116375800Y-98925000D01*
G75*
G02*
X116325000Y-98975800I-50800J0D01*
G01*
X115925000Y-98975800D01*
G75*
G02*
X115874200Y-98925000I0J50800D01*
G01*
X115874200Y-98125000D01*
G75*
G02*
X115925000Y-98074200I50800J0D01*
G01*
G37*
G36*
G01*
X116725000Y-98074200D02*
X117125000Y-98074200D01*
G75*
G02*
X117175800Y-98125000I0J-50800D01*
G01*
X117175800Y-98925000D01*
G75*
G02*
X117125000Y-98975800I-50800J0D01*
G01*
X116725000Y-98975800D01*
G75*
G02*
X116674200Y-98925000I0J50800D01*
G01*
X116674200Y-98125000D01*
G75*
G02*
X116725000Y-98074200I50800J0D01*
G01*
G37*
G36*
G01*
X115074999Y-98074200D02*
X115575001Y-98074200D01*
G75*
G02*
X115625800Y-98124999I0J-50799D01*
G01*
X115625800Y-98925001D01*
G75*
G02*
X115575001Y-98975800I-50799J0D01*
G01*
X115074999Y-98975800D01*
G75*
G02*
X115024200Y-98925001I0J50799D01*
G01*
X115024200Y-98124999D01*
G75*
G02*
X115074999Y-98074200I50799J0D01*
G01*
G37*
G36*
G01*
X114474999Y-78449200D02*
X114975001Y-78449200D01*
G75*
G02*
X115025800Y-78499999I0J-50799D01*
G01*
X115025800Y-79300001D01*
G75*
G02*
X114975001Y-79350800I-50799J0D01*
G01*
X114474999Y-79350800D01*
G75*
G02*
X114424200Y-79300001I0J50799D01*
G01*
X114424200Y-78499999D01*
G75*
G02*
X114474999Y-78449200I50799J0D01*
G01*
G37*
G36*
G01*
X113725000Y-78449200D02*
X114125000Y-78449200D01*
G75*
G02*
X114175800Y-78500000I0J-50800D01*
G01*
X114175800Y-79300000D01*
G75*
G02*
X114125000Y-79350800I-50800J0D01*
G01*
X113725000Y-79350800D01*
G75*
G02*
X113674200Y-79300000I0J50800D01*
G01*
X113674200Y-78500000D01*
G75*
G02*
X113725000Y-78449200I50800J0D01*
G01*
G37*
G36*
G01*
X112074999Y-78449200D02*
X112575001Y-78449200D01*
G75*
G02*
X112625800Y-78499999I0J-50799D01*
G01*
X112625800Y-79300001D01*
G75*
G02*
X112575001Y-79350800I-50799J0D01*
G01*
X112074999Y-79350800D01*
G75*
G02*
X112024200Y-79300001I0J50799D01*
G01*
X112024200Y-78499999D01*
G75*
G02*
X112074999Y-78449200I50799J0D01*
G01*
G37*
G36*
G01*
X112925000Y-78449200D02*
X113325000Y-78449200D01*
G75*
G02*
X113375800Y-78500000I0J-50800D01*
G01*
X113375800Y-79300000D01*
G75*
G02*
X113325000Y-79350800I-50800J0D01*
G01*
X112925000Y-79350800D01*
G75*
G02*
X112874200Y-79300000I0J50800D01*
G01*
X112874200Y-78500000D01*
G75*
G02*
X112925000Y-78449200I50800J0D01*
G01*
G37*
G36*
G01*
X114474999Y-76649200D02*
X114975001Y-76649200D01*
G75*
G02*
X115025800Y-76699999I0J-50799D01*
G01*
X115025800Y-77500001D01*
G75*
G02*
X114975001Y-77550800I-50799J0D01*
G01*
X114474999Y-77550800D01*
G75*
G02*
X114424200Y-77500001I0J50799D01*
G01*
X114424200Y-76699999D01*
G75*
G02*
X114474999Y-76649200I50799J0D01*
G01*
G37*
G36*
G01*
X112925000Y-76649200D02*
X113325000Y-76649200D01*
G75*
G02*
X113375800Y-76700000I0J-50800D01*
G01*
X113375800Y-77500000D01*
G75*
G02*
X113325000Y-77550800I-50800J0D01*
G01*
X112925000Y-77550800D01*
G75*
G02*
X112874200Y-77500000I0J50800D01*
G01*
X112874200Y-76700000D01*
G75*
G02*
X112925000Y-76649200I50800J0D01*
G01*
G37*
G36*
G01*
X113725000Y-76649200D02*
X114125000Y-76649200D01*
G75*
G02*
X114175800Y-76700000I0J-50800D01*
G01*
X114175800Y-77500000D01*
G75*
G02*
X114125000Y-77550800I-50800J0D01*
G01*
X113725000Y-77550800D01*
G75*
G02*
X113674200Y-77500000I0J50800D01*
G01*
X113674200Y-76700000D01*
G75*
G02*
X113725000Y-76649200I50800J0D01*
G01*
G37*
G36*
G01*
X112074999Y-76649200D02*
X112575001Y-76649200D01*
G75*
G02*
X112625800Y-76699999I0J-50799D01*
G01*
X112625800Y-77500001D01*
G75*
G02*
X112575001Y-77550800I-50799J0D01*
G01*
X112074999Y-77550800D01*
G75*
G02*
X112024200Y-77500001I0J50799D01*
G01*
X112024200Y-76699999D01*
G75*
G02*
X112074999Y-76649200I50799J0D01*
G01*
G37*
G36*
G01*
X116825001Y-76075800D02*
X116324999Y-76075800D01*
G75*
G02*
X116274200Y-76025001I0J50799D01*
G01*
X116274200Y-75224999D01*
G75*
G02*
X116324999Y-75174200I50799J0D01*
G01*
X116825001Y-75174200D01*
G75*
G02*
X116875800Y-75224999I0J-50799D01*
G01*
X116875800Y-76025001D01*
G75*
G02*
X116825001Y-76075800I-50799J0D01*
G01*
G37*
G36*
G01*
X117575000Y-76075800D02*
X117175000Y-76075800D01*
G75*
G02*
X117124200Y-76025000I0J50800D01*
G01*
X117124200Y-75225000D01*
G75*
G02*
X117175000Y-75174200I50800J0D01*
G01*
X117575000Y-75174200D01*
G75*
G02*
X117625800Y-75225000I0J-50800D01*
G01*
X117625800Y-76025000D01*
G75*
G02*
X117575000Y-76075800I-50800J0D01*
G01*
G37*
G36*
G01*
X119225001Y-76075800D02*
X118724999Y-76075800D01*
G75*
G02*
X118674200Y-76025001I0J50799D01*
G01*
X118674200Y-75224999D01*
G75*
G02*
X118724999Y-75174200I50799J0D01*
G01*
X119225001Y-75174200D01*
G75*
G02*
X119275800Y-75224999I0J-50799D01*
G01*
X119275800Y-76025001D01*
G75*
G02*
X119225001Y-76075800I-50799J0D01*
G01*
G37*
G36*
G01*
X118375000Y-76075800D02*
X117975000Y-76075800D01*
G75*
G02*
X117924200Y-76025000I0J50800D01*
G01*
X117924200Y-75225000D01*
G75*
G02*
X117975000Y-75174200I50800J0D01*
G01*
X118375000Y-75174200D01*
G75*
G02*
X118425800Y-75225000I0J-50800D01*
G01*
X118425800Y-76025000D01*
G75*
G02*
X118375000Y-76075800I-50800J0D01*
G01*
G37*
G36*
G01*
X116825001Y-77875800D02*
X116324999Y-77875800D01*
G75*
G02*
X116274200Y-77825001I0J50799D01*
G01*
X116274200Y-77024999D01*
G75*
G02*
X116324999Y-76974200I50799J0D01*
G01*
X116825001Y-76974200D01*
G75*
G02*
X116875800Y-77024999I0J-50799D01*
G01*
X116875800Y-77825001D01*
G75*
G02*
X116825001Y-77875800I-50799J0D01*
G01*
G37*
G36*
G01*
X118375000Y-77875800D02*
X117975000Y-77875800D01*
G75*
G02*
X117924200Y-77825000I0J50800D01*
G01*
X117924200Y-77025000D01*
G75*
G02*
X117975000Y-76974200I50800J0D01*
G01*
X118375000Y-76974200D01*
G75*
G02*
X118425800Y-77025000I0J-50800D01*
G01*
X118425800Y-77825000D01*
G75*
G02*
X118375000Y-77875800I-50800J0D01*
G01*
G37*
G36*
G01*
X117575000Y-77875800D02*
X117175000Y-77875800D01*
G75*
G02*
X117124200Y-77825000I0J50800D01*
G01*
X117124200Y-77025000D01*
G75*
G02*
X117175000Y-76974200I50800J0D01*
G01*
X117575000Y-76974200D01*
G75*
G02*
X117625800Y-77025000I0J-50800D01*
G01*
X117625800Y-77825000D01*
G75*
G02*
X117575000Y-77875800I-50800J0D01*
G01*
G37*
G36*
G01*
X119225001Y-77875800D02*
X118724999Y-77875800D01*
G75*
G02*
X118674200Y-77825001I0J50799D01*
G01*
X118674200Y-77024999D01*
G75*
G02*
X118724999Y-76974200I50799J0D01*
G01*
X119225001Y-76974200D01*
G75*
G02*
X119275800Y-77024999I0J-50799D01*
G01*
X119275800Y-77825001D01*
G75*
G02*
X119225001Y-77875800I-50799J0D01*
G01*
G37*
G36*
G01*
X179367200Y-91570715D02*
X179367200Y-90613285D01*
G75*
G02*
X179639285Y-90341200I272085J0D01*
G01*
X180346715Y-90341200D01*
G75*
G02*
X180618800Y-90613285I0J-272085D01*
G01*
X180618800Y-91570715D01*
G75*
G02*
X180346715Y-91842800I-272085J0D01*
G01*
X179639285Y-91842800D01*
G75*
G02*
X179367200Y-91570715I0J272085D01*
G01*
G37*
G36*
G01*
X177317200Y-91570715D02*
X177317200Y-90613285D01*
G75*
G02*
X177589285Y-90341200I272085J0D01*
G01*
X178296715Y-90341200D01*
G75*
G02*
X178568800Y-90613285I0J-272085D01*
G01*
X178568800Y-91570715D01*
G75*
G02*
X178296715Y-91842800I-272085J0D01*
G01*
X177589285Y-91842800D01*
G75*
G02*
X177317200Y-91570715I0J272085D01*
G01*
G37*
G36*
G01*
X144269800Y-85025285D02*
X144269800Y-85982715D01*
G75*
G02*
X143997715Y-86254800I-272085J0D01*
G01*
X143290285Y-86254800D01*
G75*
G02*
X143018200Y-85982715I0J272085D01*
G01*
X143018200Y-85025285D01*
G75*
G02*
X143290285Y-84753200I272085J0D01*
G01*
X143997715Y-84753200D01*
G75*
G02*
X144269800Y-85025285I0J-272085D01*
G01*
G37*
G36*
G01*
X146319800Y-85025285D02*
X146319800Y-85982715D01*
G75*
G02*
X146047715Y-86254800I-272085J0D01*
G01*
X145340285Y-86254800D01*
G75*
G02*
X145068200Y-85982715I0J272085D01*
G01*
X145068200Y-85025285D01*
G75*
G02*
X145340285Y-84753200I272085J0D01*
G01*
X146047715Y-84753200D01*
G75*
G02*
X146319800Y-85025285I0J-272085D01*
G01*
G37*
G36*
G01*
X148596800Y-85025285D02*
X148596800Y-85982715D01*
G75*
G02*
X148324715Y-86254800I-272085J0D01*
G01*
X147617285Y-86254800D01*
G75*
G02*
X147345200Y-85982715I0J272085D01*
G01*
X147345200Y-85025285D01*
G75*
G02*
X147617285Y-84753200I272085J0D01*
G01*
X148324715Y-84753200D01*
G75*
G02*
X148596800Y-85025285I0J-272085D01*
G01*
G37*
G36*
G01*
X150646800Y-85025285D02*
X150646800Y-85982715D01*
G75*
G02*
X150374715Y-86254800I-272085J0D01*
G01*
X149667285Y-86254800D01*
G75*
G02*
X149395200Y-85982715I0J272085D01*
G01*
X149395200Y-85025285D01*
G75*
G02*
X149667285Y-84753200I272085J0D01*
G01*
X150374715Y-84753200D01*
G75*
G02*
X150646800Y-85025285I0J-272085D01*
G01*
G37*
G36*
G01*
X151578715Y-80475800D02*
X150621285Y-80475800D01*
G75*
G02*
X150349200Y-80203715I0J272085D01*
G01*
X150349200Y-79496285D01*
G75*
G02*
X150621285Y-79224200I272085J0D01*
G01*
X151578715Y-79224200D01*
G75*
G02*
X151850800Y-79496285I0J-272085D01*
G01*
X151850800Y-80203715D01*
G75*
G02*
X151578715Y-80475800I-272085J0D01*
G01*
G37*
G36*
G01*
X151578715Y-82525800D02*
X150621285Y-82525800D01*
G75*
G02*
X150349200Y-82253715I0J272085D01*
G01*
X150349200Y-81546285D01*
G75*
G02*
X150621285Y-81274200I272085J0D01*
G01*
X151578715Y-81274200D01*
G75*
G02*
X151850800Y-81546285I0J-272085D01*
G01*
X151850800Y-82253715D01*
G75*
G02*
X151578715Y-82525800I-272085J0D01*
G01*
G37*
G36*
G01*
X172735800Y-76389285D02*
X172735800Y-77346715D01*
G75*
G02*
X172463715Y-77618800I-272085J0D01*
G01*
X171756285Y-77618800D01*
G75*
G02*
X171484200Y-77346715I0J272085D01*
G01*
X171484200Y-76389285D01*
G75*
G02*
X171756285Y-76117200I272085J0D01*
G01*
X172463715Y-76117200D01*
G75*
G02*
X172735800Y-76389285I0J-272085D01*
G01*
G37*
G36*
G01*
X174785800Y-76389285D02*
X174785800Y-77346715D01*
G75*
G02*
X174513715Y-77618800I-272085J0D01*
G01*
X173806285Y-77618800D01*
G75*
G02*
X173534200Y-77346715I0J272085D01*
G01*
X173534200Y-76389285D01*
G75*
G02*
X173806285Y-76117200I272085J0D01*
G01*
X174513715Y-76117200D01*
G75*
G02*
X174785800Y-76389285I0J-272085D01*
G01*
G37*
G36*
G01*
X125628715Y-78100800D02*
X124671285Y-78100800D01*
G75*
G02*
X124399200Y-77828715I0J272085D01*
G01*
X124399200Y-77121285D01*
G75*
G02*
X124671285Y-76849200I272085J0D01*
G01*
X125628715Y-76849200D01*
G75*
G02*
X125900800Y-77121285I0J-272085D01*
G01*
X125900800Y-77828715D01*
G75*
G02*
X125628715Y-78100800I-272085J0D01*
G01*
G37*
G36*
G01*
X125628715Y-76050800D02*
X124671285Y-76050800D01*
G75*
G02*
X124399200Y-75778715I0J272085D01*
G01*
X124399200Y-75071285D01*
G75*
G02*
X124671285Y-74799200I272085J0D01*
G01*
X125628715Y-74799200D01*
G75*
G02*
X125900800Y-75071285I0J-272085D01*
G01*
X125900800Y-75778715D01*
G75*
G02*
X125628715Y-76050800I-272085J0D01*
G01*
G37*
G36*
G01*
X144084800Y-89524000D02*
X144084800Y-90324000D01*
G75*
G02*
X144034000Y-90374800I-50800J0D01*
G01*
X143134000Y-90374800D01*
G75*
G02*
X143083200Y-90324000I0J50800D01*
G01*
X143083200Y-89524000D01*
G75*
G02*
X143134000Y-89473200I50800J0D01*
G01*
X144034000Y-89473200D01*
G75*
G02*
X144084800Y-89524000I0J-50800D01*
G01*
G37*
G36*
G01*
X146084800Y-90474000D02*
X146084800Y-91274000D01*
G75*
G02*
X146034000Y-91324800I-50800J0D01*
G01*
X145134000Y-91324800D01*
G75*
G02*
X145083200Y-91274000I0J50800D01*
G01*
X145083200Y-90474000D01*
G75*
G02*
X145134000Y-90423200I50800J0D01*
G01*
X146034000Y-90423200D01*
G75*
G02*
X146084800Y-90474000I0J-50800D01*
G01*
G37*
G36*
G01*
X146084800Y-88574000D02*
X146084800Y-89374000D01*
G75*
G02*
X146034000Y-89424800I-50800J0D01*
G01*
X145134000Y-89424800D01*
G75*
G02*
X145083200Y-89374000I0J50800D01*
G01*
X145083200Y-88574000D01*
G75*
G02*
X145134000Y-88523200I50800J0D01*
G01*
X146034000Y-88523200D01*
G75*
G02*
X146084800Y-88574000I0J-50800D01*
G01*
G37*
G36*
G01*
X148480800Y-89422000D02*
X148480800Y-90222000D01*
G75*
G02*
X148430000Y-90272800I-50800J0D01*
G01*
X147530000Y-90272800D01*
G75*
G02*
X147479200Y-90222000I0J50800D01*
G01*
X147479200Y-89422000D01*
G75*
G02*
X147530000Y-89371200I50800J0D01*
G01*
X148430000Y-89371200D01*
G75*
G02*
X148480800Y-89422000I0J-50800D01*
G01*
G37*
G36*
G01*
X150480800Y-90372000D02*
X150480800Y-91172000D01*
G75*
G02*
X150430000Y-91222800I-50800J0D01*
G01*
X149530000Y-91222800D01*
G75*
G02*
X149479200Y-91172000I0J50800D01*
G01*
X149479200Y-90372000D01*
G75*
G02*
X149530000Y-90321200I50800J0D01*
G01*
X150430000Y-90321200D01*
G75*
G02*
X150480800Y-90372000I0J-50800D01*
G01*
G37*
G36*
G01*
X150480800Y-88472000D02*
X150480800Y-89272000D01*
G75*
G02*
X150430000Y-89322800I-50800J0D01*
G01*
X149530000Y-89322800D01*
G75*
G02*
X149479200Y-89272000I0J50800D01*
G01*
X149479200Y-88472000D01*
G75*
G02*
X149530000Y-88421200I50800J0D01*
G01*
X150430000Y-88421200D01*
G75*
G02*
X150480800Y-88472000I0J-50800D01*
G01*
G37*
G36*
G01*
X159556000Y-79908800D02*
X158756000Y-79908800D01*
G75*
G02*
X158705200Y-79858000I0J50800D01*
G01*
X158705200Y-78958000D01*
G75*
G02*
X158756000Y-78907200I50800J0D01*
G01*
X159556000Y-78907200D01*
G75*
G02*
X159606800Y-78958000I0J-50800D01*
G01*
X159606800Y-79858000D01*
G75*
G02*
X159556000Y-79908800I-50800J0D01*
G01*
G37*
G36*
G01*
X158606000Y-81908800D02*
X157806000Y-81908800D01*
G75*
G02*
X157755200Y-81858000I0J50800D01*
G01*
X157755200Y-80958000D01*
G75*
G02*
X157806000Y-80907200I50800J0D01*
G01*
X158606000Y-80907200D01*
G75*
G02*
X158656800Y-80958000I0J-50800D01*
G01*
X158656800Y-81858000D01*
G75*
G02*
X158606000Y-81908800I-50800J0D01*
G01*
G37*
G36*
G01*
X160506000Y-81908800D02*
X159706000Y-81908800D01*
G75*
G02*
X159655200Y-81858000I0J50800D01*
G01*
X159655200Y-80958000D01*
G75*
G02*
X159706000Y-80907200I50800J0D01*
G01*
X160506000Y-80907200D01*
G75*
G02*
X160556800Y-80958000I0J-50800D01*
G01*
X160556800Y-81858000D01*
G75*
G02*
X160506000Y-81908800I-50800J0D01*
G01*
G37*
G36*
G01*
X164636000Y-79924800D02*
X163836000Y-79924800D01*
G75*
G02*
X163785200Y-79874000I0J50800D01*
G01*
X163785200Y-78974000D01*
G75*
G02*
X163836000Y-78923200I50800J0D01*
G01*
X164636000Y-78923200D01*
G75*
G02*
X164686800Y-78974000I0J-50800D01*
G01*
X164686800Y-79874000D01*
G75*
G02*
X164636000Y-79924800I-50800J0D01*
G01*
G37*
G36*
G01*
X163686000Y-81924800D02*
X162886000Y-81924800D01*
G75*
G02*
X162835200Y-81874000I0J50800D01*
G01*
X162835200Y-80974000D01*
G75*
G02*
X162886000Y-80923200I50800J0D01*
G01*
X163686000Y-80923200D01*
G75*
G02*
X163736800Y-80974000I0J-50800D01*
G01*
X163736800Y-81874000D01*
G75*
G02*
X163686000Y-81924800I-50800J0D01*
G01*
G37*
G36*
G01*
X165586000Y-81924800D02*
X164786000Y-81924800D01*
G75*
G02*
X164735200Y-81874000I0J50800D01*
G01*
X164735200Y-80974000D01*
G75*
G02*
X164786000Y-80923200I50800J0D01*
G01*
X165586000Y-80923200D01*
G75*
G02*
X165636800Y-80974000I0J-50800D01*
G01*
X165636800Y-81874000D01*
G75*
G02*
X165586000Y-81924800I-50800J0D01*
G01*
G37*
G36*
G01*
X169700000Y-79924800D02*
X168900000Y-79924800D01*
G75*
G02*
X168849200Y-79874000I0J50800D01*
G01*
X168849200Y-78974000D01*
G75*
G02*
X168900000Y-78923200I50800J0D01*
G01*
X169700000Y-78923200D01*
G75*
G02*
X169750800Y-78974000I0J-50800D01*
G01*
X169750800Y-79874000D01*
G75*
G02*
X169700000Y-79924800I-50800J0D01*
G01*
G37*
G36*
G01*
X168750000Y-81924800D02*
X167950000Y-81924800D01*
G75*
G02*
X167899200Y-81874000I0J50800D01*
G01*
X167899200Y-80974000D01*
G75*
G02*
X167950000Y-80923200I50800J0D01*
G01*
X168750000Y-80923200D01*
G75*
G02*
X168800800Y-80974000I0J-50800D01*
G01*
X168800800Y-81874000D01*
G75*
G02*
X168750000Y-81924800I-50800J0D01*
G01*
G37*
G36*
G01*
X170650000Y-81924800D02*
X169850000Y-81924800D01*
G75*
G02*
X169799200Y-81874000I0J50800D01*
G01*
X169799200Y-80974000D01*
G75*
G02*
X169850000Y-80923200I50800J0D01*
G01*
X170650000Y-80923200D01*
G75*
G02*
X170700800Y-80974000I0J-50800D01*
G01*
X170700800Y-81874000D01*
G75*
G02*
X170650000Y-81924800I-50800J0D01*
G01*
G37*
G36*
G01*
X175050000Y-79924800D02*
X174250000Y-79924800D01*
G75*
G02*
X174199200Y-79874000I0J50800D01*
G01*
X174199200Y-78974000D01*
G75*
G02*
X174250000Y-78923200I50800J0D01*
G01*
X175050000Y-78923200D01*
G75*
G02*
X175100800Y-78974000I0J-50800D01*
G01*
X175100800Y-79874000D01*
G75*
G02*
X175050000Y-79924800I-50800J0D01*
G01*
G37*
G36*
G01*
X174100000Y-81924800D02*
X173300000Y-81924800D01*
G75*
G02*
X173249200Y-81874000I0J50800D01*
G01*
X173249200Y-80974000D01*
G75*
G02*
X173300000Y-80923200I50800J0D01*
G01*
X174100000Y-80923200D01*
G75*
G02*
X174150800Y-80974000I0J-50800D01*
G01*
X174150800Y-81874000D01*
G75*
G02*
X174100000Y-81924800I-50800J0D01*
G01*
G37*
G36*
G01*
X176000000Y-81924800D02*
X175200000Y-81924800D01*
G75*
G02*
X175149200Y-81874000I0J50800D01*
G01*
X175149200Y-80974000D01*
G75*
G02*
X175200000Y-80923200I50800J0D01*
G01*
X176000000Y-80923200D01*
G75*
G02*
X176050800Y-80974000I0J-50800D01*
G01*
X176050800Y-81874000D01*
G75*
G02*
X176000000Y-81924800I-50800J0D01*
G01*
G37*
D15*
X184556000Y-91854000D03*
X197256000Y-91854000D03*
X189636000Y-76614000D03*
X197256000Y-76614000D03*
G36*
G01*
X158132800Y-84088000D02*
X158132800Y-84888000D01*
G75*
G02*
X158082000Y-84938800I-50800J0D01*
G01*
X157182000Y-84938800D01*
G75*
G02*
X157131200Y-84888000I0J50800D01*
G01*
X157131200Y-84088000D01*
G75*
G02*
X157182000Y-84037200I50800J0D01*
G01*
X158082000Y-84037200D01*
G75*
G02*
X158132800Y-84088000I0J-50800D01*
G01*
G37*
G36*
G01*
X158132800Y-85988000D02*
X158132800Y-86788000D01*
G75*
G02*
X158082000Y-86838800I-50800J0D01*
G01*
X157182000Y-86838800D01*
G75*
G02*
X157131200Y-86788000I0J50800D01*
G01*
X157131200Y-85988000D01*
G75*
G02*
X157182000Y-85937200I50800J0D01*
G01*
X158082000Y-85937200D01*
G75*
G02*
X158132800Y-85988000I0J-50800D01*
G01*
G37*
G36*
G01*
X156132800Y-85038000D02*
X156132800Y-85838000D01*
G75*
G02*
X156082000Y-85888800I-50800J0D01*
G01*
X155182000Y-85888800D01*
G75*
G02*
X155131200Y-85838000I0J50800D01*
G01*
X155131200Y-85038000D01*
G75*
G02*
X155182000Y-84987200I50800J0D01*
G01*
X156082000Y-84987200D01*
G75*
G02*
X156132800Y-85038000I0J-50800D01*
G01*
G37*
G36*
G01*
X161212800Y-85038000D02*
X161212800Y-85838000D01*
G75*
G02*
X161162000Y-85888800I-50800J0D01*
G01*
X160262000Y-85888800D01*
G75*
G02*
X160211200Y-85838000I0J50800D01*
G01*
X160211200Y-85038000D01*
G75*
G02*
X160262000Y-84987200I50800J0D01*
G01*
X161162000Y-84987200D01*
G75*
G02*
X161212800Y-85038000I0J-50800D01*
G01*
G37*
G36*
G01*
X163212800Y-85988000D02*
X163212800Y-86788000D01*
G75*
G02*
X163162000Y-86838800I-50800J0D01*
G01*
X162262000Y-86838800D01*
G75*
G02*
X162211200Y-86788000I0J50800D01*
G01*
X162211200Y-85988000D01*
G75*
G02*
X162262000Y-85937200I50800J0D01*
G01*
X163162000Y-85937200D01*
G75*
G02*
X163212800Y-85988000I0J-50800D01*
G01*
G37*
G36*
G01*
X163212800Y-84088000D02*
X163212800Y-84888000D01*
G75*
G02*
X163162000Y-84938800I-50800J0D01*
G01*
X162262000Y-84938800D01*
G75*
G02*
X162211200Y-84888000I0J50800D01*
G01*
X162211200Y-84088000D01*
G75*
G02*
X162262000Y-84037200I50800J0D01*
G01*
X163162000Y-84037200D01*
G75*
G02*
X163212800Y-84088000I0J-50800D01*
G01*
G37*
G36*
G01*
X166276800Y-85104000D02*
X166276800Y-85904000D01*
G75*
G02*
X166226000Y-85954800I-50800J0D01*
G01*
X165326000Y-85954800D01*
G75*
G02*
X165275200Y-85904000I0J50800D01*
G01*
X165275200Y-85104000D01*
G75*
G02*
X165326000Y-85053200I50800J0D01*
G01*
X166226000Y-85053200D01*
G75*
G02*
X166276800Y-85104000I0J-50800D01*
G01*
G37*
G36*
G01*
X168276800Y-86054000D02*
X168276800Y-86854000D01*
G75*
G02*
X168226000Y-86904800I-50800J0D01*
G01*
X167326000Y-86904800D01*
G75*
G02*
X167275200Y-86854000I0J50800D01*
G01*
X167275200Y-86054000D01*
G75*
G02*
X167326000Y-86003200I50800J0D01*
G01*
X168226000Y-86003200D01*
G75*
G02*
X168276800Y-86054000I0J-50800D01*
G01*
G37*
G36*
G01*
X168276800Y-84154000D02*
X168276800Y-84954000D01*
G75*
G02*
X168226000Y-85004800I-50800J0D01*
G01*
X167326000Y-85004800D01*
G75*
G02*
X167275200Y-84954000I0J50800D01*
G01*
X167275200Y-84154000D01*
G75*
G02*
X167326000Y-84103200I50800J0D01*
G01*
X168226000Y-84103200D01*
G75*
G02*
X168276800Y-84154000I0J-50800D01*
G01*
G37*
G36*
G01*
X171356800Y-85104000D02*
X171356800Y-85904000D01*
G75*
G02*
X171306000Y-85954800I-50800J0D01*
G01*
X170406000Y-85954800D01*
G75*
G02*
X170355200Y-85904000I0J50800D01*
G01*
X170355200Y-85104000D01*
G75*
G02*
X170406000Y-85053200I50800J0D01*
G01*
X171306000Y-85053200D01*
G75*
G02*
X171356800Y-85104000I0J-50800D01*
G01*
G37*
G36*
G01*
X173356800Y-86054000D02*
X173356800Y-86854000D01*
G75*
G02*
X173306000Y-86904800I-50800J0D01*
G01*
X172406000Y-86904800D01*
G75*
G02*
X172355200Y-86854000I0J50800D01*
G01*
X172355200Y-86054000D01*
G75*
G02*
X172406000Y-86003200I50800J0D01*
G01*
X173306000Y-86003200D01*
G75*
G02*
X173356800Y-86054000I0J-50800D01*
G01*
G37*
G36*
G01*
X173356800Y-84154000D02*
X173356800Y-84954000D01*
G75*
G02*
X173306000Y-85004800I-50800J0D01*
G01*
X172406000Y-85004800D01*
G75*
G02*
X172355200Y-84954000I0J50800D01*
G01*
X172355200Y-84154000D01*
G75*
G02*
X172406000Y-84103200I50800J0D01*
G01*
X173306000Y-84103200D01*
G75*
G02*
X173356800Y-84154000I0J-50800D01*
G01*
G37*
G36*
G01*
X184039200Y-87174000D02*
X184039200Y-86374000D01*
G75*
G02*
X184090000Y-86323200I50800J0D01*
G01*
X184990000Y-86323200D01*
G75*
G02*
X185040800Y-86374000I0J-50800D01*
G01*
X185040800Y-87174000D01*
G75*
G02*
X184990000Y-87224800I-50800J0D01*
G01*
X184090000Y-87224800D01*
G75*
G02*
X184039200Y-87174000I0J50800D01*
G01*
G37*
G36*
G01*
X182039200Y-86224000D02*
X182039200Y-85424000D01*
G75*
G02*
X182090000Y-85373200I50800J0D01*
G01*
X182990000Y-85373200D01*
G75*
G02*
X183040800Y-85424000I0J-50800D01*
G01*
X183040800Y-86224000D01*
G75*
G02*
X182990000Y-86274800I-50800J0D01*
G01*
X182090000Y-86274800D01*
G75*
G02*
X182039200Y-86224000I0J50800D01*
G01*
G37*
G36*
G01*
X182039200Y-88124000D02*
X182039200Y-87324000D01*
G75*
G02*
X182090000Y-87273200I50800J0D01*
G01*
X182990000Y-87273200D01*
G75*
G02*
X183040800Y-87324000I0J-50800D01*
G01*
X183040800Y-88124000D01*
G75*
G02*
X182990000Y-88174800I-50800J0D01*
G01*
X182090000Y-88174800D01*
G75*
G02*
X182039200Y-88124000I0J50800D01*
G01*
G37*
G36*
G01*
X193055800Y-79945285D02*
X193055800Y-80902715D01*
G75*
G02*
X192783715Y-81174800I-272085J0D01*
G01*
X192076285Y-81174800D01*
G75*
G02*
X191804200Y-80902715I0J272085D01*
G01*
X191804200Y-79945285D01*
G75*
G02*
X192076285Y-79673200I272085J0D01*
G01*
X192783715Y-79673200D01*
G75*
G02*
X193055800Y-79945285I0J-272085D01*
G01*
G37*
G36*
G01*
X195105800Y-79945285D02*
X195105800Y-80902715D01*
G75*
G02*
X194833715Y-81174800I-272085J0D01*
G01*
X194126285Y-81174800D01*
G75*
G02*
X193854200Y-80902715I0J272085D01*
G01*
X193854200Y-79945285D01*
G75*
G02*
X194126285Y-79673200I272085J0D01*
G01*
X194833715Y-79673200D01*
G75*
G02*
X195105800Y-79945285I0J-272085D01*
G01*
G37*
G36*
G01*
X144212900Y-79875800D02*
X143687100Y-79875800D01*
G75*
G02*
X143424200Y-79612900I0J262900D01*
G01*
X143424200Y-78987100D01*
G75*
G02*
X143687100Y-78724200I262900J0D01*
G01*
X144212900Y-78724200D01*
G75*
G02*
X144475800Y-78987100I0J-262900D01*
G01*
X144475800Y-79612900D01*
G75*
G02*
X144212900Y-79875800I-262900J0D01*
G01*
G37*
G36*
G01*
X144212900Y-81625800D02*
X143687100Y-81625800D01*
G75*
G02*
X143424200Y-81362900I0J262900D01*
G01*
X143424200Y-80737100D01*
G75*
G02*
X143687100Y-80474200I262900J0D01*
G01*
X144212900Y-80474200D01*
G75*
G02*
X144475800Y-80737100I0J-262900D01*
G01*
X144475800Y-81362900D01*
G75*
G02*
X144212900Y-81625800I-262900J0D01*
G01*
G37*
G36*
G01*
X116324200Y-88112900D02*
X116324200Y-87587100D01*
G75*
G02*
X116587100Y-87324200I262900J0D01*
G01*
X117212900Y-87324200D01*
G75*
G02*
X117475800Y-87587100I0J-262900D01*
G01*
X117475800Y-88112900D01*
G75*
G02*
X117212900Y-88375800I-262900J0D01*
G01*
X116587100Y-88375800D01*
G75*
G02*
X116324200Y-88112900I0J262900D01*
G01*
G37*
G36*
G01*
X114574200Y-88112900D02*
X114574200Y-87587100D01*
G75*
G02*
X114837100Y-87324200I262900J0D01*
G01*
X115462900Y-87324200D01*
G75*
G02*
X115725800Y-87587100I0J-262900D01*
G01*
X115725800Y-88112900D01*
G75*
G02*
X115462900Y-88375800I-262900J0D01*
G01*
X114837100Y-88375800D01*
G75*
G02*
X114574200Y-88112900I0J262900D01*
G01*
G37*
G36*
G01*
X121312100Y-98824200D02*
X121837900Y-98824200D01*
G75*
G02*
X122100800Y-99087100I0J-262900D01*
G01*
X122100800Y-99712900D01*
G75*
G02*
X121837900Y-99975800I-262900J0D01*
G01*
X121312100Y-99975800D01*
G75*
G02*
X121049200Y-99712900I0J262900D01*
G01*
X121049200Y-99087100D01*
G75*
G02*
X121312100Y-98824200I262900J0D01*
G01*
G37*
G36*
G01*
X121312100Y-97074200D02*
X121837900Y-97074200D01*
G75*
G02*
X122100800Y-97337100I0J-262900D01*
G01*
X122100800Y-97962900D01*
G75*
G02*
X121837900Y-98225800I-262900J0D01*
G01*
X121312100Y-98225800D01*
G75*
G02*
X121049200Y-97962900I0J262900D01*
G01*
X121049200Y-97337100D01*
G75*
G02*
X121312100Y-97074200I262900J0D01*
G01*
G37*
G36*
G01*
X122862900Y-78700800D02*
X122337100Y-78700800D01*
G75*
G02*
X122074200Y-78437900I0J262900D01*
G01*
X122074200Y-77812100D01*
G75*
G02*
X122337100Y-77549200I262900J0D01*
G01*
X122862900Y-77549200D01*
G75*
G02*
X123125800Y-77812100I0J-262900D01*
G01*
X123125800Y-78437900D01*
G75*
G02*
X122862900Y-78700800I-262900J0D01*
G01*
G37*
G36*
G01*
X122862900Y-76950800D02*
X122337100Y-76950800D01*
G75*
G02*
X122074200Y-76687900I0J262900D01*
G01*
X122074200Y-76062100D01*
G75*
G02*
X122337100Y-75799200I262900J0D01*
G01*
X122862900Y-75799200D01*
G75*
G02*
X123125800Y-76062100I0J-262900D01*
G01*
X123125800Y-76687900D01*
G75*
G02*
X122862900Y-76950800I-262900J0D01*
G01*
G37*
M02*
