G04 #@! TF.GenerationSoftware,KiCad,Pcbnew,(5.1.7)-1*
G04 #@! TF.CreationDate,2021-11-14T21:58:53-06:00*
G04 #@! TF.ProjectId,PIC-nixie,5049432d-6e69-4786-9965-2e6b69636164,rev?*
G04 #@! TF.SameCoordinates,Original*
G04 #@! TF.FileFunction,Soldermask,Bot*
G04 #@! TF.FilePolarity,Negative*
%FSLAX46Y46*%
G04 Gerber Fmt 4.6, Leading zero omitted, Abs format (unit mm)*
G04 Created by KiCad (PCBNEW (5.1.7)-1) date 2021-11-14 21:58:53*
%MOMM*%
%LPD*%
G01*
G04 APERTURE LIST*
%ADD10C,2.301600*%
%ADD11C,1.701800*%
%ADD12O,2.101600X1.101600*%
%ADD13O,1.701600X1.701600*%
%ADD14C,1.801600*%
%ADD15C,1.901600*%
G04 APERTURE END LIST*
D10*
X125000000Y-88000000D03*
G36*
G01*
X192430900Y-117165900D02*
X192430900Y-118766100D01*
G75*
G02*
X192380100Y-118816900I-50800J0D01*
G01*
X190779900Y-118816900D01*
G75*
G02*
X190729100Y-118766100I0J50800D01*
G01*
X190729100Y-117165900D01*
G75*
G02*
X190779900Y-117115100I50800J0D01*
G01*
X192380100Y-117115100D01*
G75*
G02*
X192430900Y-117165900I0J-50800D01*
G01*
G37*
D11*
X174080000Y-117966000D03*
D10*
X195000000Y-88000000D03*
D12*
X174650000Y-87064000D03*
X182850000Y-87064000D03*
X174650000Y-90004000D03*
X182850000Y-90004000D03*
G36*
G01*
X121000000Y-112924200D02*
X122600000Y-112924200D01*
G75*
G02*
X122650800Y-112975000I0J-50800D01*
G01*
X122650800Y-114575000D01*
G75*
G02*
X122600000Y-114625800I-50800J0D01*
G01*
X121000000Y-114625800D01*
G75*
G02*
X120949200Y-114575000I0J50800D01*
G01*
X120949200Y-112975000D01*
G75*
G02*
X121000000Y-112924200I50800J0D01*
G01*
G37*
D13*
X104020000Y-121395000D03*
X119260000Y-113775000D03*
X106560000Y-121395000D03*
X116720000Y-113775000D03*
X109100000Y-121395000D03*
X114180000Y-113775000D03*
X111640000Y-121395000D03*
X111640000Y-113775000D03*
X114180000Y-121395000D03*
X109100000Y-113775000D03*
X116720000Y-121395000D03*
X106560000Y-113775000D03*
X119260000Y-121395000D03*
X104020000Y-113775000D03*
X121800000Y-121395000D03*
G36*
G01*
X162065859Y-121400800D02*
X160794141Y-121400800D01*
G75*
G02*
X160529200Y-121135859I0J264941D01*
G01*
X160529200Y-119864141D01*
G75*
G02*
X160794141Y-119599200I264941J0D01*
G01*
X162065859Y-119599200D01*
G75*
G02*
X162330800Y-119864141I0J-264941D01*
G01*
X162330800Y-121135859D01*
G75*
G02*
X162065859Y-121400800I-264941J0D01*
G01*
G37*
D14*
X158890000Y-120500000D03*
X156350000Y-120500000D03*
X153810000Y-120500000D03*
X151270000Y-120500000D03*
X148730000Y-120500000D03*
X146190000Y-120500000D03*
X143650000Y-120500000D03*
X141110000Y-120500000D03*
X138570000Y-120500000D03*
X161430000Y-117960000D03*
X158890000Y-117960000D03*
X156350000Y-117960000D03*
X153810000Y-117960000D03*
X151270000Y-117960000D03*
X148730000Y-117960000D03*
X146190000Y-117960000D03*
X143650000Y-117960000D03*
X141110000Y-117960000D03*
X138570000Y-117960000D03*
G36*
G01*
X138360800Y-98961000D02*
X138360800Y-99511000D01*
G75*
G02*
X138310000Y-99561800I-50800J0D01*
G01*
X137510000Y-99561800D01*
G75*
G02*
X137459200Y-99511000I0J50800D01*
G01*
X137459200Y-98961000D01*
G75*
G02*
X137510000Y-98910200I50800J0D01*
G01*
X138310000Y-98910200D01*
G75*
G02*
X138360800Y-98961000I0J-50800D01*
G01*
G37*
G36*
G01*
X138360800Y-99911000D02*
X138360800Y-100461000D01*
G75*
G02*
X138310000Y-100511800I-50800J0D01*
G01*
X137510000Y-100511800D01*
G75*
G02*
X137459200Y-100461000I0J50800D01*
G01*
X137459200Y-99911000D01*
G75*
G02*
X137510000Y-99860200I50800J0D01*
G01*
X138310000Y-99860200D01*
G75*
G02*
X138360800Y-99911000I0J-50800D01*
G01*
G37*
G36*
G01*
X138360800Y-100861000D02*
X138360800Y-101411000D01*
G75*
G02*
X138310000Y-101461800I-50800J0D01*
G01*
X137510000Y-101461800D01*
G75*
G02*
X137459200Y-101411000I0J50800D01*
G01*
X137459200Y-100861000D01*
G75*
G02*
X137510000Y-100810200I50800J0D01*
G01*
X138310000Y-100810200D01*
G75*
G02*
X138360800Y-100861000I0J-50800D01*
G01*
G37*
G36*
G01*
X135960800Y-100861000D02*
X135960800Y-101411000D01*
G75*
G02*
X135910000Y-101461800I-50800J0D01*
G01*
X135110000Y-101461800D01*
G75*
G02*
X135059200Y-101411000I0J50800D01*
G01*
X135059200Y-100861000D01*
G75*
G02*
X135110000Y-100810200I50800J0D01*
G01*
X135910000Y-100810200D01*
G75*
G02*
X135960800Y-100861000I0J-50800D01*
G01*
G37*
G36*
G01*
X135960800Y-99911000D02*
X135960800Y-100461000D01*
G75*
G02*
X135910000Y-100511800I-50800J0D01*
G01*
X135110000Y-100511800D01*
G75*
G02*
X135059200Y-100461000I0J50800D01*
G01*
X135059200Y-99911000D01*
G75*
G02*
X135110000Y-99860200I50800J0D01*
G01*
X135910000Y-99860200D01*
G75*
G02*
X135960800Y-99911000I0J-50800D01*
G01*
G37*
G36*
G01*
X135960800Y-98961000D02*
X135960800Y-99511000D01*
G75*
G02*
X135910000Y-99561800I-50800J0D01*
G01*
X135110000Y-99561800D01*
G75*
G02*
X135059200Y-99511000I0J50800D01*
G01*
X135059200Y-98961000D01*
G75*
G02*
X135110000Y-98910200I50800J0D01*
G01*
X135910000Y-98910200D01*
G75*
G02*
X135960800Y-98961000I0J-50800D01*
G01*
G37*
D13*
X122775000Y-99820000D03*
X102455000Y-92200000D03*
X120235000Y-99820000D03*
X104995000Y-92200000D03*
X117695000Y-99820000D03*
X107535000Y-92200000D03*
X115155000Y-99820000D03*
X110075000Y-92200000D03*
X112615000Y-99820000D03*
X112615000Y-92200000D03*
X110075000Y-99820000D03*
X115155000Y-92200000D03*
X107535000Y-99820000D03*
X117695000Y-92200000D03*
X104995000Y-99820000D03*
X120235000Y-92200000D03*
X102455000Y-99820000D03*
G36*
G01*
X121975000Y-91349200D02*
X123575000Y-91349200D01*
G75*
G02*
X123625800Y-91400000I0J-50800D01*
G01*
X123625800Y-93000000D01*
G75*
G02*
X123575000Y-93050800I-50800J0D01*
G01*
X121975000Y-93050800D01*
G75*
G02*
X121924200Y-93000000I0J50800D01*
G01*
X121924200Y-91400000D01*
G75*
G02*
X121975000Y-91349200I50800J0D01*
G01*
G37*
G36*
G01*
X164738800Y-109292000D02*
X164738800Y-110892000D01*
G75*
G02*
X164688000Y-110942800I-50800J0D01*
G01*
X163088000Y-110942800D01*
G75*
G02*
X163037200Y-110892000I0J50800D01*
G01*
X163037200Y-109292000D01*
G75*
G02*
X163088000Y-109241200I50800J0D01*
G01*
X164688000Y-109241200D01*
G75*
G02*
X164738800Y-109292000I0J-50800D01*
G01*
G37*
X161348000Y-110092000D03*
X158808000Y-110092000D03*
X156268000Y-110092000D03*
X153728000Y-110092000D03*
X151188000Y-110092000D03*
X148648000Y-110092000D03*
X146108000Y-110092000D03*
G36*
G01*
X116049999Y-117149200D02*
X116550001Y-117149200D01*
G75*
G02*
X116600800Y-117199999I0J-50799D01*
G01*
X116600800Y-118000001D01*
G75*
G02*
X116550001Y-118050800I-50799J0D01*
G01*
X116049999Y-118050800D01*
G75*
G02*
X115999200Y-118000001I0J50799D01*
G01*
X115999200Y-117199999D01*
G75*
G02*
X116049999Y-117149200I50799J0D01*
G01*
G37*
G36*
G01*
X117700000Y-117149200D02*
X118100000Y-117149200D01*
G75*
G02*
X118150800Y-117200000I0J-50800D01*
G01*
X118150800Y-118000000D01*
G75*
G02*
X118100000Y-118050800I-50800J0D01*
G01*
X117700000Y-118050800D01*
G75*
G02*
X117649200Y-118000000I0J50800D01*
G01*
X117649200Y-117200000D01*
G75*
G02*
X117700000Y-117149200I50800J0D01*
G01*
G37*
G36*
G01*
X116900000Y-117149200D02*
X117300000Y-117149200D01*
G75*
G02*
X117350800Y-117200000I0J-50800D01*
G01*
X117350800Y-118000000D01*
G75*
G02*
X117300000Y-118050800I-50800J0D01*
G01*
X116900000Y-118050800D01*
G75*
G02*
X116849200Y-118000000I0J50800D01*
G01*
X116849200Y-117200000D01*
G75*
G02*
X116900000Y-117149200I50800J0D01*
G01*
G37*
G36*
G01*
X118449999Y-117149200D02*
X118950001Y-117149200D01*
G75*
G02*
X119000800Y-117199999I0J-50799D01*
G01*
X119000800Y-118000001D01*
G75*
G02*
X118950001Y-118050800I-50799J0D01*
G01*
X118449999Y-118050800D01*
G75*
G02*
X118399200Y-118000001I0J50799D01*
G01*
X118399200Y-117199999D01*
G75*
G02*
X118449999Y-117149200I50799J0D01*
G01*
G37*
G36*
G01*
X116900000Y-118949200D02*
X117300000Y-118949200D01*
G75*
G02*
X117350800Y-119000000I0J-50800D01*
G01*
X117350800Y-119800000D01*
G75*
G02*
X117300000Y-119850800I-50800J0D01*
G01*
X116900000Y-119850800D01*
G75*
G02*
X116849200Y-119800000I0J50800D01*
G01*
X116849200Y-119000000D01*
G75*
G02*
X116900000Y-118949200I50800J0D01*
G01*
G37*
G36*
G01*
X116049999Y-118949200D02*
X116550001Y-118949200D01*
G75*
G02*
X116600800Y-118999999I0J-50799D01*
G01*
X116600800Y-119800001D01*
G75*
G02*
X116550001Y-119850800I-50799J0D01*
G01*
X116049999Y-119850800D01*
G75*
G02*
X115999200Y-119800001I0J50799D01*
G01*
X115999200Y-118999999D01*
G75*
G02*
X116049999Y-118949200I50799J0D01*
G01*
G37*
G36*
G01*
X117700000Y-118949200D02*
X118100000Y-118949200D01*
G75*
G02*
X118150800Y-119000000I0J-50800D01*
G01*
X118150800Y-119800000D01*
G75*
G02*
X118100000Y-119850800I-50800J0D01*
G01*
X117700000Y-119850800D01*
G75*
G02*
X117649200Y-119800000I0J50800D01*
G01*
X117649200Y-119000000D01*
G75*
G02*
X117700000Y-118949200I50800J0D01*
G01*
G37*
G36*
G01*
X118449999Y-118949200D02*
X118950001Y-118949200D01*
G75*
G02*
X119000800Y-118999999I0J-50799D01*
G01*
X119000800Y-119800001D01*
G75*
G02*
X118950001Y-119850800I-50799J0D01*
G01*
X118449999Y-119850800D01*
G75*
G02*
X118399200Y-119800001I0J50799D01*
G01*
X118399200Y-118999999D01*
G75*
G02*
X118449999Y-118949200I50799J0D01*
G01*
G37*
G36*
G01*
X105074999Y-117074200D02*
X105575001Y-117074200D01*
G75*
G02*
X105625800Y-117124999I0J-50799D01*
G01*
X105625800Y-117925001D01*
G75*
G02*
X105575001Y-117975800I-50799J0D01*
G01*
X105074999Y-117975800D01*
G75*
G02*
X105024200Y-117925001I0J50799D01*
G01*
X105024200Y-117124999D01*
G75*
G02*
X105074999Y-117074200I50799J0D01*
G01*
G37*
G36*
G01*
X106725000Y-117074200D02*
X107125000Y-117074200D01*
G75*
G02*
X107175800Y-117125000I0J-50800D01*
G01*
X107175800Y-117925000D01*
G75*
G02*
X107125000Y-117975800I-50800J0D01*
G01*
X106725000Y-117975800D01*
G75*
G02*
X106674200Y-117925000I0J50800D01*
G01*
X106674200Y-117125000D01*
G75*
G02*
X106725000Y-117074200I50800J0D01*
G01*
G37*
G36*
G01*
X105925000Y-117074200D02*
X106325000Y-117074200D01*
G75*
G02*
X106375800Y-117125000I0J-50800D01*
G01*
X106375800Y-117925000D01*
G75*
G02*
X106325000Y-117975800I-50800J0D01*
G01*
X105925000Y-117975800D01*
G75*
G02*
X105874200Y-117925000I0J50800D01*
G01*
X105874200Y-117125000D01*
G75*
G02*
X105925000Y-117074200I50800J0D01*
G01*
G37*
G36*
G01*
X107474999Y-117074200D02*
X107975001Y-117074200D01*
G75*
G02*
X108025800Y-117124999I0J-50799D01*
G01*
X108025800Y-117925001D01*
G75*
G02*
X107975001Y-117975800I-50799J0D01*
G01*
X107474999Y-117975800D01*
G75*
G02*
X107424200Y-117925001I0J50799D01*
G01*
X107424200Y-117124999D01*
G75*
G02*
X107474999Y-117074200I50799J0D01*
G01*
G37*
G36*
G01*
X105925000Y-118874200D02*
X106325000Y-118874200D01*
G75*
G02*
X106375800Y-118925000I0J-50800D01*
G01*
X106375800Y-119725000D01*
G75*
G02*
X106325000Y-119775800I-50800J0D01*
G01*
X105925000Y-119775800D01*
G75*
G02*
X105874200Y-119725000I0J50800D01*
G01*
X105874200Y-118925000D01*
G75*
G02*
X105925000Y-118874200I50800J0D01*
G01*
G37*
G36*
G01*
X105074999Y-118874200D02*
X105575001Y-118874200D01*
G75*
G02*
X105625800Y-118924999I0J-50799D01*
G01*
X105625800Y-119725001D01*
G75*
G02*
X105575001Y-119775800I-50799J0D01*
G01*
X105074999Y-119775800D01*
G75*
G02*
X105024200Y-119725001I0J50799D01*
G01*
X105024200Y-118924999D01*
G75*
G02*
X105074999Y-118874200I50799J0D01*
G01*
G37*
G36*
G01*
X106725000Y-118874200D02*
X107125000Y-118874200D01*
G75*
G02*
X107175800Y-118925000I0J-50800D01*
G01*
X107175800Y-119725000D01*
G75*
G02*
X107125000Y-119775800I-50800J0D01*
G01*
X106725000Y-119775800D01*
G75*
G02*
X106674200Y-119725000I0J50800D01*
G01*
X106674200Y-118925000D01*
G75*
G02*
X106725000Y-118874200I50800J0D01*
G01*
G37*
G36*
G01*
X107474999Y-118874200D02*
X107975001Y-118874200D01*
G75*
G02*
X108025800Y-118924999I0J-50799D01*
G01*
X108025800Y-119725001D01*
G75*
G02*
X107975001Y-119775800I-50799J0D01*
G01*
X107474999Y-119775800D01*
G75*
G02*
X107424200Y-119725001I0J50799D01*
G01*
X107424200Y-118924999D01*
G75*
G02*
X107474999Y-118874200I50799J0D01*
G01*
G37*
G36*
G01*
X102074999Y-95649200D02*
X102575001Y-95649200D01*
G75*
G02*
X102625800Y-95699999I0J-50799D01*
G01*
X102625800Y-96500001D01*
G75*
G02*
X102575001Y-96550800I-50799J0D01*
G01*
X102074999Y-96550800D01*
G75*
G02*
X102024200Y-96500001I0J50799D01*
G01*
X102024200Y-95699999D01*
G75*
G02*
X102074999Y-95649200I50799J0D01*
G01*
G37*
G36*
G01*
X103725000Y-95649200D02*
X104125000Y-95649200D01*
G75*
G02*
X104175800Y-95700000I0J-50800D01*
G01*
X104175800Y-96500000D01*
G75*
G02*
X104125000Y-96550800I-50800J0D01*
G01*
X103725000Y-96550800D01*
G75*
G02*
X103674200Y-96500000I0J50800D01*
G01*
X103674200Y-95700000D01*
G75*
G02*
X103725000Y-95649200I50800J0D01*
G01*
G37*
G36*
G01*
X102925000Y-95649200D02*
X103325000Y-95649200D01*
G75*
G02*
X103375800Y-95700000I0J-50800D01*
G01*
X103375800Y-96500000D01*
G75*
G02*
X103325000Y-96550800I-50800J0D01*
G01*
X102925000Y-96550800D01*
G75*
G02*
X102874200Y-96500000I0J50800D01*
G01*
X102874200Y-95700000D01*
G75*
G02*
X102925000Y-95649200I50800J0D01*
G01*
G37*
G36*
G01*
X104474999Y-95649200D02*
X104975001Y-95649200D01*
G75*
G02*
X105025800Y-95699999I0J-50799D01*
G01*
X105025800Y-96500001D01*
G75*
G02*
X104975001Y-96550800I-50799J0D01*
G01*
X104474999Y-96550800D01*
G75*
G02*
X104424200Y-96500001I0J50799D01*
G01*
X104424200Y-95699999D01*
G75*
G02*
X104474999Y-95649200I50799J0D01*
G01*
G37*
G36*
G01*
X102925000Y-97449200D02*
X103325000Y-97449200D01*
G75*
G02*
X103375800Y-97500000I0J-50800D01*
G01*
X103375800Y-98300000D01*
G75*
G02*
X103325000Y-98350800I-50800J0D01*
G01*
X102925000Y-98350800D01*
G75*
G02*
X102874200Y-98300000I0J50800D01*
G01*
X102874200Y-97500000D01*
G75*
G02*
X102925000Y-97449200I50800J0D01*
G01*
G37*
G36*
G01*
X102074999Y-97449200D02*
X102575001Y-97449200D01*
G75*
G02*
X102625800Y-97499999I0J-50799D01*
G01*
X102625800Y-98300001D01*
G75*
G02*
X102575001Y-98350800I-50799J0D01*
G01*
X102074999Y-98350800D01*
G75*
G02*
X102024200Y-98300001I0J50799D01*
G01*
X102024200Y-97499999D01*
G75*
G02*
X102074999Y-97449200I50799J0D01*
G01*
G37*
G36*
G01*
X103725000Y-97449200D02*
X104125000Y-97449200D01*
G75*
G02*
X104175800Y-97500000I0J-50800D01*
G01*
X104175800Y-98300000D01*
G75*
G02*
X104125000Y-98350800I-50800J0D01*
G01*
X103725000Y-98350800D01*
G75*
G02*
X103674200Y-98300000I0J50800D01*
G01*
X103674200Y-97500000D01*
G75*
G02*
X103725000Y-97449200I50800J0D01*
G01*
G37*
G36*
G01*
X104474999Y-97449200D02*
X104975001Y-97449200D01*
G75*
G02*
X105025800Y-97499999I0J-50799D01*
G01*
X105025800Y-98300001D01*
G75*
G02*
X104975001Y-98350800I-50799J0D01*
G01*
X104474999Y-98350800D01*
G75*
G02*
X104424200Y-98300001I0J50799D01*
G01*
X104424200Y-97499999D01*
G75*
G02*
X104474999Y-97449200I50799J0D01*
G01*
G37*
G36*
G01*
X109225001Y-96875800D02*
X108724999Y-96875800D01*
G75*
G02*
X108674200Y-96825001I0J50799D01*
G01*
X108674200Y-96024999D01*
G75*
G02*
X108724999Y-95974200I50799J0D01*
G01*
X109225001Y-95974200D01*
G75*
G02*
X109275800Y-96024999I0J-50799D01*
G01*
X109275800Y-96825001D01*
G75*
G02*
X109225001Y-96875800I-50799J0D01*
G01*
G37*
G36*
G01*
X107575000Y-96875800D02*
X107175000Y-96875800D01*
G75*
G02*
X107124200Y-96825000I0J50800D01*
G01*
X107124200Y-96025000D01*
G75*
G02*
X107175000Y-95974200I50800J0D01*
G01*
X107575000Y-95974200D01*
G75*
G02*
X107625800Y-96025000I0J-50800D01*
G01*
X107625800Y-96825000D01*
G75*
G02*
X107575000Y-96875800I-50800J0D01*
G01*
G37*
G36*
G01*
X108375000Y-96875800D02*
X107975000Y-96875800D01*
G75*
G02*
X107924200Y-96825000I0J50800D01*
G01*
X107924200Y-96025000D01*
G75*
G02*
X107975000Y-95974200I50800J0D01*
G01*
X108375000Y-95974200D01*
G75*
G02*
X108425800Y-96025000I0J-50800D01*
G01*
X108425800Y-96825000D01*
G75*
G02*
X108375000Y-96875800I-50800J0D01*
G01*
G37*
G36*
G01*
X106825001Y-96875800D02*
X106324999Y-96875800D01*
G75*
G02*
X106274200Y-96825001I0J50799D01*
G01*
X106274200Y-96024999D01*
G75*
G02*
X106324999Y-95974200I50799J0D01*
G01*
X106825001Y-95974200D01*
G75*
G02*
X106875800Y-96024999I0J-50799D01*
G01*
X106875800Y-96825001D01*
G75*
G02*
X106825001Y-96875800I-50799J0D01*
G01*
G37*
G36*
G01*
X108375000Y-95075800D02*
X107975000Y-95075800D01*
G75*
G02*
X107924200Y-95025000I0J50800D01*
G01*
X107924200Y-94225000D01*
G75*
G02*
X107975000Y-94174200I50800J0D01*
G01*
X108375000Y-94174200D01*
G75*
G02*
X108425800Y-94225000I0J-50800D01*
G01*
X108425800Y-95025000D01*
G75*
G02*
X108375000Y-95075800I-50800J0D01*
G01*
G37*
G36*
G01*
X109225001Y-95075800D02*
X108724999Y-95075800D01*
G75*
G02*
X108674200Y-95025001I0J50799D01*
G01*
X108674200Y-94224999D01*
G75*
G02*
X108724999Y-94174200I50799J0D01*
G01*
X109225001Y-94174200D01*
G75*
G02*
X109275800Y-94224999I0J-50799D01*
G01*
X109275800Y-95025001D01*
G75*
G02*
X109225001Y-95075800I-50799J0D01*
G01*
G37*
G36*
G01*
X107575000Y-95075800D02*
X107175000Y-95075800D01*
G75*
G02*
X107124200Y-95025000I0J50800D01*
G01*
X107124200Y-94225000D01*
G75*
G02*
X107175000Y-94174200I50800J0D01*
G01*
X107575000Y-94174200D01*
G75*
G02*
X107625800Y-94225000I0J-50800D01*
G01*
X107625800Y-95025000D01*
G75*
G02*
X107575000Y-95075800I-50800J0D01*
G01*
G37*
G36*
G01*
X106825001Y-95075800D02*
X106324999Y-95075800D01*
G75*
G02*
X106274200Y-95025001I0J50799D01*
G01*
X106274200Y-94224999D01*
G75*
G02*
X106324999Y-94174200I50799J0D01*
G01*
X106825001Y-94174200D01*
G75*
G02*
X106875800Y-94224999I0J-50799D01*
G01*
X106875800Y-95025001D01*
G75*
G02*
X106825001Y-95075800I-50799J0D01*
G01*
G37*
G36*
G01*
X167317200Y-110570715D02*
X167317200Y-109613285D01*
G75*
G02*
X167589285Y-109341200I272085J0D01*
G01*
X168296715Y-109341200D01*
G75*
G02*
X168568800Y-109613285I0J-272085D01*
G01*
X168568800Y-110570715D01*
G75*
G02*
X168296715Y-110842800I-272085J0D01*
G01*
X167589285Y-110842800D01*
G75*
G02*
X167317200Y-110570715I0J272085D01*
G01*
G37*
G36*
G01*
X169367200Y-110570715D02*
X169367200Y-109613285D01*
G75*
G02*
X169639285Y-109341200I272085J0D01*
G01*
X170346715Y-109341200D01*
G75*
G02*
X170618800Y-109613285I0J-272085D01*
G01*
X170618800Y-110570715D01*
G75*
G02*
X170346715Y-110842800I-272085J0D01*
G01*
X169639285Y-110842800D01*
G75*
G02*
X169367200Y-110570715I0J272085D01*
G01*
G37*
G36*
G01*
X136319800Y-104025285D02*
X136319800Y-104982715D01*
G75*
G02*
X136047715Y-105254800I-272085J0D01*
G01*
X135340285Y-105254800D01*
G75*
G02*
X135068200Y-104982715I0J272085D01*
G01*
X135068200Y-104025285D01*
G75*
G02*
X135340285Y-103753200I272085J0D01*
G01*
X136047715Y-103753200D01*
G75*
G02*
X136319800Y-104025285I0J-272085D01*
G01*
G37*
G36*
G01*
X134269800Y-104025285D02*
X134269800Y-104982715D01*
G75*
G02*
X133997715Y-105254800I-272085J0D01*
G01*
X133290285Y-105254800D01*
G75*
G02*
X133018200Y-104982715I0J272085D01*
G01*
X133018200Y-104025285D01*
G75*
G02*
X133290285Y-103753200I272085J0D01*
G01*
X133997715Y-103753200D01*
G75*
G02*
X134269800Y-104025285I0J-272085D01*
G01*
G37*
G36*
G01*
X140646800Y-104025285D02*
X140646800Y-104982715D01*
G75*
G02*
X140374715Y-105254800I-272085J0D01*
G01*
X139667285Y-105254800D01*
G75*
G02*
X139395200Y-104982715I0J272085D01*
G01*
X139395200Y-104025285D01*
G75*
G02*
X139667285Y-103753200I272085J0D01*
G01*
X140374715Y-103753200D01*
G75*
G02*
X140646800Y-104025285I0J-272085D01*
G01*
G37*
G36*
G01*
X138596800Y-104025285D02*
X138596800Y-104982715D01*
G75*
G02*
X138324715Y-105254800I-272085J0D01*
G01*
X137617285Y-105254800D01*
G75*
G02*
X137345200Y-104982715I0J272085D01*
G01*
X137345200Y-104025285D01*
G75*
G02*
X137617285Y-103753200I272085J0D01*
G01*
X138324715Y-103753200D01*
G75*
G02*
X138596800Y-104025285I0J-272085D01*
G01*
G37*
G36*
G01*
X141578715Y-101525800D02*
X140621285Y-101525800D01*
G75*
G02*
X140349200Y-101253715I0J272085D01*
G01*
X140349200Y-100546285D01*
G75*
G02*
X140621285Y-100274200I272085J0D01*
G01*
X141578715Y-100274200D01*
G75*
G02*
X141850800Y-100546285I0J-272085D01*
G01*
X141850800Y-101253715D01*
G75*
G02*
X141578715Y-101525800I-272085J0D01*
G01*
G37*
G36*
G01*
X141578715Y-99475800D02*
X140621285Y-99475800D01*
G75*
G02*
X140349200Y-99203715I0J272085D01*
G01*
X140349200Y-98496285D01*
G75*
G02*
X140621285Y-98224200I272085J0D01*
G01*
X141578715Y-98224200D01*
G75*
G02*
X141850800Y-98496285I0J-272085D01*
G01*
X141850800Y-99203715D01*
G75*
G02*
X141578715Y-99475800I-272085J0D01*
G01*
G37*
G36*
G01*
X164785800Y-95389285D02*
X164785800Y-96346715D01*
G75*
G02*
X164513715Y-96618800I-272085J0D01*
G01*
X163806285Y-96618800D01*
G75*
G02*
X163534200Y-96346715I0J272085D01*
G01*
X163534200Y-95389285D01*
G75*
G02*
X163806285Y-95117200I272085J0D01*
G01*
X164513715Y-95117200D01*
G75*
G02*
X164785800Y-95389285I0J-272085D01*
G01*
G37*
G36*
G01*
X162735800Y-95389285D02*
X162735800Y-96346715D01*
G75*
G02*
X162463715Y-96618800I-272085J0D01*
G01*
X161756285Y-96618800D01*
G75*
G02*
X161484200Y-96346715I0J272085D01*
G01*
X161484200Y-95389285D01*
G75*
G02*
X161756285Y-95117200I272085J0D01*
G01*
X162463715Y-95117200D01*
G75*
G02*
X162735800Y-95389285I0J-272085D01*
G01*
G37*
G36*
G01*
X115628715Y-95050800D02*
X114671285Y-95050800D01*
G75*
G02*
X114399200Y-94778715I0J272085D01*
G01*
X114399200Y-94071285D01*
G75*
G02*
X114671285Y-93799200I272085J0D01*
G01*
X115628715Y-93799200D01*
G75*
G02*
X115900800Y-94071285I0J-272085D01*
G01*
X115900800Y-94778715D01*
G75*
G02*
X115628715Y-95050800I-272085J0D01*
G01*
G37*
G36*
G01*
X115628715Y-97100800D02*
X114671285Y-97100800D01*
G75*
G02*
X114399200Y-96828715I0J272085D01*
G01*
X114399200Y-96121285D01*
G75*
G02*
X114671285Y-95849200I272085J0D01*
G01*
X115628715Y-95849200D01*
G75*
G02*
X115900800Y-96121285I0J-272085D01*
G01*
X115900800Y-96828715D01*
G75*
G02*
X115628715Y-97100800I-272085J0D01*
G01*
G37*
G36*
G01*
X136084800Y-107574000D02*
X136084800Y-108374000D01*
G75*
G02*
X136034000Y-108424800I-50800J0D01*
G01*
X135134000Y-108424800D01*
G75*
G02*
X135083200Y-108374000I0J50800D01*
G01*
X135083200Y-107574000D01*
G75*
G02*
X135134000Y-107523200I50800J0D01*
G01*
X136034000Y-107523200D01*
G75*
G02*
X136084800Y-107574000I0J-50800D01*
G01*
G37*
G36*
G01*
X136084800Y-109474000D02*
X136084800Y-110274000D01*
G75*
G02*
X136034000Y-110324800I-50800J0D01*
G01*
X135134000Y-110324800D01*
G75*
G02*
X135083200Y-110274000I0J50800D01*
G01*
X135083200Y-109474000D01*
G75*
G02*
X135134000Y-109423200I50800J0D01*
G01*
X136034000Y-109423200D01*
G75*
G02*
X136084800Y-109474000I0J-50800D01*
G01*
G37*
G36*
G01*
X134084800Y-108524000D02*
X134084800Y-109324000D01*
G75*
G02*
X134034000Y-109374800I-50800J0D01*
G01*
X133134000Y-109374800D01*
G75*
G02*
X133083200Y-109324000I0J50800D01*
G01*
X133083200Y-108524000D01*
G75*
G02*
X133134000Y-108473200I50800J0D01*
G01*
X134034000Y-108473200D01*
G75*
G02*
X134084800Y-108524000I0J-50800D01*
G01*
G37*
G36*
G01*
X140480800Y-107472000D02*
X140480800Y-108272000D01*
G75*
G02*
X140430000Y-108322800I-50800J0D01*
G01*
X139530000Y-108322800D01*
G75*
G02*
X139479200Y-108272000I0J50800D01*
G01*
X139479200Y-107472000D01*
G75*
G02*
X139530000Y-107421200I50800J0D01*
G01*
X140430000Y-107421200D01*
G75*
G02*
X140480800Y-107472000I0J-50800D01*
G01*
G37*
G36*
G01*
X140480800Y-109372000D02*
X140480800Y-110172000D01*
G75*
G02*
X140430000Y-110222800I-50800J0D01*
G01*
X139530000Y-110222800D01*
G75*
G02*
X139479200Y-110172000I0J50800D01*
G01*
X139479200Y-109372000D01*
G75*
G02*
X139530000Y-109321200I50800J0D01*
G01*
X140430000Y-109321200D01*
G75*
G02*
X140480800Y-109372000I0J-50800D01*
G01*
G37*
G36*
G01*
X138480800Y-108422000D02*
X138480800Y-109222000D01*
G75*
G02*
X138430000Y-109272800I-50800J0D01*
G01*
X137530000Y-109272800D01*
G75*
G02*
X137479200Y-109222000I0J50800D01*
G01*
X137479200Y-108422000D01*
G75*
G02*
X137530000Y-108371200I50800J0D01*
G01*
X138430000Y-108371200D01*
G75*
G02*
X138480800Y-108422000I0J-50800D01*
G01*
G37*
G36*
G01*
X150506000Y-100908800D02*
X149706000Y-100908800D01*
G75*
G02*
X149655200Y-100858000I0J50800D01*
G01*
X149655200Y-99958000D01*
G75*
G02*
X149706000Y-99907200I50800J0D01*
G01*
X150506000Y-99907200D01*
G75*
G02*
X150556800Y-99958000I0J-50800D01*
G01*
X150556800Y-100858000D01*
G75*
G02*
X150506000Y-100908800I-50800J0D01*
G01*
G37*
G36*
G01*
X148606000Y-100908800D02*
X147806000Y-100908800D01*
G75*
G02*
X147755200Y-100858000I0J50800D01*
G01*
X147755200Y-99958000D01*
G75*
G02*
X147806000Y-99907200I50800J0D01*
G01*
X148606000Y-99907200D01*
G75*
G02*
X148656800Y-99958000I0J-50800D01*
G01*
X148656800Y-100858000D01*
G75*
G02*
X148606000Y-100908800I-50800J0D01*
G01*
G37*
G36*
G01*
X149556000Y-98908800D02*
X148756000Y-98908800D01*
G75*
G02*
X148705200Y-98858000I0J50800D01*
G01*
X148705200Y-97958000D01*
G75*
G02*
X148756000Y-97907200I50800J0D01*
G01*
X149556000Y-97907200D01*
G75*
G02*
X149606800Y-97958000I0J-50800D01*
G01*
X149606800Y-98858000D01*
G75*
G02*
X149556000Y-98908800I-50800J0D01*
G01*
G37*
G36*
G01*
X155586000Y-100924800D02*
X154786000Y-100924800D01*
G75*
G02*
X154735200Y-100874000I0J50800D01*
G01*
X154735200Y-99974000D01*
G75*
G02*
X154786000Y-99923200I50800J0D01*
G01*
X155586000Y-99923200D01*
G75*
G02*
X155636800Y-99974000I0J-50800D01*
G01*
X155636800Y-100874000D01*
G75*
G02*
X155586000Y-100924800I-50800J0D01*
G01*
G37*
G36*
G01*
X153686000Y-100924800D02*
X152886000Y-100924800D01*
G75*
G02*
X152835200Y-100874000I0J50800D01*
G01*
X152835200Y-99974000D01*
G75*
G02*
X152886000Y-99923200I50800J0D01*
G01*
X153686000Y-99923200D01*
G75*
G02*
X153736800Y-99974000I0J-50800D01*
G01*
X153736800Y-100874000D01*
G75*
G02*
X153686000Y-100924800I-50800J0D01*
G01*
G37*
G36*
G01*
X154636000Y-98924800D02*
X153836000Y-98924800D01*
G75*
G02*
X153785200Y-98874000I0J50800D01*
G01*
X153785200Y-97974000D01*
G75*
G02*
X153836000Y-97923200I50800J0D01*
G01*
X154636000Y-97923200D01*
G75*
G02*
X154686800Y-97974000I0J-50800D01*
G01*
X154686800Y-98874000D01*
G75*
G02*
X154636000Y-98924800I-50800J0D01*
G01*
G37*
G36*
G01*
X160650000Y-100924800D02*
X159850000Y-100924800D01*
G75*
G02*
X159799200Y-100874000I0J50800D01*
G01*
X159799200Y-99974000D01*
G75*
G02*
X159850000Y-99923200I50800J0D01*
G01*
X160650000Y-99923200D01*
G75*
G02*
X160700800Y-99974000I0J-50800D01*
G01*
X160700800Y-100874000D01*
G75*
G02*
X160650000Y-100924800I-50800J0D01*
G01*
G37*
G36*
G01*
X158750000Y-100924800D02*
X157950000Y-100924800D01*
G75*
G02*
X157899200Y-100874000I0J50800D01*
G01*
X157899200Y-99974000D01*
G75*
G02*
X157950000Y-99923200I50800J0D01*
G01*
X158750000Y-99923200D01*
G75*
G02*
X158800800Y-99974000I0J-50800D01*
G01*
X158800800Y-100874000D01*
G75*
G02*
X158750000Y-100924800I-50800J0D01*
G01*
G37*
G36*
G01*
X159700000Y-98924800D02*
X158900000Y-98924800D01*
G75*
G02*
X158849200Y-98874000I0J50800D01*
G01*
X158849200Y-97974000D01*
G75*
G02*
X158900000Y-97923200I50800J0D01*
G01*
X159700000Y-97923200D01*
G75*
G02*
X159750800Y-97974000I0J-50800D01*
G01*
X159750800Y-98874000D01*
G75*
G02*
X159700000Y-98924800I-50800J0D01*
G01*
G37*
G36*
G01*
X166000000Y-100924800D02*
X165200000Y-100924800D01*
G75*
G02*
X165149200Y-100874000I0J50800D01*
G01*
X165149200Y-99974000D01*
G75*
G02*
X165200000Y-99923200I50800J0D01*
G01*
X166000000Y-99923200D01*
G75*
G02*
X166050800Y-99974000I0J-50800D01*
G01*
X166050800Y-100874000D01*
G75*
G02*
X166000000Y-100924800I-50800J0D01*
G01*
G37*
G36*
G01*
X164100000Y-100924800D02*
X163300000Y-100924800D01*
G75*
G02*
X163249200Y-100874000I0J50800D01*
G01*
X163249200Y-99974000D01*
G75*
G02*
X163300000Y-99923200I50800J0D01*
G01*
X164100000Y-99923200D01*
G75*
G02*
X164150800Y-99974000I0J-50800D01*
G01*
X164150800Y-100874000D01*
G75*
G02*
X164100000Y-100924800I-50800J0D01*
G01*
G37*
G36*
G01*
X165050000Y-98924800D02*
X164250000Y-98924800D01*
G75*
G02*
X164199200Y-98874000I0J50800D01*
G01*
X164199200Y-97974000D01*
G75*
G02*
X164250000Y-97923200I50800J0D01*
G01*
X165050000Y-97923200D01*
G75*
G02*
X165100800Y-97974000I0J-50800D01*
G01*
X165100800Y-98874000D01*
G75*
G02*
X165050000Y-98924800I-50800J0D01*
G01*
G37*
D15*
X187256000Y-95614000D03*
X179636000Y-95614000D03*
X187256000Y-110854000D03*
X174556000Y-110854000D03*
G36*
G01*
X146132800Y-104038000D02*
X146132800Y-104838000D01*
G75*
G02*
X146082000Y-104888800I-50800J0D01*
G01*
X145182000Y-104888800D01*
G75*
G02*
X145131200Y-104838000I0J50800D01*
G01*
X145131200Y-104038000D01*
G75*
G02*
X145182000Y-103987200I50800J0D01*
G01*
X146082000Y-103987200D01*
G75*
G02*
X146132800Y-104038000I0J-50800D01*
G01*
G37*
G36*
G01*
X148132800Y-104988000D02*
X148132800Y-105788000D01*
G75*
G02*
X148082000Y-105838800I-50800J0D01*
G01*
X147182000Y-105838800D01*
G75*
G02*
X147131200Y-105788000I0J50800D01*
G01*
X147131200Y-104988000D01*
G75*
G02*
X147182000Y-104937200I50800J0D01*
G01*
X148082000Y-104937200D01*
G75*
G02*
X148132800Y-104988000I0J-50800D01*
G01*
G37*
G36*
G01*
X148132800Y-103088000D02*
X148132800Y-103888000D01*
G75*
G02*
X148082000Y-103938800I-50800J0D01*
G01*
X147182000Y-103938800D01*
G75*
G02*
X147131200Y-103888000I0J50800D01*
G01*
X147131200Y-103088000D01*
G75*
G02*
X147182000Y-103037200I50800J0D01*
G01*
X148082000Y-103037200D01*
G75*
G02*
X148132800Y-103088000I0J-50800D01*
G01*
G37*
G36*
G01*
X153212800Y-103088000D02*
X153212800Y-103888000D01*
G75*
G02*
X153162000Y-103938800I-50800J0D01*
G01*
X152262000Y-103938800D01*
G75*
G02*
X152211200Y-103888000I0J50800D01*
G01*
X152211200Y-103088000D01*
G75*
G02*
X152262000Y-103037200I50800J0D01*
G01*
X153162000Y-103037200D01*
G75*
G02*
X153212800Y-103088000I0J-50800D01*
G01*
G37*
G36*
G01*
X153212800Y-104988000D02*
X153212800Y-105788000D01*
G75*
G02*
X153162000Y-105838800I-50800J0D01*
G01*
X152262000Y-105838800D01*
G75*
G02*
X152211200Y-105788000I0J50800D01*
G01*
X152211200Y-104988000D01*
G75*
G02*
X152262000Y-104937200I50800J0D01*
G01*
X153162000Y-104937200D01*
G75*
G02*
X153212800Y-104988000I0J-50800D01*
G01*
G37*
G36*
G01*
X151212800Y-104038000D02*
X151212800Y-104838000D01*
G75*
G02*
X151162000Y-104888800I-50800J0D01*
G01*
X150262000Y-104888800D01*
G75*
G02*
X150211200Y-104838000I0J50800D01*
G01*
X150211200Y-104038000D01*
G75*
G02*
X150262000Y-103987200I50800J0D01*
G01*
X151162000Y-103987200D01*
G75*
G02*
X151212800Y-104038000I0J-50800D01*
G01*
G37*
G36*
G01*
X158276800Y-103154000D02*
X158276800Y-103954000D01*
G75*
G02*
X158226000Y-104004800I-50800J0D01*
G01*
X157326000Y-104004800D01*
G75*
G02*
X157275200Y-103954000I0J50800D01*
G01*
X157275200Y-103154000D01*
G75*
G02*
X157326000Y-103103200I50800J0D01*
G01*
X158226000Y-103103200D01*
G75*
G02*
X158276800Y-103154000I0J-50800D01*
G01*
G37*
G36*
G01*
X158276800Y-105054000D02*
X158276800Y-105854000D01*
G75*
G02*
X158226000Y-105904800I-50800J0D01*
G01*
X157326000Y-105904800D01*
G75*
G02*
X157275200Y-105854000I0J50800D01*
G01*
X157275200Y-105054000D01*
G75*
G02*
X157326000Y-105003200I50800J0D01*
G01*
X158226000Y-105003200D01*
G75*
G02*
X158276800Y-105054000I0J-50800D01*
G01*
G37*
G36*
G01*
X156276800Y-104104000D02*
X156276800Y-104904000D01*
G75*
G02*
X156226000Y-104954800I-50800J0D01*
G01*
X155326000Y-104954800D01*
G75*
G02*
X155275200Y-104904000I0J50800D01*
G01*
X155275200Y-104104000D01*
G75*
G02*
X155326000Y-104053200I50800J0D01*
G01*
X156226000Y-104053200D01*
G75*
G02*
X156276800Y-104104000I0J-50800D01*
G01*
G37*
G36*
G01*
X163356800Y-103154000D02*
X163356800Y-103954000D01*
G75*
G02*
X163306000Y-104004800I-50800J0D01*
G01*
X162406000Y-104004800D01*
G75*
G02*
X162355200Y-103954000I0J50800D01*
G01*
X162355200Y-103154000D01*
G75*
G02*
X162406000Y-103103200I50800J0D01*
G01*
X163306000Y-103103200D01*
G75*
G02*
X163356800Y-103154000I0J-50800D01*
G01*
G37*
G36*
G01*
X163356800Y-105054000D02*
X163356800Y-105854000D01*
G75*
G02*
X163306000Y-105904800I-50800J0D01*
G01*
X162406000Y-105904800D01*
G75*
G02*
X162355200Y-105854000I0J50800D01*
G01*
X162355200Y-105054000D01*
G75*
G02*
X162406000Y-105003200I50800J0D01*
G01*
X163306000Y-105003200D01*
G75*
G02*
X163356800Y-105054000I0J-50800D01*
G01*
G37*
G36*
G01*
X161356800Y-104104000D02*
X161356800Y-104904000D01*
G75*
G02*
X161306000Y-104954800I-50800J0D01*
G01*
X160406000Y-104954800D01*
G75*
G02*
X160355200Y-104904000I0J50800D01*
G01*
X160355200Y-104104000D01*
G75*
G02*
X160406000Y-104053200I50800J0D01*
G01*
X161306000Y-104053200D01*
G75*
G02*
X161356800Y-104104000I0J-50800D01*
G01*
G37*
G36*
G01*
X172039200Y-107124000D02*
X172039200Y-106324000D01*
G75*
G02*
X172090000Y-106273200I50800J0D01*
G01*
X172990000Y-106273200D01*
G75*
G02*
X173040800Y-106324000I0J-50800D01*
G01*
X173040800Y-107124000D01*
G75*
G02*
X172990000Y-107174800I-50800J0D01*
G01*
X172090000Y-107174800D01*
G75*
G02*
X172039200Y-107124000I0J50800D01*
G01*
G37*
G36*
G01*
X172039200Y-105224000D02*
X172039200Y-104424000D01*
G75*
G02*
X172090000Y-104373200I50800J0D01*
G01*
X172990000Y-104373200D01*
G75*
G02*
X173040800Y-104424000I0J-50800D01*
G01*
X173040800Y-105224000D01*
G75*
G02*
X172990000Y-105274800I-50800J0D01*
G01*
X172090000Y-105274800D01*
G75*
G02*
X172039200Y-105224000I0J50800D01*
G01*
G37*
G36*
G01*
X174039200Y-106174000D02*
X174039200Y-105374000D01*
G75*
G02*
X174090000Y-105323200I50800J0D01*
G01*
X174990000Y-105323200D01*
G75*
G02*
X175040800Y-105374000I0J-50800D01*
G01*
X175040800Y-106174000D01*
G75*
G02*
X174990000Y-106224800I-50800J0D01*
G01*
X174090000Y-106224800D01*
G75*
G02*
X174039200Y-106174000I0J50800D01*
G01*
G37*
G36*
G01*
X185105800Y-98945285D02*
X185105800Y-99902715D01*
G75*
G02*
X184833715Y-100174800I-272085J0D01*
G01*
X184126285Y-100174800D01*
G75*
G02*
X183854200Y-99902715I0J272085D01*
G01*
X183854200Y-98945285D01*
G75*
G02*
X184126285Y-98673200I272085J0D01*
G01*
X184833715Y-98673200D01*
G75*
G02*
X185105800Y-98945285I0J-272085D01*
G01*
G37*
G36*
G01*
X183055800Y-98945285D02*
X183055800Y-99902715D01*
G75*
G02*
X182783715Y-100174800I-272085J0D01*
G01*
X182076285Y-100174800D01*
G75*
G02*
X181804200Y-99902715I0J272085D01*
G01*
X181804200Y-98945285D01*
G75*
G02*
X182076285Y-98673200I272085J0D01*
G01*
X182783715Y-98673200D01*
G75*
G02*
X183055800Y-98945285I0J-272085D01*
G01*
G37*
G36*
G01*
X134212900Y-100625800D02*
X133687100Y-100625800D01*
G75*
G02*
X133424200Y-100362900I0J262900D01*
G01*
X133424200Y-99737100D01*
G75*
G02*
X133687100Y-99474200I262900J0D01*
G01*
X134212900Y-99474200D01*
G75*
G02*
X134475800Y-99737100I0J-262900D01*
G01*
X134475800Y-100362900D01*
G75*
G02*
X134212900Y-100625800I-262900J0D01*
G01*
G37*
G36*
G01*
X134212900Y-98875800D02*
X133687100Y-98875800D01*
G75*
G02*
X133424200Y-98612900I0J262900D01*
G01*
X133424200Y-97987100D01*
G75*
G02*
X133687100Y-97724200I262900J0D01*
G01*
X134212900Y-97724200D01*
G75*
G02*
X134475800Y-97987100I0J-262900D01*
G01*
X134475800Y-98612900D01*
G75*
G02*
X134212900Y-98875800I-262900J0D01*
G01*
G37*
G36*
G01*
X104574200Y-107112900D02*
X104574200Y-106587100D01*
G75*
G02*
X104837100Y-106324200I262900J0D01*
G01*
X105462900Y-106324200D01*
G75*
G02*
X105725800Y-106587100I0J-262900D01*
G01*
X105725800Y-107112900D01*
G75*
G02*
X105462900Y-107375800I-262900J0D01*
G01*
X104837100Y-107375800D01*
G75*
G02*
X104574200Y-107112900I0J262900D01*
G01*
G37*
G36*
G01*
X106324200Y-107112900D02*
X106324200Y-106587100D01*
G75*
G02*
X106587100Y-106324200I262900J0D01*
G01*
X107212900Y-106324200D01*
G75*
G02*
X107475800Y-106587100I0J-262900D01*
G01*
X107475800Y-107112900D01*
G75*
G02*
X107212900Y-107375800I-262900J0D01*
G01*
X106587100Y-107375800D01*
G75*
G02*
X106324200Y-107112900I0J262900D01*
G01*
G37*
G36*
G01*
X111312100Y-116074200D02*
X111837900Y-116074200D01*
G75*
G02*
X112100800Y-116337100I0J-262900D01*
G01*
X112100800Y-116962900D01*
G75*
G02*
X111837900Y-117225800I-262900J0D01*
G01*
X111312100Y-117225800D01*
G75*
G02*
X111049200Y-116962900I0J262900D01*
G01*
X111049200Y-116337100D01*
G75*
G02*
X111312100Y-116074200I262900J0D01*
G01*
G37*
G36*
G01*
X111312100Y-117824200D02*
X111837900Y-117824200D01*
G75*
G02*
X112100800Y-118087100I0J-262900D01*
G01*
X112100800Y-118712900D01*
G75*
G02*
X111837900Y-118975800I-262900J0D01*
G01*
X111312100Y-118975800D01*
G75*
G02*
X111049200Y-118712900I0J262900D01*
G01*
X111049200Y-118087100D01*
G75*
G02*
X111312100Y-117824200I262900J0D01*
G01*
G37*
G36*
G01*
X112862900Y-95950800D02*
X112337100Y-95950800D01*
G75*
G02*
X112074200Y-95687900I0J262900D01*
G01*
X112074200Y-95062100D01*
G75*
G02*
X112337100Y-94799200I262900J0D01*
G01*
X112862900Y-94799200D01*
G75*
G02*
X113125800Y-95062100I0J-262900D01*
G01*
X113125800Y-95687900D01*
G75*
G02*
X112862900Y-95950800I-262900J0D01*
G01*
G37*
G36*
G01*
X112862900Y-97700800D02*
X112337100Y-97700800D01*
G75*
G02*
X112074200Y-97437900I0J262900D01*
G01*
X112074200Y-96812100D01*
G75*
G02*
X112337100Y-96549200I262900J0D01*
G01*
X112862900Y-96549200D01*
G75*
G02*
X113125800Y-96812100I0J-262900D01*
G01*
X113125800Y-97437900D01*
G75*
G02*
X112862900Y-97700800I-262900J0D01*
G01*
G37*
M02*
