G04 #@! TF.GenerationSoftware,KiCad,Pcbnew,(5.1.7)-1*
G04 #@! TF.CreationDate,2021-11-01T12:52:46-05:00*
G04 #@! TF.ProjectId,PIC-nixie,5049432d-6e69-4786-9965-2e6b69636164,rev?*
G04 #@! TF.SameCoordinates,Original*
G04 #@! TF.FileFunction,Paste,Top*
G04 #@! TF.FilePolarity,Positive*
%FSLAX46Y46*%
G04 Gerber Fmt 4.6, Leading zero omitted, Abs format (unit mm)*
G04 Created by KiCad (PCBNEW (5.1.7)-1) date 2021-11-01 12:52:46*
%MOMM*%
%LPD*%
G01*
G04 APERTURE LIST*
%ADD10R,1.300000X0.270000*%
%ADD11R,0.927100X0.431800*%
%ADD12R,0.800000X0.300000*%
%ADD13R,0.300000X0.450000*%
%ADD14R,0.800000X1.000000*%
%ADD15R,0.500000X0.800000*%
%ADD16R,0.400000X0.800000*%
%ADD17R,2.100000X1.400000*%
%ADD18R,0.800000X0.500000*%
%ADD19R,0.800000X0.400000*%
G04 APERTURE END LIST*
D10*
X202625000Y-87850000D03*
X202625000Y-87350000D03*
X202625000Y-86850000D03*
X202625000Y-85850000D03*
X202625000Y-86350000D03*
X202625000Y-85350000D03*
X202625000Y-84850000D03*
X202625000Y-84350000D03*
X202625000Y-83850000D03*
X202625000Y-83350000D03*
X202625000Y-82850000D03*
X202625000Y-82350000D03*
X206125000Y-85350000D03*
X206125000Y-85850000D03*
X206125000Y-86350000D03*
X206125000Y-86850000D03*
X206125000Y-87350000D03*
X206125000Y-87850000D03*
X206125000Y-82350000D03*
X206125000Y-82850000D03*
X206125000Y-83350000D03*
X206125000Y-83850000D03*
X206125000Y-84350000D03*
X206125000Y-84850000D03*
D11*
X140789050Y-90800001D03*
X140789050Y-89850000D03*
X140789050Y-88899999D03*
X138210950Y-88899999D03*
X138210950Y-90800001D03*
D12*
X126375000Y-83595000D03*
X126375000Y-84095000D03*
X126375000Y-84595000D03*
X126375000Y-85095000D03*
X123275000Y-85095000D03*
X123275000Y-84595000D03*
X123275000Y-84095000D03*
X123275000Y-83595000D03*
D13*
X130200000Y-87721000D03*
X131200000Y-87721000D03*
X130200000Y-86321000D03*
X130700000Y-87721000D03*
X131200000Y-86321000D03*
D14*
X132615000Y-90839000D03*
X130515000Y-90839000D03*
X130515000Y-89439000D03*
X132615000Y-89439000D03*
G36*
G01*
X132868500Y-86261500D02*
X132393500Y-86261500D01*
G75*
G02*
X132156000Y-86024000I0J237500D01*
G01*
X132156000Y-85524000D01*
G75*
G02*
X132393500Y-85286500I237500J0D01*
G01*
X132868500Y-85286500D01*
G75*
G02*
X133106000Y-85524000I0J-237500D01*
G01*
X133106000Y-86024000D01*
G75*
G02*
X132868500Y-86261500I-237500J0D01*
G01*
G37*
G36*
G01*
X132868500Y-88086500D02*
X132393500Y-88086500D01*
G75*
G02*
X132156000Y-87849000I0J237500D01*
G01*
X132156000Y-87349000D01*
G75*
G02*
X132393500Y-87111500I237500J0D01*
G01*
X132868500Y-87111500D01*
G75*
G02*
X133106000Y-87349000I0J-237500D01*
G01*
X133106000Y-87849000D01*
G75*
G02*
X132868500Y-88086500I-237500J0D01*
G01*
G37*
G36*
G01*
X134392500Y-86261500D02*
X133917500Y-86261500D01*
G75*
G02*
X133680000Y-86024000I0J237500D01*
G01*
X133680000Y-85524000D01*
G75*
G02*
X133917500Y-85286500I237500J0D01*
G01*
X134392500Y-85286500D01*
G75*
G02*
X134630000Y-85524000I0J-237500D01*
G01*
X134630000Y-86024000D01*
G75*
G02*
X134392500Y-86261500I-237500J0D01*
G01*
G37*
G36*
G01*
X134392500Y-88086500D02*
X133917500Y-88086500D01*
G75*
G02*
X133680000Y-87849000I0J237500D01*
G01*
X133680000Y-87349000D01*
G75*
G02*
X133917500Y-87111500I237500J0D01*
G01*
X134392500Y-87111500D01*
G75*
G02*
X134630000Y-87349000I0J-237500D01*
G01*
X134630000Y-87849000D01*
G75*
G02*
X134392500Y-88086500I-237500J0D01*
G01*
G37*
G36*
G01*
X126618000Y-86143500D02*
X126618000Y-86618500D01*
G75*
G02*
X126380500Y-86856000I-237500J0D01*
G01*
X125805500Y-86856000D01*
G75*
G02*
X125568000Y-86618500I0J237500D01*
G01*
X125568000Y-86143500D01*
G75*
G02*
X125805500Y-85906000I237500J0D01*
G01*
X126380500Y-85906000D01*
G75*
G02*
X126618000Y-86143500I0J-237500D01*
G01*
G37*
G36*
G01*
X124868000Y-86143500D02*
X124868000Y-86618500D01*
G75*
G02*
X124630500Y-86856000I-237500J0D01*
G01*
X124055500Y-86856000D01*
G75*
G02*
X123818000Y-86618500I0J237500D01*
G01*
X123818000Y-86143500D01*
G75*
G02*
X124055500Y-85906000I237500J0D01*
G01*
X124630500Y-85906000D01*
G75*
G02*
X124868000Y-86143500I0J-237500D01*
G01*
G37*
G36*
G01*
X134392500Y-89648000D02*
X133917500Y-89648000D01*
G75*
G02*
X133680000Y-89410500I0J237500D01*
G01*
X133680000Y-88835500D01*
G75*
G02*
X133917500Y-88598000I237500J0D01*
G01*
X134392500Y-88598000D01*
G75*
G02*
X134630000Y-88835500I0J-237500D01*
G01*
X134630000Y-89410500D01*
G75*
G02*
X134392500Y-89648000I-237500J0D01*
G01*
G37*
G36*
G01*
X134392500Y-91398000D02*
X133917500Y-91398000D01*
G75*
G02*
X133680000Y-91160500I0J237500D01*
G01*
X133680000Y-90585500D01*
G75*
G02*
X133917500Y-90348000I237500J0D01*
G01*
X134392500Y-90348000D01*
G75*
G02*
X134630000Y-90585500I0J-237500D01*
G01*
X134630000Y-91160500D01*
G75*
G02*
X134392500Y-91398000I-237500J0D01*
G01*
G37*
G36*
G01*
X130582000Y-85296500D02*
X130582000Y-84821500D01*
G75*
G02*
X130819500Y-84584000I237500J0D01*
G01*
X131394500Y-84584000D01*
G75*
G02*
X131632000Y-84821500I0J-237500D01*
G01*
X131632000Y-85296500D01*
G75*
G02*
X131394500Y-85534000I-237500J0D01*
G01*
X130819500Y-85534000D01*
G75*
G02*
X130582000Y-85296500I0J237500D01*
G01*
G37*
G36*
G01*
X128832000Y-85296500D02*
X128832000Y-84821500D01*
G75*
G02*
X129069500Y-84584000I237500J0D01*
G01*
X129644500Y-84584000D01*
G75*
G02*
X129882000Y-84821500I0J-237500D01*
G01*
X129882000Y-85296500D01*
G75*
G02*
X129644500Y-85534000I-237500J0D01*
G01*
X129069500Y-85534000D01*
G75*
G02*
X128832000Y-85296500I0J237500D01*
G01*
G37*
G36*
G01*
X129058500Y-89422000D02*
X128583500Y-89422000D01*
G75*
G02*
X128346000Y-89184500I0J237500D01*
G01*
X128346000Y-88609500D01*
G75*
G02*
X128583500Y-88372000I237500J0D01*
G01*
X129058500Y-88372000D01*
G75*
G02*
X129296000Y-88609500I0J-237500D01*
G01*
X129296000Y-89184500D01*
G75*
G02*
X129058500Y-89422000I-237500J0D01*
G01*
G37*
G36*
G01*
X129058500Y-91172000D02*
X128583500Y-91172000D01*
G75*
G02*
X128346000Y-90934500I0J237500D01*
G01*
X128346000Y-90359500D01*
G75*
G02*
X128583500Y-90122000I237500J0D01*
G01*
X129058500Y-90122000D01*
G75*
G02*
X129296000Y-90359500I0J-237500D01*
G01*
X129296000Y-90934500D01*
G75*
G02*
X129058500Y-91172000I-237500J0D01*
G01*
G37*
D15*
X164122000Y-75322000D03*
D16*
X164922000Y-75322000D03*
D15*
X166522000Y-75322000D03*
D16*
X165722000Y-75322000D03*
D15*
X164122000Y-77122000D03*
D16*
X165722000Y-77122000D03*
X164922000Y-77122000D03*
D15*
X166522000Y-77122000D03*
G36*
G01*
X119485000Y-84538000D02*
X119785000Y-84538000D01*
G75*
G02*
X119935000Y-84688000I0J-150000D01*
G01*
X119935000Y-86338000D01*
G75*
G02*
X119785000Y-86488000I-150000J0D01*
G01*
X119485000Y-86488000D01*
G75*
G02*
X119335000Y-86338000I0J150000D01*
G01*
X119335000Y-84688000D01*
G75*
G02*
X119485000Y-84538000I150000J0D01*
G01*
G37*
G36*
G01*
X118215000Y-84538000D02*
X118515000Y-84538000D01*
G75*
G02*
X118665000Y-84688000I0J-150000D01*
G01*
X118665000Y-86338000D01*
G75*
G02*
X118515000Y-86488000I-150000J0D01*
G01*
X118215000Y-86488000D01*
G75*
G02*
X118065000Y-86338000I0J150000D01*
G01*
X118065000Y-84688000D01*
G75*
G02*
X118215000Y-84538000I150000J0D01*
G01*
G37*
G36*
G01*
X116945000Y-84538000D02*
X117245000Y-84538000D01*
G75*
G02*
X117395000Y-84688000I0J-150000D01*
G01*
X117395000Y-86338000D01*
G75*
G02*
X117245000Y-86488000I-150000J0D01*
G01*
X116945000Y-86488000D01*
G75*
G02*
X116795000Y-86338000I0J150000D01*
G01*
X116795000Y-84688000D01*
G75*
G02*
X116945000Y-84538000I150000J0D01*
G01*
G37*
G36*
G01*
X115675000Y-84538000D02*
X115975000Y-84538000D01*
G75*
G02*
X116125000Y-84688000I0J-150000D01*
G01*
X116125000Y-86338000D01*
G75*
G02*
X115975000Y-86488000I-150000J0D01*
G01*
X115675000Y-86488000D01*
G75*
G02*
X115525000Y-86338000I0J150000D01*
G01*
X115525000Y-84688000D01*
G75*
G02*
X115675000Y-84538000I150000J0D01*
G01*
G37*
G36*
G01*
X114405000Y-84538000D02*
X114705000Y-84538000D01*
G75*
G02*
X114855000Y-84688000I0J-150000D01*
G01*
X114855000Y-86338000D01*
G75*
G02*
X114705000Y-86488000I-150000J0D01*
G01*
X114405000Y-86488000D01*
G75*
G02*
X114255000Y-86338000I0J150000D01*
G01*
X114255000Y-84688000D01*
G75*
G02*
X114405000Y-84538000I150000J0D01*
G01*
G37*
G36*
G01*
X113135000Y-84538000D02*
X113435000Y-84538000D01*
G75*
G02*
X113585000Y-84688000I0J-150000D01*
G01*
X113585000Y-86338000D01*
G75*
G02*
X113435000Y-86488000I-150000J0D01*
G01*
X113135000Y-86488000D01*
G75*
G02*
X112985000Y-86338000I0J150000D01*
G01*
X112985000Y-84688000D01*
G75*
G02*
X113135000Y-84538000I150000J0D01*
G01*
G37*
G36*
G01*
X111865000Y-84538000D02*
X112165000Y-84538000D01*
G75*
G02*
X112315000Y-84688000I0J-150000D01*
G01*
X112315000Y-86338000D01*
G75*
G02*
X112165000Y-86488000I-150000J0D01*
G01*
X111865000Y-86488000D01*
G75*
G02*
X111715000Y-86338000I0J150000D01*
G01*
X111715000Y-84688000D01*
G75*
G02*
X111865000Y-84538000I150000J0D01*
G01*
G37*
G36*
G01*
X111865000Y-89488000D02*
X112165000Y-89488000D01*
G75*
G02*
X112315000Y-89638000I0J-150000D01*
G01*
X112315000Y-91288000D01*
G75*
G02*
X112165000Y-91438000I-150000J0D01*
G01*
X111865000Y-91438000D01*
G75*
G02*
X111715000Y-91288000I0J150000D01*
G01*
X111715000Y-89638000D01*
G75*
G02*
X111865000Y-89488000I150000J0D01*
G01*
G37*
G36*
G01*
X113135000Y-89488000D02*
X113435000Y-89488000D01*
G75*
G02*
X113585000Y-89638000I0J-150000D01*
G01*
X113585000Y-91288000D01*
G75*
G02*
X113435000Y-91438000I-150000J0D01*
G01*
X113135000Y-91438000D01*
G75*
G02*
X112985000Y-91288000I0J150000D01*
G01*
X112985000Y-89638000D01*
G75*
G02*
X113135000Y-89488000I150000J0D01*
G01*
G37*
G36*
G01*
X114405000Y-89488000D02*
X114705000Y-89488000D01*
G75*
G02*
X114855000Y-89638000I0J-150000D01*
G01*
X114855000Y-91288000D01*
G75*
G02*
X114705000Y-91438000I-150000J0D01*
G01*
X114405000Y-91438000D01*
G75*
G02*
X114255000Y-91288000I0J150000D01*
G01*
X114255000Y-89638000D01*
G75*
G02*
X114405000Y-89488000I150000J0D01*
G01*
G37*
G36*
G01*
X115675000Y-89488000D02*
X115975000Y-89488000D01*
G75*
G02*
X116125000Y-89638000I0J-150000D01*
G01*
X116125000Y-91288000D01*
G75*
G02*
X115975000Y-91438000I-150000J0D01*
G01*
X115675000Y-91438000D01*
G75*
G02*
X115525000Y-91288000I0J150000D01*
G01*
X115525000Y-89638000D01*
G75*
G02*
X115675000Y-89488000I150000J0D01*
G01*
G37*
G36*
G01*
X116945000Y-89488000D02*
X117245000Y-89488000D01*
G75*
G02*
X117395000Y-89638000I0J-150000D01*
G01*
X117395000Y-91288000D01*
G75*
G02*
X117245000Y-91438000I-150000J0D01*
G01*
X116945000Y-91438000D01*
G75*
G02*
X116795000Y-91288000I0J150000D01*
G01*
X116795000Y-89638000D01*
G75*
G02*
X116945000Y-89488000I150000J0D01*
G01*
G37*
G36*
G01*
X118215000Y-89488000D02*
X118515000Y-89488000D01*
G75*
G02*
X118665000Y-89638000I0J-150000D01*
G01*
X118665000Y-91288000D01*
G75*
G02*
X118515000Y-91438000I-150000J0D01*
G01*
X118215000Y-91438000D01*
G75*
G02*
X118065000Y-91288000I0J150000D01*
G01*
X118065000Y-89638000D01*
G75*
G02*
X118215000Y-89488000I150000J0D01*
G01*
G37*
G36*
G01*
X119485000Y-89488000D02*
X119785000Y-89488000D01*
G75*
G02*
X119935000Y-89638000I0J-150000D01*
G01*
X119935000Y-91288000D01*
G75*
G02*
X119785000Y-91438000I-150000J0D01*
G01*
X119485000Y-91438000D01*
G75*
G02*
X119335000Y-91288000I0J150000D01*
G01*
X119335000Y-89638000D01*
G75*
G02*
X119485000Y-89488000I150000J0D01*
G01*
G37*
D17*
X177676000Y-84452000D03*
X168576000Y-84452000D03*
X177676000Y-79952000D03*
X168576000Y-79952000D03*
X164192000Y-84452000D03*
X155092000Y-84452000D03*
X164192000Y-79952000D03*
X155092000Y-79952000D03*
X150752000Y-84452000D03*
X141652000Y-84452000D03*
X150752000Y-79952000D03*
X141652000Y-79952000D03*
D18*
X174074000Y-94210000D03*
D19*
X174074000Y-95010000D03*
D18*
X174074000Y-96610000D03*
D19*
X174074000Y-95810000D03*
D18*
X175874000Y-94210000D03*
D19*
X175874000Y-95810000D03*
X175874000Y-95010000D03*
D18*
X175874000Y-96610000D03*
X137225000Y-98950000D03*
X137225000Y-97950000D03*
X139025000Y-97950000D03*
X139025000Y-98950000D03*
D15*
X156175000Y-75150000D03*
D16*
X155375000Y-75150000D03*
D15*
X153775000Y-75150000D03*
D16*
X154575000Y-75150000D03*
D15*
X156175000Y-76950000D03*
D16*
X154575000Y-76950000D03*
X155375000Y-76950000D03*
D15*
X153775000Y-76950000D03*
G36*
G01*
X136862500Y-91300000D02*
X136387500Y-91300000D01*
G75*
G02*
X136150000Y-91062500I0J237500D01*
G01*
X136150000Y-90487500D01*
G75*
G02*
X136387500Y-90250000I237500J0D01*
G01*
X136862500Y-90250000D01*
G75*
G02*
X137100000Y-90487500I0J-237500D01*
G01*
X137100000Y-91062500D01*
G75*
G02*
X136862500Y-91300000I-237500J0D01*
G01*
G37*
G36*
G01*
X136862500Y-89550000D02*
X136387500Y-89550000D01*
G75*
G02*
X136150000Y-89312500I0J237500D01*
G01*
X136150000Y-88737500D01*
G75*
G02*
X136387500Y-88500000I237500J0D01*
G01*
X136862500Y-88500000D01*
G75*
G02*
X137100000Y-88737500I0J-237500D01*
G01*
X137100000Y-89312500D01*
G75*
G02*
X136862500Y-89550000I-237500J0D01*
G01*
G37*
G36*
G01*
X141025000Y-87062500D02*
X141025000Y-87537500D01*
G75*
G02*
X140787500Y-87775000I-237500J0D01*
G01*
X140212500Y-87775000D01*
G75*
G02*
X139975000Y-87537500I0J237500D01*
G01*
X139975000Y-87062500D01*
G75*
G02*
X140212500Y-86825000I237500J0D01*
G01*
X140787500Y-86825000D01*
G75*
G02*
X141025000Y-87062500I0J-237500D01*
G01*
G37*
G36*
G01*
X139275000Y-87062500D02*
X139275000Y-87537500D01*
G75*
G02*
X139037500Y-87775000I-237500J0D01*
G01*
X138462500Y-87775000D01*
G75*
G02*
X138225000Y-87537500I0J237500D01*
G01*
X138225000Y-87062500D01*
G75*
G02*
X138462500Y-86825000I237500J0D01*
G01*
X139037500Y-86825000D01*
G75*
G02*
X139275000Y-87062500I0J-237500D01*
G01*
G37*
M02*
