M48
; DRILL file {KiCad (5.1.7)-1} date 11/01/21 12:53:26
; FORMAT={-:-/ absolute / metric / decimal}
; #@! TF.CreationDate,2021-11-01T12:53:26-05:00
; #@! TF.GenerationSoftware,Kicad,Pcbnew,(5.1.7)-1
; #@! TF.FileFunction,Plated,1,2,PTH
FMAT,2
METRIC
T1C0.200
T2C0.330
T3C0.800
T4C1.000
T5C1.092
%
G90
G05
T1
X112.0Y-87.025
X112.65Y-90.36
X114.55Y-89.075
X115.825Y-86.95
X116.304Y-84.01
X116.46Y-90.36
X117.461Y-86.937
X118.35Y-89.0
X119.625Y-88.925
X119.65Y-87.0
X120.6Y-88.5
X122.067Y-84.089
X122.167Y-84.889
X122.2Y-92.8
X122.267Y-85.589
X122.3Y-83.289
X122.767Y-86.089
X122.967Y-82.989
X123.267Y-86.589
X123.767Y-82.989
X123.767Y-87.089
X124.15Y-85.2
X124.567Y-87.389
X124.8Y-82.989
X125.267Y-87.589
X126.2Y-87.7
X126.367Y-82.889
X126.75Y-85.75
X127.0Y-88.25
X127.1Y-83.1
X127.567Y-83.889
X127.567Y-84.589
X127.567Y-85.289
X127.805Y-88.361
X127.805Y-89.123
X127.805Y-89.885
X127.805Y-90.647
X127.805Y-91.409
X128.059Y-87.599
X128.313Y-84.551
X128.313Y-85.313
X128.313Y-86.075
X128.567Y-83.789
X128.821Y-91.917
X129.065Y-85.895
X129.288Y-83.8
X129.583Y-91.917
X130.091Y-83.789
X130.345Y-91.917
X130.853Y-83.789
X131.107Y-91.917
X131.615Y-83.789
X131.869Y-91.917
X132.267Y-84.189
X132.631Y-91.917
X132.967Y-84.789
X133.393Y-88.361
X133.393Y-91.917
X133.901Y-84.805
X134.155Y-91.917
X134.663Y-84.805
X135.171Y-85.567
X135.171Y-86.329
X135.171Y-87.091
X135.171Y-87.853
X135.171Y-88.615
X135.171Y-89.377
X135.171Y-90.139
X135.171Y-91.409
X135.442Y-78.454
X135.994Y-76.313
X136.47Y-78.87
X137.795Y-82.716
X138.701Y-82.313
X139.085Y-81.233
X140.354Y-77.982
X144.976Y-76.987
X146.544Y-78.87
X148.214Y-76.987
X151.053Y-77.982
X160.934Y-79.408
X165.212Y-82.716
X166.233Y-81.695
X166.268Y-79.154
X170.586Y-79.408
X174.65Y-78.392
X184.556Y-84.488
T2
X120.5Y-100.7
X123.0Y-100.7
X126.9Y-77.5
X127.9Y-83.0
X128.0Y-96.4
X129.6Y-98.8
X130.4Y-97.1
X131.4Y-100.1
X134.7Y-96.4
X135.0Y-94.8
X137.0Y-102.4
X139.8Y-81.8
X140.3Y-98.5
X140.4Y-94.0
X145.3Y-95.5
X151.536Y-89.822
X151.6Y-87.2
X152.4Y-92.1
X153.8Y-90.6
X158.648Y-88.298
X162.966Y-102.522
X163.982Y-88.298
X168.554Y-88.298
X174.142Y-88.298
X176.428Y-92.616
X179.0Y-97.8
X190.8Y-88.2
X200.95Y-87.175
X201.05Y-83.775
T3
X156.108Y-91.092
X158.648Y-91.092
X161.188Y-91.092
X163.728Y-91.092
X166.268Y-91.092
X168.808Y-91.092
X171.348Y-91.092
X173.888Y-91.092
X112.455Y-73.2
X112.455Y-80.82
X114.995Y-73.2
X114.995Y-80.82
X117.535Y-73.2
X117.535Y-80.82
X120.075Y-73.2
X120.075Y-80.82
X122.615Y-73.2
X122.615Y-80.82
X125.155Y-73.2
X125.155Y-80.82
X127.695Y-73.2
X127.695Y-80.82
X130.235Y-73.2
X130.235Y-80.82
X132.775Y-73.2
X132.775Y-80.82
X114.02Y-94.775
X114.02Y-102.395
X116.56Y-94.775
X116.56Y-102.395
X119.1Y-94.775
X119.1Y-102.395
X121.64Y-94.775
X121.64Y-102.395
X124.18Y-94.775
X124.18Y-102.395
X126.72Y-94.775
X126.72Y-102.395
X129.26Y-94.775
X129.26Y-102.395
X131.8Y-94.775
X131.8Y-102.395
T4
X148.57Y-97.92
X148.57Y-100.46
X151.11Y-97.92
X151.11Y-100.46
X153.65Y-97.92
X153.65Y-100.46
X156.19Y-97.92
X156.19Y-100.46
X158.73Y-97.92
X158.73Y-100.46
X161.27Y-97.92
X161.27Y-100.46
X163.81Y-97.92
X163.81Y-100.46
X166.35Y-97.92
X166.35Y-100.46
X168.89Y-97.92
X168.89Y-100.46
X171.43Y-97.92
X171.43Y-100.46
X184.556Y-91.854
X189.636Y-76.614
X197.256Y-76.614
X197.256Y-91.854
T5
X184.08Y-98.966
X201.58Y-98.966
T3
X202.905Y-80.75G85X202.905Y-81.25
G05
X202.905Y-88.95G85X202.905Y-89.45
G05
X205.845Y-80.75G85X205.845Y-81.25
G05
X205.845Y-88.95G85X205.845Y-89.45
G05
T0
M30
