G04 #@! TF.GenerationSoftware,KiCad,Pcbnew,(5.1.7)-1*
G04 #@! TF.CreationDate,2021-11-01T12:52:46-05:00*
G04 #@! TF.ProjectId,PIC-nixie,5049432d-6e69-4786-9965-2e6b69636164,rev?*
G04 #@! TF.SameCoordinates,Original*
G04 #@! TF.FileFunction,Copper,L1,Top*
G04 #@! TF.FilePolarity,Positive*
%FSLAX46Y46*%
G04 Gerber Fmt 4.6, Leading zero omitted, Abs format (unit mm)*
G04 Created by KiCad (PCBNEW (5.1.7)-1) date 2021-11-01 12:52:46*
%MOMM*%
%LPD*%
G01*
G04 APERTURE LIST*
G04 #@! TA.AperFunction,SMDPad,CuDef*
%ADD10R,1.300000X0.270000*%
G04 #@! TD*
G04 #@! TA.AperFunction,ComponentPad*
%ADD11O,1.000000X2.000000*%
G04 #@! TD*
G04 #@! TA.AperFunction,ComponentPad*
%ADD12O,1.600000X1.600000*%
G04 #@! TD*
G04 #@! TA.AperFunction,ComponentPad*
%ADD13R,1.600000X1.600000*%
G04 #@! TD*
G04 #@! TA.AperFunction,ComponentPad*
%ADD14C,1.700000*%
G04 #@! TD*
G04 #@! TA.AperFunction,SMDPad,CuDef*
%ADD15R,0.927100X0.431800*%
G04 #@! TD*
G04 #@! TA.AperFunction,SMDPad,CuDef*
%ADD16R,0.800000X0.300000*%
G04 #@! TD*
G04 #@! TA.AperFunction,SMDPad,CuDef*
%ADD17R,0.300000X0.450000*%
G04 #@! TD*
G04 #@! TA.AperFunction,SMDPad,CuDef*
%ADD18R,0.800000X1.000000*%
G04 #@! TD*
G04 #@! TA.AperFunction,SMDPad,CuDef*
%ADD19R,0.500000X0.800000*%
G04 #@! TD*
G04 #@! TA.AperFunction,SMDPad,CuDef*
%ADD20R,0.400000X0.800000*%
G04 #@! TD*
G04 #@! TA.AperFunction,ComponentPad*
%ADD21C,1.600200*%
G04 #@! TD*
G04 #@! TA.AperFunction,ComponentPad*
%ADD22R,1.600200X1.600200*%
G04 #@! TD*
G04 #@! TA.AperFunction,SMDPad,CuDef*
%ADD23R,2.100000X1.400000*%
G04 #@! TD*
G04 #@! TA.AperFunction,SMDPad,CuDef*
%ADD24R,0.800000X0.500000*%
G04 #@! TD*
G04 #@! TA.AperFunction,SMDPad,CuDef*
%ADD25R,0.800000X0.400000*%
G04 #@! TD*
G04 #@! TA.AperFunction,ComponentPad*
%ADD26C,1.800000*%
G04 #@! TD*
G04 #@! TA.AperFunction,ViaPad*
%ADD27C,0.400000*%
G04 #@! TD*
G04 #@! TA.AperFunction,ViaPad*
%ADD28C,0.700000*%
G04 #@! TD*
G04 #@! TA.AperFunction,Conductor*
%ADD29C,0.300000*%
G04 #@! TD*
G04 #@! TA.AperFunction,Conductor*
%ADD30C,0.150000*%
G04 #@! TD*
G04 #@! TA.AperFunction,Conductor*
%ADD31C,0.750000*%
G04 #@! TD*
G04 APERTURE END LIST*
D10*
X202625000Y-87850000D03*
X202625000Y-87350000D03*
X202625000Y-86850000D03*
X202625000Y-85850000D03*
X202625000Y-86350000D03*
X202625000Y-85350000D03*
X202625000Y-84850000D03*
X202625000Y-84350000D03*
X202625000Y-83850000D03*
X202625000Y-83350000D03*
X202625000Y-82850000D03*
X202625000Y-82350000D03*
X206125000Y-85350000D03*
X206125000Y-85850000D03*
X206125000Y-86350000D03*
X206125000Y-86850000D03*
X206125000Y-87350000D03*
X206125000Y-87850000D03*
X206125000Y-82350000D03*
X206125000Y-82850000D03*
X206125000Y-83350000D03*
X206125000Y-83850000D03*
X206125000Y-84350000D03*
X206125000Y-84850000D03*
D11*
X202905000Y-89200000D03*
X202905000Y-81000000D03*
X205845000Y-89200000D03*
X205845000Y-81000000D03*
D12*
X131800000Y-102395000D03*
X114020000Y-94775000D03*
X129260000Y-102395000D03*
X116560000Y-94775000D03*
X126720000Y-102395000D03*
X119100000Y-94775000D03*
X124180000Y-102395000D03*
X121640000Y-94775000D03*
X121640000Y-102395000D03*
X124180000Y-94775000D03*
X119100000Y-102395000D03*
X126720000Y-94775000D03*
X116560000Y-102395000D03*
X129260000Y-94775000D03*
X114020000Y-102395000D03*
D13*
X131800000Y-94775000D03*
G04 #@! TA.AperFunction,ComponentPad*
G36*
G01*
X172030000Y-101310000D02*
X170830000Y-101310000D01*
G75*
G02*
X170580000Y-101060000I0J250000D01*
G01*
X170580000Y-99860000D01*
G75*
G02*
X170830000Y-99610000I250000J0D01*
G01*
X172030000Y-99610000D01*
G75*
G02*
X172280000Y-99860000I0J-250000D01*
G01*
X172280000Y-101060000D01*
G75*
G02*
X172030000Y-101310000I-250000J0D01*
G01*
G37*
G04 #@! TD.AperFunction*
D14*
X168890000Y-100460000D03*
X166350000Y-100460000D03*
X163810000Y-100460000D03*
X161270000Y-100460000D03*
X158730000Y-100460000D03*
X156190000Y-100460000D03*
X153650000Y-100460000D03*
X151110000Y-100460000D03*
X148570000Y-100460000D03*
X171430000Y-97920000D03*
X168890000Y-97920000D03*
X166350000Y-97920000D03*
X163810000Y-97920000D03*
X161270000Y-97920000D03*
X158730000Y-97920000D03*
X156190000Y-97920000D03*
X153650000Y-97920000D03*
X151110000Y-97920000D03*
X148570000Y-97920000D03*
D15*
X140789050Y-90800001D03*
X140789050Y-89850000D03*
X140789050Y-88899999D03*
X138210950Y-88899999D03*
X138210950Y-90800001D03*
D16*
X126375000Y-83595000D03*
X126375000Y-84095000D03*
X126375000Y-84595000D03*
X126375000Y-85095000D03*
X123275000Y-85095000D03*
X123275000Y-84595000D03*
X123275000Y-84095000D03*
X123275000Y-83595000D03*
D17*
X130200000Y-87721000D03*
X131200000Y-87721000D03*
X130200000Y-86321000D03*
X130700000Y-87721000D03*
X131200000Y-86321000D03*
D18*
X132615000Y-90839000D03*
X130515000Y-90839000D03*
X130515000Y-89439000D03*
X132615000Y-89439000D03*
G04 #@! TA.AperFunction,SMDPad,CuDef*
G36*
G01*
X132868500Y-86261500D02*
X132393500Y-86261500D01*
G75*
G02*
X132156000Y-86024000I0J237500D01*
G01*
X132156000Y-85524000D01*
G75*
G02*
X132393500Y-85286500I237500J0D01*
G01*
X132868500Y-85286500D01*
G75*
G02*
X133106000Y-85524000I0J-237500D01*
G01*
X133106000Y-86024000D01*
G75*
G02*
X132868500Y-86261500I-237500J0D01*
G01*
G37*
G04 #@! TD.AperFunction*
G04 #@! TA.AperFunction,SMDPad,CuDef*
G36*
G01*
X132868500Y-88086500D02*
X132393500Y-88086500D01*
G75*
G02*
X132156000Y-87849000I0J237500D01*
G01*
X132156000Y-87349000D01*
G75*
G02*
X132393500Y-87111500I237500J0D01*
G01*
X132868500Y-87111500D01*
G75*
G02*
X133106000Y-87349000I0J-237500D01*
G01*
X133106000Y-87849000D01*
G75*
G02*
X132868500Y-88086500I-237500J0D01*
G01*
G37*
G04 #@! TD.AperFunction*
G04 #@! TA.AperFunction,SMDPad,CuDef*
G36*
G01*
X134392500Y-86261500D02*
X133917500Y-86261500D01*
G75*
G02*
X133680000Y-86024000I0J237500D01*
G01*
X133680000Y-85524000D01*
G75*
G02*
X133917500Y-85286500I237500J0D01*
G01*
X134392500Y-85286500D01*
G75*
G02*
X134630000Y-85524000I0J-237500D01*
G01*
X134630000Y-86024000D01*
G75*
G02*
X134392500Y-86261500I-237500J0D01*
G01*
G37*
G04 #@! TD.AperFunction*
G04 #@! TA.AperFunction,SMDPad,CuDef*
G36*
G01*
X134392500Y-88086500D02*
X133917500Y-88086500D01*
G75*
G02*
X133680000Y-87849000I0J237500D01*
G01*
X133680000Y-87349000D01*
G75*
G02*
X133917500Y-87111500I237500J0D01*
G01*
X134392500Y-87111500D01*
G75*
G02*
X134630000Y-87349000I0J-237500D01*
G01*
X134630000Y-87849000D01*
G75*
G02*
X134392500Y-88086500I-237500J0D01*
G01*
G37*
G04 #@! TD.AperFunction*
G04 #@! TA.AperFunction,SMDPad,CuDef*
G36*
G01*
X126618000Y-86143500D02*
X126618000Y-86618500D01*
G75*
G02*
X126380500Y-86856000I-237500J0D01*
G01*
X125805500Y-86856000D01*
G75*
G02*
X125568000Y-86618500I0J237500D01*
G01*
X125568000Y-86143500D01*
G75*
G02*
X125805500Y-85906000I237500J0D01*
G01*
X126380500Y-85906000D01*
G75*
G02*
X126618000Y-86143500I0J-237500D01*
G01*
G37*
G04 #@! TD.AperFunction*
G04 #@! TA.AperFunction,SMDPad,CuDef*
G36*
G01*
X124868000Y-86143500D02*
X124868000Y-86618500D01*
G75*
G02*
X124630500Y-86856000I-237500J0D01*
G01*
X124055500Y-86856000D01*
G75*
G02*
X123818000Y-86618500I0J237500D01*
G01*
X123818000Y-86143500D01*
G75*
G02*
X124055500Y-85906000I237500J0D01*
G01*
X124630500Y-85906000D01*
G75*
G02*
X124868000Y-86143500I0J-237500D01*
G01*
G37*
G04 #@! TD.AperFunction*
G04 #@! TA.AperFunction,SMDPad,CuDef*
G36*
G01*
X134392500Y-89648000D02*
X133917500Y-89648000D01*
G75*
G02*
X133680000Y-89410500I0J237500D01*
G01*
X133680000Y-88835500D01*
G75*
G02*
X133917500Y-88598000I237500J0D01*
G01*
X134392500Y-88598000D01*
G75*
G02*
X134630000Y-88835500I0J-237500D01*
G01*
X134630000Y-89410500D01*
G75*
G02*
X134392500Y-89648000I-237500J0D01*
G01*
G37*
G04 #@! TD.AperFunction*
G04 #@! TA.AperFunction,SMDPad,CuDef*
G36*
G01*
X134392500Y-91398000D02*
X133917500Y-91398000D01*
G75*
G02*
X133680000Y-91160500I0J237500D01*
G01*
X133680000Y-90585500D01*
G75*
G02*
X133917500Y-90348000I237500J0D01*
G01*
X134392500Y-90348000D01*
G75*
G02*
X134630000Y-90585500I0J-237500D01*
G01*
X134630000Y-91160500D01*
G75*
G02*
X134392500Y-91398000I-237500J0D01*
G01*
G37*
G04 #@! TD.AperFunction*
G04 #@! TA.AperFunction,SMDPad,CuDef*
G36*
G01*
X130582000Y-85296500D02*
X130582000Y-84821500D01*
G75*
G02*
X130819500Y-84584000I237500J0D01*
G01*
X131394500Y-84584000D01*
G75*
G02*
X131632000Y-84821500I0J-237500D01*
G01*
X131632000Y-85296500D01*
G75*
G02*
X131394500Y-85534000I-237500J0D01*
G01*
X130819500Y-85534000D01*
G75*
G02*
X130582000Y-85296500I0J237500D01*
G01*
G37*
G04 #@! TD.AperFunction*
G04 #@! TA.AperFunction,SMDPad,CuDef*
G36*
G01*
X128832000Y-85296500D02*
X128832000Y-84821500D01*
G75*
G02*
X129069500Y-84584000I237500J0D01*
G01*
X129644500Y-84584000D01*
G75*
G02*
X129882000Y-84821500I0J-237500D01*
G01*
X129882000Y-85296500D01*
G75*
G02*
X129644500Y-85534000I-237500J0D01*
G01*
X129069500Y-85534000D01*
G75*
G02*
X128832000Y-85296500I0J237500D01*
G01*
G37*
G04 #@! TD.AperFunction*
G04 #@! TA.AperFunction,SMDPad,CuDef*
G36*
G01*
X129058500Y-89422000D02*
X128583500Y-89422000D01*
G75*
G02*
X128346000Y-89184500I0J237500D01*
G01*
X128346000Y-88609500D01*
G75*
G02*
X128583500Y-88372000I237500J0D01*
G01*
X129058500Y-88372000D01*
G75*
G02*
X129296000Y-88609500I0J-237500D01*
G01*
X129296000Y-89184500D01*
G75*
G02*
X129058500Y-89422000I-237500J0D01*
G01*
G37*
G04 #@! TD.AperFunction*
G04 #@! TA.AperFunction,SMDPad,CuDef*
G36*
G01*
X129058500Y-91172000D02*
X128583500Y-91172000D01*
G75*
G02*
X128346000Y-90934500I0J237500D01*
G01*
X128346000Y-90359500D01*
G75*
G02*
X128583500Y-90122000I237500J0D01*
G01*
X129058500Y-90122000D01*
G75*
G02*
X129296000Y-90359500I0J-237500D01*
G01*
X129296000Y-90934500D01*
G75*
G02*
X129058500Y-91172000I-237500J0D01*
G01*
G37*
G04 #@! TD.AperFunction*
D19*
X164122000Y-75322000D03*
D20*
X164922000Y-75322000D03*
D19*
X166522000Y-75322000D03*
D20*
X165722000Y-75322000D03*
D19*
X164122000Y-77122000D03*
D20*
X165722000Y-77122000D03*
X164922000Y-77122000D03*
D19*
X166522000Y-77122000D03*
D21*
X184080000Y-98966000D03*
D22*
X201580000Y-98966000D03*
G04 #@! TA.AperFunction,SMDPad,CuDef*
G36*
G01*
X119485000Y-84538000D02*
X119785000Y-84538000D01*
G75*
G02*
X119935000Y-84688000I0J-150000D01*
G01*
X119935000Y-86338000D01*
G75*
G02*
X119785000Y-86488000I-150000J0D01*
G01*
X119485000Y-86488000D01*
G75*
G02*
X119335000Y-86338000I0J150000D01*
G01*
X119335000Y-84688000D01*
G75*
G02*
X119485000Y-84538000I150000J0D01*
G01*
G37*
G04 #@! TD.AperFunction*
G04 #@! TA.AperFunction,SMDPad,CuDef*
G36*
G01*
X118215000Y-84538000D02*
X118515000Y-84538000D01*
G75*
G02*
X118665000Y-84688000I0J-150000D01*
G01*
X118665000Y-86338000D01*
G75*
G02*
X118515000Y-86488000I-150000J0D01*
G01*
X118215000Y-86488000D01*
G75*
G02*
X118065000Y-86338000I0J150000D01*
G01*
X118065000Y-84688000D01*
G75*
G02*
X118215000Y-84538000I150000J0D01*
G01*
G37*
G04 #@! TD.AperFunction*
G04 #@! TA.AperFunction,SMDPad,CuDef*
G36*
G01*
X116945000Y-84538000D02*
X117245000Y-84538000D01*
G75*
G02*
X117395000Y-84688000I0J-150000D01*
G01*
X117395000Y-86338000D01*
G75*
G02*
X117245000Y-86488000I-150000J0D01*
G01*
X116945000Y-86488000D01*
G75*
G02*
X116795000Y-86338000I0J150000D01*
G01*
X116795000Y-84688000D01*
G75*
G02*
X116945000Y-84538000I150000J0D01*
G01*
G37*
G04 #@! TD.AperFunction*
G04 #@! TA.AperFunction,SMDPad,CuDef*
G36*
G01*
X115675000Y-84538000D02*
X115975000Y-84538000D01*
G75*
G02*
X116125000Y-84688000I0J-150000D01*
G01*
X116125000Y-86338000D01*
G75*
G02*
X115975000Y-86488000I-150000J0D01*
G01*
X115675000Y-86488000D01*
G75*
G02*
X115525000Y-86338000I0J150000D01*
G01*
X115525000Y-84688000D01*
G75*
G02*
X115675000Y-84538000I150000J0D01*
G01*
G37*
G04 #@! TD.AperFunction*
G04 #@! TA.AperFunction,SMDPad,CuDef*
G36*
G01*
X114405000Y-84538000D02*
X114705000Y-84538000D01*
G75*
G02*
X114855000Y-84688000I0J-150000D01*
G01*
X114855000Y-86338000D01*
G75*
G02*
X114705000Y-86488000I-150000J0D01*
G01*
X114405000Y-86488000D01*
G75*
G02*
X114255000Y-86338000I0J150000D01*
G01*
X114255000Y-84688000D01*
G75*
G02*
X114405000Y-84538000I150000J0D01*
G01*
G37*
G04 #@! TD.AperFunction*
G04 #@! TA.AperFunction,SMDPad,CuDef*
G36*
G01*
X113135000Y-84538000D02*
X113435000Y-84538000D01*
G75*
G02*
X113585000Y-84688000I0J-150000D01*
G01*
X113585000Y-86338000D01*
G75*
G02*
X113435000Y-86488000I-150000J0D01*
G01*
X113135000Y-86488000D01*
G75*
G02*
X112985000Y-86338000I0J150000D01*
G01*
X112985000Y-84688000D01*
G75*
G02*
X113135000Y-84538000I150000J0D01*
G01*
G37*
G04 #@! TD.AperFunction*
G04 #@! TA.AperFunction,SMDPad,CuDef*
G36*
G01*
X111865000Y-84538000D02*
X112165000Y-84538000D01*
G75*
G02*
X112315000Y-84688000I0J-150000D01*
G01*
X112315000Y-86338000D01*
G75*
G02*
X112165000Y-86488000I-150000J0D01*
G01*
X111865000Y-86488000D01*
G75*
G02*
X111715000Y-86338000I0J150000D01*
G01*
X111715000Y-84688000D01*
G75*
G02*
X111865000Y-84538000I150000J0D01*
G01*
G37*
G04 #@! TD.AperFunction*
G04 #@! TA.AperFunction,SMDPad,CuDef*
G36*
G01*
X111865000Y-89488000D02*
X112165000Y-89488000D01*
G75*
G02*
X112315000Y-89638000I0J-150000D01*
G01*
X112315000Y-91288000D01*
G75*
G02*
X112165000Y-91438000I-150000J0D01*
G01*
X111865000Y-91438000D01*
G75*
G02*
X111715000Y-91288000I0J150000D01*
G01*
X111715000Y-89638000D01*
G75*
G02*
X111865000Y-89488000I150000J0D01*
G01*
G37*
G04 #@! TD.AperFunction*
G04 #@! TA.AperFunction,SMDPad,CuDef*
G36*
G01*
X113135000Y-89488000D02*
X113435000Y-89488000D01*
G75*
G02*
X113585000Y-89638000I0J-150000D01*
G01*
X113585000Y-91288000D01*
G75*
G02*
X113435000Y-91438000I-150000J0D01*
G01*
X113135000Y-91438000D01*
G75*
G02*
X112985000Y-91288000I0J150000D01*
G01*
X112985000Y-89638000D01*
G75*
G02*
X113135000Y-89488000I150000J0D01*
G01*
G37*
G04 #@! TD.AperFunction*
G04 #@! TA.AperFunction,SMDPad,CuDef*
G36*
G01*
X114405000Y-89488000D02*
X114705000Y-89488000D01*
G75*
G02*
X114855000Y-89638000I0J-150000D01*
G01*
X114855000Y-91288000D01*
G75*
G02*
X114705000Y-91438000I-150000J0D01*
G01*
X114405000Y-91438000D01*
G75*
G02*
X114255000Y-91288000I0J150000D01*
G01*
X114255000Y-89638000D01*
G75*
G02*
X114405000Y-89488000I150000J0D01*
G01*
G37*
G04 #@! TD.AperFunction*
G04 #@! TA.AperFunction,SMDPad,CuDef*
G36*
G01*
X115675000Y-89488000D02*
X115975000Y-89488000D01*
G75*
G02*
X116125000Y-89638000I0J-150000D01*
G01*
X116125000Y-91288000D01*
G75*
G02*
X115975000Y-91438000I-150000J0D01*
G01*
X115675000Y-91438000D01*
G75*
G02*
X115525000Y-91288000I0J150000D01*
G01*
X115525000Y-89638000D01*
G75*
G02*
X115675000Y-89488000I150000J0D01*
G01*
G37*
G04 #@! TD.AperFunction*
G04 #@! TA.AperFunction,SMDPad,CuDef*
G36*
G01*
X116945000Y-89488000D02*
X117245000Y-89488000D01*
G75*
G02*
X117395000Y-89638000I0J-150000D01*
G01*
X117395000Y-91288000D01*
G75*
G02*
X117245000Y-91438000I-150000J0D01*
G01*
X116945000Y-91438000D01*
G75*
G02*
X116795000Y-91288000I0J150000D01*
G01*
X116795000Y-89638000D01*
G75*
G02*
X116945000Y-89488000I150000J0D01*
G01*
G37*
G04 #@! TD.AperFunction*
G04 #@! TA.AperFunction,SMDPad,CuDef*
G36*
G01*
X118215000Y-89488000D02*
X118515000Y-89488000D01*
G75*
G02*
X118665000Y-89638000I0J-150000D01*
G01*
X118665000Y-91288000D01*
G75*
G02*
X118515000Y-91438000I-150000J0D01*
G01*
X118215000Y-91438000D01*
G75*
G02*
X118065000Y-91288000I0J150000D01*
G01*
X118065000Y-89638000D01*
G75*
G02*
X118215000Y-89488000I150000J0D01*
G01*
G37*
G04 #@! TD.AperFunction*
G04 #@! TA.AperFunction,SMDPad,CuDef*
G36*
G01*
X119485000Y-89488000D02*
X119785000Y-89488000D01*
G75*
G02*
X119935000Y-89638000I0J-150000D01*
G01*
X119935000Y-91288000D01*
G75*
G02*
X119785000Y-91438000I-150000J0D01*
G01*
X119485000Y-91438000D01*
G75*
G02*
X119335000Y-91288000I0J150000D01*
G01*
X119335000Y-89638000D01*
G75*
G02*
X119485000Y-89488000I150000J0D01*
G01*
G37*
G04 #@! TD.AperFunction*
D13*
X132775000Y-73200000D03*
D12*
X112455000Y-80820000D03*
X130235000Y-73200000D03*
X114995000Y-80820000D03*
X127695000Y-73200000D03*
X117535000Y-80820000D03*
X125155000Y-73200000D03*
X120075000Y-80820000D03*
X122615000Y-73200000D03*
X122615000Y-80820000D03*
X120075000Y-73200000D03*
X125155000Y-80820000D03*
X117535000Y-73200000D03*
X127695000Y-80820000D03*
X114995000Y-73200000D03*
X130235000Y-80820000D03*
X112455000Y-73200000D03*
X132775000Y-80820000D03*
D23*
X177676000Y-84452000D03*
X168576000Y-84452000D03*
X177676000Y-79952000D03*
X168576000Y-79952000D03*
X164192000Y-84452000D03*
X155092000Y-84452000D03*
X164192000Y-79952000D03*
X155092000Y-79952000D03*
X150752000Y-84452000D03*
X141652000Y-84452000D03*
X150752000Y-79952000D03*
X141652000Y-79952000D03*
D12*
X156108000Y-91092000D03*
X158648000Y-91092000D03*
X161188000Y-91092000D03*
X163728000Y-91092000D03*
X166268000Y-91092000D03*
X168808000Y-91092000D03*
X171348000Y-91092000D03*
D13*
X173888000Y-91092000D03*
D24*
X174074000Y-94210000D03*
D25*
X174074000Y-95010000D03*
D24*
X174074000Y-96610000D03*
D25*
X174074000Y-95810000D03*
D24*
X175874000Y-94210000D03*
D25*
X175874000Y-95810000D03*
X175874000Y-95010000D03*
D24*
X175874000Y-96610000D03*
X137225000Y-98950000D03*
X137225000Y-97950000D03*
X139025000Y-97950000D03*
X139025000Y-98950000D03*
D19*
X156175000Y-75150000D03*
D20*
X155375000Y-75150000D03*
D19*
X153775000Y-75150000D03*
D20*
X154575000Y-75150000D03*
D19*
X156175000Y-76950000D03*
D20*
X154575000Y-76950000D03*
X155375000Y-76950000D03*
D19*
X153775000Y-76950000D03*
D26*
X184556000Y-91854000D03*
X197256000Y-91854000D03*
X189636000Y-76614000D03*
X197256000Y-76614000D03*
G04 #@! TA.AperFunction,SMDPad,CuDef*
G36*
G01*
X136862500Y-91300000D02*
X136387500Y-91300000D01*
G75*
G02*
X136150000Y-91062500I0J237500D01*
G01*
X136150000Y-90487500D01*
G75*
G02*
X136387500Y-90250000I237500J0D01*
G01*
X136862500Y-90250000D01*
G75*
G02*
X137100000Y-90487500I0J-237500D01*
G01*
X137100000Y-91062500D01*
G75*
G02*
X136862500Y-91300000I-237500J0D01*
G01*
G37*
G04 #@! TD.AperFunction*
G04 #@! TA.AperFunction,SMDPad,CuDef*
G36*
G01*
X136862500Y-89550000D02*
X136387500Y-89550000D01*
G75*
G02*
X136150000Y-89312500I0J237500D01*
G01*
X136150000Y-88737500D01*
G75*
G02*
X136387500Y-88500000I237500J0D01*
G01*
X136862500Y-88500000D01*
G75*
G02*
X137100000Y-88737500I0J-237500D01*
G01*
X137100000Y-89312500D01*
G75*
G02*
X136862500Y-89550000I-237500J0D01*
G01*
G37*
G04 #@! TD.AperFunction*
G04 #@! TA.AperFunction,SMDPad,CuDef*
G36*
G01*
X141025000Y-87062500D02*
X141025000Y-87537500D01*
G75*
G02*
X140787500Y-87775000I-237500J0D01*
G01*
X140212500Y-87775000D01*
G75*
G02*
X139975000Y-87537500I0J237500D01*
G01*
X139975000Y-87062500D01*
G75*
G02*
X140212500Y-86825000I237500J0D01*
G01*
X140787500Y-86825000D01*
G75*
G02*
X141025000Y-87062500I0J-237500D01*
G01*
G37*
G04 #@! TD.AperFunction*
G04 #@! TA.AperFunction,SMDPad,CuDef*
G36*
G01*
X139275000Y-87062500D02*
X139275000Y-87537500D01*
G75*
G02*
X139037500Y-87775000I-237500J0D01*
G01*
X138462500Y-87775000D01*
G75*
G02*
X138225000Y-87537500I0J237500D01*
G01*
X138225000Y-87062500D01*
G75*
G02*
X138462500Y-86825000I237500J0D01*
G01*
X139037500Y-86825000D01*
G75*
G02*
X139275000Y-87062500I0J-237500D01*
G01*
G37*
G04 #@! TD.AperFunction*
D27*
X132967000Y-84789000D03*
X132267000Y-84189000D03*
X124800000Y-82989000D03*
X123767000Y-82989000D03*
X122967000Y-82989000D03*
X122300000Y-83289000D03*
X122067000Y-84089000D03*
X122167000Y-84889000D03*
X122267000Y-85589000D03*
X122767000Y-86089000D03*
X123267000Y-86589000D03*
X123767000Y-87089000D03*
X124567000Y-87389000D03*
X125267000Y-87589000D03*
X126200000Y-87700000D03*
X127567000Y-85289000D03*
X127567000Y-84589000D03*
X127567000Y-83889000D03*
X127100000Y-83100000D03*
X126367000Y-82889000D03*
X117461000Y-86937000D03*
D28*
X190800000Y-88200000D03*
X200950000Y-87175000D03*
D27*
X118350000Y-89000000D03*
X114550000Y-89075000D03*
X115825000Y-86950000D03*
X119650000Y-87000000D03*
X112000000Y-87025000D03*
X124150000Y-85200000D03*
X133393000Y-88361000D03*
X129065000Y-85895000D03*
X128567000Y-83789000D03*
X135171000Y-85567000D03*
X135171000Y-86329000D03*
X128313000Y-86075000D03*
X128059000Y-87599000D03*
X135171000Y-91409000D03*
X127805000Y-88361000D03*
X127805000Y-89885000D03*
X130091000Y-83789000D03*
X131869000Y-91917000D03*
X135171000Y-87091000D03*
X132631000Y-91917000D03*
X127805000Y-89123000D03*
X130345000Y-91917000D03*
X135171000Y-89377000D03*
X131615000Y-83789000D03*
X128313000Y-85313000D03*
X129583000Y-91917000D03*
X131107000Y-91917000D03*
X130853000Y-83789000D03*
X134663000Y-84805000D03*
X133393000Y-91917000D03*
X135171000Y-88615000D03*
X128821000Y-91917000D03*
X134155000Y-91917000D03*
X133901000Y-84805000D03*
X127805000Y-91409000D03*
X135171000Y-87853000D03*
X127805000Y-90647000D03*
X128313000Y-84551000D03*
X135171000Y-90139000D03*
X129288000Y-83800000D03*
D28*
X127900000Y-83000000D03*
X139800000Y-81800000D03*
X126900000Y-77500000D03*
X179000000Y-97800000D03*
X201050000Y-83775000D03*
D27*
X119625000Y-88925000D03*
D28*
X151600000Y-87200000D03*
D27*
X184556000Y-84488000D03*
D28*
X174142000Y-88298000D03*
X168554000Y-88298000D03*
X163982000Y-88298000D03*
X158648000Y-88298000D03*
X131400000Y-100100000D03*
X120500000Y-100700000D03*
X123000000Y-100700000D03*
X129600000Y-98800000D03*
X140300000Y-98500000D03*
X140400000Y-94000000D03*
X153800000Y-90600000D03*
X152400000Y-92100000D03*
X176428000Y-92616000D03*
X130400000Y-97100000D03*
X134700000Y-96400000D03*
X145300000Y-95500000D03*
X137000000Y-102400000D03*
X128000000Y-96400000D03*
X135000000Y-94800000D03*
X151536000Y-89822000D03*
X162966000Y-102522000D03*
D27*
X174650000Y-78392000D03*
X170586000Y-79408000D03*
X166268000Y-79154000D03*
X160934000Y-79408000D03*
X137794600Y-82715800D03*
X165212100Y-82715800D03*
X138701200Y-82313300D03*
X166232600Y-81695200D03*
X148213600Y-76986900D03*
X144975800Y-76986900D03*
X151052600Y-77982200D03*
X140354400Y-77982200D03*
X139085100Y-81232500D03*
X135994200Y-76313100D03*
X146543700Y-78869600D03*
X136469600Y-78869600D03*
X135441600Y-78453700D03*
X116460000Y-90360200D03*
X112650000Y-90360200D03*
X116303900Y-84009500D03*
X120600000Y-88500000D03*
X122200000Y-92800000D03*
X126750000Y-85750000D03*
X127000000Y-88250000D03*
D29*
X126500000Y-87600000D02*
X124900000Y-87600000D01*
X124900000Y-87600000D02*
X124800000Y-87600000D01*
X124800000Y-87600000D02*
X124400000Y-87200000D01*
X123909370Y-87200000D02*
X122200000Y-85490630D01*
X124400000Y-87200000D02*
X123909370Y-87200000D01*
X122200000Y-85490630D02*
X122200000Y-84700000D01*
X122200000Y-84672483D02*
X122170990Y-84643473D01*
X122200000Y-84700000D02*
X122200000Y-84672483D01*
X122170990Y-83545737D02*
X122716727Y-83000000D01*
X122170990Y-84643473D02*
X122170990Y-83545737D01*
X125097990Y-83000000D02*
X125097990Y-82813127D01*
X122716727Y-83000000D02*
X125097990Y-83000000D01*
X125097990Y-82813127D02*
X125205558Y-82705559D01*
X127479010Y-83545737D02*
X127479010Y-85726952D01*
X126933273Y-83000000D02*
X127479010Y-83545737D01*
X126400000Y-83000000D02*
X126933273Y-83000000D01*
D30*
X117461000Y-86937000D02*
X115838000Y-86937000D01*
X115838000Y-86937000D02*
X115825000Y-86950000D01*
X135171000Y-88996000D02*
X136596000Y-88996000D01*
X136596000Y-88996000D02*
X136625000Y-89025000D01*
D29*
X135171000Y-88996000D02*
X135171000Y-89377000D01*
X135171000Y-88615000D02*
X135171000Y-88996000D01*
D30*
X114555000Y-89251900D02*
X114806900Y-89000000D01*
X114806900Y-89000000D02*
X118350000Y-89000000D01*
D29*
X114555000Y-89251900D02*
X114555000Y-89080000D01*
X114555000Y-89080000D02*
X114550000Y-89075000D01*
X114555000Y-90463000D02*
X114555000Y-89251900D01*
X128567000Y-83789000D02*
X128313000Y-84043000D01*
X128313000Y-84043000D02*
X128313000Y-84551000D01*
X130091000Y-83789000D02*
X128567000Y-83789000D01*
X127805000Y-88361000D02*
X127805000Y-87853000D01*
X127805000Y-87853000D02*
X128059000Y-87599000D01*
X127805000Y-89123000D02*
X127805000Y-88361000D01*
X127805000Y-89885000D02*
X127805000Y-89123000D01*
X127805000Y-90647000D02*
X127805000Y-89885000D01*
X130853000Y-83789000D02*
X130091000Y-83789000D01*
X133139000Y-84805000D02*
X133901000Y-84805000D01*
X132631000Y-84551000D02*
X132885000Y-84805000D01*
X132885000Y-84805000D02*
X133139000Y-84805000D01*
X131869000Y-91917000D02*
X132631000Y-91917000D01*
X131107000Y-91917000D02*
X131869000Y-91917000D01*
X135171000Y-87091000D02*
X135171000Y-87853000D01*
X135171000Y-86329000D02*
X135171000Y-87091000D01*
X132631000Y-91917000D02*
X133393000Y-91917000D01*
X130345000Y-91917000D02*
X131107000Y-91917000D01*
X129583000Y-91917000D02*
X130345000Y-91917000D01*
X135171000Y-89377000D02*
X135171000Y-90139000D01*
X132123000Y-84043000D02*
X131869000Y-83789000D01*
X131869000Y-83789000D02*
X131615000Y-83789000D01*
X132631000Y-84551000D02*
X132123000Y-84043000D01*
X131615000Y-83789000D02*
X130853000Y-83789000D01*
X128313000Y-85313000D02*
X128313000Y-86075000D01*
X128313000Y-84551000D02*
X128313000Y-85313000D01*
X128821000Y-91917000D02*
X129583000Y-91917000D01*
X134663000Y-84805000D02*
X134917000Y-84805000D01*
X134917000Y-84805000D02*
X135171000Y-85059000D01*
X135171000Y-85059000D02*
X135171000Y-85567000D01*
X133901000Y-84805000D02*
X134663000Y-84805000D01*
X133393000Y-91917000D02*
X134155000Y-91917000D01*
X135171000Y-87853000D02*
X135171000Y-88615000D01*
X127805000Y-91409000D02*
X127805000Y-91663000D01*
X127805000Y-91663000D02*
X128059000Y-91917000D01*
X128059000Y-91917000D02*
X128821000Y-91917000D01*
X134155000Y-91917000D02*
X134917000Y-91917000D01*
X134917000Y-91917000D02*
X135171000Y-91663000D01*
X135171000Y-91663000D02*
X135171000Y-91409000D01*
X127805000Y-91409000D02*
X127805000Y-90647000D01*
X135171000Y-90139000D02*
X135171000Y-90393000D01*
X122615000Y-73200000D02*
X123915000Y-71900000D01*
X123915000Y-71900000D02*
X126395000Y-71900000D01*
X126395000Y-71900000D02*
X127695000Y-73200000D01*
D31*
X190800000Y-88200000D02*
X189636000Y-87036000D01*
X189636000Y-87036000D02*
X189636000Y-76614000D01*
D29*
X206125000Y-87850000D02*
X206909000Y-87850000D01*
X206909000Y-87850000D02*
X207500000Y-87258600D01*
X207500000Y-87258600D02*
X207500000Y-82941400D01*
X207500000Y-82941400D02*
X206909000Y-82350000D01*
X206909000Y-82350000D02*
X206125000Y-82350000D01*
X140789000Y-89850000D02*
X140541000Y-89850000D01*
X140541000Y-89850000D02*
X139375000Y-88683600D01*
X139375000Y-88683600D02*
X139375000Y-87925000D01*
X139375000Y-87925000D02*
X138750000Y-87300000D01*
X138750000Y-87300000D02*
X138350000Y-87300000D01*
X138350000Y-87300000D02*
X136625000Y-89025000D01*
X202625000Y-87850000D02*
X201625000Y-87850000D01*
X201625000Y-87850000D02*
X200950000Y-87175000D01*
D30*
X202625000Y-87850000D02*
X206125000Y-87850000D01*
X202625000Y-82350000D02*
X206125000Y-82350000D01*
D29*
X118365000Y-90463000D02*
X118365000Y-89015000D01*
X118365000Y-89015000D02*
X118350000Y-89000000D01*
X115825000Y-85513000D02*
X115825000Y-86950000D01*
X119635000Y-85513000D02*
X119635000Y-86985000D01*
X119635000Y-86985000D02*
X119650000Y-87000000D01*
X112000000Y-87025000D02*
X112000000Y-85528000D01*
X112000000Y-85528000D02*
X112015000Y-85513000D01*
D30*
X123275000Y-85095000D02*
X124045000Y-85095000D01*
X124045000Y-85095000D02*
X124150000Y-85200000D01*
D29*
X132615000Y-89439000D02*
X132615000Y-89393000D01*
X132615000Y-89393000D02*
X132885000Y-89123000D01*
X132885000Y-89123000D02*
X134155000Y-89123000D01*
X130515000Y-89439000D02*
X132615000Y-89439000D01*
X129357000Y-85059000D02*
X129357000Y-85603000D01*
X129357000Y-85603000D02*
X129065000Y-85895000D01*
X123275000Y-85095000D02*
X123275000Y-85313000D01*
X123275000Y-85313000D02*
X124343000Y-86381000D01*
X134155000Y-89123000D02*
X133393000Y-88361000D01*
D31*
X184556000Y-91854000D02*
X184556000Y-98490000D01*
X184556000Y-98490000D02*
X184080000Y-98966000D01*
D29*
X135171000Y-85567000D02*
X135171000Y-86329000D01*
X128059000Y-87599000D02*
X128252000Y-87406000D01*
X123883962Y-75415000D02*
X127768962Y-79300000D01*
X127768962Y-79300000D02*
X128500000Y-79300000D01*
X128500000Y-79300000D02*
X129000000Y-79800000D01*
X129000000Y-81900000D02*
X127900000Y-83000000D01*
X129000000Y-79800000D02*
X129000000Y-81900000D01*
X122615000Y-73200000D02*
X122615000Y-74115000D01*
X123883962Y-75383962D02*
X123883962Y-75415000D01*
X122615000Y-74115000D02*
X123883962Y-75383962D01*
X131200000Y-87721000D02*
X131200000Y-88100000D01*
X130515000Y-88785000D02*
X130515000Y-89439000D01*
X131200000Y-88100000D02*
X130515000Y-88785000D01*
X201493000Y-85206600D02*
X201493000Y-84906600D01*
X202625000Y-86350000D02*
X201675000Y-86350000D01*
X201675000Y-86350000D02*
X201493000Y-86168400D01*
X201493000Y-86168400D02*
X201493000Y-85206600D01*
D31*
X197256000Y-76614000D02*
X194342000Y-73700000D01*
X194342000Y-73700000D02*
X151300000Y-73700000D01*
X151300000Y-73700000D02*
X137600000Y-73700000D01*
X137600000Y-73700000D02*
X133800000Y-77500000D01*
D29*
X153775000Y-75150000D02*
X152750000Y-75150000D01*
X152750000Y-75150000D02*
X151300000Y-73700000D01*
X155375000Y-75150000D02*
X154575000Y-75150000D01*
X153775000Y-75150000D02*
X154575000Y-75150000D01*
X139800000Y-81800000D02*
X138100000Y-81800000D01*
X138100000Y-81800000D02*
X137300000Y-81000000D01*
X140500000Y-87300000D02*
X137300000Y-84100000D01*
X137300000Y-84100000D02*
X137300000Y-81000000D01*
X137300000Y-81000000D02*
X133800000Y-77500000D01*
D31*
X126900000Y-77500000D02*
X133800000Y-77500000D01*
D29*
X201493000Y-84906600D02*
X201493000Y-83993400D01*
X179000000Y-97800000D02*
X181243000Y-100043000D01*
X181243000Y-100043000D02*
X182543000Y-100043000D01*
X182543000Y-100043000D02*
X182900000Y-100400000D01*
X182900000Y-100400000D02*
X202500000Y-100400000D01*
X202500000Y-100400000D02*
X202900000Y-100000000D01*
X202900000Y-100000000D02*
X202900000Y-93600000D01*
X202900000Y-93600000D02*
X200000000Y-90700000D01*
X200000000Y-90700000D02*
X200000000Y-86700000D01*
X200000000Y-86700000D02*
X201493000Y-85206600D01*
X201493000Y-85206600D02*
X201493000Y-84906600D01*
X202625000Y-83850000D02*
X201841000Y-83850000D01*
X201841000Y-83850000D02*
X201698000Y-83993400D01*
X201698000Y-83993400D02*
X201493000Y-83993400D01*
X201493000Y-83993400D02*
X201268000Y-83993400D01*
X201268000Y-83993400D02*
X201050000Y-83775000D01*
X140500000Y-87300000D02*
X140500000Y-88610900D01*
X140500000Y-88610900D02*
X140789000Y-88900000D01*
X122615000Y-80820000D02*
X121275000Y-82160000D01*
X121275000Y-82160000D02*
X121275000Y-88823000D01*
X121275000Y-88823000D02*
X119635000Y-90463000D01*
X119635000Y-90463000D02*
X120363000Y-90463000D01*
X120363000Y-90463000D02*
X121640000Y-91740000D01*
X121640000Y-91740000D02*
X121640000Y-94775000D01*
D30*
X206125000Y-86350000D02*
X202625000Y-86350000D01*
X202625000Y-83850000D02*
X206125000Y-83850000D01*
D29*
X140789000Y-90800000D02*
X141017000Y-90800000D01*
X141017000Y-90800000D02*
X141530000Y-90287500D01*
X141530000Y-90287500D02*
X141530000Y-89412500D01*
X141530000Y-89412500D02*
X141017000Y-88900000D01*
X141017000Y-88900000D02*
X140789000Y-88900000D01*
X119625000Y-88925000D02*
X119625000Y-90453000D01*
X119625000Y-90453000D02*
X119635000Y-90463000D01*
D30*
X130700000Y-87959602D02*
X130159602Y-88500000D01*
X130700000Y-87721000D02*
X130700000Y-87959602D01*
X129218000Y-88500000D02*
X128821000Y-88897000D01*
X130159602Y-88500000D02*
X129218000Y-88500000D01*
X130700000Y-87297816D02*
X130700000Y-87721000D01*
X130897816Y-87100000D02*
X130700000Y-87297816D01*
X131500000Y-87100000D02*
X130897816Y-87100000D01*
X131999000Y-87599000D02*
X131500000Y-87100000D01*
X132631000Y-87599000D02*
X131999000Y-87599000D01*
D29*
X130515000Y-90839000D02*
X129013000Y-90839000D01*
X129013000Y-90839000D02*
X128821000Y-90647000D01*
X134155000Y-85774000D02*
X132631000Y-85774000D01*
X132631000Y-85774000D02*
X132631000Y-85567000D01*
X132631000Y-85567000D02*
X132123000Y-85059000D01*
X132123000Y-85059000D02*
X131107000Y-85059000D01*
D31*
X158648000Y-88298000D02*
X152698000Y-88298000D01*
X152698000Y-88298000D02*
X151600000Y-87200000D01*
X197256000Y-91854000D02*
X197256000Y-94642000D01*
X197256000Y-94642000D02*
X201580000Y-98966000D01*
D29*
X166522000Y-75322000D02*
X175295000Y-75322000D01*
X175295000Y-75322000D02*
X184461000Y-84488000D01*
X184461000Y-84488000D02*
X184556000Y-84488000D01*
X166522000Y-75322000D02*
X165722000Y-75322000D01*
X165722000Y-75322000D02*
X164922000Y-75322000D01*
X164122000Y-75322000D02*
X164922000Y-75322000D01*
D31*
X197256000Y-91854000D02*
X192430000Y-91854000D01*
X192430000Y-91854000D02*
X188874000Y-88298000D01*
X188874000Y-88298000D02*
X174142000Y-88298000D01*
X174142000Y-88298000D02*
X168554000Y-88298000D01*
X168554000Y-88298000D02*
X163982000Y-88298000D01*
X163982000Y-88298000D02*
X158648000Y-88298000D01*
D29*
X175874000Y-95810000D02*
X175874000Y-95010000D01*
X175874000Y-96610000D02*
X175874000Y-95810000D01*
X175874000Y-95010000D02*
X175874000Y-94210000D01*
X123000000Y-100700000D02*
X120500000Y-100700000D01*
X131400000Y-100100000D02*
X130100000Y-98800000D01*
X130100000Y-98800000D02*
X129600000Y-98800000D01*
X139025000Y-97950000D02*
X139750000Y-97950000D01*
X139750000Y-97950000D02*
X140300000Y-98500000D01*
X176428000Y-92616000D02*
X176428000Y-90428000D01*
X176428000Y-90428000D02*
X175400000Y-89400000D01*
X175400000Y-89400000D02*
X155000000Y-89400000D01*
X155000000Y-89400000D02*
X153800000Y-90600000D01*
X152400000Y-92100000D02*
X150500000Y-94000000D01*
X150500000Y-94000000D02*
X140400000Y-94000000D01*
X139025000Y-97950000D02*
X139025000Y-98950000D01*
X175874000Y-94210000D02*
X175874000Y-93170000D01*
X175874000Y-93170000D02*
X176428000Y-92616000D01*
X151110000Y-97920000D02*
X152400000Y-99210000D01*
X152400000Y-99210000D02*
X152400000Y-101100000D01*
X152400000Y-101100000D02*
X151700000Y-101800000D01*
X151700000Y-101800000D02*
X140000000Y-101800000D01*
X140000000Y-101800000D02*
X137225000Y-99025000D01*
X137225000Y-99025000D02*
X137225000Y-98950000D01*
X137225000Y-98950000D02*
X133435000Y-98950000D01*
X133435000Y-98950000D02*
X129260000Y-94775000D01*
X130400000Y-97100000D02*
X121855000Y-97100000D01*
X121855000Y-97100000D02*
X116560000Y-102395000D01*
X153650000Y-97920000D02*
X152130000Y-96400000D01*
X152130000Y-96400000D02*
X134700000Y-96400000D01*
X145300000Y-95500000D02*
X153770000Y-95500000D01*
X153770000Y-95500000D02*
X156190000Y-97920000D01*
X126720000Y-102395000D02*
X128315000Y-100800000D01*
X128315000Y-100800000D02*
X135400000Y-100800000D01*
X135400000Y-100800000D02*
X137000000Y-102400000D01*
X128000000Y-96400000D02*
X120015000Y-96400000D01*
X120015000Y-96400000D02*
X114020000Y-102395000D01*
X158730000Y-97920000D02*
X155610000Y-94800000D01*
X155610000Y-94800000D02*
X135000000Y-94800000D01*
D30*
X174074000Y-94210000D02*
X174074000Y-93818000D01*
X174074000Y-93818000D02*
X171348000Y-91092000D01*
X174074000Y-95010000D02*
X171800000Y-95010000D01*
X171800000Y-95010000D02*
X168890000Y-97920000D01*
D29*
X161188000Y-91092000D02*
X168016000Y-97920000D01*
X168016000Y-97920000D02*
X168890000Y-97920000D01*
X151110000Y-100460000D02*
X149850000Y-99200000D01*
X149850000Y-99200000D02*
X142100000Y-99200000D01*
X142100000Y-99200000D02*
X139750000Y-96850000D01*
X139750000Y-96850000D02*
X138325000Y-96850000D01*
X138325000Y-96850000D02*
X137225000Y-97950000D01*
X137225000Y-97950000D02*
X134975000Y-97950000D01*
X134975000Y-97950000D02*
X131800000Y-94775000D01*
X119100000Y-102395000D02*
X119100000Y-100900000D01*
X119100000Y-100900000D02*
X122200000Y-97800000D01*
X122200000Y-97800000D02*
X130100000Y-97800000D01*
X130100000Y-97800000D02*
X131800000Y-99500000D01*
X131800000Y-99500000D02*
X136600000Y-99500000D01*
X136600000Y-99500000D02*
X139400000Y-102300000D01*
X139400000Y-102300000D02*
X152600000Y-102300000D01*
X152600000Y-102300000D02*
X153650000Y-101250000D01*
X153650000Y-101250000D02*
X153650000Y-100460000D01*
X156190000Y-100460000D02*
X152850000Y-103800000D01*
X152850000Y-103800000D02*
X125585000Y-103800000D01*
X125585000Y-103800000D02*
X124180000Y-102395000D01*
X158730000Y-100460000D02*
X154790000Y-104400000D01*
X154790000Y-104400000D02*
X113400000Y-104400000D01*
X113400000Y-104400000D02*
X112100000Y-103100000D01*
X112100000Y-103100000D02*
X112100000Y-96695000D01*
X112100000Y-96695000D02*
X114020000Y-94775000D01*
X162966000Y-102522000D02*
X162616000Y-102172000D01*
X162616000Y-102172000D02*
X162616000Y-97598000D01*
X162616000Y-97598000D02*
X158396000Y-93378000D01*
X158396000Y-93378000D02*
X155092000Y-93378000D01*
X155092000Y-93378000D02*
X151536000Y-89822000D01*
D30*
X174074000Y-95810000D02*
X174610000Y-95810000D01*
X174610000Y-95810000D02*
X174900000Y-96100000D01*
X174900000Y-96100000D02*
X174900000Y-100700000D01*
X174900000Y-100700000D02*
X173300000Y-102300000D01*
X173300000Y-102300000D02*
X168190000Y-102300000D01*
X168190000Y-102300000D02*
X166350000Y-100460000D01*
D29*
X168890000Y-100460000D02*
X167630000Y-99200000D01*
X167630000Y-99200000D02*
X165676000Y-99200000D01*
X165676000Y-99200000D02*
X165100000Y-98624000D01*
X165100000Y-98624000D02*
X165100000Y-96800000D01*
X165100000Y-96800000D02*
X161100000Y-92800000D01*
X161100000Y-92800000D02*
X157816000Y-92800000D01*
X157816000Y-92800000D02*
X156108000Y-91092000D01*
D30*
X174074000Y-96610000D02*
X174074000Y-100420000D01*
X174074000Y-100420000D02*
X172757000Y-101737000D01*
X172757000Y-101737000D02*
X170167000Y-101737000D01*
X170167000Y-101737000D02*
X168890000Y-100460000D01*
D29*
X166522000Y-77122000D02*
X173380000Y-77122000D01*
X173380000Y-77122000D02*
X174650000Y-78392000D01*
X165722000Y-77122000D02*
X165722000Y-77470600D01*
X165722000Y-77470600D02*
X166897000Y-78646000D01*
X166897000Y-78646000D02*
X169824000Y-78646000D01*
X169824000Y-78646000D02*
X170586000Y-79408000D01*
X164922000Y-77122000D02*
X164922000Y-77808000D01*
X164922000Y-77808000D02*
X166268000Y-79154000D01*
X164122000Y-77122000D02*
X163220000Y-77122000D01*
X163220000Y-77122000D02*
X160934000Y-79408000D01*
D30*
X137794600Y-82715800D02*
X165212100Y-82715800D01*
X166232600Y-81695200D02*
X140732000Y-81695200D01*
X140732000Y-81695200D02*
X140060300Y-82366900D01*
X140060300Y-82366900D02*
X138754800Y-82366900D01*
X138754800Y-82366900D02*
X138701200Y-82313300D01*
X144975800Y-76986900D02*
X148213600Y-76986900D01*
X140354400Y-77982200D02*
X151052600Y-77982200D01*
X131462000Y-86583000D02*
X131200000Y-86321000D01*
X133139000Y-86583000D02*
X131462000Y-86583000D01*
X134155000Y-87599000D02*
X133139000Y-86583000D01*
D29*
X126594000Y-87133000D02*
X126748000Y-86979000D01*
X125592000Y-87133000D02*
X126594000Y-87133000D01*
X125291000Y-86831600D02*
X125592000Y-87133000D01*
X125291000Y-85479000D02*
X125291000Y-86831600D01*
X125675000Y-85095000D02*
X125291000Y-85479000D01*
X126375000Y-85095000D02*
X125675000Y-85095000D01*
X131179000Y-86321000D02*
X130521000Y-86979000D01*
X131200000Y-86321000D02*
X131179000Y-86321000D01*
X126748000Y-86979000D02*
X130521000Y-86979000D01*
D30*
X176423700Y-79952000D02*
X175143200Y-81232500D01*
X175143200Y-81232500D02*
X139085100Y-81232500D01*
X177676000Y-79952000D02*
X176423700Y-79952000D01*
X164192000Y-79952000D02*
X160886500Y-79952000D01*
X160886500Y-79952000D02*
X157247600Y-76313100D01*
X157247600Y-76313100D02*
X135994200Y-76313100D01*
X146543700Y-78869600D02*
X136469600Y-78869600D01*
X149499700Y-79952000D02*
X148001400Y-78453700D01*
X148001400Y-78453700D02*
X135441600Y-78453700D01*
X150752000Y-79952000D02*
X149499700Y-79952000D01*
X116460000Y-90360200D02*
X116992200Y-90360200D01*
X116992200Y-90360200D02*
X117095000Y-90463000D01*
X112650000Y-90360200D02*
X113182200Y-90360200D01*
X113182200Y-90360200D02*
X113285000Y-90463000D01*
X118365000Y-85513000D02*
X118365000Y-85252900D01*
X118365000Y-85252900D02*
X117121600Y-84009500D01*
X117121600Y-84009500D02*
X116303900Y-84009500D01*
X114555000Y-85513000D02*
X114555000Y-81260000D01*
X114555000Y-81260000D02*
X114995000Y-80820000D01*
X154575000Y-76950000D02*
X154575000Y-79435000D01*
X154575000Y-79435000D02*
X155092000Y-79952000D01*
X168576000Y-79952000D02*
X167323700Y-79952000D01*
X155375000Y-76950000D02*
X155375000Y-77552300D01*
X155375000Y-77552300D02*
X158677000Y-80854300D01*
X158677000Y-80854300D02*
X166421400Y-80854300D01*
X166421400Y-80854300D02*
X167323700Y-79952000D01*
X153775000Y-76950000D02*
X153775000Y-79005400D01*
X153775000Y-79005400D02*
X151926100Y-80854300D01*
X151926100Y-80854300D02*
X143814000Y-80854300D01*
X143814000Y-80854300D02*
X142911700Y-79952000D01*
X142911700Y-79952000D02*
X142904300Y-79952000D01*
X141652000Y-79952000D02*
X142904300Y-79952000D01*
D29*
X125826000Y-84095000D02*
X123275000Y-84095000D01*
X125905000Y-84095000D02*
X125826000Y-84095000D01*
X126375000Y-84095000D02*
X125905000Y-84095000D01*
X127695000Y-80820000D02*
X125525000Y-82990000D01*
X125525000Y-82990000D02*
X125525000Y-83793600D01*
X125525000Y-83793600D02*
X125826000Y-84095000D01*
X125826000Y-84095000D02*
X125905000Y-84095000D01*
D30*
X116560000Y-94775000D02*
X115557700Y-94775000D01*
X112015000Y-90463000D02*
X112015000Y-91232300D01*
X112015000Y-91232300D02*
X115557700Y-94775000D01*
X119100000Y-94775000D02*
X118097700Y-94775000D01*
X113285000Y-85513000D02*
X113920000Y-86148000D01*
X113920000Y-86148000D02*
X113920000Y-91368300D01*
X113920000Y-91368300D02*
X114791500Y-92239800D01*
X114791500Y-92239800D02*
X115562500Y-92239800D01*
X115562500Y-92239800D02*
X118097700Y-94775000D01*
X124180000Y-94775000D02*
X123177700Y-94775000D01*
X115825000Y-90463000D02*
X115825000Y-90683900D01*
X115825000Y-90683900D02*
X118777800Y-93636700D01*
X118777800Y-93636700D02*
X119405700Y-93636700D01*
X119405700Y-93636700D02*
X120370000Y-94601000D01*
X120370000Y-94601000D02*
X120370000Y-94968700D01*
X120370000Y-94968700D02*
X121216500Y-95815200D01*
X121216500Y-95815200D02*
X122137500Y-95815200D01*
X122137500Y-95815200D02*
X123177700Y-94775000D01*
X117095000Y-86395000D02*
X117095000Y-85513000D01*
X117234999Y-86534999D02*
X117095000Y-86395000D01*
X117653961Y-86534999D02*
X117234999Y-86534999D01*
X119618962Y-88500000D02*
X117653961Y-86534999D01*
X120600000Y-88500000D02*
X119618962Y-88500000D01*
X126720000Y-94775000D02*
X125445000Y-93500000D01*
X122900000Y-93500000D02*
X122200000Y-92800000D01*
X125445000Y-93500000D02*
X122900000Y-93500000D01*
D29*
X126375000Y-84595000D02*
X123275000Y-84595000D01*
X123275000Y-84595000D02*
X122726000Y-84595000D01*
X122726000Y-84595000D02*
X122598000Y-84466600D01*
X122598000Y-84466600D02*
X122598000Y-83723400D01*
X122598000Y-83723400D02*
X122726000Y-83595000D01*
X122726000Y-83595000D02*
X123275000Y-83595000D01*
X125948000Y-86526000D02*
X126093000Y-86381000D01*
X125898000Y-86576000D02*
X125948000Y-86526000D01*
X138211000Y-90800000D02*
X138210900Y-90800000D01*
X136625000Y-90775000D02*
X136625000Y-91300000D01*
X136625000Y-91300000D02*
X135531000Y-92394000D01*
X135531000Y-92394000D02*
X135506000Y-92394000D01*
X135506000Y-92394000D02*
X135200000Y-92700000D01*
X135200000Y-92700000D02*
X127700000Y-92700000D01*
X127700000Y-92700000D02*
X127000000Y-92000000D01*
X127000000Y-92000000D02*
X127000000Y-88250000D01*
X138210900Y-90800000D02*
X136650000Y-90800000D01*
X136650000Y-90800000D02*
X136625000Y-90775000D01*
X126750000Y-85750000D02*
X127052000Y-85448000D01*
X127052000Y-85448000D02*
X127052000Y-83723400D01*
X127052000Y-83723400D02*
X126924000Y-83595000D01*
X126924000Y-83595000D02*
X126375000Y-83595000D01*
X126093000Y-86381000D02*
X126119000Y-86381000D01*
X126119000Y-86381000D02*
X126750000Y-85750000D01*
X136625000Y-90775000D02*
X136527000Y-90873000D01*
X136527000Y-90873000D02*
X134155000Y-90873000D01*
X129379000Y-86321000D02*
X129148000Y-86552000D01*
X129148000Y-86552000D02*
X126264000Y-86552000D01*
X126264000Y-86552000D02*
X126093000Y-86381000D01*
X125948000Y-86526000D02*
X126093000Y-86381000D01*
X134155000Y-90873000D02*
X132649000Y-90873000D01*
X132649000Y-90873000D02*
X132615000Y-90839000D01*
X130200000Y-86321000D02*
X129379000Y-86321000D01*
M02*
