%FSLAX45Y45*%
G04 Gerber Fmt 4.5, Leading zero omitted, Abs format (unit mm)*
G04 Created by KiCad (PCBNEW (5.1.7)-1) date 2021-11-01 12:55:09*
%MOMM*%
%LPD*%
G01*
G04 APERTURE LIST*
%TA.AperFunction,Profile*%
%ADD10C,0.050000*%
%TD*%
%ADD11C,0.200000*%
%ADD12C,0.300000*%
G04 APERTURE END LIST*
D10*
X11000000Y-10500000D02*
X21000000Y-10500000D01*
X11000000Y-7000000D02*
X11000000Y-10500000D01*
X21000000Y-7000000D02*
X11000000Y-7000000D01*
X21000000Y-10500000D02*
X21000000Y-7000000D01*
D11*
X11190000Y-8692500D02*
X11210000Y-8712500D01*
X11210000Y-8692500D02*
X11190000Y-8712500D01*
X11255000Y-9026020D02*
X11275000Y-9046020D01*
X11275000Y-9026020D02*
X11255000Y-9046020D01*
X11445000Y-8897500D02*
X11465000Y-8917500D01*
X11465000Y-8897500D02*
X11445000Y-8917500D01*
X11572500Y-8685000D02*
X11592500Y-8705000D01*
X11592500Y-8685000D02*
X11572500Y-8705000D01*
X11620390Y-8390950D02*
X11640390Y-8410950D01*
X11640390Y-8390950D02*
X11620390Y-8410950D01*
X11636000Y-9026020D02*
X11656000Y-9046020D01*
X11656000Y-9026020D02*
X11636000Y-9046020D01*
X11736100Y-8683700D02*
X11756100Y-8703700D01*
X11756100Y-8683700D02*
X11736100Y-8703700D01*
X11825000Y-8890000D02*
X11845000Y-8910000D01*
X11845000Y-8890000D02*
X11825000Y-8910000D01*
X11952500Y-8882500D02*
X11972500Y-8902500D01*
X11972500Y-8882500D02*
X11952500Y-8902500D01*
X11955000Y-8690000D02*
X11975000Y-8710000D01*
X11975000Y-8690000D02*
X11955000Y-8710000D01*
X12050000Y-8840000D02*
X12070000Y-8860000D01*
X12070000Y-8840000D02*
X12050000Y-8860000D01*
X12196700Y-8398900D02*
X12216700Y-8418900D01*
X12216700Y-8398900D02*
X12196700Y-8418900D01*
X12206700Y-8478900D02*
X12226700Y-8498900D01*
X12226700Y-8478900D02*
X12206700Y-8498900D01*
X12210000Y-9270000D02*
X12230000Y-9290000D01*
X12230000Y-9270000D02*
X12210000Y-9290000D01*
X12216700Y-8548900D02*
X12236700Y-8568900D01*
X12236700Y-8548900D02*
X12216700Y-8568900D01*
X12220000Y-8318900D02*
X12240000Y-8338900D01*
X12240000Y-8318900D02*
X12220000Y-8338900D01*
X12266700Y-8598900D02*
X12286700Y-8618900D01*
X12286700Y-8598900D02*
X12266700Y-8618900D01*
X12286700Y-8288900D02*
X12306700Y-8308900D01*
X12306700Y-8288900D02*
X12286700Y-8308900D01*
X12316700Y-8648900D02*
X12336700Y-8668900D01*
X12336700Y-8648900D02*
X12316700Y-8668900D01*
X12366700Y-8288900D02*
X12386700Y-8308900D01*
X12386700Y-8288900D02*
X12366700Y-8308900D01*
X12366700Y-8698900D02*
X12386700Y-8718900D01*
X12386700Y-8698900D02*
X12366700Y-8718900D01*
X12405000Y-8510000D02*
X12425000Y-8530000D01*
X12425000Y-8510000D02*
X12405000Y-8530000D01*
X12446700Y-8728900D02*
X12466700Y-8748900D01*
X12466700Y-8728900D02*
X12446700Y-8748900D01*
X12470000Y-8288900D02*
X12490000Y-8308900D01*
X12490000Y-8288900D02*
X12470000Y-8308900D01*
X12516700Y-8748900D02*
X12536700Y-8768900D01*
X12536700Y-8748900D02*
X12516700Y-8768900D01*
X12610000Y-8760000D02*
X12630000Y-8780000D01*
X12630000Y-8760000D02*
X12610000Y-8780000D01*
X12626700Y-8278900D02*
X12646700Y-8298900D01*
X12646700Y-8278900D02*
X12626700Y-8298900D01*
X12665000Y-8565000D02*
X12685000Y-8585000D01*
X12685000Y-8565000D02*
X12665000Y-8585000D01*
X12690000Y-8815000D02*
X12710000Y-8835000D01*
X12710000Y-8815000D02*
X12690000Y-8835000D01*
X12700000Y-8300000D02*
X12720000Y-8320000D01*
X12720000Y-8300000D02*
X12700000Y-8320000D01*
X12746700Y-8378900D02*
X12766700Y-8398900D01*
X12766700Y-8378900D02*
X12746700Y-8398900D01*
X12746700Y-8448900D02*
X12766700Y-8468900D01*
X12766700Y-8448900D02*
X12746700Y-8468900D01*
X12746700Y-8518900D02*
X12766700Y-8538900D01*
X12766700Y-8518900D02*
X12746700Y-8538900D01*
X12770500Y-8826100D02*
X12790500Y-8846100D01*
X12790500Y-8826100D02*
X12770500Y-8846100D01*
X12770500Y-8902300D02*
X12790500Y-8922300D01*
X12790500Y-8902300D02*
X12770500Y-8922300D01*
X12770500Y-8978500D02*
X12790500Y-8998500D01*
X12790500Y-8978500D02*
X12770500Y-8998500D01*
X12770500Y-9054700D02*
X12790500Y-9074700D01*
X12790500Y-9054700D02*
X12770500Y-9074700D01*
X12770500Y-9130900D02*
X12790500Y-9150900D01*
X12790500Y-9130900D02*
X12770500Y-9150900D01*
X12795900Y-8749900D02*
X12815900Y-8769900D01*
X12815900Y-8749900D02*
X12795900Y-8769900D01*
X12821300Y-8445100D02*
X12841300Y-8465100D01*
X12841300Y-8445100D02*
X12821300Y-8465100D01*
X12821300Y-8521300D02*
X12841300Y-8541300D01*
X12841300Y-8521300D02*
X12821300Y-8541300D01*
X12821300Y-8597500D02*
X12841300Y-8617500D01*
X12841300Y-8597500D02*
X12821300Y-8617500D01*
X12846700Y-8368900D02*
X12866700Y-8388900D01*
X12866700Y-8368900D02*
X12846700Y-8388900D01*
X12872100Y-9181700D02*
X12892100Y-9201700D01*
X12892100Y-9181700D02*
X12872100Y-9201700D01*
X12896500Y-8579500D02*
X12916500Y-8599500D01*
X12916500Y-8579500D02*
X12896500Y-8599500D01*
X12918800Y-8370000D02*
X12938800Y-8390000D01*
X12938800Y-8370000D02*
X12918800Y-8390000D01*
X12948300Y-9181700D02*
X12968300Y-9201700D01*
X12968300Y-9181700D02*
X12948300Y-9201700D01*
X12999100Y-8368900D02*
X13019100Y-8388900D01*
X13019100Y-8368900D02*
X12999100Y-8388900D01*
X13024500Y-9181700D02*
X13044500Y-9201700D01*
X13044500Y-9181700D02*
X13024500Y-9201700D01*
X13075300Y-8368900D02*
X13095300Y-8388900D01*
X13095300Y-8368900D02*
X13075300Y-8388900D01*
X13100700Y-9181700D02*
X13120700Y-9201700D01*
X13120700Y-9181700D02*
X13100700Y-9201700D01*
X13151500Y-8368900D02*
X13171500Y-8388900D01*
X13171500Y-8368900D02*
X13151500Y-8388900D01*
X13176900Y-9181700D02*
X13196900Y-9201700D01*
X13196900Y-9181700D02*
X13176900Y-9201700D01*
X13216700Y-8408900D02*
X13236700Y-8428900D01*
X13236700Y-8408900D02*
X13216700Y-8428900D01*
X13253100Y-9181700D02*
X13273100Y-9201700D01*
X13273100Y-9181700D02*
X13253100Y-9201700D01*
X13286700Y-8468900D02*
X13306700Y-8488900D01*
X13306700Y-8468900D02*
X13286700Y-8488900D01*
X13329300Y-8826100D02*
X13349300Y-8846100D01*
X13349300Y-8826100D02*
X13329300Y-8846100D01*
X13329300Y-9181700D02*
X13349300Y-9201700D01*
X13349300Y-9181700D02*
X13329300Y-9201700D01*
X13380100Y-8470500D02*
X13400100Y-8490500D01*
X13400100Y-8470500D02*
X13380100Y-8490500D01*
X13405500Y-9181700D02*
X13425500Y-9201700D01*
X13425500Y-9181700D02*
X13405500Y-9201700D01*
X13456300Y-8470500D02*
X13476300Y-8490500D01*
X13476300Y-8470500D02*
X13456300Y-8490500D01*
X13507100Y-8546700D02*
X13527100Y-8566700D01*
X13527100Y-8546700D02*
X13507100Y-8566700D01*
X13507100Y-8622900D02*
X13527100Y-8642900D01*
X13527100Y-8622900D02*
X13507100Y-8642900D01*
X13507100Y-8699100D02*
X13527100Y-8719100D01*
X13527100Y-8699100D02*
X13507100Y-8719100D01*
X13507100Y-8775300D02*
X13527100Y-8795300D01*
X13527100Y-8775300D02*
X13507100Y-8795300D01*
X13507100Y-8851500D02*
X13527100Y-8871500D01*
X13527100Y-8851500D02*
X13507100Y-8871500D01*
X13507100Y-8927700D02*
X13527100Y-8947700D01*
X13527100Y-8927700D02*
X13507100Y-8947700D01*
X13507100Y-9003900D02*
X13527100Y-9023900D01*
X13527100Y-9003900D02*
X13507100Y-9023900D01*
X13507100Y-9130900D02*
X13527100Y-9150900D01*
X13527100Y-9130900D02*
X13507100Y-9150900D01*
X13534160Y-7835370D02*
X13554160Y-7855370D01*
X13554160Y-7835370D02*
X13534160Y-7855370D01*
X13589420Y-7621310D02*
X13609420Y-7641310D01*
X13609420Y-7621310D02*
X13589420Y-7641310D01*
X13636960Y-7876960D02*
X13656960Y-7896960D01*
X13656960Y-7876960D02*
X13636960Y-7896960D01*
X13769460Y-8261580D02*
X13789460Y-8281580D01*
X13789460Y-8261580D02*
X13769460Y-8281580D01*
X13860120Y-8221330D02*
X13880120Y-8241330D01*
X13880120Y-8221330D02*
X13860120Y-8241330D01*
X13898510Y-8113250D02*
X13918510Y-8133250D01*
X13918510Y-8113250D02*
X13898510Y-8133250D01*
X14025440Y-7788220D02*
X14045440Y-7808220D01*
X14045440Y-7788220D02*
X14025440Y-7808220D01*
X14487580Y-7688690D02*
X14507580Y-7708690D01*
X14507580Y-7688690D02*
X14487580Y-7708690D01*
X14644370Y-7876960D02*
X14664370Y-7896960D01*
X14664370Y-7876960D02*
X14644370Y-7896960D01*
X14811360Y-7688690D02*
X14831360Y-7708690D01*
X14831360Y-7688690D02*
X14811360Y-7708690D01*
X15095260Y-7788220D02*
X15115260Y-7808220D01*
X15115260Y-7788220D02*
X15095260Y-7808220D01*
X16083400Y-7930800D02*
X16103400Y-7950800D01*
X16103400Y-7930800D02*
X16083400Y-7950800D01*
X16511210Y-8261580D02*
X16531210Y-8281580D01*
X16531210Y-8261580D02*
X16511210Y-8281580D01*
X16613260Y-8159520D02*
X16633260Y-8179520D01*
X16633260Y-8159520D02*
X16613260Y-8179520D01*
X16616800Y-7905400D02*
X16636800Y-7925400D01*
X16636800Y-7905400D02*
X16616800Y-7925400D01*
X17048600Y-7930800D02*
X17068600Y-7950800D01*
X17068600Y-7930800D02*
X17048600Y-7950800D01*
X17455000Y-7829200D02*
X17475000Y-7849200D01*
X17475000Y-7829200D02*
X17455000Y-7849200D01*
X18445600Y-8438800D02*
X18465600Y-8458800D01*
X18465600Y-8438800D02*
X18445600Y-8458800D01*
X12066500Y-10070000D02*
G75*
G03*
X12066500Y-10070000I-16500J0D01*
G01*
X12316500Y-10070000D02*
G75*
G03*
X12316500Y-10070000I-16500J0D01*
G01*
X12706500Y-7750000D02*
G75*
G03*
X12706500Y-7750000I-16500J0D01*
G01*
X12806500Y-8300000D02*
G75*
G03*
X12806500Y-8300000I-16500J0D01*
G01*
X12816500Y-9640000D02*
G75*
G03*
X12816500Y-9640000I-16500J0D01*
G01*
X12976500Y-9880000D02*
G75*
G03*
X12976500Y-9880000I-16500J0D01*
G01*
X13056500Y-9710000D02*
G75*
G03*
X13056500Y-9710000I-16500J0D01*
G01*
X13156500Y-10010000D02*
G75*
G03*
X13156500Y-10010000I-16500J0D01*
G01*
X13486500Y-9640000D02*
G75*
G03*
X13486500Y-9640000I-16500J0D01*
G01*
X13516500Y-9480000D02*
G75*
G03*
X13516500Y-9480000I-16500J0D01*
G01*
X13716500Y-10240000D02*
G75*
G03*
X13716500Y-10240000I-16500J0D01*
G01*
X13996500Y-8180000D02*
G75*
G03*
X13996500Y-8180000I-16500J0D01*
G01*
X14046500Y-9850000D02*
G75*
G03*
X14046500Y-9850000I-16500J0D01*
G01*
X14056500Y-9400000D02*
G75*
G03*
X14056500Y-9400000I-16500J0D01*
G01*
X14546500Y-9550000D02*
G75*
G03*
X14546500Y-9550000I-16500J0D01*
G01*
X15170100Y-8982200D02*
G75*
G03*
X15170100Y-8982200I-16500J0D01*
G01*
X15176500Y-8720000D02*
G75*
G03*
X15176500Y-8720000I-16500J0D01*
G01*
X15256500Y-9210000D02*
G75*
G03*
X15256500Y-9210000I-16500J0D01*
G01*
X15396500Y-9060000D02*
G75*
G03*
X15396500Y-9060000I-16500J0D01*
G01*
X15881300Y-8829800D02*
G75*
G03*
X15881300Y-8829800I-16500J0D01*
G01*
X16313100Y-10252200D02*
G75*
G03*
X16313100Y-10252200I-16500J0D01*
G01*
X16414700Y-8829800D02*
G75*
G03*
X16414700Y-8829800I-16500J0D01*
G01*
X16871900Y-8829800D02*
G75*
G03*
X16871900Y-8829800I-16500J0D01*
G01*
X17430700Y-8829800D02*
G75*
G03*
X17430700Y-8829800I-16500J0D01*
G01*
X17659300Y-9261600D02*
G75*
G03*
X17659300Y-9261600I-16500J0D01*
G01*
X17916500Y-9780000D02*
G75*
G03*
X17916500Y-9780000I-16500J0D01*
G01*
X19096500Y-8820000D02*
G75*
G03*
X19096500Y-8820000I-16500J0D01*
G01*
X20111500Y-8717500D02*
G75*
G03*
X20111500Y-8717500I-16500J0D01*
G01*
X20121500Y-8377500D02*
G75*
G03*
X20121500Y-8377500I-16500J0D01*
G01*
X15610800Y-9069200D02*
X15610800Y-9149200D01*
X15570800Y-9109200D02*
X15650800Y-9109200D01*
X15864800Y-9069200D02*
X15864800Y-9149200D01*
X15824800Y-9109200D02*
X15904800Y-9109200D01*
X16118800Y-9069200D02*
X16118800Y-9149200D01*
X16078800Y-9109200D02*
X16158800Y-9109200D01*
X16372800Y-9069200D02*
X16372800Y-9149200D01*
X16332800Y-9109200D02*
X16412800Y-9109200D01*
X16626800Y-9069200D02*
X16626800Y-9149200D01*
X16586800Y-9109200D02*
X16666800Y-9109200D01*
X16880800Y-9069200D02*
X16880800Y-9149200D01*
X16840800Y-9109200D02*
X16920800Y-9109200D01*
X17134800Y-9069200D02*
X17134800Y-9149200D01*
X17094800Y-9109200D02*
X17174800Y-9109200D01*
X17388800Y-9069200D02*
X17388800Y-9149200D01*
X17348800Y-9109200D02*
X17428800Y-9109200D01*
X11245500Y-7280000D02*
X11245500Y-7360000D01*
X11205500Y-7320000D02*
X11285500Y-7320000D01*
X11245500Y-8042000D02*
X11245500Y-8122000D01*
X11205500Y-8082000D02*
X11285500Y-8082000D01*
X11499500Y-7280000D02*
X11499500Y-7360000D01*
X11459500Y-7320000D02*
X11539500Y-7320000D01*
X11499500Y-8042000D02*
X11499500Y-8122000D01*
X11459500Y-8082000D02*
X11539500Y-8082000D01*
X11753500Y-7280000D02*
X11753500Y-7360000D01*
X11713500Y-7320000D02*
X11793500Y-7320000D01*
X11753500Y-8042000D02*
X11753500Y-8122000D01*
X11713500Y-8082000D02*
X11793500Y-8082000D01*
X12007500Y-7280000D02*
X12007500Y-7360000D01*
X11967500Y-7320000D02*
X12047500Y-7320000D01*
X12007500Y-8042000D02*
X12007500Y-8122000D01*
X11967500Y-8082000D02*
X12047500Y-8082000D01*
X12261500Y-7280000D02*
X12261500Y-7360000D01*
X12221500Y-7320000D02*
X12301500Y-7320000D01*
X12261500Y-8042000D02*
X12261500Y-8122000D01*
X12221500Y-8082000D02*
X12301500Y-8082000D01*
X12515500Y-7280000D02*
X12515500Y-7360000D01*
X12475500Y-7320000D02*
X12555500Y-7320000D01*
X12515500Y-8042000D02*
X12515500Y-8122000D01*
X12475500Y-8082000D02*
X12555500Y-8082000D01*
X12769500Y-7280000D02*
X12769500Y-7360000D01*
X12729500Y-7320000D02*
X12809500Y-7320000D01*
X12769500Y-8042000D02*
X12769500Y-8122000D01*
X12729500Y-8082000D02*
X12809500Y-8082000D01*
X13023500Y-7280000D02*
X13023500Y-7360000D01*
X12983500Y-7320000D02*
X13063500Y-7320000D01*
X13023500Y-8042000D02*
X13023500Y-8122000D01*
X12983500Y-8082000D02*
X13063500Y-8082000D01*
X13277500Y-7280000D02*
X13277500Y-7360000D01*
X13237500Y-7320000D02*
X13317500Y-7320000D01*
X13277500Y-8042000D02*
X13277500Y-8122000D01*
X13237500Y-8082000D02*
X13317500Y-8082000D01*
X11402000Y-9437500D02*
X11402000Y-9517500D01*
X11362000Y-9477500D02*
X11442000Y-9477500D01*
X11402000Y-10199500D02*
X11402000Y-10279500D01*
X11362000Y-10239500D02*
X11442000Y-10239500D01*
X11656000Y-9437500D02*
X11656000Y-9517500D01*
X11616000Y-9477500D02*
X11696000Y-9477500D01*
X11656000Y-10199500D02*
X11656000Y-10279500D01*
X11616000Y-10239500D02*
X11696000Y-10239500D01*
X11910000Y-9437500D02*
X11910000Y-9517500D01*
X11870000Y-9477500D02*
X11950000Y-9477500D01*
X11910000Y-10199500D02*
X11910000Y-10279500D01*
X11870000Y-10239500D02*
X11950000Y-10239500D01*
X12164000Y-9437500D02*
X12164000Y-9517500D01*
X12124000Y-9477500D02*
X12204000Y-9477500D01*
X12164000Y-10199500D02*
X12164000Y-10279500D01*
X12124000Y-10239500D02*
X12204000Y-10239500D01*
X12418000Y-9437500D02*
X12418000Y-9517500D01*
X12378000Y-9477500D02*
X12458000Y-9477500D01*
X12418000Y-10199500D02*
X12418000Y-10279500D01*
X12378000Y-10239500D02*
X12458000Y-10239500D01*
X12672000Y-9437500D02*
X12672000Y-9517500D01*
X12632000Y-9477500D02*
X12712000Y-9477500D01*
X12672000Y-10199500D02*
X12672000Y-10279500D01*
X12632000Y-10239500D02*
X12712000Y-10239500D01*
X12926000Y-9437500D02*
X12926000Y-9517500D01*
X12886000Y-9477500D02*
X12966000Y-9477500D01*
X12926000Y-10199500D02*
X12926000Y-10279500D01*
X12886000Y-10239500D02*
X12966000Y-10239500D01*
X13180000Y-9437500D02*
X13180000Y-9517500D01*
X13140000Y-9477500D02*
X13220000Y-9477500D01*
X13180000Y-10199500D02*
X13180000Y-10279500D01*
X13140000Y-10239500D02*
X13220000Y-10239500D01*
X20290500Y-8060000D02*
X20290500Y-8140000D01*
X20250500Y-8100000D02*
X20330500Y-8100000D01*
X20260500Y-8075000D02*
X20260500Y-8125000D01*
X20320500Y-8075000D02*
X20320500Y-8125000D01*
X20260500Y-8125000D02*
G75*
G03*
X20320500Y-8125000I30000J0D01*
G01*
X20320500Y-8075000D02*
G75*
G03*
X20260500Y-8075000I-30000J0D01*
G01*
X20290500Y-8880000D02*
X20290500Y-8960000D01*
X20250500Y-8920000D02*
X20330500Y-8920000D01*
X20260500Y-8895000D02*
X20260500Y-8945000D01*
X20320500Y-8895000D02*
X20320500Y-8945000D01*
X20260500Y-8945000D02*
G75*
G03*
X20320500Y-8945000I30000J0D01*
G01*
X20320500Y-8895000D02*
G75*
G03*
X20260500Y-8895000I-30000J0D01*
G01*
X20584500Y-8060000D02*
X20584500Y-8140000D01*
X20544500Y-8100000D02*
X20624500Y-8100000D01*
X20554500Y-8075000D02*
X20554500Y-8125000D01*
X20614500Y-8075000D02*
X20614500Y-8125000D01*
X20554500Y-8125000D02*
G75*
G03*
X20614500Y-8125000I30000J0D01*
G01*
X20614500Y-8075000D02*
G75*
G03*
X20554500Y-8075000I-30000J0D01*
G01*
X20584500Y-8880000D02*
X20584500Y-8960000D01*
X20544500Y-8920000D02*
X20624500Y-8920000D01*
X20554500Y-8895000D02*
X20554500Y-8945000D01*
X20614500Y-8895000D02*
X20614500Y-8945000D01*
X20554500Y-8945000D02*
G75*
G03*
X20614500Y-8945000I30000J0D01*
G01*
X20614500Y-8895000D02*
G75*
G03*
X20554500Y-8895000I-30000J0D01*
G01*
X14892356Y-9827356D02*
X14892356Y-9756644D01*
X14821644Y-9756644D01*
X14821644Y-9827356D01*
X14892356Y-9827356D01*
X14892356Y-10081356D02*
X14892356Y-10010644D01*
X14821644Y-10010644D01*
X14821644Y-10081356D01*
X14892356Y-10081356D01*
X15146356Y-9827356D02*
X15146356Y-9756644D01*
X15075644Y-9756644D01*
X15075644Y-9827356D01*
X15146356Y-9827356D01*
X15146356Y-10081356D02*
X15146356Y-10010644D01*
X15075644Y-10010644D01*
X15075644Y-10081356D01*
X15146356Y-10081356D01*
X15400356Y-9827356D02*
X15400356Y-9756644D01*
X15329644Y-9756644D01*
X15329644Y-9827356D01*
X15400356Y-9827356D01*
X15400356Y-10081356D02*
X15400356Y-10010644D01*
X15329644Y-10010644D01*
X15329644Y-10081356D01*
X15400356Y-10081356D01*
X15654356Y-9827356D02*
X15654356Y-9756644D01*
X15583644Y-9756644D01*
X15583644Y-9827356D01*
X15654356Y-9827356D01*
X15654356Y-10081356D02*
X15654356Y-10010644D01*
X15583644Y-10010644D01*
X15583644Y-10081356D01*
X15654356Y-10081356D01*
X15908356Y-9827356D02*
X15908356Y-9756644D01*
X15837644Y-9756644D01*
X15837644Y-9827356D01*
X15908356Y-9827356D01*
X15908356Y-10081356D02*
X15908356Y-10010644D01*
X15837644Y-10010644D01*
X15837644Y-10081356D01*
X15908356Y-10081356D01*
X16162356Y-9827356D02*
X16162356Y-9756644D01*
X16091644Y-9756644D01*
X16091644Y-9827356D01*
X16162356Y-9827356D01*
X16162356Y-10081356D02*
X16162356Y-10010644D01*
X16091644Y-10010644D01*
X16091644Y-10081356D01*
X16162356Y-10081356D01*
X16416356Y-9827356D02*
X16416356Y-9756644D01*
X16345644Y-9756644D01*
X16345644Y-9827356D01*
X16416356Y-9827356D01*
X16416356Y-10081356D02*
X16416356Y-10010644D01*
X16345644Y-10010644D01*
X16345644Y-10081356D01*
X16416356Y-10081356D01*
X16670356Y-9827356D02*
X16670356Y-9756644D01*
X16599644Y-9756644D01*
X16599644Y-9827356D01*
X16670356Y-9827356D01*
X16670356Y-10081356D02*
X16670356Y-10010644D01*
X16599644Y-10010644D01*
X16599644Y-10081356D01*
X16670356Y-10081356D01*
X16924356Y-9827356D02*
X16924356Y-9756644D01*
X16853644Y-9756644D01*
X16853644Y-9827356D01*
X16924356Y-9827356D01*
X16924356Y-10081356D02*
X16924356Y-10010644D01*
X16853644Y-10010644D01*
X16853644Y-10081356D01*
X16924356Y-10081356D01*
X17178356Y-9827356D02*
X17178356Y-9756644D01*
X17107644Y-9756644D01*
X17107644Y-9827356D01*
X17178356Y-9827356D01*
X17178356Y-10081356D02*
X17178356Y-10010644D01*
X17107644Y-10010644D01*
X17107644Y-10081356D01*
X17178356Y-10081356D01*
X18490956Y-9220756D02*
X18490956Y-9150044D01*
X18420244Y-9150044D01*
X18420244Y-9220756D01*
X18490956Y-9220756D01*
X18998956Y-7696756D02*
X18998956Y-7626044D01*
X18928244Y-7626044D01*
X18928244Y-7696756D01*
X18998956Y-7696756D01*
X19760956Y-7696756D02*
X19760956Y-7626044D01*
X19690244Y-7626044D01*
X19690244Y-7696756D01*
X19760956Y-7696756D01*
X19760956Y-9220756D02*
X19760956Y-9150044D01*
X19690244Y-9150044D01*
X19690244Y-9220756D01*
X19760956Y-9220756D01*
X18408000Y-9951210D02*
X18462610Y-9896600D01*
X18408000Y-9841990D01*
X18353390Y-9896600D01*
X18408000Y-9951210D01*
X20158000Y-9951210D02*
X20212610Y-9896600D01*
X20158000Y-9841990D01*
X20103390Y-9896600D01*
X20158000Y-9951210D01*
D12*
X11283928Y-10968214D02*
X11283928Y-10668214D01*
X11355357Y-10668214D01*
X11398214Y-10682500D01*
X11426786Y-10711072D01*
X11441071Y-10739643D01*
X11455357Y-10796786D01*
X11455357Y-10839643D01*
X11441071Y-10896786D01*
X11426786Y-10925357D01*
X11398214Y-10953929D01*
X11355357Y-10968214D01*
X11283928Y-10968214D01*
X11583928Y-10968214D02*
X11583928Y-10768214D01*
X11583928Y-10825357D02*
X11598214Y-10796786D01*
X11612500Y-10782500D01*
X11641071Y-10768214D01*
X11669643Y-10768214D01*
X11769643Y-10968214D02*
X11769643Y-10768214D01*
X11769643Y-10668214D02*
X11755357Y-10682500D01*
X11769643Y-10696786D01*
X11783928Y-10682500D01*
X11769643Y-10668214D01*
X11769643Y-10696786D01*
X11955357Y-10968214D02*
X11926786Y-10953929D01*
X11912500Y-10925357D01*
X11912500Y-10668214D01*
X12112500Y-10968214D02*
X12083928Y-10953929D01*
X12069643Y-10925357D01*
X12069643Y-10668214D01*
X12455357Y-10968214D02*
X12455357Y-10668214D01*
X12555357Y-10882500D01*
X12655357Y-10668214D01*
X12655357Y-10968214D01*
X12926786Y-10968214D02*
X12926786Y-10811072D01*
X12912500Y-10782500D01*
X12883928Y-10768214D01*
X12826786Y-10768214D01*
X12798214Y-10782500D01*
X12926786Y-10953929D02*
X12898214Y-10968214D01*
X12826786Y-10968214D01*
X12798214Y-10953929D01*
X12783928Y-10925357D01*
X12783928Y-10896786D01*
X12798214Y-10868214D01*
X12826786Y-10853929D01*
X12898214Y-10853929D01*
X12926786Y-10839643D01*
X13069643Y-10768214D02*
X13069643Y-11068214D01*
X13069643Y-10782500D02*
X13098214Y-10768214D01*
X13155357Y-10768214D01*
X13183928Y-10782500D01*
X13198214Y-10796786D01*
X13212500Y-10825357D01*
X13212500Y-10911072D01*
X13198214Y-10939643D01*
X13183928Y-10953929D01*
X13155357Y-10968214D01*
X13098214Y-10968214D01*
X13069643Y-10953929D01*
X13341071Y-10939643D02*
X13355357Y-10953929D01*
X13341071Y-10968214D01*
X13326786Y-10953929D01*
X13341071Y-10939643D01*
X13341071Y-10968214D01*
X13341071Y-10782500D02*
X13355357Y-10796786D01*
X13341071Y-10811072D01*
X13326786Y-10796786D01*
X13341071Y-10782500D01*
X13341071Y-10811072D01*
X10977500Y-11452500D02*
X10997500Y-11472500D01*
X10997500Y-11452500D02*
X10977500Y-11472500D01*
X11341071Y-11298214D02*
X11369643Y-11298214D01*
X11398214Y-11312500D01*
X11412500Y-11326786D01*
X11426786Y-11355357D01*
X11441071Y-11412500D01*
X11441071Y-11483929D01*
X11426786Y-11541071D01*
X11412500Y-11569643D01*
X11398214Y-11583929D01*
X11369643Y-11598214D01*
X11341071Y-11598214D01*
X11312500Y-11583929D01*
X11298214Y-11569643D01*
X11283928Y-11541071D01*
X11269643Y-11483929D01*
X11269643Y-11412500D01*
X11283928Y-11355357D01*
X11298214Y-11326786D01*
X11312500Y-11312500D01*
X11341071Y-11298214D01*
X11569643Y-11569643D02*
X11583928Y-11583929D01*
X11569643Y-11598214D01*
X11555357Y-11583929D01*
X11569643Y-11569643D01*
X11569643Y-11598214D01*
X11698214Y-11326786D02*
X11712500Y-11312500D01*
X11741071Y-11298214D01*
X11812500Y-11298214D01*
X11841071Y-11312500D01*
X11855357Y-11326786D01*
X11869643Y-11355357D01*
X11869643Y-11383929D01*
X11855357Y-11426786D01*
X11683928Y-11598214D01*
X11869643Y-11598214D01*
X12055357Y-11298214D02*
X12083928Y-11298214D01*
X12112500Y-11312500D01*
X12126786Y-11326786D01*
X12141071Y-11355357D01*
X12155357Y-11412500D01*
X12155357Y-11483929D01*
X12141071Y-11541071D01*
X12126786Y-11569643D01*
X12112500Y-11583929D01*
X12083928Y-11598214D01*
X12055357Y-11598214D01*
X12026786Y-11583929D01*
X12012500Y-11569643D01*
X11998214Y-11541071D01*
X11983928Y-11483929D01*
X11983928Y-11412500D01*
X11998214Y-11355357D01*
X12012500Y-11326786D01*
X12026786Y-11312500D01*
X12055357Y-11298214D01*
X12283928Y-11598214D02*
X12283928Y-11398214D01*
X12283928Y-11426786D02*
X12298214Y-11412500D01*
X12326786Y-11398214D01*
X12369643Y-11398214D01*
X12398214Y-11412500D01*
X12412500Y-11441071D01*
X12412500Y-11598214D01*
X12412500Y-11441071D02*
X12426786Y-11412500D01*
X12455357Y-11398214D01*
X12498214Y-11398214D01*
X12526786Y-11412500D01*
X12541071Y-11441071D01*
X12541071Y-11598214D01*
X12683928Y-11598214D02*
X12683928Y-11398214D01*
X12683928Y-11426786D02*
X12698214Y-11412500D01*
X12726786Y-11398214D01*
X12769643Y-11398214D01*
X12798214Y-11412500D01*
X12812500Y-11441071D01*
X12812500Y-11598214D01*
X12812500Y-11441071D02*
X12826786Y-11412500D01*
X12855357Y-11398214D01*
X12898214Y-11398214D01*
X12926786Y-11412500D01*
X12941071Y-11441071D01*
X12941071Y-11598214D01*
X13526786Y-11283929D02*
X13269643Y-11669643D01*
X13912500Y-11298214D02*
X13941071Y-11298214D01*
X13969643Y-11312500D01*
X13983928Y-11326786D01*
X13998214Y-11355357D01*
X14012500Y-11412500D01*
X14012500Y-11483929D01*
X13998214Y-11541071D01*
X13983928Y-11569643D01*
X13969643Y-11583929D01*
X13941071Y-11598214D01*
X13912500Y-11598214D01*
X13883928Y-11583929D01*
X13869643Y-11569643D01*
X13855357Y-11541071D01*
X13841071Y-11483929D01*
X13841071Y-11412500D01*
X13855357Y-11355357D01*
X13869643Y-11326786D01*
X13883928Y-11312500D01*
X13912500Y-11298214D01*
X14141071Y-11569643D02*
X14155357Y-11583929D01*
X14141071Y-11598214D01*
X14126786Y-11583929D01*
X14141071Y-11569643D01*
X14141071Y-11598214D01*
X14341071Y-11298214D02*
X14369643Y-11298214D01*
X14398214Y-11312500D01*
X14412500Y-11326786D01*
X14426786Y-11355357D01*
X14441071Y-11412500D01*
X14441071Y-11483929D01*
X14426786Y-11541071D01*
X14412500Y-11569643D01*
X14398214Y-11583929D01*
X14369643Y-11598214D01*
X14341071Y-11598214D01*
X14312500Y-11583929D01*
X14298214Y-11569643D01*
X14283928Y-11541071D01*
X14269643Y-11483929D01*
X14269643Y-11412500D01*
X14283928Y-11355357D01*
X14298214Y-11326786D01*
X14312500Y-11312500D01*
X14341071Y-11298214D01*
X14626786Y-11298214D02*
X14655357Y-11298214D01*
X14683928Y-11312500D01*
X14698214Y-11326786D01*
X14712500Y-11355357D01*
X14726786Y-11412500D01*
X14726786Y-11483929D01*
X14712500Y-11541071D01*
X14698214Y-11569643D01*
X14683928Y-11583929D01*
X14655357Y-11598214D01*
X14626786Y-11598214D01*
X14598214Y-11583929D01*
X14583928Y-11569643D01*
X14569643Y-11541071D01*
X14555357Y-11483929D01*
X14555357Y-11412500D01*
X14569643Y-11355357D01*
X14583928Y-11326786D01*
X14598214Y-11312500D01*
X14626786Y-11298214D01*
X14898214Y-11426786D02*
X14869643Y-11412500D01*
X14855357Y-11398214D01*
X14841071Y-11369643D01*
X14841071Y-11355357D01*
X14855357Y-11326786D01*
X14869643Y-11312500D01*
X14898214Y-11298214D01*
X14955357Y-11298214D01*
X14983928Y-11312500D01*
X14998214Y-11326786D01*
X15012500Y-11355357D01*
X15012500Y-11369643D01*
X14998214Y-11398214D01*
X14983928Y-11412500D01*
X14955357Y-11426786D01*
X14898214Y-11426786D01*
X14869643Y-11441071D01*
X14855357Y-11455357D01*
X14841071Y-11483929D01*
X14841071Y-11541071D01*
X14855357Y-11569643D01*
X14869643Y-11583929D01*
X14898214Y-11598214D01*
X14955357Y-11598214D01*
X14983928Y-11583929D01*
X14998214Y-11569643D01*
X15012500Y-11541071D01*
X15012500Y-11483929D01*
X14998214Y-11455357D01*
X14983928Y-11441071D01*
X14955357Y-11426786D01*
X15126786Y-11298214D02*
X15126786Y-11355357D01*
X15241071Y-11298214D02*
X15241071Y-11355357D01*
X15683928Y-11712500D02*
X15669643Y-11698214D01*
X15641071Y-11655357D01*
X15626786Y-11626786D01*
X15612500Y-11583929D01*
X15598214Y-11512500D01*
X15598214Y-11455357D01*
X15612500Y-11383929D01*
X15626786Y-11341071D01*
X15641071Y-11312500D01*
X15669643Y-11269643D01*
X15683928Y-11255357D01*
X15841071Y-11426786D02*
X15812500Y-11412500D01*
X15798214Y-11398214D01*
X15783928Y-11369643D01*
X15783928Y-11355357D01*
X15798214Y-11326786D01*
X15812500Y-11312500D01*
X15841071Y-11298214D01*
X15898214Y-11298214D01*
X15926786Y-11312500D01*
X15941071Y-11326786D01*
X15955357Y-11355357D01*
X15955357Y-11369643D01*
X15941071Y-11398214D01*
X15926786Y-11412500D01*
X15898214Y-11426786D01*
X15841071Y-11426786D01*
X15812500Y-11441071D01*
X15798214Y-11455357D01*
X15783928Y-11483929D01*
X15783928Y-11541071D01*
X15798214Y-11569643D01*
X15812500Y-11583929D01*
X15841071Y-11598214D01*
X15898214Y-11598214D01*
X15926786Y-11583929D01*
X15941071Y-11569643D01*
X15955357Y-11541071D01*
X15955357Y-11483929D01*
X15941071Y-11455357D01*
X15926786Y-11441071D01*
X15898214Y-11426786D01*
X16055357Y-11298214D02*
X16255357Y-11298214D01*
X16126786Y-11598214D01*
X16598214Y-11598214D02*
X16598214Y-11298214D01*
X16726786Y-11598214D02*
X16726786Y-11441071D01*
X16712500Y-11412500D01*
X16683928Y-11398214D01*
X16641071Y-11398214D01*
X16612500Y-11412500D01*
X16598214Y-11426786D01*
X16912500Y-11598214D02*
X16883928Y-11583929D01*
X16869643Y-11569643D01*
X16855357Y-11541071D01*
X16855357Y-11455357D01*
X16869643Y-11426786D01*
X16883928Y-11412500D01*
X16912500Y-11398214D01*
X16955357Y-11398214D01*
X16983928Y-11412500D01*
X16998214Y-11426786D01*
X17012500Y-11455357D01*
X17012500Y-11541071D01*
X16998214Y-11569643D01*
X16983928Y-11583929D01*
X16955357Y-11598214D01*
X16912500Y-11598214D01*
X17183928Y-11598214D02*
X17155357Y-11583929D01*
X17141071Y-11555357D01*
X17141071Y-11298214D01*
X17412500Y-11583929D02*
X17383928Y-11598214D01*
X17326786Y-11598214D01*
X17298214Y-11583929D01*
X17283928Y-11555357D01*
X17283928Y-11441071D01*
X17298214Y-11412500D01*
X17326786Y-11398214D01*
X17383928Y-11398214D01*
X17412500Y-11412500D01*
X17426786Y-11441071D01*
X17426786Y-11469643D01*
X17283928Y-11498214D01*
X17541071Y-11583929D02*
X17569643Y-11598214D01*
X17626786Y-11598214D01*
X17655357Y-11583929D01*
X17669643Y-11555357D01*
X17669643Y-11541071D01*
X17655357Y-11512500D01*
X17626786Y-11498214D01*
X17583928Y-11498214D01*
X17555357Y-11483929D01*
X17541071Y-11455357D01*
X17541071Y-11441071D01*
X17555357Y-11412500D01*
X17583928Y-11398214D01*
X17626786Y-11398214D01*
X17655357Y-11412500D01*
X17769643Y-11712500D02*
X17783928Y-11698214D01*
X17812500Y-11655357D01*
X17826786Y-11626786D01*
X17841071Y-11583929D01*
X17855357Y-11512500D01*
X17855357Y-11455357D01*
X17841071Y-11383929D01*
X17826786Y-11341071D01*
X17812500Y-11312500D01*
X17783928Y-11269643D01*
X17769643Y-11255357D01*
X10997500Y-11858500D02*
G75*
G03*
X10997500Y-11858500I-16500J0D01*
G01*
X11341071Y-11694214D02*
X11369643Y-11694214D01*
X11398214Y-11708500D01*
X11412500Y-11722786D01*
X11426786Y-11751357D01*
X11441071Y-11808500D01*
X11441071Y-11879929D01*
X11426786Y-11937071D01*
X11412500Y-11965643D01*
X11398214Y-11979929D01*
X11369643Y-11994214D01*
X11341071Y-11994214D01*
X11312500Y-11979929D01*
X11298214Y-11965643D01*
X11283928Y-11937071D01*
X11269643Y-11879929D01*
X11269643Y-11808500D01*
X11283928Y-11751357D01*
X11298214Y-11722786D01*
X11312500Y-11708500D01*
X11341071Y-11694214D01*
X11569643Y-11965643D02*
X11583928Y-11979929D01*
X11569643Y-11994214D01*
X11555357Y-11979929D01*
X11569643Y-11965643D01*
X11569643Y-11994214D01*
X11683928Y-11694214D02*
X11869643Y-11694214D01*
X11769643Y-11808500D01*
X11812500Y-11808500D01*
X11841071Y-11822786D01*
X11855357Y-11837071D01*
X11869643Y-11865643D01*
X11869643Y-11937071D01*
X11855357Y-11965643D01*
X11841071Y-11979929D01*
X11812500Y-11994214D01*
X11726786Y-11994214D01*
X11698214Y-11979929D01*
X11683928Y-11965643D01*
X11969643Y-11694214D02*
X12155357Y-11694214D01*
X12055357Y-11808500D01*
X12098214Y-11808500D01*
X12126786Y-11822786D01*
X12141071Y-11837071D01*
X12155357Y-11865643D01*
X12155357Y-11937071D01*
X12141071Y-11965643D01*
X12126786Y-11979929D01*
X12098214Y-11994214D01*
X12012500Y-11994214D01*
X11983928Y-11979929D01*
X11969643Y-11965643D01*
X12283928Y-11994214D02*
X12283928Y-11794214D01*
X12283928Y-11822786D02*
X12298214Y-11808500D01*
X12326786Y-11794214D01*
X12369643Y-11794214D01*
X12398214Y-11808500D01*
X12412500Y-11837071D01*
X12412500Y-11994214D01*
X12412500Y-11837071D02*
X12426786Y-11808500D01*
X12455357Y-11794214D01*
X12498214Y-11794214D01*
X12526786Y-11808500D01*
X12541071Y-11837071D01*
X12541071Y-11994214D01*
X12683928Y-11994214D02*
X12683928Y-11794214D01*
X12683928Y-11822786D02*
X12698214Y-11808500D01*
X12726786Y-11794214D01*
X12769643Y-11794214D01*
X12798214Y-11808500D01*
X12812500Y-11837071D01*
X12812500Y-11994214D01*
X12812500Y-11837071D02*
X12826786Y-11808500D01*
X12855357Y-11794214D01*
X12898214Y-11794214D01*
X12926786Y-11808500D01*
X12941071Y-11837071D01*
X12941071Y-11994214D01*
X13526786Y-11679929D02*
X13269643Y-12065643D01*
X13912500Y-11694214D02*
X13941071Y-11694214D01*
X13969643Y-11708500D01*
X13983928Y-11722786D01*
X13998214Y-11751357D01*
X14012500Y-11808500D01*
X14012500Y-11879929D01*
X13998214Y-11937071D01*
X13983928Y-11965643D01*
X13969643Y-11979929D01*
X13941071Y-11994214D01*
X13912500Y-11994214D01*
X13883928Y-11979929D01*
X13869643Y-11965643D01*
X13855357Y-11937071D01*
X13841071Y-11879929D01*
X13841071Y-11808500D01*
X13855357Y-11751357D01*
X13869643Y-11722786D01*
X13883928Y-11708500D01*
X13912500Y-11694214D01*
X14141071Y-11965643D02*
X14155357Y-11979929D01*
X14141071Y-11994214D01*
X14126786Y-11979929D01*
X14141071Y-11965643D01*
X14141071Y-11994214D01*
X14341071Y-11694214D02*
X14369643Y-11694214D01*
X14398214Y-11708500D01*
X14412500Y-11722786D01*
X14426786Y-11751357D01*
X14441071Y-11808500D01*
X14441071Y-11879929D01*
X14426786Y-11937071D01*
X14412500Y-11965643D01*
X14398214Y-11979929D01*
X14369643Y-11994214D01*
X14341071Y-11994214D01*
X14312500Y-11979929D01*
X14298214Y-11965643D01*
X14283928Y-11937071D01*
X14269643Y-11879929D01*
X14269643Y-11808500D01*
X14283928Y-11751357D01*
X14298214Y-11722786D01*
X14312500Y-11708500D01*
X14341071Y-11694214D01*
X14726786Y-11994214D02*
X14555357Y-11994214D01*
X14641071Y-11994214D02*
X14641071Y-11694214D01*
X14612500Y-11737071D01*
X14583928Y-11765643D01*
X14555357Y-11779929D01*
X14826786Y-11694214D02*
X15012500Y-11694214D01*
X14912500Y-11808500D01*
X14955357Y-11808500D01*
X14983928Y-11822786D01*
X14998214Y-11837071D01*
X15012500Y-11865643D01*
X15012500Y-11937071D01*
X14998214Y-11965643D01*
X14983928Y-11979929D01*
X14955357Y-11994214D01*
X14869643Y-11994214D01*
X14841071Y-11979929D01*
X14826786Y-11965643D01*
X15126786Y-11694214D02*
X15126786Y-11751357D01*
X15241071Y-11694214D02*
X15241071Y-11751357D01*
X15683928Y-12108500D02*
X15669643Y-12094214D01*
X15641071Y-12051357D01*
X15626786Y-12022786D01*
X15612500Y-11979929D01*
X15598214Y-11908500D01*
X15598214Y-11851357D01*
X15612500Y-11779929D01*
X15626786Y-11737071D01*
X15641071Y-11708500D01*
X15669643Y-11665643D01*
X15683928Y-11651357D01*
X15783928Y-11722786D02*
X15798214Y-11708500D01*
X15826786Y-11694214D01*
X15898214Y-11694214D01*
X15926786Y-11708500D01*
X15941071Y-11722786D01*
X15955357Y-11751357D01*
X15955357Y-11779929D01*
X15941071Y-11822786D01*
X15769643Y-11994214D01*
X15955357Y-11994214D01*
X16098214Y-11994214D02*
X16155357Y-11994214D01*
X16183928Y-11979929D01*
X16198214Y-11965643D01*
X16226786Y-11922786D01*
X16241071Y-11865643D01*
X16241071Y-11751357D01*
X16226786Y-11722786D01*
X16212500Y-11708500D01*
X16183928Y-11694214D01*
X16126786Y-11694214D01*
X16098214Y-11708500D01*
X16083928Y-11722786D01*
X16069643Y-11751357D01*
X16069643Y-11822786D01*
X16083928Y-11851357D01*
X16098214Y-11865643D01*
X16126786Y-11879929D01*
X16183928Y-11879929D01*
X16212500Y-11865643D01*
X16226786Y-11851357D01*
X16241071Y-11822786D01*
X16598214Y-11994214D02*
X16598214Y-11694214D01*
X16726786Y-11994214D02*
X16726786Y-11837071D01*
X16712500Y-11808500D01*
X16683928Y-11794214D01*
X16641071Y-11794214D01*
X16612500Y-11808500D01*
X16598214Y-11822786D01*
X16912500Y-11994214D02*
X16883928Y-11979929D01*
X16869643Y-11965643D01*
X16855357Y-11937071D01*
X16855357Y-11851357D01*
X16869643Y-11822786D01*
X16883928Y-11808500D01*
X16912500Y-11794214D01*
X16955357Y-11794214D01*
X16983928Y-11808500D01*
X16998214Y-11822786D01*
X17012500Y-11851357D01*
X17012500Y-11937071D01*
X16998214Y-11965643D01*
X16983928Y-11979929D01*
X16955357Y-11994214D01*
X16912500Y-11994214D01*
X17183928Y-11994214D02*
X17155357Y-11979929D01*
X17141071Y-11951357D01*
X17141071Y-11694214D01*
X17412500Y-11979929D02*
X17383928Y-11994214D01*
X17326786Y-11994214D01*
X17298214Y-11979929D01*
X17283928Y-11951357D01*
X17283928Y-11837071D01*
X17298214Y-11808500D01*
X17326786Y-11794214D01*
X17383928Y-11794214D01*
X17412500Y-11808500D01*
X17426786Y-11837071D01*
X17426786Y-11865643D01*
X17283928Y-11894214D01*
X17541071Y-11979929D02*
X17569643Y-11994214D01*
X17626786Y-11994214D01*
X17655357Y-11979929D01*
X17669643Y-11951357D01*
X17669643Y-11937071D01*
X17655357Y-11908500D01*
X17626786Y-11894214D01*
X17583928Y-11894214D01*
X17555357Y-11879929D01*
X17541071Y-11851357D01*
X17541071Y-11837071D01*
X17555357Y-11808500D01*
X17583928Y-11794214D01*
X17626786Y-11794214D01*
X17655357Y-11808500D01*
X17769643Y-12108500D02*
X17783928Y-12094214D01*
X17812500Y-12051357D01*
X17826786Y-12022786D01*
X17841071Y-11979929D01*
X17855357Y-11908500D01*
X17855357Y-11851357D01*
X17841071Y-11779929D01*
X17826786Y-11737071D01*
X17812500Y-11708500D01*
X17783928Y-11665643D01*
X17769643Y-11651357D01*
X10957500Y-12214500D02*
X10957500Y-12294500D01*
X10917500Y-12254500D02*
X10997500Y-12254500D01*
X11341071Y-12090214D02*
X11369643Y-12090214D01*
X11398214Y-12104500D01*
X11412500Y-12118786D01*
X11426786Y-12147357D01*
X11441071Y-12204500D01*
X11441071Y-12275929D01*
X11426786Y-12333071D01*
X11412500Y-12361643D01*
X11398214Y-12375929D01*
X11369643Y-12390214D01*
X11341071Y-12390214D01*
X11312500Y-12375929D01*
X11298214Y-12361643D01*
X11283928Y-12333071D01*
X11269643Y-12275929D01*
X11269643Y-12204500D01*
X11283928Y-12147357D01*
X11298214Y-12118786D01*
X11312500Y-12104500D01*
X11341071Y-12090214D01*
X11569643Y-12361643D02*
X11583928Y-12375929D01*
X11569643Y-12390214D01*
X11555357Y-12375929D01*
X11569643Y-12361643D01*
X11569643Y-12390214D01*
X11755357Y-12218786D02*
X11726786Y-12204500D01*
X11712500Y-12190214D01*
X11698214Y-12161643D01*
X11698214Y-12147357D01*
X11712500Y-12118786D01*
X11726786Y-12104500D01*
X11755357Y-12090214D01*
X11812500Y-12090214D01*
X11841071Y-12104500D01*
X11855357Y-12118786D01*
X11869643Y-12147357D01*
X11869643Y-12161643D01*
X11855357Y-12190214D01*
X11841071Y-12204500D01*
X11812500Y-12218786D01*
X11755357Y-12218786D01*
X11726786Y-12233071D01*
X11712500Y-12247357D01*
X11698214Y-12275929D01*
X11698214Y-12333071D01*
X11712500Y-12361643D01*
X11726786Y-12375929D01*
X11755357Y-12390214D01*
X11812500Y-12390214D01*
X11841071Y-12375929D01*
X11855357Y-12361643D01*
X11869643Y-12333071D01*
X11869643Y-12275929D01*
X11855357Y-12247357D01*
X11841071Y-12233071D01*
X11812500Y-12218786D01*
X12055357Y-12090214D02*
X12083928Y-12090214D01*
X12112500Y-12104500D01*
X12126786Y-12118786D01*
X12141071Y-12147357D01*
X12155357Y-12204500D01*
X12155357Y-12275929D01*
X12141071Y-12333071D01*
X12126786Y-12361643D01*
X12112500Y-12375929D01*
X12083928Y-12390214D01*
X12055357Y-12390214D01*
X12026786Y-12375929D01*
X12012500Y-12361643D01*
X11998214Y-12333071D01*
X11983928Y-12275929D01*
X11983928Y-12204500D01*
X11998214Y-12147357D01*
X12012500Y-12118786D01*
X12026786Y-12104500D01*
X12055357Y-12090214D01*
X12283928Y-12390214D02*
X12283928Y-12190214D01*
X12283928Y-12218786D02*
X12298214Y-12204500D01*
X12326786Y-12190214D01*
X12369643Y-12190214D01*
X12398214Y-12204500D01*
X12412500Y-12233071D01*
X12412500Y-12390214D01*
X12412500Y-12233071D02*
X12426786Y-12204500D01*
X12455357Y-12190214D01*
X12498214Y-12190214D01*
X12526786Y-12204500D01*
X12541071Y-12233071D01*
X12541071Y-12390214D01*
X12683928Y-12390214D02*
X12683928Y-12190214D01*
X12683928Y-12218786D02*
X12698214Y-12204500D01*
X12726786Y-12190214D01*
X12769643Y-12190214D01*
X12798214Y-12204500D01*
X12812500Y-12233071D01*
X12812500Y-12390214D01*
X12812500Y-12233071D02*
X12826786Y-12204500D01*
X12855357Y-12190214D01*
X12898214Y-12190214D01*
X12926786Y-12204500D01*
X12941071Y-12233071D01*
X12941071Y-12390214D01*
X13526786Y-12075929D02*
X13269643Y-12461643D01*
X13912500Y-12090214D02*
X13941071Y-12090214D01*
X13969643Y-12104500D01*
X13983928Y-12118786D01*
X13998214Y-12147357D01*
X14012500Y-12204500D01*
X14012500Y-12275929D01*
X13998214Y-12333071D01*
X13983928Y-12361643D01*
X13969643Y-12375929D01*
X13941071Y-12390214D01*
X13912500Y-12390214D01*
X13883928Y-12375929D01*
X13869643Y-12361643D01*
X13855357Y-12333071D01*
X13841071Y-12275929D01*
X13841071Y-12204500D01*
X13855357Y-12147357D01*
X13869643Y-12118786D01*
X13883928Y-12104500D01*
X13912500Y-12090214D01*
X14141071Y-12361643D02*
X14155357Y-12375929D01*
X14141071Y-12390214D01*
X14126786Y-12375929D01*
X14141071Y-12361643D01*
X14141071Y-12390214D01*
X14341071Y-12090214D02*
X14369643Y-12090214D01*
X14398214Y-12104500D01*
X14412500Y-12118786D01*
X14426786Y-12147357D01*
X14441071Y-12204500D01*
X14441071Y-12275929D01*
X14426786Y-12333071D01*
X14412500Y-12361643D01*
X14398214Y-12375929D01*
X14369643Y-12390214D01*
X14341071Y-12390214D01*
X14312500Y-12375929D01*
X14298214Y-12361643D01*
X14283928Y-12333071D01*
X14269643Y-12275929D01*
X14269643Y-12204500D01*
X14283928Y-12147357D01*
X14298214Y-12118786D01*
X14312500Y-12104500D01*
X14341071Y-12090214D01*
X14541071Y-12090214D02*
X14726786Y-12090214D01*
X14626786Y-12204500D01*
X14669643Y-12204500D01*
X14698214Y-12218786D01*
X14712500Y-12233071D01*
X14726786Y-12261643D01*
X14726786Y-12333071D01*
X14712500Y-12361643D01*
X14698214Y-12375929D01*
X14669643Y-12390214D01*
X14583928Y-12390214D01*
X14555357Y-12375929D01*
X14541071Y-12361643D01*
X15012500Y-12390214D02*
X14841071Y-12390214D01*
X14926786Y-12390214D02*
X14926786Y-12090214D01*
X14898214Y-12133071D01*
X14869643Y-12161643D01*
X14841071Y-12175929D01*
X15126786Y-12090214D02*
X15126786Y-12147357D01*
X15241071Y-12090214D02*
X15241071Y-12147357D01*
X15683928Y-12504500D02*
X15669643Y-12490214D01*
X15641071Y-12447357D01*
X15626786Y-12418786D01*
X15612500Y-12375929D01*
X15598214Y-12304500D01*
X15598214Y-12247357D01*
X15612500Y-12175929D01*
X15626786Y-12133071D01*
X15641071Y-12104500D01*
X15669643Y-12061643D01*
X15683928Y-12047357D01*
X15926786Y-12190214D02*
X15926786Y-12390214D01*
X15855357Y-12075929D02*
X15783928Y-12290214D01*
X15969643Y-12290214D01*
X16069643Y-12118786D02*
X16083928Y-12104500D01*
X16112500Y-12090214D01*
X16183928Y-12090214D01*
X16212500Y-12104500D01*
X16226786Y-12118786D01*
X16241071Y-12147357D01*
X16241071Y-12175929D01*
X16226786Y-12218786D01*
X16055357Y-12390214D01*
X16241071Y-12390214D01*
X16598214Y-12390214D02*
X16598214Y-12090214D01*
X16726786Y-12390214D02*
X16726786Y-12233071D01*
X16712500Y-12204500D01*
X16683928Y-12190214D01*
X16641071Y-12190214D01*
X16612500Y-12204500D01*
X16598214Y-12218786D01*
X16912500Y-12390214D02*
X16883928Y-12375929D01*
X16869643Y-12361643D01*
X16855357Y-12333071D01*
X16855357Y-12247357D01*
X16869643Y-12218786D01*
X16883928Y-12204500D01*
X16912500Y-12190214D01*
X16955357Y-12190214D01*
X16983928Y-12204500D01*
X16998214Y-12218786D01*
X17012500Y-12247357D01*
X17012500Y-12333071D01*
X16998214Y-12361643D01*
X16983928Y-12375929D01*
X16955357Y-12390214D01*
X16912500Y-12390214D01*
X17183928Y-12390214D02*
X17155357Y-12375929D01*
X17141071Y-12347357D01*
X17141071Y-12090214D01*
X17412500Y-12375929D02*
X17383928Y-12390214D01*
X17326786Y-12390214D01*
X17298214Y-12375929D01*
X17283928Y-12347357D01*
X17283928Y-12233071D01*
X17298214Y-12204500D01*
X17326786Y-12190214D01*
X17383928Y-12190214D01*
X17412500Y-12204500D01*
X17426786Y-12233071D01*
X17426786Y-12261643D01*
X17283928Y-12290214D01*
X17541071Y-12375929D02*
X17569643Y-12390214D01*
X17626786Y-12390214D01*
X17655357Y-12375929D01*
X17669643Y-12347357D01*
X17669643Y-12333071D01*
X17655357Y-12304500D01*
X17626786Y-12290214D01*
X17583928Y-12290214D01*
X17555357Y-12275929D01*
X17541071Y-12247357D01*
X17541071Y-12233071D01*
X17555357Y-12204500D01*
X17583928Y-12190214D01*
X17626786Y-12190214D01*
X17655357Y-12204500D01*
X18026786Y-12275929D02*
X18255357Y-12275929D01*
X18141071Y-12390214D02*
X18141071Y-12161643D01*
X18755357Y-12190214D02*
X18755357Y-12390214D01*
X18683928Y-12075929D02*
X18612500Y-12290214D01*
X18798214Y-12290214D01*
X19126786Y-12375929D02*
X19155357Y-12390214D01*
X19212500Y-12390214D01*
X19241071Y-12375929D01*
X19255357Y-12347357D01*
X19255357Y-12333071D01*
X19241071Y-12304500D01*
X19212500Y-12290214D01*
X19169643Y-12290214D01*
X19141071Y-12275929D01*
X19126786Y-12247357D01*
X19126786Y-12233071D01*
X19141071Y-12204500D01*
X19169643Y-12190214D01*
X19212500Y-12190214D01*
X19241071Y-12204500D01*
X19426786Y-12390214D02*
X19398214Y-12375929D01*
X19383928Y-12347357D01*
X19383928Y-12090214D01*
X19583928Y-12390214D02*
X19555357Y-12375929D01*
X19541071Y-12361643D01*
X19526786Y-12333071D01*
X19526786Y-12247357D01*
X19541071Y-12218786D01*
X19555357Y-12204500D01*
X19583928Y-12190214D01*
X19626786Y-12190214D01*
X19655357Y-12204500D01*
X19669643Y-12218786D01*
X19683928Y-12247357D01*
X19683928Y-12333071D01*
X19669643Y-12361643D01*
X19655357Y-12375929D01*
X19626786Y-12390214D01*
X19583928Y-12390214D01*
X19769643Y-12190214D02*
X19883928Y-12190214D01*
X19812500Y-12090214D02*
X19812500Y-12347357D01*
X19826786Y-12375929D01*
X19855357Y-12390214D01*
X19883928Y-12390214D01*
X19969643Y-12375929D02*
X19998214Y-12390214D01*
X20055357Y-12390214D01*
X20083928Y-12375929D01*
X20098214Y-12347357D01*
X20098214Y-12333071D01*
X20083928Y-12304500D01*
X20055357Y-12290214D01*
X20012500Y-12290214D01*
X19983928Y-12275929D01*
X19969643Y-12247357D01*
X19969643Y-12233071D01*
X19983928Y-12204500D01*
X20012500Y-12190214D01*
X20055357Y-12190214D01*
X20083928Y-12204500D01*
X20198214Y-12504500D02*
X20212500Y-12490214D01*
X20241071Y-12447357D01*
X20255357Y-12418786D01*
X20269643Y-12375929D01*
X20283928Y-12304500D01*
X20283928Y-12247357D01*
X20269643Y-12175929D01*
X20255357Y-12133071D01*
X20241071Y-12104500D01*
X20212500Y-12061643D01*
X20198214Y-12047357D01*
X10982856Y-12685856D02*
X10982856Y-12615144D01*
X10912144Y-12615144D01*
X10912144Y-12685856D01*
X10982856Y-12685856D01*
X11441071Y-12786214D02*
X11269643Y-12786214D01*
X11355357Y-12786214D02*
X11355357Y-12486214D01*
X11326786Y-12529071D01*
X11298214Y-12557643D01*
X11269643Y-12571929D01*
X11569643Y-12757643D02*
X11583928Y-12771929D01*
X11569643Y-12786214D01*
X11555357Y-12771929D01*
X11569643Y-12757643D01*
X11569643Y-12786214D01*
X11769643Y-12486214D02*
X11798214Y-12486214D01*
X11826786Y-12500500D01*
X11841071Y-12514786D01*
X11855357Y-12543357D01*
X11869643Y-12600500D01*
X11869643Y-12671929D01*
X11855357Y-12729071D01*
X11841071Y-12757643D01*
X11826786Y-12771929D01*
X11798214Y-12786214D01*
X11769643Y-12786214D01*
X11741071Y-12771929D01*
X11726786Y-12757643D01*
X11712500Y-12729071D01*
X11698214Y-12671929D01*
X11698214Y-12600500D01*
X11712500Y-12543357D01*
X11726786Y-12514786D01*
X11741071Y-12500500D01*
X11769643Y-12486214D01*
X12055357Y-12486214D02*
X12083928Y-12486214D01*
X12112500Y-12500500D01*
X12126786Y-12514786D01*
X12141071Y-12543357D01*
X12155357Y-12600500D01*
X12155357Y-12671929D01*
X12141071Y-12729071D01*
X12126786Y-12757643D01*
X12112500Y-12771929D01*
X12083928Y-12786214D01*
X12055357Y-12786214D01*
X12026786Y-12771929D01*
X12012500Y-12757643D01*
X11998214Y-12729071D01*
X11983928Y-12671929D01*
X11983928Y-12600500D01*
X11998214Y-12543357D01*
X12012500Y-12514786D01*
X12026786Y-12500500D01*
X12055357Y-12486214D01*
X12283928Y-12786214D02*
X12283928Y-12586214D01*
X12283928Y-12614786D02*
X12298214Y-12600500D01*
X12326786Y-12586214D01*
X12369643Y-12586214D01*
X12398214Y-12600500D01*
X12412500Y-12629071D01*
X12412500Y-12786214D01*
X12412500Y-12629071D02*
X12426786Y-12600500D01*
X12455357Y-12586214D01*
X12498214Y-12586214D01*
X12526786Y-12600500D01*
X12541071Y-12629071D01*
X12541071Y-12786214D01*
X12683928Y-12786214D02*
X12683928Y-12586214D01*
X12683928Y-12614786D02*
X12698214Y-12600500D01*
X12726786Y-12586214D01*
X12769643Y-12586214D01*
X12798214Y-12600500D01*
X12812500Y-12629071D01*
X12812500Y-12786214D01*
X12812500Y-12629071D02*
X12826786Y-12600500D01*
X12855357Y-12586214D01*
X12898214Y-12586214D01*
X12926786Y-12600500D01*
X12941071Y-12629071D01*
X12941071Y-12786214D01*
X13526786Y-12471929D02*
X13269643Y-12857643D01*
X13912500Y-12486214D02*
X13941071Y-12486214D01*
X13969643Y-12500500D01*
X13983928Y-12514786D01*
X13998214Y-12543357D01*
X14012500Y-12600500D01*
X14012500Y-12671929D01*
X13998214Y-12729071D01*
X13983928Y-12757643D01*
X13969643Y-12771929D01*
X13941071Y-12786214D01*
X13912500Y-12786214D01*
X13883928Y-12771929D01*
X13869643Y-12757643D01*
X13855357Y-12729071D01*
X13841071Y-12671929D01*
X13841071Y-12600500D01*
X13855357Y-12543357D01*
X13869643Y-12514786D01*
X13883928Y-12500500D01*
X13912500Y-12486214D01*
X14141071Y-12757643D02*
X14155357Y-12771929D01*
X14141071Y-12786214D01*
X14126786Y-12771929D01*
X14141071Y-12757643D01*
X14141071Y-12786214D01*
X14341071Y-12486214D02*
X14369643Y-12486214D01*
X14398214Y-12500500D01*
X14412500Y-12514786D01*
X14426786Y-12543357D01*
X14441071Y-12600500D01*
X14441071Y-12671929D01*
X14426786Y-12729071D01*
X14412500Y-12757643D01*
X14398214Y-12771929D01*
X14369643Y-12786214D01*
X14341071Y-12786214D01*
X14312500Y-12771929D01*
X14298214Y-12757643D01*
X14283928Y-12729071D01*
X14269643Y-12671929D01*
X14269643Y-12600500D01*
X14283928Y-12543357D01*
X14298214Y-12514786D01*
X14312500Y-12500500D01*
X14341071Y-12486214D01*
X14541071Y-12486214D02*
X14726786Y-12486214D01*
X14626786Y-12600500D01*
X14669643Y-12600500D01*
X14698214Y-12614786D01*
X14712500Y-12629071D01*
X14726786Y-12657643D01*
X14726786Y-12729071D01*
X14712500Y-12757643D01*
X14698214Y-12771929D01*
X14669643Y-12786214D01*
X14583928Y-12786214D01*
X14555357Y-12771929D01*
X14541071Y-12757643D01*
X14869643Y-12786214D02*
X14926786Y-12786214D01*
X14955357Y-12771929D01*
X14969643Y-12757643D01*
X14998214Y-12714786D01*
X15012500Y-12657643D01*
X15012500Y-12543357D01*
X14998214Y-12514786D01*
X14983928Y-12500500D01*
X14955357Y-12486214D01*
X14898214Y-12486214D01*
X14869643Y-12500500D01*
X14855357Y-12514786D01*
X14841071Y-12543357D01*
X14841071Y-12614786D01*
X14855357Y-12643357D01*
X14869643Y-12657643D01*
X14898214Y-12671929D01*
X14955357Y-12671929D01*
X14983928Y-12657643D01*
X14998214Y-12643357D01*
X15012500Y-12614786D01*
X15126786Y-12486214D02*
X15126786Y-12543357D01*
X15241071Y-12486214D02*
X15241071Y-12543357D01*
X15683928Y-12900500D02*
X15669643Y-12886214D01*
X15641071Y-12843357D01*
X15626786Y-12814786D01*
X15612500Y-12771929D01*
X15598214Y-12700500D01*
X15598214Y-12643357D01*
X15612500Y-12571929D01*
X15626786Y-12529071D01*
X15641071Y-12500500D01*
X15669643Y-12457643D01*
X15683928Y-12443357D01*
X15783928Y-12514786D02*
X15798214Y-12500500D01*
X15826786Y-12486214D01*
X15898214Y-12486214D01*
X15926786Y-12500500D01*
X15941071Y-12514786D01*
X15955357Y-12543357D01*
X15955357Y-12571929D01*
X15941071Y-12614786D01*
X15769643Y-12786214D01*
X15955357Y-12786214D01*
X16212500Y-12586214D02*
X16212500Y-12786214D01*
X16141071Y-12471929D02*
X16069643Y-12686214D01*
X16255357Y-12686214D01*
X16598214Y-12786214D02*
X16598214Y-12486214D01*
X16726786Y-12786214D02*
X16726786Y-12629071D01*
X16712500Y-12600500D01*
X16683928Y-12586214D01*
X16641071Y-12586214D01*
X16612500Y-12600500D01*
X16598214Y-12614786D01*
X16912500Y-12786214D02*
X16883928Y-12771929D01*
X16869643Y-12757643D01*
X16855357Y-12729071D01*
X16855357Y-12643357D01*
X16869643Y-12614786D01*
X16883928Y-12600500D01*
X16912500Y-12586214D01*
X16955357Y-12586214D01*
X16983928Y-12600500D01*
X16998214Y-12614786D01*
X17012500Y-12643357D01*
X17012500Y-12729071D01*
X16998214Y-12757643D01*
X16983928Y-12771929D01*
X16955357Y-12786214D01*
X16912500Y-12786214D01*
X17183928Y-12786214D02*
X17155357Y-12771929D01*
X17141071Y-12743357D01*
X17141071Y-12486214D01*
X17412500Y-12771929D02*
X17383928Y-12786214D01*
X17326786Y-12786214D01*
X17298214Y-12771929D01*
X17283928Y-12743357D01*
X17283928Y-12629071D01*
X17298214Y-12600500D01*
X17326786Y-12586214D01*
X17383928Y-12586214D01*
X17412500Y-12600500D01*
X17426786Y-12629071D01*
X17426786Y-12657643D01*
X17283928Y-12686214D01*
X17541071Y-12771929D02*
X17569643Y-12786214D01*
X17626786Y-12786214D01*
X17655357Y-12771929D01*
X17669643Y-12743357D01*
X17669643Y-12729071D01*
X17655357Y-12700500D01*
X17626786Y-12686214D01*
X17583928Y-12686214D01*
X17555357Y-12671929D01*
X17541071Y-12643357D01*
X17541071Y-12629071D01*
X17555357Y-12600500D01*
X17583928Y-12586214D01*
X17626786Y-12586214D01*
X17655357Y-12600500D01*
X17769643Y-12900500D02*
X17783928Y-12886214D01*
X17812500Y-12843357D01*
X17826786Y-12814786D01*
X17841071Y-12771929D01*
X17855357Y-12700500D01*
X17855357Y-12643357D01*
X17841071Y-12571929D01*
X17826786Y-12529071D01*
X17812500Y-12500500D01*
X17783928Y-12457643D01*
X17769643Y-12443357D01*
X10942890Y-13101110D02*
X10997500Y-13046500D01*
X10942890Y-12991890D01*
X10888280Y-13046500D01*
X10942890Y-13101110D01*
X11441071Y-13182214D02*
X11269643Y-13182214D01*
X11355357Y-13182214D02*
X11355357Y-12882214D01*
X11326786Y-12925071D01*
X11298214Y-12953643D01*
X11269643Y-12967929D01*
X11569643Y-13153643D02*
X11583928Y-13167929D01*
X11569643Y-13182214D01*
X11555357Y-13167929D01*
X11569643Y-13153643D01*
X11569643Y-13182214D01*
X11769643Y-12882214D02*
X11798214Y-12882214D01*
X11826786Y-12896500D01*
X11841071Y-12910786D01*
X11855357Y-12939357D01*
X11869643Y-12996500D01*
X11869643Y-13067929D01*
X11855357Y-13125071D01*
X11841071Y-13153643D01*
X11826786Y-13167929D01*
X11798214Y-13182214D01*
X11769643Y-13182214D01*
X11741071Y-13167929D01*
X11726786Y-13153643D01*
X11712500Y-13125071D01*
X11698214Y-13067929D01*
X11698214Y-12996500D01*
X11712500Y-12939357D01*
X11726786Y-12910786D01*
X11741071Y-12896500D01*
X11769643Y-12882214D01*
X12012500Y-13182214D02*
X12069643Y-13182214D01*
X12098214Y-13167929D01*
X12112500Y-13153643D01*
X12141071Y-13110786D01*
X12155357Y-13053643D01*
X12155357Y-12939357D01*
X12141071Y-12910786D01*
X12126786Y-12896500D01*
X12098214Y-12882214D01*
X12041071Y-12882214D01*
X12012500Y-12896500D01*
X11998214Y-12910786D01*
X11983928Y-12939357D01*
X11983928Y-13010786D01*
X11998214Y-13039357D01*
X12012500Y-13053643D01*
X12041071Y-13067929D01*
X12098214Y-13067929D01*
X12126786Y-13053643D01*
X12141071Y-13039357D01*
X12155357Y-13010786D01*
X12283928Y-13182214D02*
X12283928Y-12982214D01*
X12283928Y-13010786D02*
X12298214Y-12996500D01*
X12326786Y-12982214D01*
X12369643Y-12982214D01*
X12398214Y-12996500D01*
X12412500Y-13025071D01*
X12412500Y-13182214D01*
X12412500Y-13025071D02*
X12426786Y-12996500D01*
X12455357Y-12982214D01*
X12498214Y-12982214D01*
X12526786Y-12996500D01*
X12541071Y-13025071D01*
X12541071Y-13182214D01*
X12683928Y-13182214D02*
X12683928Y-12982214D01*
X12683928Y-13010786D02*
X12698214Y-12996500D01*
X12726786Y-12982214D01*
X12769643Y-12982214D01*
X12798214Y-12996500D01*
X12812500Y-13025071D01*
X12812500Y-13182214D01*
X12812500Y-13025071D02*
X12826786Y-12996500D01*
X12855357Y-12982214D01*
X12898214Y-12982214D01*
X12926786Y-12996500D01*
X12941071Y-13025071D01*
X12941071Y-13182214D01*
X13526786Y-12867929D02*
X13269643Y-13253643D01*
X13912500Y-12882214D02*
X13941071Y-12882214D01*
X13969643Y-12896500D01*
X13983928Y-12910786D01*
X13998214Y-12939357D01*
X14012500Y-12996500D01*
X14012500Y-13067929D01*
X13998214Y-13125071D01*
X13983928Y-13153643D01*
X13969643Y-13167929D01*
X13941071Y-13182214D01*
X13912500Y-13182214D01*
X13883928Y-13167929D01*
X13869643Y-13153643D01*
X13855357Y-13125071D01*
X13841071Y-13067929D01*
X13841071Y-12996500D01*
X13855357Y-12939357D01*
X13869643Y-12910786D01*
X13883928Y-12896500D01*
X13912500Y-12882214D01*
X14141071Y-13153643D02*
X14155357Y-13167929D01*
X14141071Y-13182214D01*
X14126786Y-13167929D01*
X14141071Y-13153643D01*
X14141071Y-13182214D01*
X14341071Y-12882214D02*
X14369643Y-12882214D01*
X14398214Y-12896500D01*
X14412500Y-12910786D01*
X14426786Y-12939357D01*
X14441071Y-12996500D01*
X14441071Y-13067929D01*
X14426786Y-13125071D01*
X14412500Y-13153643D01*
X14398214Y-13167929D01*
X14369643Y-13182214D01*
X14341071Y-13182214D01*
X14312500Y-13167929D01*
X14298214Y-13153643D01*
X14283928Y-13125071D01*
X14269643Y-13067929D01*
X14269643Y-12996500D01*
X14283928Y-12939357D01*
X14298214Y-12910786D01*
X14312500Y-12896500D01*
X14341071Y-12882214D01*
X14698214Y-12982214D02*
X14698214Y-13182214D01*
X14626786Y-12867929D02*
X14555357Y-13082214D01*
X14741071Y-13082214D01*
X14826786Y-12882214D02*
X15012500Y-12882214D01*
X14912500Y-12996500D01*
X14955357Y-12996500D01*
X14983928Y-13010786D01*
X14998214Y-13025071D01*
X15012500Y-13053643D01*
X15012500Y-13125071D01*
X14998214Y-13153643D01*
X14983928Y-13167929D01*
X14955357Y-13182214D01*
X14869643Y-13182214D01*
X14841071Y-13167929D01*
X14826786Y-13153643D01*
X15126786Y-12882214D02*
X15126786Y-12939357D01*
X15241071Y-12882214D02*
X15241071Y-12939357D01*
X15683928Y-13296500D02*
X15669643Y-13282214D01*
X15641071Y-13239357D01*
X15626786Y-13210786D01*
X15612500Y-13167929D01*
X15598214Y-13096500D01*
X15598214Y-13039357D01*
X15612500Y-12967929D01*
X15626786Y-12925071D01*
X15641071Y-12896500D01*
X15669643Y-12853643D01*
X15683928Y-12839357D01*
X15783928Y-12910786D02*
X15798214Y-12896500D01*
X15826786Y-12882214D01*
X15898214Y-12882214D01*
X15926786Y-12896500D01*
X15941071Y-12910786D01*
X15955357Y-12939357D01*
X15955357Y-12967929D01*
X15941071Y-13010786D01*
X15769643Y-13182214D01*
X15955357Y-13182214D01*
X16312500Y-13182214D02*
X16312500Y-12882214D01*
X16441071Y-13182214D02*
X16441071Y-13025071D01*
X16426786Y-12996500D01*
X16398214Y-12982214D01*
X16355357Y-12982214D01*
X16326786Y-12996500D01*
X16312500Y-13010786D01*
X16626786Y-13182214D02*
X16598214Y-13167929D01*
X16583928Y-13153643D01*
X16569643Y-13125071D01*
X16569643Y-13039357D01*
X16583928Y-13010786D01*
X16598214Y-12996500D01*
X16626786Y-12982214D01*
X16669643Y-12982214D01*
X16698214Y-12996500D01*
X16712500Y-13010786D01*
X16726786Y-13039357D01*
X16726786Y-13125071D01*
X16712500Y-13153643D01*
X16698214Y-13167929D01*
X16669643Y-13182214D01*
X16626786Y-13182214D01*
X16898214Y-13182214D02*
X16869643Y-13167929D01*
X16855357Y-13139357D01*
X16855357Y-12882214D01*
X17126786Y-13167929D02*
X17098214Y-13182214D01*
X17041071Y-13182214D01*
X17012500Y-13167929D01*
X16998214Y-13139357D01*
X16998214Y-13025071D01*
X17012500Y-12996500D01*
X17041071Y-12982214D01*
X17098214Y-12982214D01*
X17126786Y-12996500D01*
X17141071Y-13025071D01*
X17141071Y-13053643D01*
X16998214Y-13082214D01*
X17255357Y-13167929D02*
X17283928Y-13182214D01*
X17341071Y-13182214D01*
X17369643Y-13167929D01*
X17383928Y-13139357D01*
X17383928Y-13125071D01*
X17369643Y-13096500D01*
X17341071Y-13082214D01*
X17298214Y-13082214D01*
X17269643Y-13067929D01*
X17255357Y-13039357D01*
X17255357Y-13025071D01*
X17269643Y-12996500D01*
X17298214Y-12982214D01*
X17341071Y-12982214D01*
X17369643Y-12996500D01*
X17483928Y-13296500D02*
X17498214Y-13282214D01*
X17526786Y-13239357D01*
X17541071Y-13210786D01*
X17555357Y-13167929D01*
X17569643Y-13096500D01*
X17569643Y-13039357D01*
X17555357Y-12967929D01*
X17541071Y-12925071D01*
X17526786Y-12896500D01*
X17498214Y-12853643D01*
X17483928Y-12839357D01*
M02*
