G04 #@! TF.GenerationSoftware,KiCad,Pcbnew,(5.1.7)-1*
G04 #@! TF.CreationDate,2021-11-01T12:52:46-05:00*
G04 #@! TF.ProjectId,PIC-nixie,5049432d-6e69-4786-9965-2e6b69636164,rev?*
G04 #@! TF.SameCoordinates,Original*
G04 #@! TF.FileFunction,Legend,Top*
G04 #@! TF.FilePolarity,Positive*
%FSLAX46Y46*%
G04 Gerber Fmt 4.6, Leading zero omitted, Abs format (unit mm)*
G04 Created by KiCad (PCBNEW (5.1.7)-1) date 2021-11-01 12:52:46*
%MOMM*%
%LPD*%
G01*
G04 APERTURE LIST*
%ADD10C,0.250000*%
%ADD11C,0.127000*%
%ADD12C,0.120000*%
%ADD13C,0.150000*%
%ADD14C,0.200000*%
%ADD15C,2.301600*%
%ADD16O,1.101600X2.101600*%
%ADD17O,1.701600X1.701600*%
%ADD18C,1.801600*%
%ADD19C,1.701800*%
%ADD20C,1.901600*%
G04 APERTURE END LIST*
D10*
X207425000Y-82300000D02*
G75*
G03*
X207425000Y-82300000I-50000J0D01*
G01*
D11*
X206875000Y-91100000D02*
X206875000Y-88300000D01*
X201875000Y-91100000D02*
X206875000Y-91100000D01*
X201875000Y-88300000D02*
X201875000Y-91100000D01*
X201875000Y-79100000D02*
X201875000Y-81900000D01*
X206875000Y-79100000D02*
X201875000Y-79100000D01*
X206875000Y-81900000D02*
X206875000Y-79100000D01*
D12*
X133130000Y-97585000D02*
X133130000Y-95935000D01*
X133130000Y-95935000D02*
X112690000Y-95935000D01*
X112690000Y-95935000D02*
X112690000Y-101235000D01*
X112690000Y-101235000D02*
X133130000Y-101235000D01*
X133130000Y-101235000D02*
X133130000Y-99585000D01*
X133190000Y-93445000D02*
X112630000Y-93445000D01*
X112630000Y-93445000D02*
X112630000Y-103725000D01*
X112630000Y-103725000D02*
X133190000Y-103725000D01*
X133190000Y-103725000D02*
X133190000Y-93445000D01*
X133130000Y-99585000D02*
G75*
G02*
X133130000Y-97585000I0J1000000D01*
G01*
X138547500Y-91424800D02*
X140452500Y-91424800D01*
X138547500Y-89448639D02*
X138547500Y-90251361D01*
X140452500Y-88275200D02*
X138547500Y-88275200D01*
X125925000Y-85445000D02*
X123725000Y-85445000D01*
X125925000Y-83245000D02*
X122925000Y-83245000D01*
X129800000Y-87921000D02*
X129800000Y-86371000D01*
X131600000Y-86371000D02*
X131600000Y-87671000D01*
D13*
X133215000Y-89939000D02*
X133215000Y-88739000D01*
X133215000Y-88739000D02*
X132115000Y-88739000D01*
D12*
X132108500Y-86941224D02*
X132108500Y-86431776D01*
X133153500Y-86941224D02*
X133153500Y-86431776D01*
X133632500Y-86941224D02*
X133632500Y-86431776D01*
X134677500Y-86941224D02*
X134677500Y-86431776D01*
X125389267Y-85871000D02*
X125046733Y-85871000D01*
X125389267Y-86891000D02*
X125046733Y-86891000D01*
X133645000Y-90169267D02*
X133645000Y-89826733D01*
X134665000Y-90169267D02*
X134665000Y-89826733D01*
X130060733Y-84549000D02*
X130403267Y-84549000D01*
X130060733Y-85569000D02*
X130403267Y-85569000D01*
X128311000Y-89943267D02*
X128311000Y-89600733D01*
X129331000Y-89943267D02*
X129331000Y-89600733D01*
X163642000Y-75722000D02*
X163642000Y-76722000D01*
X167002000Y-75722000D02*
X167002000Y-76722000D01*
X203358300Y-103741200D02*
X203358300Y-94190800D01*
X182301700Y-103741200D02*
X182301700Y-94190800D01*
X182301700Y-94190800D02*
X203358300Y-94190800D01*
X182301700Y-103741200D02*
X203358300Y-103741200D01*
X120260000Y-87988000D02*
X120260000Y-84538000D01*
X120260000Y-87988000D02*
X120260000Y-89938000D01*
X111390000Y-87988000D02*
X111390000Y-86038000D01*
X111390000Y-87988000D02*
X111390000Y-89938000D01*
X134165000Y-82150000D02*
X134165000Y-71870000D01*
X111065000Y-82150000D02*
X134165000Y-82150000D01*
X111065000Y-71870000D02*
X111065000Y-82150000D01*
X134165000Y-71870000D02*
X111065000Y-71870000D01*
X134105000Y-79660000D02*
X134105000Y-78010000D01*
X111125000Y-79660000D02*
X134105000Y-79660000D01*
X111125000Y-74360000D02*
X111125000Y-79660000D01*
X134105000Y-74360000D02*
X111125000Y-74360000D01*
X134105000Y-76010000D02*
X134105000Y-74360000D01*
X134105000Y-78010000D02*
G75*
G02*
X134105000Y-76010000I0J1000000D01*
G01*
D11*
X170126000Y-79202000D02*
X176126000Y-79202000D01*
X176126000Y-79202000D02*
X176126000Y-85202000D01*
X176126000Y-85202000D02*
X170126000Y-85202000D01*
X170126000Y-85202000D02*
X170126000Y-79202000D01*
D14*
X166976000Y-79202000D02*
G75*
G03*
X166976000Y-79202000I-100000J0D01*
G01*
D11*
X156642000Y-79202000D02*
X162642000Y-79202000D01*
X162642000Y-79202000D02*
X162642000Y-85202000D01*
X162642000Y-85202000D02*
X156642000Y-85202000D01*
X156642000Y-85202000D02*
X156642000Y-79202000D01*
D14*
X153492000Y-79202000D02*
G75*
G03*
X153492000Y-79202000I-100000J0D01*
G01*
D11*
X143202000Y-79202000D02*
X149202000Y-79202000D01*
X149202000Y-79202000D02*
X149202000Y-85202000D01*
X149202000Y-85202000D02*
X143202000Y-85202000D01*
X143202000Y-85202000D02*
X143202000Y-79202000D01*
D14*
X140052000Y-79202000D02*
G75*
G03*
X140052000Y-79202000I-100000J0D01*
G01*
D12*
X175328000Y-92492000D02*
X175328000Y-89692000D01*
X175328000Y-89692000D02*
X154668000Y-89692000D01*
X154668000Y-89692000D02*
X154668000Y-92492000D01*
X154668000Y-92492000D02*
X175328000Y-92492000D01*
X172618000Y-92492000D02*
X172618000Y-89692000D01*
X174474000Y-93730000D02*
X175474000Y-93730000D01*
X174474000Y-97090000D02*
X175474000Y-97090000D01*
X137625000Y-97480000D02*
X138625000Y-97480000D01*
X137625000Y-99420000D02*
X138625000Y-99420000D01*
X156655000Y-75550000D02*
X156655000Y-76550000D01*
X153295000Y-75550000D02*
X153295000Y-76550000D01*
D13*
X198780000Y-75090000D02*
X181508000Y-75090000D01*
X181508000Y-75090000D02*
X181508000Y-93378000D01*
X181508000Y-93378000D02*
X198780000Y-93378000D01*
X198780000Y-93378000D02*
X198780000Y-75090000D01*
D12*
X137135000Y-90071267D02*
X137135000Y-89728733D01*
X136115000Y-90071267D02*
X136115000Y-89728733D01*
X139796267Y-86790000D02*
X139453733Y-86790000D01*
X139796267Y-87810000D02*
X139453733Y-87810000D01*
D13*
X203508333Y-93241666D02*
X204508333Y-93241666D01*
X204708333Y-93308333D01*
X204841666Y-93441666D01*
X204908333Y-93641666D01*
X204908333Y-93775000D01*
X204908333Y-91841666D02*
X204908333Y-92641666D01*
X204908333Y-92241666D02*
X203508333Y-92241666D01*
X203708333Y-92375000D01*
X203841666Y-92508333D01*
X203908333Y-92641666D01*
X133582380Y-99346904D02*
X134391904Y-99346904D01*
X134487142Y-99299285D01*
X134534761Y-99251666D01*
X134582380Y-99156428D01*
X134582380Y-98965952D01*
X134534761Y-98870714D01*
X134487142Y-98823095D01*
X134391904Y-98775476D01*
X133582380Y-98775476D01*
X133677619Y-98346904D02*
X133630000Y-98299285D01*
X133582380Y-98204047D01*
X133582380Y-97965952D01*
X133630000Y-97870714D01*
X133677619Y-97823095D01*
X133772857Y-97775476D01*
X133868095Y-97775476D01*
X134010952Y-97823095D01*
X134582380Y-98394523D01*
X134582380Y-97775476D01*
X141857714Y-90480571D02*
X142474571Y-90480571D01*
X142547142Y-90444285D01*
X142583428Y-90408000D01*
X142619714Y-90335428D01*
X142619714Y-90190285D01*
X142583428Y-90117714D01*
X142547142Y-90081428D01*
X142474571Y-90045142D01*
X141857714Y-90045142D01*
X141857714Y-89355714D02*
X141857714Y-89500857D01*
X141894000Y-89573428D01*
X141930285Y-89609714D01*
X142039142Y-89682285D01*
X142184285Y-89718571D01*
X142474571Y-89718571D01*
X142547142Y-89682285D01*
X142583428Y-89646000D01*
X142619714Y-89573428D01*
X142619714Y-89428285D01*
X142583428Y-89355714D01*
X142547142Y-89319428D01*
X142474571Y-89283142D01*
X142293142Y-89283142D01*
X142220571Y-89319428D01*
X142184285Y-89355714D01*
X142148000Y-89428285D01*
X142148000Y-89573428D01*
X142184285Y-89646000D01*
X142220571Y-89682285D01*
X142293142Y-89718571D01*
X121352380Y-85086904D02*
X122161904Y-85086904D01*
X122257142Y-85039285D01*
X122304761Y-84991666D01*
X122352380Y-84896428D01*
X122352380Y-84705952D01*
X122304761Y-84610714D01*
X122257142Y-84563095D01*
X122161904Y-84515476D01*
X121352380Y-84515476D01*
X121352380Y-83563095D02*
X121352380Y-84039285D01*
X121828571Y-84086904D01*
X121780952Y-84039285D01*
X121733333Y-83944047D01*
X121733333Y-83705952D01*
X121780952Y-83610714D01*
X121828571Y-83563095D01*
X121923809Y-83515476D01*
X122161904Y-83515476D01*
X122257142Y-83563095D01*
X122304761Y-83610714D01*
X122352380Y-83705952D01*
X122352380Y-83944047D01*
X122304761Y-84039285D01*
X122257142Y-84086904D01*
X128128380Y-87852904D02*
X128937904Y-87852904D01*
X129033142Y-87805285D01*
X129080761Y-87757666D01*
X129128380Y-87662428D01*
X129128380Y-87471952D01*
X129080761Y-87376714D01*
X129033142Y-87329095D01*
X128937904Y-87281476D01*
X128128380Y-87281476D01*
X128461714Y-86376714D02*
X129128380Y-86376714D01*
X128080761Y-86614809D02*
X128795047Y-86852904D01*
X128795047Y-86233857D01*
X129337190Y-91877380D02*
X130003857Y-92877380D01*
X130003857Y-91877380D02*
X129337190Y-92877380D01*
X130241952Y-91877380D02*
X130813380Y-91877380D01*
X130527666Y-92877380D02*
X130527666Y-91877380D01*
X131099095Y-92591666D02*
X131575285Y-92591666D01*
X131003857Y-92877380D02*
X131337190Y-91877380D01*
X131670523Y-92877380D01*
X132480047Y-92877380D02*
X132003857Y-92877380D01*
X132003857Y-91877380D01*
X133337190Y-92877380D02*
X132765761Y-92877380D01*
X133051476Y-92877380D02*
X133051476Y-91877380D01*
X132956238Y-92020238D01*
X132861000Y-92115476D01*
X132765761Y-92163095D01*
X132957142Y-84452380D02*
X132623809Y-83976190D01*
X132385714Y-84452380D02*
X132385714Y-83452380D01*
X132766666Y-83452380D01*
X132861904Y-83500000D01*
X132909523Y-83547619D01*
X132957142Y-83642857D01*
X132957142Y-83785714D01*
X132909523Y-83880952D01*
X132861904Y-83928571D01*
X132766666Y-83976190D01*
X132385714Y-83976190D01*
X133338095Y-83547619D02*
X133385714Y-83500000D01*
X133480952Y-83452380D01*
X133719047Y-83452380D01*
X133814285Y-83500000D01*
X133861904Y-83547619D01*
X133909523Y-83642857D01*
X133909523Y-83738095D01*
X133861904Y-83880952D01*
X133290476Y-84452380D01*
X133909523Y-84452380D01*
X134861904Y-84452380D02*
X134290476Y-84452380D01*
X134576190Y-84452380D02*
X134576190Y-83452380D01*
X134480952Y-83595238D01*
X134385714Y-83690476D01*
X134290476Y-83738095D01*
X136527380Y-86542857D02*
X136051190Y-86876190D01*
X136527380Y-87114285D02*
X135527380Y-87114285D01*
X135527380Y-86733333D01*
X135575000Y-86638095D01*
X135622619Y-86590476D01*
X135717857Y-86542857D01*
X135860714Y-86542857D01*
X135955952Y-86590476D01*
X136003571Y-86638095D01*
X136051190Y-86733333D01*
X136051190Y-87114285D01*
X135622619Y-86161904D02*
X135575000Y-86114285D01*
X135527380Y-86019047D01*
X135527380Y-85780952D01*
X135575000Y-85685714D01*
X135622619Y-85638095D01*
X135717857Y-85590476D01*
X135813095Y-85590476D01*
X135955952Y-85638095D01*
X136527380Y-86209523D01*
X136527380Y-85590476D01*
X135527380Y-84971428D02*
X135527380Y-84876190D01*
X135575000Y-84780952D01*
X135622619Y-84733333D01*
X135717857Y-84685714D01*
X135908333Y-84638095D01*
X136146428Y-84638095D01*
X136336904Y-84685714D01*
X136432142Y-84733333D01*
X136479761Y-84780952D01*
X136527380Y-84876190D01*
X136527380Y-84971428D01*
X136479761Y-85066666D01*
X136432142Y-85114285D01*
X136336904Y-85161904D01*
X136146428Y-85209523D01*
X135908333Y-85209523D01*
X135717857Y-85161904D01*
X135622619Y-85114285D01*
X135575000Y-85066666D01*
X135527380Y-84971428D01*
X125058333Y-88607142D02*
X125010714Y-88654761D01*
X124867857Y-88702380D01*
X124772619Y-88702380D01*
X124629761Y-88654761D01*
X124534523Y-88559523D01*
X124486904Y-88464285D01*
X124439285Y-88273809D01*
X124439285Y-88130952D01*
X124486904Y-87940476D01*
X124534523Y-87845238D01*
X124629761Y-87750000D01*
X124772619Y-87702380D01*
X124867857Y-87702380D01*
X125010714Y-87750000D01*
X125058333Y-87797619D01*
X125391666Y-87702380D02*
X126058333Y-87702380D01*
X125629761Y-88702380D01*
X134932142Y-93216666D02*
X134979761Y-93264285D01*
X135027380Y-93407142D01*
X135027380Y-93502380D01*
X134979761Y-93645238D01*
X134884523Y-93740476D01*
X134789285Y-93788095D01*
X134598809Y-93835714D01*
X134455952Y-93835714D01*
X134265476Y-93788095D01*
X134170238Y-93740476D01*
X134075000Y-93645238D01*
X134027380Y-93502380D01*
X134027380Y-93407142D01*
X134075000Y-93264285D01*
X134122619Y-93216666D01*
X134027380Y-92359523D02*
X134027380Y-92550000D01*
X134075000Y-92645238D01*
X134122619Y-92692857D01*
X134265476Y-92788095D01*
X134455952Y-92835714D01*
X134836904Y-92835714D01*
X134932142Y-92788095D01*
X134979761Y-92740476D01*
X135027380Y-92645238D01*
X135027380Y-92454761D01*
X134979761Y-92359523D01*
X134932142Y-92311904D01*
X134836904Y-92264285D01*
X134598809Y-92264285D01*
X134503571Y-92311904D01*
X134455952Y-92359523D01*
X134408333Y-92454761D01*
X134408333Y-92645238D01*
X134455952Y-92740476D01*
X134503571Y-92788095D01*
X134598809Y-92835714D01*
X129457142Y-83407142D02*
X129409523Y-83454761D01*
X129266666Y-83502380D01*
X129171428Y-83502380D01*
X129028571Y-83454761D01*
X128933333Y-83359523D01*
X128885714Y-83264285D01*
X128838095Y-83073809D01*
X128838095Y-82930952D01*
X128885714Y-82740476D01*
X128933333Y-82645238D01*
X129028571Y-82550000D01*
X129171428Y-82502380D01*
X129266666Y-82502380D01*
X129409523Y-82550000D01*
X129457142Y-82597619D01*
X130409523Y-83502380D02*
X129838095Y-83502380D01*
X130123809Y-83502380D02*
X130123809Y-82502380D01*
X130028571Y-82645238D01*
X129933333Y-82740476D01*
X129838095Y-82788095D01*
X131028571Y-82502380D02*
X131123809Y-82502380D01*
X131219047Y-82550000D01*
X131266666Y-82597619D01*
X131314285Y-82692857D01*
X131361904Y-82883333D01*
X131361904Y-83121428D01*
X131314285Y-83311904D01*
X131266666Y-83407142D01*
X131219047Y-83454761D01*
X131123809Y-83502380D01*
X131028571Y-83502380D01*
X130933333Y-83454761D01*
X130885714Y-83407142D01*
X130838095Y-83311904D01*
X130790476Y-83121428D01*
X130790476Y-82883333D01*
X130838095Y-82692857D01*
X130885714Y-82597619D01*
X130933333Y-82550000D01*
X131028571Y-82502380D01*
X127332142Y-90591666D02*
X127379761Y-90639285D01*
X127427380Y-90782142D01*
X127427380Y-90877380D01*
X127379761Y-91020238D01*
X127284523Y-91115476D01*
X127189285Y-91163095D01*
X126998809Y-91210714D01*
X126855952Y-91210714D01*
X126665476Y-91163095D01*
X126570238Y-91115476D01*
X126475000Y-91020238D01*
X126427380Y-90877380D01*
X126427380Y-90782142D01*
X126475000Y-90639285D01*
X126522619Y-90591666D01*
X127427380Y-90115476D02*
X127427380Y-89925000D01*
X127379761Y-89829761D01*
X127332142Y-89782142D01*
X127189285Y-89686904D01*
X126998809Y-89639285D01*
X126617857Y-89639285D01*
X126522619Y-89686904D01*
X126475000Y-89734523D01*
X126427380Y-89829761D01*
X126427380Y-90020238D01*
X126475000Y-90115476D01*
X126522619Y-90163095D01*
X126617857Y-90210714D01*
X126855952Y-90210714D01*
X126951190Y-90163095D01*
X126998809Y-90115476D01*
X127046428Y-90020238D01*
X127046428Y-89829761D01*
X126998809Y-89734523D01*
X126951190Y-89686904D01*
X126855952Y-89639285D01*
X168574380Y-76817238D02*
X168098190Y-77150571D01*
X168574380Y-77388666D02*
X167574380Y-77388666D01*
X167574380Y-77007714D01*
X167622000Y-76912476D01*
X167669619Y-76864857D01*
X167764857Y-76817238D01*
X167907714Y-76817238D01*
X168002952Y-76864857D01*
X168050571Y-76912476D01*
X168098190Y-77007714D01*
X168098190Y-77388666D01*
X168288666Y-76436285D02*
X168288666Y-75960095D01*
X168574380Y-76531523D02*
X167574380Y-76198190D01*
X168574380Y-75864857D01*
X167574380Y-75626761D02*
X167574380Y-74960095D01*
X168574380Y-75388666D01*
X205132142Y-100317857D02*
X205179761Y-100365476D01*
X205227380Y-100508333D01*
X205227380Y-100603571D01*
X205179761Y-100746428D01*
X205084523Y-100841666D01*
X204989285Y-100889285D01*
X204798809Y-100936904D01*
X204655952Y-100936904D01*
X204465476Y-100889285D01*
X204370238Y-100841666D01*
X204275000Y-100746428D01*
X204227380Y-100603571D01*
X204227380Y-100508333D01*
X204275000Y-100365476D01*
X204322619Y-100317857D01*
X205227380Y-99365476D02*
X205227380Y-99936904D01*
X205227380Y-99651190D02*
X204227380Y-99651190D01*
X204370238Y-99746428D01*
X204465476Y-99841666D01*
X204513095Y-99936904D01*
X205227380Y-98413095D02*
X205227380Y-98984523D01*
X205227380Y-98698809D02*
X204227380Y-98698809D01*
X204370238Y-98794047D01*
X204465476Y-98889285D01*
X204513095Y-98984523D01*
X201580000Y-98418380D02*
X201580000Y-98656476D01*
X201341904Y-98561238D02*
X201580000Y-98656476D01*
X201818095Y-98561238D01*
X201437142Y-98846952D02*
X201580000Y-98656476D01*
X201722857Y-98846952D01*
X120527380Y-88236904D02*
X121336904Y-88236904D01*
X121432142Y-88189285D01*
X121479761Y-88141666D01*
X121527380Y-88046428D01*
X121527380Y-87855952D01*
X121479761Y-87760714D01*
X121432142Y-87713095D01*
X121336904Y-87665476D01*
X120527380Y-87665476D01*
X120527380Y-87284523D02*
X120527380Y-86665476D01*
X120908333Y-86998809D01*
X120908333Y-86855952D01*
X120955952Y-86760714D01*
X121003571Y-86713095D01*
X121098809Y-86665476D01*
X121336904Y-86665476D01*
X121432142Y-86713095D01*
X121479761Y-86760714D01*
X121527380Y-86855952D01*
X121527380Y-87141666D01*
X121479761Y-87236904D01*
X121432142Y-87284523D01*
X134557380Y-77771904D02*
X135366904Y-77771904D01*
X135462142Y-77724285D01*
X135509761Y-77676666D01*
X135557380Y-77581428D01*
X135557380Y-77390952D01*
X135509761Y-77295714D01*
X135462142Y-77248095D01*
X135366904Y-77200476D01*
X134557380Y-77200476D01*
X135557380Y-76200476D02*
X135557380Y-76771904D01*
X135557380Y-76486190D02*
X134557380Y-76486190D01*
X134700238Y-76581428D01*
X134795476Y-76676666D01*
X134843095Y-76771904D01*
X171717666Y-78471761D02*
X171860523Y-78519380D01*
X172098619Y-78519380D01*
X172193857Y-78471761D01*
X172241476Y-78424142D01*
X172289095Y-78328904D01*
X172289095Y-78233666D01*
X172241476Y-78138428D01*
X172193857Y-78090809D01*
X172098619Y-78043190D01*
X171908142Y-77995571D01*
X171812904Y-77947952D01*
X171765285Y-77900333D01*
X171717666Y-77805095D01*
X171717666Y-77709857D01*
X171765285Y-77614619D01*
X171812904Y-77567000D01*
X171908142Y-77519380D01*
X172146238Y-77519380D01*
X172289095Y-77567000D01*
X172622428Y-77519380D02*
X172860523Y-78519380D01*
X173051000Y-77805095D01*
X173241476Y-78519380D01*
X173479571Y-77519380D01*
X173765285Y-77519380D02*
X174384333Y-77519380D01*
X174051000Y-77900333D01*
X174193857Y-77900333D01*
X174289095Y-77947952D01*
X174336714Y-77995571D01*
X174384333Y-78090809D01*
X174384333Y-78328904D01*
X174336714Y-78424142D01*
X174289095Y-78471761D01*
X174193857Y-78519380D01*
X173908142Y-78519380D01*
X173812904Y-78471761D01*
X173765285Y-78424142D01*
X158233666Y-78471761D02*
X158376523Y-78519380D01*
X158614619Y-78519380D01*
X158709857Y-78471761D01*
X158757476Y-78424142D01*
X158805095Y-78328904D01*
X158805095Y-78233666D01*
X158757476Y-78138428D01*
X158709857Y-78090809D01*
X158614619Y-78043190D01*
X158424142Y-77995571D01*
X158328904Y-77947952D01*
X158281285Y-77900333D01*
X158233666Y-77805095D01*
X158233666Y-77709857D01*
X158281285Y-77614619D01*
X158328904Y-77567000D01*
X158424142Y-77519380D01*
X158662238Y-77519380D01*
X158805095Y-77567000D01*
X159138428Y-77519380D02*
X159376523Y-78519380D01*
X159567000Y-77805095D01*
X159757476Y-78519380D01*
X159995571Y-77519380D01*
X160328904Y-77614619D02*
X160376523Y-77567000D01*
X160471761Y-77519380D01*
X160709857Y-77519380D01*
X160805095Y-77567000D01*
X160852714Y-77614619D01*
X160900333Y-77709857D01*
X160900333Y-77805095D01*
X160852714Y-77947952D01*
X160281285Y-78519380D01*
X160900333Y-78519380D01*
X144793666Y-78471761D02*
X144936523Y-78519380D01*
X145174619Y-78519380D01*
X145269857Y-78471761D01*
X145317476Y-78424142D01*
X145365095Y-78328904D01*
X145365095Y-78233666D01*
X145317476Y-78138428D01*
X145269857Y-78090809D01*
X145174619Y-78043190D01*
X144984142Y-77995571D01*
X144888904Y-77947952D01*
X144841285Y-77900333D01*
X144793666Y-77805095D01*
X144793666Y-77709857D01*
X144841285Y-77614619D01*
X144888904Y-77567000D01*
X144984142Y-77519380D01*
X145222238Y-77519380D01*
X145365095Y-77567000D01*
X145698428Y-77519380D02*
X145936523Y-78519380D01*
X146127000Y-77805095D01*
X146317476Y-78519380D01*
X146555571Y-77519380D01*
X147460333Y-78519380D02*
X146888904Y-78519380D01*
X147174619Y-78519380D02*
X147174619Y-77519380D01*
X147079380Y-77662238D01*
X146984142Y-77757476D01*
X146888904Y-77805095D01*
X163132761Y-93944380D02*
X162799428Y-93468190D01*
X162561333Y-93944380D02*
X162561333Y-92944380D01*
X162942285Y-92944380D01*
X163037523Y-92992000D01*
X163085142Y-93039619D01*
X163132761Y-93134857D01*
X163132761Y-93277714D01*
X163085142Y-93372952D01*
X163037523Y-93420571D01*
X162942285Y-93468190D01*
X162561333Y-93468190D01*
X163513714Y-93658666D02*
X163989904Y-93658666D01*
X163418476Y-93944380D02*
X163751809Y-92944380D01*
X164085142Y-93944380D01*
X164466095Y-93944380D02*
X164656571Y-93944380D01*
X164751809Y-93896761D01*
X164799428Y-93849142D01*
X164894666Y-93706285D01*
X164942285Y-93515809D01*
X164942285Y-93134857D01*
X164894666Y-93039619D01*
X164847047Y-92992000D01*
X164751809Y-92944380D01*
X164561333Y-92944380D01*
X164466095Y-92992000D01*
X164418476Y-93039619D01*
X164370857Y-93134857D01*
X164370857Y-93372952D01*
X164418476Y-93468190D01*
X164466095Y-93515809D01*
X164561333Y-93563428D01*
X164751809Y-93563428D01*
X164847047Y-93515809D01*
X164894666Y-93468190D01*
X164942285Y-93372952D01*
X174378761Y-98662380D02*
X174045428Y-98186190D01*
X173807333Y-98662380D02*
X173807333Y-97662380D01*
X174188285Y-97662380D01*
X174283523Y-97710000D01*
X174331142Y-97757619D01*
X174378761Y-97852857D01*
X174378761Y-97995714D01*
X174331142Y-98090952D01*
X174283523Y-98138571D01*
X174188285Y-98186190D01*
X173807333Y-98186190D01*
X174759714Y-98376666D02*
X175235904Y-98376666D01*
X174664476Y-98662380D02*
X174997809Y-97662380D01*
X175331142Y-98662380D01*
X175807333Y-98090952D02*
X175712095Y-98043333D01*
X175664476Y-97995714D01*
X175616857Y-97900476D01*
X175616857Y-97852857D01*
X175664476Y-97757619D01*
X175712095Y-97710000D01*
X175807333Y-97662380D01*
X175997809Y-97662380D01*
X176093047Y-97710000D01*
X176140666Y-97757619D01*
X176188285Y-97852857D01*
X176188285Y-97900476D01*
X176140666Y-97995714D01*
X176093047Y-98043333D01*
X175997809Y-98090952D01*
X175807333Y-98090952D01*
X175712095Y-98138571D01*
X175664476Y-98186190D01*
X175616857Y-98281428D01*
X175616857Y-98471904D01*
X175664476Y-98567142D01*
X175712095Y-98614761D01*
X175807333Y-98662380D01*
X175997809Y-98662380D01*
X176093047Y-98614761D01*
X176140666Y-98567142D01*
X176188285Y-98471904D01*
X176188285Y-98281428D01*
X176140666Y-98186190D01*
X176093047Y-98138571D01*
X175997809Y-98090952D01*
X137404761Y-100952380D02*
X137071428Y-100476190D01*
X136833333Y-100952380D02*
X136833333Y-99952380D01*
X137214285Y-99952380D01*
X137309523Y-100000000D01*
X137357142Y-100047619D01*
X137404761Y-100142857D01*
X137404761Y-100285714D01*
X137357142Y-100380952D01*
X137309523Y-100428571D01*
X137214285Y-100476190D01*
X136833333Y-100476190D01*
X137785714Y-100666666D02*
X138261904Y-100666666D01*
X137690476Y-100952380D02*
X138023809Y-99952380D01*
X138357142Y-100952380D01*
X139119047Y-100285714D02*
X139119047Y-100952380D01*
X138880952Y-99904761D02*
X138642857Y-100619047D01*
X139261904Y-100619047D01*
X152627380Y-76645238D02*
X152151190Y-76978571D01*
X152627380Y-77216666D02*
X151627380Y-77216666D01*
X151627380Y-76835714D01*
X151675000Y-76740476D01*
X151722619Y-76692857D01*
X151817857Y-76645238D01*
X151960714Y-76645238D01*
X152055952Y-76692857D01*
X152103571Y-76740476D01*
X152151190Y-76835714D01*
X152151190Y-77216666D01*
X152341666Y-76264285D02*
X152341666Y-75788095D01*
X152627380Y-76359523D02*
X151627380Y-76026190D01*
X152627380Y-75692857D01*
X151627380Y-75454761D02*
X151627380Y-74835714D01*
X152008333Y-75169047D01*
X152008333Y-75026190D01*
X152055952Y-74930952D01*
X152103571Y-74883333D01*
X152198809Y-74835714D01*
X152436904Y-74835714D01*
X152532142Y-74883333D01*
X152579761Y-74930952D01*
X152627380Y-75026190D01*
X152627380Y-75311904D01*
X152579761Y-75407142D01*
X152532142Y-75454761D01*
X192128380Y-85448285D02*
X191128380Y-85448285D01*
X191128380Y-85067333D01*
X191176000Y-84972095D01*
X191223619Y-84924476D01*
X191318857Y-84876857D01*
X191461714Y-84876857D01*
X191556952Y-84924476D01*
X191604571Y-84972095D01*
X191652190Y-85067333D01*
X191652190Y-85448285D01*
X192080761Y-84495904D02*
X192128380Y-84353047D01*
X192128380Y-84114952D01*
X192080761Y-84019714D01*
X192033142Y-83972095D01*
X191937904Y-83924476D01*
X191842666Y-83924476D01*
X191747428Y-83972095D01*
X191699809Y-84019714D01*
X191652190Y-84114952D01*
X191604571Y-84305428D01*
X191556952Y-84400666D01*
X191509333Y-84448285D01*
X191414095Y-84495904D01*
X191318857Y-84495904D01*
X191223619Y-84448285D01*
X191176000Y-84400666D01*
X191128380Y-84305428D01*
X191128380Y-84067333D01*
X191176000Y-83924476D01*
X192128380Y-82972095D02*
X192128380Y-83543523D01*
X192128380Y-83257809D02*
X191128380Y-83257809D01*
X191271238Y-83353047D01*
X191366476Y-83448285D01*
X191414095Y-83543523D01*
X137107142Y-92666666D02*
X137154761Y-92714285D01*
X137202380Y-92857142D01*
X137202380Y-92952380D01*
X137154761Y-93095238D01*
X137059523Y-93190476D01*
X136964285Y-93238095D01*
X136773809Y-93285714D01*
X136630952Y-93285714D01*
X136440476Y-93238095D01*
X136345238Y-93190476D01*
X136250000Y-93095238D01*
X136202380Y-92952380D01*
X136202380Y-92857142D01*
X136250000Y-92714285D01*
X136297619Y-92666666D01*
X136202380Y-91761904D02*
X136202380Y-92238095D01*
X136678571Y-92285714D01*
X136630952Y-92238095D01*
X136583333Y-92142857D01*
X136583333Y-91904761D01*
X136630952Y-91809523D01*
X136678571Y-91761904D01*
X136773809Y-91714285D01*
X137011904Y-91714285D01*
X137107142Y-91761904D01*
X137154761Y-91809523D01*
X137202380Y-91904761D01*
X137202380Y-92142857D01*
X137154761Y-92238095D01*
X137107142Y-92285714D01*
X141617857Y-87033333D02*
X141570238Y-86985714D01*
X141522619Y-86842857D01*
X141522619Y-86747619D01*
X141570238Y-86604761D01*
X141665476Y-86509523D01*
X141760714Y-86461904D01*
X141951190Y-86414285D01*
X142094047Y-86414285D01*
X142284523Y-86461904D01*
X142379761Y-86509523D01*
X142475000Y-86604761D01*
X142522619Y-86747619D01*
X142522619Y-86842857D01*
X142475000Y-86985714D01*
X142427380Y-87033333D01*
X142189285Y-87890476D02*
X141522619Y-87890476D01*
X142570238Y-87652380D02*
X141855952Y-87414285D01*
X141855952Y-88033333D01*
%LPC*%
X127810000Y-87840000D02*
X128250000Y-87400000D01*
X127810000Y-91640000D02*
X127810000Y-87840000D01*
X128090000Y-91920000D02*
X127810000Y-91640000D01*
X134890000Y-91920000D02*
X128090000Y-91920000D01*
X135180000Y-91640000D02*
X134890000Y-91920000D01*
X135180000Y-91410000D02*
X135180000Y-91640000D01*
X135170000Y-85060000D02*
X135170000Y-90400000D01*
X134900000Y-84800000D02*
X135170000Y-85060000D01*
X132900000Y-84800000D02*
X134900000Y-84800000D01*
X131900000Y-83800000D02*
X132900000Y-84800000D01*
X128600000Y-83800000D02*
X131900000Y-83800000D01*
X128300000Y-84000000D02*
X128600000Y-83800000D01*
X128300000Y-86100000D02*
X128300000Y-84000000D01*
X127490000Y-83540000D02*
X127480000Y-85730000D01*
X126930000Y-83000000D02*
X127490000Y-83540000D01*
X126900000Y-83000000D02*
X126930000Y-83000000D01*
X126500000Y-83000000D02*
X126900000Y-83000000D01*
X126400000Y-82900000D02*
X126500000Y-83000000D01*
X125100000Y-82800000D02*
X125200000Y-82700000D01*
X125100000Y-83000000D02*
X125100000Y-82800000D01*
X122700000Y-83000000D02*
X125100000Y-83000000D01*
X122170000Y-83550000D02*
X122700000Y-83000000D01*
X122170000Y-84630000D02*
X122170000Y-83550000D01*
X122200000Y-84700000D02*
X122170000Y-84630000D01*
X122200000Y-85500000D02*
X122200000Y-84700000D01*
X123900000Y-87200000D02*
X122200000Y-85500000D01*
X124400000Y-87200000D02*
X123900000Y-87200000D01*
X124800000Y-87600000D02*
X124400000Y-87200000D01*
X126500000Y-87600000D02*
X124800000Y-87600000D01*
D15*
X205000000Y-75000000D03*
X124000000Y-90000000D03*
G36*
G01*
X201975000Y-87664200D02*
X203275000Y-87664200D01*
G75*
G02*
X203325800Y-87715000I0J-50800D01*
G01*
X203325800Y-87985000D01*
G75*
G02*
X203275000Y-88035800I-50800J0D01*
G01*
X201975000Y-88035800D01*
G75*
G02*
X201924200Y-87985000I0J50800D01*
G01*
X201924200Y-87715000D01*
G75*
G02*
X201975000Y-87664200I50800J0D01*
G01*
G37*
G36*
G01*
X201975000Y-87164200D02*
X203275000Y-87164200D01*
G75*
G02*
X203325800Y-87215000I0J-50800D01*
G01*
X203325800Y-87485000D01*
G75*
G02*
X203275000Y-87535800I-50800J0D01*
G01*
X201975000Y-87535800D01*
G75*
G02*
X201924200Y-87485000I0J50800D01*
G01*
X201924200Y-87215000D01*
G75*
G02*
X201975000Y-87164200I50800J0D01*
G01*
G37*
G36*
G01*
X201975000Y-86664200D02*
X203275000Y-86664200D01*
G75*
G02*
X203325800Y-86715000I0J-50800D01*
G01*
X203325800Y-86985000D01*
G75*
G02*
X203275000Y-87035800I-50800J0D01*
G01*
X201975000Y-87035800D01*
G75*
G02*
X201924200Y-86985000I0J50800D01*
G01*
X201924200Y-86715000D01*
G75*
G02*
X201975000Y-86664200I50800J0D01*
G01*
G37*
G36*
G01*
X201975000Y-85664200D02*
X203275000Y-85664200D01*
G75*
G02*
X203325800Y-85715000I0J-50800D01*
G01*
X203325800Y-85985000D01*
G75*
G02*
X203275000Y-86035800I-50800J0D01*
G01*
X201975000Y-86035800D01*
G75*
G02*
X201924200Y-85985000I0J50800D01*
G01*
X201924200Y-85715000D01*
G75*
G02*
X201975000Y-85664200I50800J0D01*
G01*
G37*
G36*
G01*
X201975000Y-86164200D02*
X203275000Y-86164200D01*
G75*
G02*
X203325800Y-86215000I0J-50800D01*
G01*
X203325800Y-86485000D01*
G75*
G02*
X203275000Y-86535800I-50800J0D01*
G01*
X201975000Y-86535800D01*
G75*
G02*
X201924200Y-86485000I0J50800D01*
G01*
X201924200Y-86215000D01*
G75*
G02*
X201975000Y-86164200I50800J0D01*
G01*
G37*
G36*
G01*
X201975000Y-85164200D02*
X203275000Y-85164200D01*
G75*
G02*
X203325800Y-85215000I0J-50800D01*
G01*
X203325800Y-85485000D01*
G75*
G02*
X203275000Y-85535800I-50800J0D01*
G01*
X201975000Y-85535800D01*
G75*
G02*
X201924200Y-85485000I0J50800D01*
G01*
X201924200Y-85215000D01*
G75*
G02*
X201975000Y-85164200I50800J0D01*
G01*
G37*
G36*
G01*
X201975000Y-84664200D02*
X203275000Y-84664200D01*
G75*
G02*
X203325800Y-84715000I0J-50800D01*
G01*
X203325800Y-84985000D01*
G75*
G02*
X203275000Y-85035800I-50800J0D01*
G01*
X201975000Y-85035800D01*
G75*
G02*
X201924200Y-84985000I0J50800D01*
G01*
X201924200Y-84715000D01*
G75*
G02*
X201975000Y-84664200I50800J0D01*
G01*
G37*
G36*
G01*
X201975000Y-84164200D02*
X203275000Y-84164200D01*
G75*
G02*
X203325800Y-84215000I0J-50800D01*
G01*
X203325800Y-84485000D01*
G75*
G02*
X203275000Y-84535800I-50800J0D01*
G01*
X201975000Y-84535800D01*
G75*
G02*
X201924200Y-84485000I0J50800D01*
G01*
X201924200Y-84215000D01*
G75*
G02*
X201975000Y-84164200I50800J0D01*
G01*
G37*
G36*
G01*
X201975000Y-83664200D02*
X203275000Y-83664200D01*
G75*
G02*
X203325800Y-83715000I0J-50800D01*
G01*
X203325800Y-83985000D01*
G75*
G02*
X203275000Y-84035800I-50800J0D01*
G01*
X201975000Y-84035800D01*
G75*
G02*
X201924200Y-83985000I0J50800D01*
G01*
X201924200Y-83715000D01*
G75*
G02*
X201975000Y-83664200I50800J0D01*
G01*
G37*
G36*
G01*
X201975000Y-83164200D02*
X203275000Y-83164200D01*
G75*
G02*
X203325800Y-83215000I0J-50800D01*
G01*
X203325800Y-83485000D01*
G75*
G02*
X203275000Y-83535800I-50800J0D01*
G01*
X201975000Y-83535800D01*
G75*
G02*
X201924200Y-83485000I0J50800D01*
G01*
X201924200Y-83215000D01*
G75*
G02*
X201975000Y-83164200I50800J0D01*
G01*
G37*
G36*
G01*
X201975000Y-82664200D02*
X203275000Y-82664200D01*
G75*
G02*
X203325800Y-82715000I0J-50800D01*
G01*
X203325800Y-82985000D01*
G75*
G02*
X203275000Y-83035800I-50800J0D01*
G01*
X201975000Y-83035800D01*
G75*
G02*
X201924200Y-82985000I0J50800D01*
G01*
X201924200Y-82715000D01*
G75*
G02*
X201975000Y-82664200I50800J0D01*
G01*
G37*
G36*
G01*
X201975000Y-82164200D02*
X203275000Y-82164200D01*
G75*
G02*
X203325800Y-82215000I0J-50800D01*
G01*
X203325800Y-82485000D01*
G75*
G02*
X203275000Y-82535800I-50800J0D01*
G01*
X201975000Y-82535800D01*
G75*
G02*
X201924200Y-82485000I0J50800D01*
G01*
X201924200Y-82215000D01*
G75*
G02*
X201975000Y-82164200I50800J0D01*
G01*
G37*
G36*
G01*
X205475000Y-85164200D02*
X206775000Y-85164200D01*
G75*
G02*
X206825800Y-85215000I0J-50800D01*
G01*
X206825800Y-85485000D01*
G75*
G02*
X206775000Y-85535800I-50800J0D01*
G01*
X205475000Y-85535800D01*
G75*
G02*
X205424200Y-85485000I0J50800D01*
G01*
X205424200Y-85215000D01*
G75*
G02*
X205475000Y-85164200I50800J0D01*
G01*
G37*
G36*
G01*
X205475000Y-85664200D02*
X206775000Y-85664200D01*
G75*
G02*
X206825800Y-85715000I0J-50800D01*
G01*
X206825800Y-85985000D01*
G75*
G02*
X206775000Y-86035800I-50800J0D01*
G01*
X205475000Y-86035800D01*
G75*
G02*
X205424200Y-85985000I0J50800D01*
G01*
X205424200Y-85715000D01*
G75*
G02*
X205475000Y-85664200I50800J0D01*
G01*
G37*
G36*
G01*
X205475000Y-86164200D02*
X206775000Y-86164200D01*
G75*
G02*
X206825800Y-86215000I0J-50800D01*
G01*
X206825800Y-86485000D01*
G75*
G02*
X206775000Y-86535800I-50800J0D01*
G01*
X205475000Y-86535800D01*
G75*
G02*
X205424200Y-86485000I0J50800D01*
G01*
X205424200Y-86215000D01*
G75*
G02*
X205475000Y-86164200I50800J0D01*
G01*
G37*
G36*
G01*
X205475000Y-86664200D02*
X206775000Y-86664200D01*
G75*
G02*
X206825800Y-86715000I0J-50800D01*
G01*
X206825800Y-86985000D01*
G75*
G02*
X206775000Y-87035800I-50800J0D01*
G01*
X205475000Y-87035800D01*
G75*
G02*
X205424200Y-86985000I0J50800D01*
G01*
X205424200Y-86715000D01*
G75*
G02*
X205475000Y-86664200I50800J0D01*
G01*
G37*
G36*
G01*
X205475000Y-87164200D02*
X206775000Y-87164200D01*
G75*
G02*
X206825800Y-87215000I0J-50800D01*
G01*
X206825800Y-87485000D01*
G75*
G02*
X206775000Y-87535800I-50800J0D01*
G01*
X205475000Y-87535800D01*
G75*
G02*
X205424200Y-87485000I0J50800D01*
G01*
X205424200Y-87215000D01*
G75*
G02*
X205475000Y-87164200I50800J0D01*
G01*
G37*
G36*
G01*
X205475000Y-87664200D02*
X206775000Y-87664200D01*
G75*
G02*
X206825800Y-87715000I0J-50800D01*
G01*
X206825800Y-87985000D01*
G75*
G02*
X206775000Y-88035800I-50800J0D01*
G01*
X205475000Y-88035800D01*
G75*
G02*
X205424200Y-87985000I0J50800D01*
G01*
X205424200Y-87715000D01*
G75*
G02*
X205475000Y-87664200I50800J0D01*
G01*
G37*
G36*
G01*
X205475000Y-82164200D02*
X206775000Y-82164200D01*
G75*
G02*
X206825800Y-82215000I0J-50800D01*
G01*
X206825800Y-82485000D01*
G75*
G02*
X206775000Y-82535800I-50800J0D01*
G01*
X205475000Y-82535800D01*
G75*
G02*
X205424200Y-82485000I0J50800D01*
G01*
X205424200Y-82215000D01*
G75*
G02*
X205475000Y-82164200I50800J0D01*
G01*
G37*
G36*
G01*
X205475000Y-82664200D02*
X206775000Y-82664200D01*
G75*
G02*
X206825800Y-82715000I0J-50800D01*
G01*
X206825800Y-82985000D01*
G75*
G02*
X206775000Y-83035800I-50800J0D01*
G01*
X205475000Y-83035800D01*
G75*
G02*
X205424200Y-82985000I0J50800D01*
G01*
X205424200Y-82715000D01*
G75*
G02*
X205475000Y-82664200I50800J0D01*
G01*
G37*
G36*
G01*
X205475000Y-83164200D02*
X206775000Y-83164200D01*
G75*
G02*
X206825800Y-83215000I0J-50800D01*
G01*
X206825800Y-83485000D01*
G75*
G02*
X206775000Y-83535800I-50800J0D01*
G01*
X205475000Y-83535800D01*
G75*
G02*
X205424200Y-83485000I0J50800D01*
G01*
X205424200Y-83215000D01*
G75*
G02*
X205475000Y-83164200I50800J0D01*
G01*
G37*
G36*
G01*
X205475000Y-83664200D02*
X206775000Y-83664200D01*
G75*
G02*
X206825800Y-83715000I0J-50800D01*
G01*
X206825800Y-83985000D01*
G75*
G02*
X206775000Y-84035800I-50800J0D01*
G01*
X205475000Y-84035800D01*
G75*
G02*
X205424200Y-83985000I0J50800D01*
G01*
X205424200Y-83715000D01*
G75*
G02*
X205475000Y-83664200I50800J0D01*
G01*
G37*
G36*
G01*
X205475000Y-84164200D02*
X206775000Y-84164200D01*
G75*
G02*
X206825800Y-84215000I0J-50800D01*
G01*
X206825800Y-84485000D01*
G75*
G02*
X206775000Y-84535800I-50800J0D01*
G01*
X205475000Y-84535800D01*
G75*
G02*
X205424200Y-84485000I0J50800D01*
G01*
X205424200Y-84215000D01*
G75*
G02*
X205475000Y-84164200I50800J0D01*
G01*
G37*
G36*
G01*
X205475000Y-84664200D02*
X206775000Y-84664200D01*
G75*
G02*
X206825800Y-84715000I0J-50800D01*
G01*
X206825800Y-84985000D01*
G75*
G02*
X206775000Y-85035800I-50800J0D01*
G01*
X205475000Y-85035800D01*
G75*
G02*
X205424200Y-84985000I0J50800D01*
G01*
X205424200Y-84715000D01*
G75*
G02*
X205475000Y-84664200I50800J0D01*
G01*
G37*
D16*
X202905000Y-89200000D03*
X202905000Y-81000000D03*
X205845000Y-89200000D03*
X205845000Y-81000000D03*
D17*
X131800000Y-102395000D03*
X114020000Y-94775000D03*
X129260000Y-102395000D03*
X116560000Y-94775000D03*
X126720000Y-102395000D03*
X119100000Y-94775000D03*
X124180000Y-102395000D03*
X121640000Y-94775000D03*
X121640000Y-102395000D03*
X124180000Y-94775000D03*
X119100000Y-102395000D03*
X126720000Y-94775000D03*
X116560000Y-102395000D03*
X129260000Y-94775000D03*
X114020000Y-102395000D03*
G36*
G01*
X131000000Y-93924200D02*
X132600000Y-93924200D01*
G75*
G02*
X132650800Y-93975000I0J-50800D01*
G01*
X132650800Y-95575000D01*
G75*
G02*
X132600000Y-95625800I-50800J0D01*
G01*
X131000000Y-95625800D01*
G75*
G02*
X130949200Y-95575000I0J50800D01*
G01*
X130949200Y-93975000D01*
G75*
G02*
X131000000Y-93924200I50800J0D01*
G01*
G37*
G36*
G01*
X172065859Y-101360800D02*
X170794141Y-101360800D01*
G75*
G02*
X170529200Y-101095859I0J264941D01*
G01*
X170529200Y-99824141D01*
G75*
G02*
X170794141Y-99559200I264941J0D01*
G01*
X172065859Y-99559200D01*
G75*
G02*
X172330800Y-99824141I0J-264941D01*
G01*
X172330800Y-101095859D01*
G75*
G02*
X172065859Y-101360800I-264941J0D01*
G01*
G37*
D18*
X168890000Y-100460000D03*
X166350000Y-100460000D03*
X163810000Y-100460000D03*
X161270000Y-100460000D03*
X158730000Y-100460000D03*
X156190000Y-100460000D03*
X153650000Y-100460000D03*
X151110000Y-100460000D03*
X148570000Y-100460000D03*
X171430000Y-97920000D03*
X168890000Y-97920000D03*
X166350000Y-97920000D03*
X163810000Y-97920000D03*
X161270000Y-97920000D03*
X158730000Y-97920000D03*
X156190000Y-97920000D03*
X153650000Y-97920000D03*
X151110000Y-97920000D03*
X148570000Y-97920000D03*
G36*
G01*
X141303400Y-90584101D02*
X141303400Y-91015901D01*
G75*
G02*
X141252600Y-91066701I-50800J0D01*
G01*
X140325500Y-91066701D01*
G75*
G02*
X140274700Y-91015901I0J50800D01*
G01*
X140274700Y-90584101D01*
G75*
G02*
X140325500Y-90533301I50800J0D01*
G01*
X141252600Y-90533301D01*
G75*
G02*
X141303400Y-90584101I0J-50800D01*
G01*
G37*
G36*
G01*
X141303400Y-89634100D02*
X141303400Y-90065900D01*
G75*
G02*
X141252600Y-90116700I-50800J0D01*
G01*
X140325500Y-90116700D01*
G75*
G02*
X140274700Y-90065900I0J50800D01*
G01*
X140274700Y-89634100D01*
G75*
G02*
X140325500Y-89583300I50800J0D01*
G01*
X141252600Y-89583300D01*
G75*
G02*
X141303400Y-89634100I0J-50800D01*
G01*
G37*
G36*
G01*
X141303400Y-88684099D02*
X141303400Y-89115899D01*
G75*
G02*
X141252600Y-89166699I-50800J0D01*
G01*
X140325500Y-89166699D01*
G75*
G02*
X140274700Y-89115899I0J50800D01*
G01*
X140274700Y-88684099D01*
G75*
G02*
X140325500Y-88633299I50800J0D01*
G01*
X141252600Y-88633299D01*
G75*
G02*
X141303400Y-88684099I0J-50800D01*
G01*
G37*
G36*
G01*
X138725300Y-88684099D02*
X138725300Y-89115899D01*
G75*
G02*
X138674500Y-89166699I-50800J0D01*
G01*
X137747400Y-89166699D01*
G75*
G02*
X137696600Y-89115899I0J50800D01*
G01*
X137696600Y-88684099D01*
G75*
G02*
X137747400Y-88633299I50800J0D01*
G01*
X138674500Y-88633299D01*
G75*
G02*
X138725300Y-88684099I0J-50800D01*
G01*
G37*
G36*
G01*
X138725300Y-90584101D02*
X138725300Y-91015901D01*
G75*
G02*
X138674500Y-91066701I-50800J0D01*
G01*
X137747400Y-91066701D01*
G75*
G02*
X137696600Y-91015901I0J50800D01*
G01*
X137696600Y-90584101D01*
G75*
G02*
X137747400Y-90533301I50800J0D01*
G01*
X138674500Y-90533301D01*
G75*
G02*
X138725300Y-90584101I0J-50800D01*
G01*
G37*
G36*
G01*
X125975000Y-83394200D02*
X126775000Y-83394200D01*
G75*
G02*
X126825800Y-83445000I0J-50800D01*
G01*
X126825800Y-83745000D01*
G75*
G02*
X126775000Y-83795800I-50800J0D01*
G01*
X125975000Y-83795800D01*
G75*
G02*
X125924200Y-83745000I0J50800D01*
G01*
X125924200Y-83445000D01*
G75*
G02*
X125975000Y-83394200I50800J0D01*
G01*
G37*
G36*
G01*
X125975000Y-83894200D02*
X126775000Y-83894200D01*
G75*
G02*
X126825800Y-83945000I0J-50800D01*
G01*
X126825800Y-84245000D01*
G75*
G02*
X126775000Y-84295800I-50800J0D01*
G01*
X125975000Y-84295800D01*
G75*
G02*
X125924200Y-84245000I0J50800D01*
G01*
X125924200Y-83945000D01*
G75*
G02*
X125975000Y-83894200I50800J0D01*
G01*
G37*
G36*
G01*
X125975000Y-84394200D02*
X126775000Y-84394200D01*
G75*
G02*
X126825800Y-84445000I0J-50800D01*
G01*
X126825800Y-84745000D01*
G75*
G02*
X126775000Y-84795800I-50800J0D01*
G01*
X125975000Y-84795800D01*
G75*
G02*
X125924200Y-84745000I0J50800D01*
G01*
X125924200Y-84445000D01*
G75*
G02*
X125975000Y-84394200I50800J0D01*
G01*
G37*
G36*
G01*
X125975000Y-84894200D02*
X126775000Y-84894200D01*
G75*
G02*
X126825800Y-84945000I0J-50800D01*
G01*
X126825800Y-85245000D01*
G75*
G02*
X126775000Y-85295800I-50800J0D01*
G01*
X125975000Y-85295800D01*
G75*
G02*
X125924200Y-85245000I0J50800D01*
G01*
X125924200Y-84945000D01*
G75*
G02*
X125975000Y-84894200I50800J0D01*
G01*
G37*
G36*
G01*
X122875000Y-84894200D02*
X123675000Y-84894200D01*
G75*
G02*
X123725800Y-84945000I0J-50800D01*
G01*
X123725800Y-85245000D01*
G75*
G02*
X123675000Y-85295800I-50800J0D01*
G01*
X122875000Y-85295800D01*
G75*
G02*
X122824200Y-85245000I0J50800D01*
G01*
X122824200Y-84945000D01*
G75*
G02*
X122875000Y-84894200I50800J0D01*
G01*
G37*
G36*
G01*
X122875000Y-84394200D02*
X123675000Y-84394200D01*
G75*
G02*
X123725800Y-84445000I0J-50800D01*
G01*
X123725800Y-84745000D01*
G75*
G02*
X123675000Y-84795800I-50800J0D01*
G01*
X122875000Y-84795800D01*
G75*
G02*
X122824200Y-84745000I0J50800D01*
G01*
X122824200Y-84445000D01*
G75*
G02*
X122875000Y-84394200I50800J0D01*
G01*
G37*
G36*
G01*
X122875000Y-83894200D02*
X123675000Y-83894200D01*
G75*
G02*
X123725800Y-83945000I0J-50800D01*
G01*
X123725800Y-84245000D01*
G75*
G02*
X123675000Y-84295800I-50800J0D01*
G01*
X122875000Y-84295800D01*
G75*
G02*
X122824200Y-84245000I0J50800D01*
G01*
X122824200Y-83945000D01*
G75*
G02*
X122875000Y-83894200I50800J0D01*
G01*
G37*
G36*
G01*
X122875000Y-83394200D02*
X123675000Y-83394200D01*
G75*
G02*
X123725800Y-83445000I0J-50800D01*
G01*
X123725800Y-83745000D01*
G75*
G02*
X123675000Y-83795800I-50800J0D01*
G01*
X122875000Y-83795800D01*
G75*
G02*
X122824200Y-83745000I0J50800D01*
G01*
X122824200Y-83445000D01*
G75*
G02*
X122875000Y-83394200I50800J0D01*
G01*
G37*
G36*
G01*
X130350000Y-87996800D02*
X130050000Y-87996800D01*
G75*
G02*
X129999200Y-87946000I0J50800D01*
G01*
X129999200Y-87496000D01*
G75*
G02*
X130050000Y-87445200I50800J0D01*
G01*
X130350000Y-87445200D01*
G75*
G02*
X130400800Y-87496000I0J-50800D01*
G01*
X130400800Y-87946000D01*
G75*
G02*
X130350000Y-87996800I-50800J0D01*
G01*
G37*
G36*
G01*
X131350000Y-87996800D02*
X131050000Y-87996800D01*
G75*
G02*
X130999200Y-87946000I0J50800D01*
G01*
X130999200Y-87496000D01*
G75*
G02*
X131050000Y-87445200I50800J0D01*
G01*
X131350000Y-87445200D01*
G75*
G02*
X131400800Y-87496000I0J-50800D01*
G01*
X131400800Y-87946000D01*
G75*
G02*
X131350000Y-87996800I-50800J0D01*
G01*
G37*
G36*
G01*
X130350000Y-86596800D02*
X130050000Y-86596800D01*
G75*
G02*
X129999200Y-86546000I0J50800D01*
G01*
X129999200Y-86096000D01*
G75*
G02*
X130050000Y-86045200I50800J0D01*
G01*
X130350000Y-86045200D01*
G75*
G02*
X130400800Y-86096000I0J-50800D01*
G01*
X130400800Y-86546000D01*
G75*
G02*
X130350000Y-86596800I-50800J0D01*
G01*
G37*
G36*
G01*
X130850000Y-87996800D02*
X130550000Y-87996800D01*
G75*
G02*
X130499200Y-87946000I0J50800D01*
G01*
X130499200Y-87496000D01*
G75*
G02*
X130550000Y-87445200I50800J0D01*
G01*
X130850000Y-87445200D01*
G75*
G02*
X130900800Y-87496000I0J-50800D01*
G01*
X130900800Y-87946000D01*
G75*
G02*
X130850000Y-87996800I-50800J0D01*
G01*
G37*
G36*
G01*
X131350000Y-86596800D02*
X131050000Y-86596800D01*
G75*
G02*
X130999200Y-86546000I0J50800D01*
G01*
X130999200Y-86096000D01*
G75*
G02*
X131050000Y-86045200I50800J0D01*
G01*
X131350000Y-86045200D01*
G75*
G02*
X131400800Y-86096000I0J-50800D01*
G01*
X131400800Y-86546000D01*
G75*
G02*
X131350000Y-86596800I-50800J0D01*
G01*
G37*
G36*
G01*
X133065800Y-90339000D02*
X133065800Y-91339000D01*
G75*
G02*
X133015000Y-91389800I-50800J0D01*
G01*
X132215000Y-91389800D01*
G75*
G02*
X132164200Y-91339000I0J50800D01*
G01*
X132164200Y-90339000D01*
G75*
G02*
X132215000Y-90288200I50800J0D01*
G01*
X133015000Y-90288200D01*
G75*
G02*
X133065800Y-90339000I0J-50800D01*
G01*
G37*
G36*
G01*
X130965800Y-90339000D02*
X130965800Y-91339000D01*
G75*
G02*
X130915000Y-91389800I-50800J0D01*
G01*
X130115000Y-91389800D01*
G75*
G02*
X130064200Y-91339000I0J50800D01*
G01*
X130064200Y-90339000D01*
G75*
G02*
X130115000Y-90288200I50800J0D01*
G01*
X130915000Y-90288200D01*
G75*
G02*
X130965800Y-90339000I0J-50800D01*
G01*
G37*
G36*
G01*
X130965800Y-88939000D02*
X130965800Y-89939000D01*
G75*
G02*
X130915000Y-89989800I-50800J0D01*
G01*
X130115000Y-89989800D01*
G75*
G02*
X130064200Y-89939000I0J50800D01*
G01*
X130064200Y-88939000D01*
G75*
G02*
X130115000Y-88888200I50800J0D01*
G01*
X130915000Y-88888200D01*
G75*
G02*
X130965800Y-88939000I0J-50800D01*
G01*
G37*
G36*
G01*
X133065800Y-88939000D02*
X133065800Y-89939000D01*
G75*
G02*
X133015000Y-89989800I-50800J0D01*
G01*
X132215000Y-89989800D01*
G75*
G02*
X132164200Y-89939000I0J50800D01*
G01*
X132164200Y-88939000D01*
G75*
G02*
X132215000Y-88888200I50800J0D01*
G01*
X133015000Y-88888200D01*
G75*
G02*
X133065800Y-88939000I0J-50800D01*
G01*
G37*
G36*
G01*
X132893900Y-86312300D02*
X132368100Y-86312300D01*
G75*
G02*
X132105200Y-86049400I0J262900D01*
G01*
X132105200Y-85498600D01*
G75*
G02*
X132368100Y-85235700I262900J0D01*
G01*
X132893900Y-85235700D01*
G75*
G02*
X133156800Y-85498600I0J-262900D01*
G01*
X133156800Y-86049400D01*
G75*
G02*
X132893900Y-86312300I-262900J0D01*
G01*
G37*
G36*
G01*
X132893900Y-88137300D02*
X132368100Y-88137300D01*
G75*
G02*
X132105200Y-87874400I0J262900D01*
G01*
X132105200Y-87323600D01*
G75*
G02*
X132368100Y-87060700I262900J0D01*
G01*
X132893900Y-87060700D01*
G75*
G02*
X133156800Y-87323600I0J-262900D01*
G01*
X133156800Y-87874400D01*
G75*
G02*
X132893900Y-88137300I-262900J0D01*
G01*
G37*
G36*
G01*
X134417900Y-86312300D02*
X133892100Y-86312300D01*
G75*
G02*
X133629200Y-86049400I0J262900D01*
G01*
X133629200Y-85498600D01*
G75*
G02*
X133892100Y-85235700I262900J0D01*
G01*
X134417900Y-85235700D01*
G75*
G02*
X134680800Y-85498600I0J-262900D01*
G01*
X134680800Y-86049400D01*
G75*
G02*
X134417900Y-86312300I-262900J0D01*
G01*
G37*
G36*
G01*
X134417900Y-88137300D02*
X133892100Y-88137300D01*
G75*
G02*
X133629200Y-87874400I0J262900D01*
G01*
X133629200Y-87323600D01*
G75*
G02*
X133892100Y-87060700I262900J0D01*
G01*
X134417900Y-87060700D01*
G75*
G02*
X134680800Y-87323600I0J-262900D01*
G01*
X134680800Y-87874400D01*
G75*
G02*
X134417900Y-88137300I-262900J0D01*
G01*
G37*
G36*
G01*
X126668800Y-86118100D02*
X126668800Y-86643900D01*
G75*
G02*
X126405900Y-86906800I-262900J0D01*
G01*
X125780100Y-86906800D01*
G75*
G02*
X125517200Y-86643900I0J262900D01*
G01*
X125517200Y-86118100D01*
G75*
G02*
X125780100Y-85855200I262900J0D01*
G01*
X126405900Y-85855200D01*
G75*
G02*
X126668800Y-86118100I0J-262900D01*
G01*
G37*
G36*
G01*
X124918800Y-86118100D02*
X124918800Y-86643900D01*
G75*
G02*
X124655900Y-86906800I-262900J0D01*
G01*
X124030100Y-86906800D01*
G75*
G02*
X123767200Y-86643900I0J262900D01*
G01*
X123767200Y-86118100D01*
G75*
G02*
X124030100Y-85855200I262900J0D01*
G01*
X124655900Y-85855200D01*
G75*
G02*
X124918800Y-86118100I0J-262900D01*
G01*
G37*
G36*
G01*
X134417900Y-89698800D02*
X133892100Y-89698800D01*
G75*
G02*
X133629200Y-89435900I0J262900D01*
G01*
X133629200Y-88810100D01*
G75*
G02*
X133892100Y-88547200I262900J0D01*
G01*
X134417900Y-88547200D01*
G75*
G02*
X134680800Y-88810100I0J-262900D01*
G01*
X134680800Y-89435900D01*
G75*
G02*
X134417900Y-89698800I-262900J0D01*
G01*
G37*
G36*
G01*
X134417900Y-91448800D02*
X133892100Y-91448800D01*
G75*
G02*
X133629200Y-91185900I0J262900D01*
G01*
X133629200Y-90560100D01*
G75*
G02*
X133892100Y-90297200I262900J0D01*
G01*
X134417900Y-90297200D01*
G75*
G02*
X134680800Y-90560100I0J-262900D01*
G01*
X134680800Y-91185900D01*
G75*
G02*
X134417900Y-91448800I-262900J0D01*
G01*
G37*
G36*
G01*
X130531200Y-85321900D02*
X130531200Y-84796100D01*
G75*
G02*
X130794100Y-84533200I262900J0D01*
G01*
X131419900Y-84533200D01*
G75*
G02*
X131682800Y-84796100I0J-262900D01*
G01*
X131682800Y-85321900D01*
G75*
G02*
X131419900Y-85584800I-262900J0D01*
G01*
X130794100Y-85584800D01*
G75*
G02*
X130531200Y-85321900I0J262900D01*
G01*
G37*
G36*
G01*
X128781200Y-85321900D02*
X128781200Y-84796100D01*
G75*
G02*
X129044100Y-84533200I262900J0D01*
G01*
X129669900Y-84533200D01*
G75*
G02*
X129932800Y-84796100I0J-262900D01*
G01*
X129932800Y-85321900D01*
G75*
G02*
X129669900Y-85584800I-262900J0D01*
G01*
X129044100Y-85584800D01*
G75*
G02*
X128781200Y-85321900I0J262900D01*
G01*
G37*
G36*
G01*
X129083900Y-89472800D02*
X128558100Y-89472800D01*
G75*
G02*
X128295200Y-89209900I0J262900D01*
G01*
X128295200Y-88584100D01*
G75*
G02*
X128558100Y-88321200I262900J0D01*
G01*
X129083900Y-88321200D01*
G75*
G02*
X129346800Y-88584100I0J-262900D01*
G01*
X129346800Y-89209900D01*
G75*
G02*
X129083900Y-89472800I-262900J0D01*
G01*
G37*
G36*
G01*
X129083900Y-91222800D02*
X128558100Y-91222800D01*
G75*
G02*
X128295200Y-90959900I0J262900D01*
G01*
X128295200Y-90334100D01*
G75*
G02*
X128558100Y-90071200I262900J0D01*
G01*
X129083900Y-90071200D01*
G75*
G02*
X129346800Y-90334100I0J-262900D01*
G01*
X129346800Y-90959900D01*
G75*
G02*
X129083900Y-91222800I-262900J0D01*
G01*
G37*
G36*
G01*
X163871999Y-74871200D02*
X164372001Y-74871200D01*
G75*
G02*
X164422800Y-74921999I0J-50799D01*
G01*
X164422800Y-75722001D01*
G75*
G02*
X164372001Y-75772800I-50799J0D01*
G01*
X163871999Y-75772800D01*
G75*
G02*
X163821200Y-75722001I0J50799D01*
G01*
X163821200Y-74921999D01*
G75*
G02*
X163871999Y-74871200I50799J0D01*
G01*
G37*
G36*
G01*
X164722000Y-74871200D02*
X165122000Y-74871200D01*
G75*
G02*
X165172800Y-74922000I0J-50800D01*
G01*
X165172800Y-75722000D01*
G75*
G02*
X165122000Y-75772800I-50800J0D01*
G01*
X164722000Y-75772800D01*
G75*
G02*
X164671200Y-75722000I0J50800D01*
G01*
X164671200Y-74922000D01*
G75*
G02*
X164722000Y-74871200I50800J0D01*
G01*
G37*
G36*
G01*
X166271999Y-74871200D02*
X166772001Y-74871200D01*
G75*
G02*
X166822800Y-74921999I0J-50799D01*
G01*
X166822800Y-75722001D01*
G75*
G02*
X166772001Y-75772800I-50799J0D01*
G01*
X166271999Y-75772800D01*
G75*
G02*
X166221200Y-75722001I0J50799D01*
G01*
X166221200Y-74921999D01*
G75*
G02*
X166271999Y-74871200I50799J0D01*
G01*
G37*
G36*
G01*
X165522000Y-74871200D02*
X165922000Y-74871200D01*
G75*
G02*
X165972800Y-74922000I0J-50800D01*
G01*
X165972800Y-75722000D01*
G75*
G02*
X165922000Y-75772800I-50800J0D01*
G01*
X165522000Y-75772800D01*
G75*
G02*
X165471200Y-75722000I0J50800D01*
G01*
X165471200Y-74922000D01*
G75*
G02*
X165522000Y-74871200I50800J0D01*
G01*
G37*
G36*
G01*
X163871999Y-76671200D02*
X164372001Y-76671200D01*
G75*
G02*
X164422800Y-76721999I0J-50799D01*
G01*
X164422800Y-77522001D01*
G75*
G02*
X164372001Y-77572800I-50799J0D01*
G01*
X163871999Y-77572800D01*
G75*
G02*
X163821200Y-77522001I0J50799D01*
G01*
X163821200Y-76721999D01*
G75*
G02*
X163871999Y-76671200I50799J0D01*
G01*
G37*
G36*
G01*
X165522000Y-76671200D02*
X165922000Y-76671200D01*
G75*
G02*
X165972800Y-76722000I0J-50800D01*
G01*
X165972800Y-77522000D01*
G75*
G02*
X165922000Y-77572800I-50800J0D01*
G01*
X165522000Y-77572800D01*
G75*
G02*
X165471200Y-77522000I0J50800D01*
G01*
X165471200Y-76722000D01*
G75*
G02*
X165522000Y-76671200I50800J0D01*
G01*
G37*
G36*
G01*
X164722000Y-76671200D02*
X165122000Y-76671200D01*
G75*
G02*
X165172800Y-76722000I0J-50800D01*
G01*
X165172800Y-77522000D01*
G75*
G02*
X165122000Y-77572800I-50800J0D01*
G01*
X164722000Y-77572800D01*
G75*
G02*
X164671200Y-77522000I0J50800D01*
G01*
X164671200Y-76722000D01*
G75*
G02*
X164722000Y-76671200I50800J0D01*
G01*
G37*
G36*
G01*
X166271999Y-76671200D02*
X166772001Y-76671200D01*
G75*
G02*
X166822800Y-76721999I0J-50799D01*
G01*
X166822800Y-77522001D01*
G75*
G02*
X166772001Y-77572800I-50799J0D01*
G01*
X166271999Y-77572800D01*
G75*
G02*
X166221200Y-77522001I0J50799D01*
G01*
X166221200Y-76721999D01*
G75*
G02*
X166271999Y-76671200I50799J0D01*
G01*
G37*
D19*
X184080000Y-98966000D03*
G36*
G01*
X202430900Y-98165900D02*
X202430900Y-99766100D01*
G75*
G02*
X202380100Y-99816900I-50800J0D01*
G01*
X200779900Y-99816900D01*
G75*
G02*
X200729100Y-99766100I0J50800D01*
G01*
X200729100Y-98165900D01*
G75*
G02*
X200779900Y-98115100I50800J0D01*
G01*
X202380100Y-98115100D01*
G75*
G02*
X202430900Y-98165900I0J-50800D01*
G01*
G37*
G36*
G01*
X119459600Y-84487200D02*
X119810400Y-84487200D01*
G75*
G02*
X119985800Y-84662600I0J-175400D01*
G01*
X119985800Y-86363400D01*
G75*
G02*
X119810400Y-86538800I-175400J0D01*
G01*
X119459600Y-86538800D01*
G75*
G02*
X119284200Y-86363400I0J175400D01*
G01*
X119284200Y-84662600D01*
G75*
G02*
X119459600Y-84487200I175400J0D01*
G01*
G37*
G36*
G01*
X118189600Y-84487200D02*
X118540400Y-84487200D01*
G75*
G02*
X118715800Y-84662600I0J-175400D01*
G01*
X118715800Y-86363400D01*
G75*
G02*
X118540400Y-86538800I-175400J0D01*
G01*
X118189600Y-86538800D01*
G75*
G02*
X118014200Y-86363400I0J175400D01*
G01*
X118014200Y-84662600D01*
G75*
G02*
X118189600Y-84487200I175400J0D01*
G01*
G37*
G36*
G01*
X116919600Y-84487200D02*
X117270400Y-84487200D01*
G75*
G02*
X117445800Y-84662600I0J-175400D01*
G01*
X117445800Y-86363400D01*
G75*
G02*
X117270400Y-86538800I-175400J0D01*
G01*
X116919600Y-86538800D01*
G75*
G02*
X116744200Y-86363400I0J175400D01*
G01*
X116744200Y-84662600D01*
G75*
G02*
X116919600Y-84487200I175400J0D01*
G01*
G37*
G36*
G01*
X115649600Y-84487200D02*
X116000400Y-84487200D01*
G75*
G02*
X116175800Y-84662600I0J-175400D01*
G01*
X116175800Y-86363400D01*
G75*
G02*
X116000400Y-86538800I-175400J0D01*
G01*
X115649600Y-86538800D01*
G75*
G02*
X115474200Y-86363400I0J175400D01*
G01*
X115474200Y-84662600D01*
G75*
G02*
X115649600Y-84487200I175400J0D01*
G01*
G37*
G36*
G01*
X114379600Y-84487200D02*
X114730400Y-84487200D01*
G75*
G02*
X114905800Y-84662600I0J-175400D01*
G01*
X114905800Y-86363400D01*
G75*
G02*
X114730400Y-86538800I-175400J0D01*
G01*
X114379600Y-86538800D01*
G75*
G02*
X114204200Y-86363400I0J175400D01*
G01*
X114204200Y-84662600D01*
G75*
G02*
X114379600Y-84487200I175400J0D01*
G01*
G37*
G36*
G01*
X113109600Y-84487200D02*
X113460400Y-84487200D01*
G75*
G02*
X113635800Y-84662600I0J-175400D01*
G01*
X113635800Y-86363400D01*
G75*
G02*
X113460400Y-86538800I-175400J0D01*
G01*
X113109600Y-86538800D01*
G75*
G02*
X112934200Y-86363400I0J175400D01*
G01*
X112934200Y-84662600D01*
G75*
G02*
X113109600Y-84487200I175400J0D01*
G01*
G37*
G36*
G01*
X111839600Y-84487200D02*
X112190400Y-84487200D01*
G75*
G02*
X112365800Y-84662600I0J-175400D01*
G01*
X112365800Y-86363400D01*
G75*
G02*
X112190400Y-86538800I-175400J0D01*
G01*
X111839600Y-86538800D01*
G75*
G02*
X111664200Y-86363400I0J175400D01*
G01*
X111664200Y-84662600D01*
G75*
G02*
X111839600Y-84487200I175400J0D01*
G01*
G37*
G36*
G01*
X111839600Y-89437200D02*
X112190400Y-89437200D01*
G75*
G02*
X112365800Y-89612600I0J-175400D01*
G01*
X112365800Y-91313400D01*
G75*
G02*
X112190400Y-91488800I-175400J0D01*
G01*
X111839600Y-91488800D01*
G75*
G02*
X111664200Y-91313400I0J175400D01*
G01*
X111664200Y-89612600D01*
G75*
G02*
X111839600Y-89437200I175400J0D01*
G01*
G37*
G36*
G01*
X113109600Y-89437200D02*
X113460400Y-89437200D01*
G75*
G02*
X113635800Y-89612600I0J-175400D01*
G01*
X113635800Y-91313400D01*
G75*
G02*
X113460400Y-91488800I-175400J0D01*
G01*
X113109600Y-91488800D01*
G75*
G02*
X112934200Y-91313400I0J175400D01*
G01*
X112934200Y-89612600D01*
G75*
G02*
X113109600Y-89437200I175400J0D01*
G01*
G37*
G36*
G01*
X114379600Y-89437200D02*
X114730400Y-89437200D01*
G75*
G02*
X114905800Y-89612600I0J-175400D01*
G01*
X114905800Y-91313400D01*
G75*
G02*
X114730400Y-91488800I-175400J0D01*
G01*
X114379600Y-91488800D01*
G75*
G02*
X114204200Y-91313400I0J175400D01*
G01*
X114204200Y-89612600D01*
G75*
G02*
X114379600Y-89437200I175400J0D01*
G01*
G37*
G36*
G01*
X115649600Y-89437200D02*
X116000400Y-89437200D01*
G75*
G02*
X116175800Y-89612600I0J-175400D01*
G01*
X116175800Y-91313400D01*
G75*
G02*
X116000400Y-91488800I-175400J0D01*
G01*
X115649600Y-91488800D01*
G75*
G02*
X115474200Y-91313400I0J175400D01*
G01*
X115474200Y-89612600D01*
G75*
G02*
X115649600Y-89437200I175400J0D01*
G01*
G37*
G36*
G01*
X116919600Y-89437200D02*
X117270400Y-89437200D01*
G75*
G02*
X117445800Y-89612600I0J-175400D01*
G01*
X117445800Y-91313400D01*
G75*
G02*
X117270400Y-91488800I-175400J0D01*
G01*
X116919600Y-91488800D01*
G75*
G02*
X116744200Y-91313400I0J175400D01*
G01*
X116744200Y-89612600D01*
G75*
G02*
X116919600Y-89437200I175400J0D01*
G01*
G37*
G36*
G01*
X118189600Y-89437200D02*
X118540400Y-89437200D01*
G75*
G02*
X118715800Y-89612600I0J-175400D01*
G01*
X118715800Y-91313400D01*
G75*
G02*
X118540400Y-91488800I-175400J0D01*
G01*
X118189600Y-91488800D01*
G75*
G02*
X118014200Y-91313400I0J175400D01*
G01*
X118014200Y-89612600D01*
G75*
G02*
X118189600Y-89437200I175400J0D01*
G01*
G37*
G36*
G01*
X119459600Y-89437200D02*
X119810400Y-89437200D01*
G75*
G02*
X119985800Y-89612600I0J-175400D01*
G01*
X119985800Y-91313400D01*
G75*
G02*
X119810400Y-91488800I-175400J0D01*
G01*
X119459600Y-91488800D01*
G75*
G02*
X119284200Y-91313400I0J175400D01*
G01*
X119284200Y-89612600D01*
G75*
G02*
X119459600Y-89437200I175400J0D01*
G01*
G37*
G36*
G01*
X131975000Y-72349200D02*
X133575000Y-72349200D01*
G75*
G02*
X133625800Y-72400000I0J-50800D01*
G01*
X133625800Y-74000000D01*
G75*
G02*
X133575000Y-74050800I-50800J0D01*
G01*
X131975000Y-74050800D01*
G75*
G02*
X131924200Y-74000000I0J50800D01*
G01*
X131924200Y-72400000D01*
G75*
G02*
X131975000Y-72349200I50800J0D01*
G01*
G37*
D17*
X112455000Y-80820000D03*
X130235000Y-73200000D03*
X114995000Y-80820000D03*
X127695000Y-73200000D03*
X117535000Y-80820000D03*
X125155000Y-73200000D03*
X120075000Y-80820000D03*
X122615000Y-73200000D03*
X122615000Y-80820000D03*
X120075000Y-73200000D03*
X125155000Y-80820000D03*
X117535000Y-73200000D03*
X127695000Y-80820000D03*
X114995000Y-73200000D03*
X130235000Y-80820000D03*
X112455000Y-73200000D03*
X132775000Y-80820000D03*
G36*
G01*
X176575200Y-85152000D02*
X176575200Y-83752000D01*
G75*
G02*
X176626000Y-83701200I50800J0D01*
G01*
X178726000Y-83701200D01*
G75*
G02*
X178776800Y-83752000I0J-50800D01*
G01*
X178776800Y-85152000D01*
G75*
G02*
X178726000Y-85202800I-50800J0D01*
G01*
X176626000Y-85202800D01*
G75*
G02*
X176575200Y-85152000I0J50800D01*
G01*
G37*
G36*
G01*
X167475200Y-85152000D02*
X167475200Y-83752000D01*
G75*
G02*
X167526000Y-83701200I50800J0D01*
G01*
X169626000Y-83701200D01*
G75*
G02*
X169676800Y-83752000I0J-50800D01*
G01*
X169676800Y-85152000D01*
G75*
G02*
X169626000Y-85202800I-50800J0D01*
G01*
X167526000Y-85202800D01*
G75*
G02*
X167475200Y-85152000I0J50800D01*
G01*
G37*
G36*
G01*
X176575200Y-80652000D02*
X176575200Y-79252000D01*
G75*
G02*
X176626000Y-79201200I50800J0D01*
G01*
X178726000Y-79201200D01*
G75*
G02*
X178776800Y-79252000I0J-50800D01*
G01*
X178776800Y-80652000D01*
G75*
G02*
X178726000Y-80702800I-50800J0D01*
G01*
X176626000Y-80702800D01*
G75*
G02*
X176575200Y-80652000I0J50800D01*
G01*
G37*
G36*
G01*
X167475200Y-80652000D02*
X167475200Y-79252000D01*
G75*
G02*
X167526000Y-79201200I50800J0D01*
G01*
X169626000Y-79201200D01*
G75*
G02*
X169676800Y-79252000I0J-50800D01*
G01*
X169676800Y-80652000D01*
G75*
G02*
X169626000Y-80702800I-50800J0D01*
G01*
X167526000Y-80702800D01*
G75*
G02*
X167475200Y-80652000I0J50800D01*
G01*
G37*
G36*
G01*
X163091200Y-85152000D02*
X163091200Y-83752000D01*
G75*
G02*
X163142000Y-83701200I50800J0D01*
G01*
X165242000Y-83701200D01*
G75*
G02*
X165292800Y-83752000I0J-50800D01*
G01*
X165292800Y-85152000D01*
G75*
G02*
X165242000Y-85202800I-50800J0D01*
G01*
X163142000Y-85202800D01*
G75*
G02*
X163091200Y-85152000I0J50800D01*
G01*
G37*
G36*
G01*
X153991200Y-85152000D02*
X153991200Y-83752000D01*
G75*
G02*
X154042000Y-83701200I50800J0D01*
G01*
X156142000Y-83701200D01*
G75*
G02*
X156192800Y-83752000I0J-50800D01*
G01*
X156192800Y-85152000D01*
G75*
G02*
X156142000Y-85202800I-50800J0D01*
G01*
X154042000Y-85202800D01*
G75*
G02*
X153991200Y-85152000I0J50800D01*
G01*
G37*
G36*
G01*
X163091200Y-80652000D02*
X163091200Y-79252000D01*
G75*
G02*
X163142000Y-79201200I50800J0D01*
G01*
X165242000Y-79201200D01*
G75*
G02*
X165292800Y-79252000I0J-50800D01*
G01*
X165292800Y-80652000D01*
G75*
G02*
X165242000Y-80702800I-50800J0D01*
G01*
X163142000Y-80702800D01*
G75*
G02*
X163091200Y-80652000I0J50800D01*
G01*
G37*
G36*
G01*
X153991200Y-80652000D02*
X153991200Y-79252000D01*
G75*
G02*
X154042000Y-79201200I50800J0D01*
G01*
X156142000Y-79201200D01*
G75*
G02*
X156192800Y-79252000I0J-50800D01*
G01*
X156192800Y-80652000D01*
G75*
G02*
X156142000Y-80702800I-50800J0D01*
G01*
X154042000Y-80702800D01*
G75*
G02*
X153991200Y-80652000I0J50800D01*
G01*
G37*
G36*
G01*
X149651200Y-85152000D02*
X149651200Y-83752000D01*
G75*
G02*
X149702000Y-83701200I50800J0D01*
G01*
X151802000Y-83701200D01*
G75*
G02*
X151852800Y-83752000I0J-50800D01*
G01*
X151852800Y-85152000D01*
G75*
G02*
X151802000Y-85202800I-50800J0D01*
G01*
X149702000Y-85202800D01*
G75*
G02*
X149651200Y-85152000I0J50800D01*
G01*
G37*
G36*
G01*
X140551200Y-85152000D02*
X140551200Y-83752000D01*
G75*
G02*
X140602000Y-83701200I50800J0D01*
G01*
X142702000Y-83701200D01*
G75*
G02*
X142752800Y-83752000I0J-50800D01*
G01*
X142752800Y-85152000D01*
G75*
G02*
X142702000Y-85202800I-50800J0D01*
G01*
X140602000Y-85202800D01*
G75*
G02*
X140551200Y-85152000I0J50800D01*
G01*
G37*
G36*
G01*
X149651200Y-80652000D02*
X149651200Y-79252000D01*
G75*
G02*
X149702000Y-79201200I50800J0D01*
G01*
X151802000Y-79201200D01*
G75*
G02*
X151852800Y-79252000I0J-50800D01*
G01*
X151852800Y-80652000D01*
G75*
G02*
X151802000Y-80702800I-50800J0D01*
G01*
X149702000Y-80702800D01*
G75*
G02*
X149651200Y-80652000I0J50800D01*
G01*
G37*
G36*
G01*
X140551200Y-80652000D02*
X140551200Y-79252000D01*
G75*
G02*
X140602000Y-79201200I50800J0D01*
G01*
X142702000Y-79201200D01*
G75*
G02*
X142752800Y-79252000I0J-50800D01*
G01*
X142752800Y-80652000D01*
G75*
G02*
X142702000Y-80702800I-50800J0D01*
G01*
X140602000Y-80702800D01*
G75*
G02*
X140551200Y-80652000I0J50800D01*
G01*
G37*
X156108000Y-91092000D03*
X158648000Y-91092000D03*
X161188000Y-91092000D03*
X163728000Y-91092000D03*
X166268000Y-91092000D03*
X168808000Y-91092000D03*
X171348000Y-91092000D03*
G36*
G01*
X174738800Y-90292000D02*
X174738800Y-91892000D01*
G75*
G02*
X174688000Y-91942800I-50800J0D01*
G01*
X173088000Y-91942800D01*
G75*
G02*
X173037200Y-91892000I0J50800D01*
G01*
X173037200Y-90292000D01*
G75*
G02*
X173088000Y-90241200I50800J0D01*
G01*
X174688000Y-90241200D01*
G75*
G02*
X174738800Y-90292000I0J-50800D01*
G01*
G37*
G36*
G01*
X174524800Y-93959999D02*
X174524800Y-94460001D01*
G75*
G02*
X174474001Y-94510800I-50799J0D01*
G01*
X173673999Y-94510800D01*
G75*
G02*
X173623200Y-94460001I0J50799D01*
G01*
X173623200Y-93959999D01*
G75*
G02*
X173673999Y-93909200I50799J0D01*
G01*
X174474001Y-93909200D01*
G75*
G02*
X174524800Y-93959999I0J-50799D01*
G01*
G37*
G36*
G01*
X174524800Y-94810000D02*
X174524800Y-95210000D01*
G75*
G02*
X174474000Y-95260800I-50800J0D01*
G01*
X173674000Y-95260800D01*
G75*
G02*
X173623200Y-95210000I0J50800D01*
G01*
X173623200Y-94810000D01*
G75*
G02*
X173674000Y-94759200I50800J0D01*
G01*
X174474000Y-94759200D01*
G75*
G02*
X174524800Y-94810000I0J-50800D01*
G01*
G37*
G36*
G01*
X174524800Y-96359999D02*
X174524800Y-96860001D01*
G75*
G02*
X174474001Y-96910800I-50799J0D01*
G01*
X173673999Y-96910800D01*
G75*
G02*
X173623200Y-96860001I0J50799D01*
G01*
X173623200Y-96359999D01*
G75*
G02*
X173673999Y-96309200I50799J0D01*
G01*
X174474001Y-96309200D01*
G75*
G02*
X174524800Y-96359999I0J-50799D01*
G01*
G37*
G36*
G01*
X174524800Y-95610000D02*
X174524800Y-96010000D01*
G75*
G02*
X174474000Y-96060800I-50800J0D01*
G01*
X173674000Y-96060800D01*
G75*
G02*
X173623200Y-96010000I0J50800D01*
G01*
X173623200Y-95610000D01*
G75*
G02*
X173674000Y-95559200I50800J0D01*
G01*
X174474000Y-95559200D01*
G75*
G02*
X174524800Y-95610000I0J-50800D01*
G01*
G37*
G36*
G01*
X176324800Y-93959999D02*
X176324800Y-94460001D01*
G75*
G02*
X176274001Y-94510800I-50799J0D01*
G01*
X175473999Y-94510800D01*
G75*
G02*
X175423200Y-94460001I0J50799D01*
G01*
X175423200Y-93959999D01*
G75*
G02*
X175473999Y-93909200I50799J0D01*
G01*
X176274001Y-93909200D01*
G75*
G02*
X176324800Y-93959999I0J-50799D01*
G01*
G37*
G36*
G01*
X176324800Y-95610000D02*
X176324800Y-96010000D01*
G75*
G02*
X176274000Y-96060800I-50800J0D01*
G01*
X175474000Y-96060800D01*
G75*
G02*
X175423200Y-96010000I0J50800D01*
G01*
X175423200Y-95610000D01*
G75*
G02*
X175474000Y-95559200I50800J0D01*
G01*
X176274000Y-95559200D01*
G75*
G02*
X176324800Y-95610000I0J-50800D01*
G01*
G37*
G36*
G01*
X176324800Y-94810000D02*
X176324800Y-95210000D01*
G75*
G02*
X176274000Y-95260800I-50800J0D01*
G01*
X175474000Y-95260800D01*
G75*
G02*
X175423200Y-95210000I0J50800D01*
G01*
X175423200Y-94810000D01*
G75*
G02*
X175474000Y-94759200I50800J0D01*
G01*
X176274000Y-94759200D01*
G75*
G02*
X176324800Y-94810000I0J-50800D01*
G01*
G37*
G36*
G01*
X176324800Y-96359999D02*
X176324800Y-96860001D01*
G75*
G02*
X176274001Y-96910800I-50799J0D01*
G01*
X175473999Y-96910800D01*
G75*
G02*
X175423200Y-96860001I0J50799D01*
G01*
X175423200Y-96359999D01*
G75*
G02*
X175473999Y-96309200I50799J0D01*
G01*
X176274001Y-96309200D01*
G75*
G02*
X176324800Y-96359999I0J-50799D01*
G01*
G37*
G36*
G01*
X137675800Y-98699999D02*
X137675800Y-99200001D01*
G75*
G02*
X137625001Y-99250800I-50799J0D01*
G01*
X136824999Y-99250800D01*
G75*
G02*
X136774200Y-99200001I0J50799D01*
G01*
X136774200Y-98699999D01*
G75*
G02*
X136824999Y-98649200I50799J0D01*
G01*
X137625001Y-98649200D01*
G75*
G02*
X137675800Y-98699999I0J-50799D01*
G01*
G37*
G36*
G01*
X137675800Y-97699999D02*
X137675800Y-98200001D01*
G75*
G02*
X137625001Y-98250800I-50799J0D01*
G01*
X136824999Y-98250800D01*
G75*
G02*
X136774200Y-98200001I0J50799D01*
G01*
X136774200Y-97699999D01*
G75*
G02*
X136824999Y-97649200I50799J0D01*
G01*
X137625001Y-97649200D01*
G75*
G02*
X137675800Y-97699999I0J-50799D01*
G01*
G37*
G36*
G01*
X139475800Y-97699999D02*
X139475800Y-98200001D01*
G75*
G02*
X139425001Y-98250800I-50799J0D01*
G01*
X138624999Y-98250800D01*
G75*
G02*
X138574200Y-98200001I0J50799D01*
G01*
X138574200Y-97699999D01*
G75*
G02*
X138624999Y-97649200I50799J0D01*
G01*
X139425001Y-97649200D01*
G75*
G02*
X139475800Y-97699999I0J-50799D01*
G01*
G37*
G36*
G01*
X139475800Y-98699999D02*
X139475800Y-99200001D01*
G75*
G02*
X139425001Y-99250800I-50799J0D01*
G01*
X138624999Y-99250800D01*
G75*
G02*
X138574200Y-99200001I0J50799D01*
G01*
X138574200Y-98699999D01*
G75*
G02*
X138624999Y-98649200I50799J0D01*
G01*
X139425001Y-98649200D01*
G75*
G02*
X139475800Y-98699999I0J-50799D01*
G01*
G37*
G36*
G01*
X156425001Y-75600800D02*
X155924999Y-75600800D01*
G75*
G02*
X155874200Y-75550001I0J50799D01*
G01*
X155874200Y-74749999D01*
G75*
G02*
X155924999Y-74699200I50799J0D01*
G01*
X156425001Y-74699200D01*
G75*
G02*
X156475800Y-74749999I0J-50799D01*
G01*
X156475800Y-75550001D01*
G75*
G02*
X156425001Y-75600800I-50799J0D01*
G01*
G37*
G36*
G01*
X155575000Y-75600800D02*
X155175000Y-75600800D01*
G75*
G02*
X155124200Y-75550000I0J50800D01*
G01*
X155124200Y-74750000D01*
G75*
G02*
X155175000Y-74699200I50800J0D01*
G01*
X155575000Y-74699200D01*
G75*
G02*
X155625800Y-74750000I0J-50800D01*
G01*
X155625800Y-75550000D01*
G75*
G02*
X155575000Y-75600800I-50800J0D01*
G01*
G37*
G36*
G01*
X154025001Y-75600800D02*
X153524999Y-75600800D01*
G75*
G02*
X153474200Y-75550001I0J50799D01*
G01*
X153474200Y-74749999D01*
G75*
G02*
X153524999Y-74699200I50799J0D01*
G01*
X154025001Y-74699200D01*
G75*
G02*
X154075800Y-74749999I0J-50799D01*
G01*
X154075800Y-75550001D01*
G75*
G02*
X154025001Y-75600800I-50799J0D01*
G01*
G37*
G36*
G01*
X154775000Y-75600800D02*
X154375000Y-75600800D01*
G75*
G02*
X154324200Y-75550000I0J50800D01*
G01*
X154324200Y-74750000D01*
G75*
G02*
X154375000Y-74699200I50800J0D01*
G01*
X154775000Y-74699200D01*
G75*
G02*
X154825800Y-74750000I0J-50800D01*
G01*
X154825800Y-75550000D01*
G75*
G02*
X154775000Y-75600800I-50800J0D01*
G01*
G37*
G36*
G01*
X156425001Y-77400800D02*
X155924999Y-77400800D01*
G75*
G02*
X155874200Y-77350001I0J50799D01*
G01*
X155874200Y-76549999D01*
G75*
G02*
X155924999Y-76499200I50799J0D01*
G01*
X156425001Y-76499200D01*
G75*
G02*
X156475800Y-76549999I0J-50799D01*
G01*
X156475800Y-77350001D01*
G75*
G02*
X156425001Y-77400800I-50799J0D01*
G01*
G37*
G36*
G01*
X154775000Y-77400800D02*
X154375000Y-77400800D01*
G75*
G02*
X154324200Y-77350000I0J50800D01*
G01*
X154324200Y-76550000D01*
G75*
G02*
X154375000Y-76499200I50800J0D01*
G01*
X154775000Y-76499200D01*
G75*
G02*
X154825800Y-76550000I0J-50800D01*
G01*
X154825800Y-77350000D01*
G75*
G02*
X154775000Y-77400800I-50800J0D01*
G01*
G37*
G36*
G01*
X155575000Y-77400800D02*
X155175000Y-77400800D01*
G75*
G02*
X155124200Y-77350000I0J50800D01*
G01*
X155124200Y-76550000D01*
G75*
G02*
X155175000Y-76499200I50800J0D01*
G01*
X155575000Y-76499200D01*
G75*
G02*
X155625800Y-76550000I0J-50800D01*
G01*
X155625800Y-77350000D01*
G75*
G02*
X155575000Y-77400800I-50800J0D01*
G01*
G37*
G36*
G01*
X154025001Y-77400800D02*
X153524999Y-77400800D01*
G75*
G02*
X153474200Y-77350001I0J50799D01*
G01*
X153474200Y-76549999D01*
G75*
G02*
X153524999Y-76499200I50799J0D01*
G01*
X154025001Y-76499200D01*
G75*
G02*
X154075800Y-76549999I0J-50799D01*
G01*
X154075800Y-77350001D01*
G75*
G02*
X154025001Y-77400800I-50799J0D01*
G01*
G37*
D20*
X184556000Y-91854000D03*
X197256000Y-91854000D03*
X189636000Y-76614000D03*
X197256000Y-76614000D03*
G36*
G01*
X136887900Y-91350800D02*
X136362100Y-91350800D01*
G75*
G02*
X136099200Y-91087900I0J262900D01*
G01*
X136099200Y-90462100D01*
G75*
G02*
X136362100Y-90199200I262900J0D01*
G01*
X136887900Y-90199200D01*
G75*
G02*
X137150800Y-90462100I0J-262900D01*
G01*
X137150800Y-91087900D01*
G75*
G02*
X136887900Y-91350800I-262900J0D01*
G01*
G37*
G36*
G01*
X136887900Y-89600800D02*
X136362100Y-89600800D01*
G75*
G02*
X136099200Y-89337900I0J262900D01*
G01*
X136099200Y-88712100D01*
G75*
G02*
X136362100Y-88449200I262900J0D01*
G01*
X136887900Y-88449200D01*
G75*
G02*
X137150800Y-88712100I0J-262900D01*
G01*
X137150800Y-89337900D01*
G75*
G02*
X136887900Y-89600800I-262900J0D01*
G01*
G37*
G36*
G01*
X141075800Y-87037100D02*
X141075800Y-87562900D01*
G75*
G02*
X140812900Y-87825800I-262900J0D01*
G01*
X140187100Y-87825800D01*
G75*
G02*
X139924200Y-87562900I0J262900D01*
G01*
X139924200Y-87037100D01*
G75*
G02*
X140187100Y-86774200I262900J0D01*
G01*
X140812900Y-86774200D01*
G75*
G02*
X141075800Y-87037100I0J-262900D01*
G01*
G37*
G36*
G01*
X139325800Y-87037100D02*
X139325800Y-87562900D01*
G75*
G02*
X139062900Y-87825800I-262900J0D01*
G01*
X138437100Y-87825800D01*
G75*
G02*
X138174200Y-87562900I0J262900D01*
G01*
X138174200Y-87037100D01*
G75*
G02*
X138437100Y-86774200I262900J0D01*
G01*
X139062900Y-86774200D01*
G75*
G02*
X139325800Y-87037100I0J-262900D01*
G01*
G37*
M02*
