%TF.GenerationSoftware,KiCad,Pcbnew,(5.1.7)-1*%
%TF.CreationDate,2022-08-04T10:30:13+03:00*%
%TF.ProjectId,battbrd,62617474-6272-4642-9e6b-696361645f70,rev?*%
%TF.SameCoordinates,Original*%
%TF.FileFunction,Soldermask,Top*%
%TF.FilePolarity,Negative*%
%FSLAX46Y46*%
G04 Gerber Fmt 4.6, Leading zero omitted, Abs format (unit mm)*
G04 Created by KiCad (PCBNEW (5.1.7)-1) date 2022-08-04 10:30:13*
%MOMM*%
%LPD*%
G01*
G04 APERTURE LIST*
%ADD10R,2.350000X0.850000*%
%ADD11R,0.650000X1.060000*%
%ADD12R,0.800000X0.900000*%
%ADD13R,3.600000X2.600000*%
G04 APERTURE END LIST*
D10*
%TO.C,J1*%
X167950000Y-86800000D03*
X167950000Y-84800000D03*
X167950000Y-88800000D03*
%TD*%
D11*
%TO.C,U8*%
X166150000Y-80450000D03*
X168050000Y-80450000D03*
X168050000Y-82650000D03*
X167100000Y-82650000D03*
X166150000Y-82650000D03*
%TD*%
%TO.C,R2*%
G36*
G01*
X165600001Y-77200000D02*
X164699999Y-77200000D01*
G75*
G02*
X164450000Y-76950001I0J249999D01*
G01*
X164450000Y-76299999D01*
G75*
G02*
X164699999Y-76050000I249999J0D01*
G01*
X165600001Y-76050000D01*
G75*
G02*
X165850000Y-76299999I0J-249999D01*
G01*
X165850000Y-76950001D01*
G75*
G02*
X165600001Y-77200000I-249999J0D01*
G01*
G37*
G36*
G01*
X165600001Y-79250000D02*
X164699999Y-79250000D01*
G75*
G02*
X164450000Y-79000001I0J249999D01*
G01*
X164450000Y-78349999D01*
G75*
G02*
X164699999Y-78100000I249999J0D01*
G01*
X165600001Y-78100000D01*
G75*
G02*
X165850000Y-78349999I0J-249999D01*
G01*
X165850000Y-79000001D01*
G75*
G02*
X165600001Y-79250000I-249999J0D01*
G01*
G37*
%TD*%
D12*
%TO.C,D2*%
X167350000Y-93000000D03*
X166400000Y-91000000D03*
X168300000Y-91000000D03*
%TD*%
%TO.C,C14*%
G36*
G01*
X166500001Y-95400000D02*
X165599999Y-95400000D01*
G75*
G02*
X165350000Y-95150001I0J249999D01*
G01*
X165350000Y-94499999D01*
G75*
G02*
X165599999Y-94250000I249999J0D01*
G01*
X166500001Y-94250000D01*
G75*
G02*
X166750000Y-94499999I0J-249999D01*
G01*
X166750000Y-95150001D01*
G75*
G02*
X166500001Y-95400000I-249999J0D01*
G01*
G37*
G36*
G01*
X166500001Y-97450000D02*
X165599999Y-97450000D01*
G75*
G02*
X165350000Y-97200001I0J249999D01*
G01*
X165350000Y-96549999D01*
G75*
G02*
X165599999Y-96300000I249999J0D01*
G01*
X166500001Y-96300000D01*
G75*
G02*
X166750000Y-96549999I0J-249999D01*
G01*
X166750000Y-97200001D01*
G75*
G02*
X166500001Y-97450000I-249999J0D01*
G01*
G37*
%TD*%
%TO.C,C13*%
G36*
G01*
X168000001Y-77275000D02*
X167099999Y-77275000D01*
G75*
G02*
X166850000Y-77025001I0J249999D01*
G01*
X166850000Y-76374999D01*
G75*
G02*
X167099999Y-76125000I249999J0D01*
G01*
X168000001Y-76125000D01*
G75*
G02*
X168250000Y-76374999I0J-249999D01*
G01*
X168250000Y-77025001D01*
G75*
G02*
X168000001Y-77275000I-249999J0D01*
G01*
G37*
G36*
G01*
X168000001Y-79325000D02*
X167099999Y-79325000D01*
G75*
G02*
X166850000Y-79075001I0J249999D01*
G01*
X166850000Y-78424999D01*
G75*
G02*
X167099999Y-78175000I249999J0D01*
G01*
X168000001Y-78175000D01*
G75*
G02*
X168250000Y-78424999I0J-249999D01*
G01*
X168250000Y-79075001D01*
G75*
G02*
X168000001Y-79325000I-249999J0D01*
G01*
G37*
%TD*%
D13*
%TO.C,BT1*%
X155300000Y-101300000D03*
X155300000Y-72000000D03*
%TD*%
M02*
