%TF.GenerationSoftware,KiCad,Pcbnew,(5.1.7)-1*%
%TF.CreationDate,2022-08-04T10:30:13+03:00*%
%TF.ProjectId,battbrd,62617474-6272-4642-9e6b-696361645f70,rev?*%
%TF.SameCoordinates,Original*%
%TF.FileFunction,Legend,Top*%
%TF.FilePolarity,Positive*%
%FSLAX46Y46*%
G04 Gerber Fmt 4.6, Leading zero omitted, Abs format (unit mm)*
G04 Created by KiCad (PCBNEW (5.1.7)-1) date 2022-08-04 10:30:13*
%MOMM*%
%LPD*%
G01*
G04 APERTURE LIST*
%ADD10C,0.120000*%
%ADD11C,0.150000*%
G04 APERTURE END LIST*
D10*
X164083333Y-88511904D02*
X164350000Y-89311904D01*
X164616666Y-88511904D01*
X165340476Y-89235714D02*
X165302380Y-89273809D01*
X165188095Y-89311904D01*
X165111904Y-89311904D01*
X164997619Y-89273809D01*
X164921428Y-89197619D01*
X164883333Y-89121428D01*
X164845238Y-88969047D01*
X164845238Y-88854761D01*
X164883333Y-88702380D01*
X164921428Y-88626190D01*
X164997619Y-88550000D01*
X165111904Y-88511904D01*
X165188095Y-88511904D01*
X165302380Y-88550000D01*
X165340476Y-88588095D01*
X166140476Y-89235714D02*
X166102380Y-89273809D01*
X165988095Y-89311904D01*
X165911904Y-89311904D01*
X165797619Y-89273809D01*
X165721428Y-89197619D01*
X165683333Y-89121428D01*
X165645238Y-88969047D01*
X165645238Y-88854761D01*
X165683333Y-88702380D01*
X165721428Y-88626190D01*
X165797619Y-88550000D01*
X165911904Y-88511904D01*
X165988095Y-88511904D01*
X166102380Y-88550000D01*
X166140476Y-88588095D01*
X164490476Y-84350000D02*
X164414285Y-84311904D01*
X164300000Y-84311904D01*
X164185714Y-84350000D01*
X164109523Y-84426190D01*
X164071428Y-84502380D01*
X164033333Y-84654761D01*
X164033333Y-84769047D01*
X164071428Y-84921428D01*
X164109523Y-84997619D01*
X164185714Y-85073809D01*
X164300000Y-85111904D01*
X164376190Y-85111904D01*
X164490476Y-85073809D01*
X164528571Y-85035714D01*
X164528571Y-84769047D01*
X164376190Y-84769047D01*
X164871428Y-85111904D02*
X164871428Y-84311904D01*
X165328571Y-85111904D01*
X165328571Y-84311904D01*
X165709523Y-85111904D02*
X165709523Y-84311904D01*
X165900000Y-84311904D01*
X166014285Y-84350000D01*
X166090476Y-84426190D01*
X166128571Y-84502380D01*
X166166666Y-84654761D01*
X166166666Y-84769047D01*
X166128571Y-84921428D01*
X166090476Y-84997619D01*
X166014285Y-85073809D01*
X165900000Y-85111904D01*
X165709523Y-85111904D01*
X164509523Y-86742857D02*
X164623809Y-86780952D01*
X164661904Y-86819047D01*
X164700000Y-86895238D01*
X164700000Y-87009523D01*
X164661904Y-87085714D01*
X164623809Y-87123809D01*
X164547619Y-87161904D01*
X164242857Y-87161904D01*
X164242857Y-86361904D01*
X164509523Y-86361904D01*
X164585714Y-86400000D01*
X164623809Y-86438095D01*
X164661904Y-86514285D01*
X164661904Y-86590476D01*
X164623809Y-86666666D01*
X164585714Y-86704761D01*
X164509523Y-86742857D01*
X164242857Y-86742857D01*
X165004761Y-86933333D02*
X165385714Y-86933333D01*
X164928571Y-87161904D02*
X165195238Y-86361904D01*
X165461904Y-87161904D01*
X165614285Y-86361904D02*
X166071428Y-86361904D01*
X165842857Y-87161904D02*
X165842857Y-86361904D01*
%TO.C,U8*%
X168710000Y-82450000D02*
X168710000Y-80650000D01*
X165490000Y-80650000D02*
X165490000Y-83100000D01*
%TO.C,R2*%
X164440000Y-77911252D02*
X164440000Y-77388748D01*
X165860000Y-77911252D02*
X165860000Y-77388748D01*
%TO.C,D2*%
X165770000Y-92760000D02*
X166700000Y-92760000D01*
X168930000Y-92760000D02*
X168000000Y-92760000D01*
X168930000Y-92760000D02*
X168930000Y-90600000D01*
X165770000Y-92760000D02*
X165770000Y-91300000D01*
%TO.C,C14*%
X165340000Y-96111252D02*
X165340000Y-95588748D01*
X166760000Y-96111252D02*
X166760000Y-95588748D01*
%TO.C,C13*%
X166840000Y-77986252D02*
X166840000Y-77463748D01*
X168260000Y-77986252D02*
X168260000Y-77463748D01*
%TO.C,BT1*%
X159150000Y-75300000D02*
X159150000Y-72100000D01*
X159150000Y-72100000D02*
X157600000Y-72100000D01*
X163650000Y-75300000D02*
X159150000Y-75300000D01*
X163650000Y-75300000D02*
X163650000Y-96200000D01*
X161850000Y-98000000D02*
X159150000Y-98000000D01*
X163650000Y-96200000D02*
X161850000Y-98000000D01*
X159150000Y-98000000D02*
X159150000Y-101200000D01*
X159150000Y-101200000D02*
X157600000Y-101200000D01*
X151450000Y-98000000D02*
X151450000Y-101200000D01*
X151450000Y-101200000D02*
X153000000Y-101200000D01*
X151450000Y-75300000D02*
X151450000Y-72100000D01*
X151450000Y-72100000D02*
X153000000Y-72100000D01*
X146950000Y-98000000D02*
X146950000Y-75300000D01*
X146950000Y-98000000D02*
X151450000Y-98000000D01*
X146950000Y-75300000D02*
X151450000Y-75300000D01*
X160300000Y-99650000D02*
X162300000Y-99650000D01*
X161300000Y-98650000D02*
X161300000Y-100650000D01*
%TO.C,R2*%
D11*
X163252380Y-76666666D02*
X162776190Y-77000000D01*
X163252380Y-77238095D02*
X162252380Y-77238095D01*
X162252380Y-76857142D01*
X162300000Y-76761904D01*
X162347619Y-76714285D01*
X162442857Y-76666666D01*
X162585714Y-76666666D01*
X162680952Y-76714285D01*
X162728571Y-76761904D01*
X162776190Y-76857142D01*
X162776190Y-77238095D01*
X162347619Y-76285714D02*
X162300000Y-76238095D01*
X162252380Y-76142857D01*
X162252380Y-75904761D01*
X162300000Y-75809523D01*
X162347619Y-75761904D01*
X162442857Y-75714285D01*
X162538095Y-75714285D01*
X162680952Y-75761904D01*
X163252380Y-76333333D01*
X163252380Y-75714285D01*
%TO.C,C14*%
X168507142Y-96842857D02*
X168554761Y-96890476D01*
X168602380Y-97033333D01*
X168602380Y-97128571D01*
X168554761Y-97271428D01*
X168459523Y-97366666D01*
X168364285Y-97414285D01*
X168173809Y-97461904D01*
X168030952Y-97461904D01*
X167840476Y-97414285D01*
X167745238Y-97366666D01*
X167650000Y-97271428D01*
X167602380Y-97128571D01*
X167602380Y-97033333D01*
X167650000Y-96890476D01*
X167697619Y-96842857D01*
X168602380Y-95890476D02*
X168602380Y-96461904D01*
X168602380Y-96176190D02*
X167602380Y-96176190D01*
X167745238Y-96271428D01*
X167840476Y-96366666D01*
X167888095Y-96461904D01*
X167935714Y-95033333D02*
X168602380Y-95033333D01*
X167554761Y-95271428D02*
X168269047Y-95509523D01*
X168269047Y-94890476D01*
%TO.C,BT1*%
X154978571Y-87835714D02*
X155026190Y-87692857D01*
X155073809Y-87645238D01*
X155169047Y-87597619D01*
X155311904Y-87597619D01*
X155407142Y-87645238D01*
X155454761Y-87692857D01*
X155502380Y-87788095D01*
X155502380Y-88169047D01*
X154502380Y-88169047D01*
X154502380Y-87835714D01*
X154550000Y-87740476D01*
X154597619Y-87692857D01*
X154692857Y-87645238D01*
X154788095Y-87645238D01*
X154883333Y-87692857D01*
X154930952Y-87740476D01*
X154978571Y-87835714D01*
X154978571Y-88169047D01*
X154502380Y-87311904D02*
X154502380Y-86740476D01*
X155502380Y-87026190D02*
X154502380Y-87026190D01*
X155502380Y-85883333D02*
X155502380Y-86454761D01*
X155502380Y-86169047D02*
X154502380Y-86169047D01*
X154645238Y-86264285D01*
X154740476Y-86359523D01*
X154788095Y-86454761D01*
%TD*%
M02*
