%TF.GenerationSoftware,KiCad,Pcbnew,(5.1.7)-1*%
%TF.CreationDate,2022-08-04T10:30:13+03:00*%
%TF.ProjectId,battbrd,62617474-6272-4642-9e6b-696361645f70,rev?*%
%TF.SameCoordinates,Original*%
%TF.FileFunction,Copper,L1,Top*%
%TF.FilePolarity,Positive*%
%FSLAX46Y46*%
G04 Gerber Fmt 4.6, Leading zero omitted, Abs format (unit mm)*
G04 Created by KiCad (PCBNEW (5.1.7)-1) date 2022-08-04 10:30:13*
%MOMM*%
%LPD*%
G01*
G04 APERTURE LIST*
%TA.AperFunction,SMDPad,CuDef*%
%ADD10R,2.350000X0.850000*%
%TD*%
%TA.AperFunction,SMDPad,CuDef*%
%ADD11R,0.650000X1.060000*%
%TD*%
%TA.AperFunction,SMDPad,CuDef*%
%ADD12R,0.800000X0.900000*%
%TD*%
%TA.AperFunction,SMDPad,CuDef*%
%ADD13R,3.600000X2.600000*%
%TD*%
%TA.AperFunction,ViaPad*%
%ADD14C,0.800000*%
%TD*%
%TA.AperFunction,Conductor*%
%ADD15C,0.250000*%
%TD*%
%TA.AperFunction,Conductor*%
%ADD16C,0.254000*%
%TD*%
%TA.AperFunction,Conductor*%
%ADD17C,0.100000*%
%TD*%
G04 APERTURE END LIST*
D10*
%TO.P,J1,2*%
%TO.N,Net-(D2-Pad3)*%
X167950000Y-86800000D03*
%TO.P,J1,3*%
%TO.N,GNDD*%
X167950000Y-84800000D03*
%TO.P,J1,1*%
%TO.N,VCC*%
X167950000Y-88800000D03*
%TD*%
D11*
%TO.P,U8,5*%
%TO.N,Net-(R2-Pad1)*%
X166150000Y-80450000D03*
%TO.P,U8,4*%
%TO.N,VCC*%
X168050000Y-80450000D03*
%TO.P,U8,3*%
%TO.N,Net-(BT1-Pad1)*%
X168050000Y-82650000D03*
%TO.P,U8,2*%
%TO.N,GNDD*%
X167100000Y-82650000D03*
%TO.P,U8,1*%
%TO.N,Net-(U8-Pad1)*%
X166150000Y-82650000D03*
%TD*%
%TO.P,R2,2*%
%TO.N,GNDD*%
%TA.AperFunction,SMDPad,CuDef*%
G36*
G01*
X165600001Y-77200000D02*
X164699999Y-77200000D01*
G75*
G02*
X164450000Y-76950001I0J249999D01*
G01*
X164450000Y-76299999D01*
G75*
G02*
X164699999Y-76050000I249999J0D01*
G01*
X165600001Y-76050000D01*
G75*
G02*
X165850000Y-76299999I0J-249999D01*
G01*
X165850000Y-76950001D01*
G75*
G02*
X165600001Y-77200000I-249999J0D01*
G01*
G37*
%TD.AperFunction*%
%TO.P,R2,1*%
%TO.N,Net-(R2-Pad1)*%
%TA.AperFunction,SMDPad,CuDef*%
G36*
G01*
X165600001Y-79250000D02*
X164699999Y-79250000D01*
G75*
G02*
X164450000Y-79000001I0J249999D01*
G01*
X164450000Y-78349999D01*
G75*
G02*
X164699999Y-78100000I249999J0D01*
G01*
X165600001Y-78100000D01*
G75*
G02*
X165850000Y-78349999I0J-249999D01*
G01*
X165850000Y-79000001D01*
G75*
G02*
X165600001Y-79250000I-249999J0D01*
G01*
G37*
%TD.AperFunction*%
%TD*%
D12*
%TO.P,D2,3*%
%TO.N,Net-(D2-Pad3)*%
X167350000Y-93000000D03*
%TO.P,D2,2*%
%TO.N,Net-(BT1-Pad1)*%
X166400000Y-91000000D03*
%TO.P,D2,1*%
%TO.N,VCC*%
X168300000Y-91000000D03*
%TD*%
%TO.P,C14,2*%
%TO.N,GNDD*%
%TA.AperFunction,SMDPad,CuDef*%
G36*
G01*
X166500001Y-95400000D02*
X165599999Y-95400000D01*
G75*
G02*
X165350000Y-95150001I0J249999D01*
G01*
X165350000Y-94499999D01*
G75*
G02*
X165599999Y-94250000I249999J0D01*
G01*
X166500001Y-94250000D01*
G75*
G02*
X166750000Y-94499999I0J-249999D01*
G01*
X166750000Y-95150001D01*
G75*
G02*
X166500001Y-95400000I-249999J0D01*
G01*
G37*
%TD.AperFunction*%
%TO.P,C14,1*%
%TO.N,Net-(BT1-Pad1)*%
%TA.AperFunction,SMDPad,CuDef*%
G36*
G01*
X166500001Y-97450000D02*
X165599999Y-97450000D01*
G75*
G02*
X165350000Y-97200001I0J249999D01*
G01*
X165350000Y-96549999D01*
G75*
G02*
X165599999Y-96300000I249999J0D01*
G01*
X166500001Y-96300000D01*
G75*
G02*
X166750000Y-96549999I0J-249999D01*
G01*
X166750000Y-97200001D01*
G75*
G02*
X166500001Y-97450000I-249999J0D01*
G01*
G37*
%TD.AperFunction*%
%TD*%
%TO.P,C13,2*%
%TO.N,GNDD*%
%TA.AperFunction,SMDPad,CuDef*%
G36*
G01*
X168000001Y-77275000D02*
X167099999Y-77275000D01*
G75*
G02*
X166850000Y-77025001I0J249999D01*
G01*
X166850000Y-76374999D01*
G75*
G02*
X167099999Y-76125000I249999J0D01*
G01*
X168000001Y-76125000D01*
G75*
G02*
X168250000Y-76374999I0J-249999D01*
G01*
X168250000Y-77025001D01*
G75*
G02*
X168000001Y-77275000I-249999J0D01*
G01*
G37*
%TD.AperFunction*%
%TO.P,C13,1*%
%TO.N,VCC*%
%TA.AperFunction,SMDPad,CuDef*%
G36*
G01*
X168000001Y-79325000D02*
X167099999Y-79325000D01*
G75*
G02*
X166850000Y-79075001I0J249999D01*
G01*
X166850000Y-78424999D01*
G75*
G02*
X167099999Y-78175000I249999J0D01*
G01*
X168000001Y-78175000D01*
G75*
G02*
X168250000Y-78424999I0J-249999D01*
G01*
X168250000Y-79075001D01*
G75*
G02*
X168000001Y-79325000I-249999J0D01*
G01*
G37*
%TD.AperFunction*%
%TD*%
D13*
%TO.P,BT1,1*%
%TO.N,Net-(BT1-Pad1)*%
X155300000Y-101300000D03*
%TO.P,BT1,2*%
%TO.N,GNDD*%
X155300000Y-72000000D03*
%TD*%
D14*
%TO.N,Net-(BT1-Pad1)*%
X164950000Y-81550000D03*
X165100000Y-90950000D03*
X162800000Y-96250000D03*
%TO.N,VCC*%
X166050000Y-88900000D03*
X162950000Y-77800000D03*
%TD*%
D15*
%TO.N,Net-(BT1-Pad1)*%
X168050000Y-81870000D02*
X167730000Y-81550000D01*
X167730000Y-81550000D02*
X164950000Y-81550000D01*
X168050000Y-82650000D02*
X168050000Y-81870000D01*
X166350000Y-90950000D02*
X166400000Y-91000000D01*
X165100000Y-90950000D02*
X166350000Y-90950000D01*
X160350000Y-96250000D02*
X155300000Y-101300000D01*
X162800000Y-96250000D02*
X160350000Y-96250000D01*
X165375000Y-96875000D02*
X164750000Y-96250000D01*
X166050000Y-96875000D02*
X165375000Y-96875000D01*
X162800000Y-96250000D02*
X164750000Y-96250000D01*
%TO.N,GNDD*%
X159925000Y-76625000D02*
X155300000Y-72000000D01*
X165150000Y-76625000D02*
X159925000Y-76625000D01*
X165225000Y-76700000D02*
X165150000Y-76625000D01*
X167550000Y-76700000D02*
X165225000Y-76700000D01*
X167100000Y-83950000D02*
X167950000Y-84800000D01*
X167100000Y-82650000D02*
X167100000Y-83950000D01*
X159925000Y-78200000D02*
X159925000Y-76625000D01*
X166525000Y-84800000D02*
X159925000Y-78200000D01*
X167950000Y-84800000D02*
X166525000Y-84800000D01*
X159925000Y-89100000D02*
X159925000Y-78200000D01*
X165650000Y-94825000D02*
X159925000Y-89100000D01*
X166050000Y-94825000D02*
X165650000Y-94825000D01*
%TO.N,VCC*%
X167550000Y-79950000D02*
X168050000Y-80450000D01*
X167550000Y-78750000D02*
X167550000Y-79950000D01*
X167950000Y-90650000D02*
X168300000Y-91000000D01*
X167950000Y-88800000D02*
X167950000Y-90650000D01*
X166150000Y-88800000D02*
X166050000Y-88900000D01*
X167950000Y-88800000D02*
X166150000Y-88800000D01*
X162950000Y-77800000D02*
X163150000Y-77600000D01*
X166400000Y-77600000D02*
X167550000Y-78750000D01*
X163150000Y-77600000D02*
X166400000Y-77600000D01*
%TO.N,Net-(D2-Pad3)*%
X167350000Y-93000000D02*
X165500000Y-93000000D01*
X165500000Y-93000000D02*
X164150000Y-91650000D01*
X166525000Y-86800000D02*
X167950000Y-86800000D01*
X164150000Y-89175000D02*
X166525000Y-86800000D01*
X164150000Y-91650000D02*
X164150000Y-89175000D01*
%TO.N,Net-(R2-Pad1)*%
X165150000Y-79450000D02*
X166150000Y-80450000D01*
X165150000Y-78675000D02*
X165150000Y-79450000D01*
%TD*%
D16*
%TO.N,GNDD*%
X152865000Y-71714250D02*
X153023750Y-71873000D01*
X155173000Y-71873000D01*
X155173000Y-71853000D01*
X155427000Y-71853000D01*
X155427000Y-71873000D01*
X157576250Y-71873000D01*
X157735000Y-71714250D01*
X157737739Y-70810000D01*
X159026620Y-70810000D01*
X163810388Y-75593769D01*
X163831052Y-75618948D01*
X163856231Y-75639612D01*
X163856233Y-75639614D01*
X163897907Y-75673815D01*
X163921425Y-75693115D01*
X163919463Y-75695506D01*
X163860498Y-75805820D01*
X163824188Y-75925518D01*
X163811928Y-76050000D01*
X163815000Y-76339250D01*
X163973750Y-76498000D01*
X165023000Y-76498000D01*
X165023000Y-76478000D01*
X165277000Y-76478000D01*
X165277000Y-76498000D01*
X166298750Y-76498000D01*
X166373750Y-76573000D01*
X167423000Y-76573000D01*
X167423000Y-76553000D01*
X167677000Y-76553000D01*
X167677000Y-76573000D01*
X167697000Y-76573000D01*
X167697000Y-76827000D01*
X167677000Y-76827000D01*
X167677000Y-76847000D01*
X167423000Y-76847000D01*
X167423000Y-76827000D01*
X166401250Y-76827000D01*
X166326250Y-76752000D01*
X165277000Y-76752000D01*
X165277000Y-76772000D01*
X165023000Y-76772000D01*
X165023000Y-76752000D01*
X163973750Y-76752000D01*
X163885750Y-76840000D01*
X163336940Y-76840000D01*
X163251898Y-76804774D01*
X163051939Y-76765000D01*
X162848061Y-76765000D01*
X162648102Y-76804774D01*
X162459744Y-76882795D01*
X162290226Y-76996063D01*
X162146063Y-77140226D01*
X162032795Y-77309744D01*
X161954774Y-77498102D01*
X161915000Y-77698061D01*
X161915000Y-77901939D01*
X161954774Y-78101898D01*
X162032795Y-78290256D01*
X162146063Y-78459774D01*
X162290226Y-78603937D01*
X162459744Y-78717205D01*
X162648102Y-78795226D01*
X162848061Y-78835000D01*
X163051939Y-78835000D01*
X163251898Y-78795226D01*
X163440256Y-78717205D01*
X163609774Y-78603937D01*
X163753937Y-78459774D01*
X163811928Y-78372984D01*
X163811928Y-79000001D01*
X163828992Y-79173255D01*
X163879528Y-79339851D01*
X163961595Y-79493387D01*
X164072038Y-79627962D01*
X164206613Y-79738405D01*
X164360149Y-79820472D01*
X164510673Y-79866133D01*
X164515026Y-79874276D01*
X164568142Y-79938997D01*
X164610000Y-79990001D01*
X164638998Y-80013799D01*
X165162113Y-80536915D01*
X165051939Y-80515000D01*
X164848061Y-80515000D01*
X164648102Y-80554774D01*
X164459744Y-80632795D01*
X164290226Y-80746063D01*
X164146063Y-80890226D01*
X164032795Y-81059744D01*
X163954774Y-81248102D01*
X163915000Y-81448061D01*
X163915000Y-81651939D01*
X163954774Y-81851898D01*
X164032795Y-82040256D01*
X164146063Y-82209774D01*
X164290226Y-82353937D01*
X164459744Y-82467205D01*
X164648102Y-82545226D01*
X164848061Y-82585000D01*
X165051939Y-82585000D01*
X165186928Y-82558149D01*
X165186928Y-83180000D01*
X165199188Y-83304482D01*
X165235498Y-83424180D01*
X165294463Y-83534494D01*
X165373815Y-83631185D01*
X165470506Y-83710537D01*
X165580820Y-83769502D01*
X165700518Y-83805812D01*
X165825000Y-83818072D01*
X166469879Y-83818072D01*
X166420506Y-83844463D01*
X166323815Y-83923815D01*
X166244463Y-84020506D01*
X166185498Y-84130820D01*
X166149188Y-84250518D01*
X166136928Y-84375000D01*
X166140000Y-84514250D01*
X166298750Y-84673000D01*
X167823000Y-84673000D01*
X167823000Y-84653000D01*
X168077000Y-84653000D01*
X168077000Y-84673000D01*
X168097000Y-84673000D01*
X168097000Y-84927000D01*
X168077000Y-84927000D01*
X168077000Y-84947000D01*
X167823000Y-84947000D01*
X167823000Y-84927000D01*
X166298750Y-84927000D01*
X166140000Y-85085750D01*
X166136928Y-85225000D01*
X166149188Y-85349482D01*
X166185498Y-85469180D01*
X166244463Y-85579494D01*
X166323815Y-85676185D01*
X166420506Y-85755537D01*
X166503689Y-85800000D01*
X166420506Y-85844463D01*
X166323815Y-85923815D01*
X166244463Y-86020506D01*
X166193810Y-86115270D01*
X166100724Y-86165026D01*
X165984999Y-86259999D01*
X165961201Y-86288997D01*
X163638998Y-88611201D01*
X163610000Y-88634999D01*
X163586202Y-88663997D01*
X163586201Y-88663998D01*
X163515026Y-88750724D01*
X163444454Y-88882754D01*
X163400998Y-89026015D01*
X163386324Y-89175000D01*
X163390001Y-89212332D01*
X163390000Y-91612677D01*
X163386324Y-91650000D01*
X163390000Y-91687322D01*
X163390000Y-91687332D01*
X163400997Y-91798985D01*
X163438976Y-91924188D01*
X163444454Y-91942246D01*
X163515026Y-92074276D01*
X163535165Y-92098815D01*
X163609999Y-92190001D01*
X163639003Y-92213804D01*
X164936201Y-93511003D01*
X164959999Y-93540001D01*
X165075724Y-93634974D01*
X165117083Y-93657081D01*
X165105820Y-93660498D01*
X164995506Y-93719463D01*
X164898815Y-93798815D01*
X164819463Y-93895506D01*
X164760498Y-94005820D01*
X164724188Y-94125518D01*
X164711928Y-94250000D01*
X164715000Y-94539250D01*
X164873750Y-94698000D01*
X165923000Y-94698000D01*
X165923000Y-94678000D01*
X166177000Y-94678000D01*
X166177000Y-94698000D01*
X167226250Y-94698000D01*
X167385000Y-94539250D01*
X167388072Y-94250000D01*
X167375812Y-94125518D01*
X167364453Y-94088072D01*
X167750000Y-94088072D01*
X167874482Y-94075812D01*
X167994180Y-94039502D01*
X168104494Y-93980537D01*
X168201185Y-93901185D01*
X168280537Y-93804494D01*
X168339502Y-93694180D01*
X168375812Y-93574482D01*
X168388072Y-93450000D01*
X168388072Y-92550000D01*
X168375812Y-92425518D01*
X168339502Y-92305820D01*
X168280537Y-92195506D01*
X168201185Y-92098815D01*
X168188095Y-92088072D01*
X168700000Y-92088072D01*
X168824482Y-92075812D01*
X168840001Y-92071104D01*
X168840001Y-97490000D01*
X167335594Y-97490000D01*
X167371008Y-97373255D01*
X167388072Y-97200001D01*
X167388072Y-96549999D01*
X167371008Y-96376745D01*
X167320472Y-96210149D01*
X167238405Y-96056613D01*
X167127962Y-95922038D01*
X167121406Y-95916658D01*
X167201185Y-95851185D01*
X167280537Y-95754494D01*
X167339502Y-95644180D01*
X167375812Y-95524482D01*
X167388072Y-95400000D01*
X167385000Y-95110750D01*
X167226250Y-94952000D01*
X166177000Y-94952000D01*
X166177000Y-94972000D01*
X165923000Y-94972000D01*
X165923000Y-94952000D01*
X164873750Y-94952000D01*
X164715000Y-95110750D01*
X164711928Y-95400000D01*
X164720714Y-95489208D01*
X164712678Y-95490000D01*
X163503711Y-95490000D01*
X163459774Y-95446063D01*
X163290256Y-95332795D01*
X163101898Y-95254774D01*
X162901939Y-95215000D01*
X162698061Y-95215000D01*
X162498102Y-95254774D01*
X162309744Y-95332795D01*
X162140226Y-95446063D01*
X162096289Y-95490000D01*
X160387322Y-95490000D01*
X160349999Y-95486324D01*
X160312676Y-95490000D01*
X160312667Y-95490000D01*
X160201014Y-95500997D01*
X160057753Y-95544454D01*
X159925724Y-95615026D01*
X159925722Y-95615027D01*
X159925723Y-95615027D01*
X159838996Y-95686201D01*
X159838992Y-95686205D01*
X159809999Y-95709999D01*
X159786205Y-95738992D01*
X156163270Y-99361928D01*
X153500000Y-99361928D01*
X153375518Y-99374188D01*
X153255820Y-99410498D01*
X153145506Y-99469463D01*
X153048815Y-99548815D01*
X152969463Y-99645506D01*
X152910498Y-99755820D01*
X152874188Y-99875518D01*
X152861928Y-100000000D01*
X152861928Y-102440000D01*
X151773381Y-102440000D01*
X147460000Y-98126620D01*
X147460000Y-75123380D01*
X149283380Y-73300000D01*
X152861928Y-73300000D01*
X152874188Y-73424482D01*
X152910498Y-73544180D01*
X152969463Y-73654494D01*
X153048815Y-73751185D01*
X153145506Y-73830537D01*
X153255820Y-73889502D01*
X153375518Y-73925812D01*
X153500000Y-73938072D01*
X155014250Y-73935000D01*
X155173000Y-73776250D01*
X155173000Y-72127000D01*
X155427000Y-72127000D01*
X155427000Y-73776250D01*
X155585750Y-73935000D01*
X157100000Y-73938072D01*
X157224482Y-73925812D01*
X157344180Y-73889502D01*
X157454494Y-73830537D01*
X157551185Y-73751185D01*
X157630537Y-73654494D01*
X157689502Y-73544180D01*
X157725812Y-73424482D01*
X157738072Y-73300000D01*
X157735000Y-72285750D01*
X157576250Y-72127000D01*
X155427000Y-72127000D01*
X155173000Y-72127000D01*
X153023750Y-72127000D01*
X152865000Y-72285750D01*
X152861928Y-73300000D01*
X149283380Y-73300000D01*
X151773381Y-70810000D01*
X152862261Y-70810000D01*
X152865000Y-71714250D01*
%TA.AperFunction,Conductor*%
D17*
G36*
X152865000Y-71714250D02*
G01*
X153023750Y-71873000D01*
X155173000Y-71873000D01*
X155173000Y-71853000D01*
X155427000Y-71853000D01*
X155427000Y-71873000D01*
X157576250Y-71873000D01*
X157735000Y-71714250D01*
X157737739Y-70810000D01*
X159026620Y-70810000D01*
X163810388Y-75593769D01*
X163831052Y-75618948D01*
X163856231Y-75639612D01*
X163856233Y-75639614D01*
X163897907Y-75673815D01*
X163921425Y-75693115D01*
X163919463Y-75695506D01*
X163860498Y-75805820D01*
X163824188Y-75925518D01*
X163811928Y-76050000D01*
X163815000Y-76339250D01*
X163973750Y-76498000D01*
X165023000Y-76498000D01*
X165023000Y-76478000D01*
X165277000Y-76478000D01*
X165277000Y-76498000D01*
X166298750Y-76498000D01*
X166373750Y-76573000D01*
X167423000Y-76573000D01*
X167423000Y-76553000D01*
X167677000Y-76553000D01*
X167677000Y-76573000D01*
X167697000Y-76573000D01*
X167697000Y-76827000D01*
X167677000Y-76827000D01*
X167677000Y-76847000D01*
X167423000Y-76847000D01*
X167423000Y-76827000D01*
X166401250Y-76827000D01*
X166326250Y-76752000D01*
X165277000Y-76752000D01*
X165277000Y-76772000D01*
X165023000Y-76772000D01*
X165023000Y-76752000D01*
X163973750Y-76752000D01*
X163885750Y-76840000D01*
X163336940Y-76840000D01*
X163251898Y-76804774D01*
X163051939Y-76765000D01*
X162848061Y-76765000D01*
X162648102Y-76804774D01*
X162459744Y-76882795D01*
X162290226Y-76996063D01*
X162146063Y-77140226D01*
X162032795Y-77309744D01*
X161954774Y-77498102D01*
X161915000Y-77698061D01*
X161915000Y-77901939D01*
X161954774Y-78101898D01*
X162032795Y-78290256D01*
X162146063Y-78459774D01*
X162290226Y-78603937D01*
X162459744Y-78717205D01*
X162648102Y-78795226D01*
X162848061Y-78835000D01*
X163051939Y-78835000D01*
X163251898Y-78795226D01*
X163440256Y-78717205D01*
X163609774Y-78603937D01*
X163753937Y-78459774D01*
X163811928Y-78372984D01*
X163811928Y-79000001D01*
X163828992Y-79173255D01*
X163879528Y-79339851D01*
X163961595Y-79493387D01*
X164072038Y-79627962D01*
X164206613Y-79738405D01*
X164360149Y-79820472D01*
X164510673Y-79866133D01*
X164515026Y-79874276D01*
X164568142Y-79938997D01*
X164610000Y-79990001D01*
X164638998Y-80013799D01*
X165162113Y-80536915D01*
X165051939Y-80515000D01*
X164848061Y-80515000D01*
X164648102Y-80554774D01*
X164459744Y-80632795D01*
X164290226Y-80746063D01*
X164146063Y-80890226D01*
X164032795Y-81059744D01*
X163954774Y-81248102D01*
X163915000Y-81448061D01*
X163915000Y-81651939D01*
X163954774Y-81851898D01*
X164032795Y-82040256D01*
X164146063Y-82209774D01*
X164290226Y-82353937D01*
X164459744Y-82467205D01*
X164648102Y-82545226D01*
X164848061Y-82585000D01*
X165051939Y-82585000D01*
X165186928Y-82558149D01*
X165186928Y-83180000D01*
X165199188Y-83304482D01*
X165235498Y-83424180D01*
X165294463Y-83534494D01*
X165373815Y-83631185D01*
X165470506Y-83710537D01*
X165580820Y-83769502D01*
X165700518Y-83805812D01*
X165825000Y-83818072D01*
X166469879Y-83818072D01*
X166420506Y-83844463D01*
X166323815Y-83923815D01*
X166244463Y-84020506D01*
X166185498Y-84130820D01*
X166149188Y-84250518D01*
X166136928Y-84375000D01*
X166140000Y-84514250D01*
X166298750Y-84673000D01*
X167823000Y-84673000D01*
X167823000Y-84653000D01*
X168077000Y-84653000D01*
X168077000Y-84673000D01*
X168097000Y-84673000D01*
X168097000Y-84927000D01*
X168077000Y-84927000D01*
X168077000Y-84947000D01*
X167823000Y-84947000D01*
X167823000Y-84927000D01*
X166298750Y-84927000D01*
X166140000Y-85085750D01*
X166136928Y-85225000D01*
X166149188Y-85349482D01*
X166185498Y-85469180D01*
X166244463Y-85579494D01*
X166323815Y-85676185D01*
X166420506Y-85755537D01*
X166503689Y-85800000D01*
X166420506Y-85844463D01*
X166323815Y-85923815D01*
X166244463Y-86020506D01*
X166193810Y-86115270D01*
X166100724Y-86165026D01*
X165984999Y-86259999D01*
X165961201Y-86288997D01*
X163638998Y-88611201D01*
X163610000Y-88634999D01*
X163586202Y-88663997D01*
X163586201Y-88663998D01*
X163515026Y-88750724D01*
X163444454Y-88882754D01*
X163400998Y-89026015D01*
X163386324Y-89175000D01*
X163390001Y-89212332D01*
X163390000Y-91612677D01*
X163386324Y-91650000D01*
X163390000Y-91687322D01*
X163390000Y-91687332D01*
X163400997Y-91798985D01*
X163438976Y-91924188D01*
X163444454Y-91942246D01*
X163515026Y-92074276D01*
X163535165Y-92098815D01*
X163609999Y-92190001D01*
X163639003Y-92213804D01*
X164936201Y-93511003D01*
X164959999Y-93540001D01*
X165075724Y-93634974D01*
X165117083Y-93657081D01*
X165105820Y-93660498D01*
X164995506Y-93719463D01*
X164898815Y-93798815D01*
X164819463Y-93895506D01*
X164760498Y-94005820D01*
X164724188Y-94125518D01*
X164711928Y-94250000D01*
X164715000Y-94539250D01*
X164873750Y-94698000D01*
X165923000Y-94698000D01*
X165923000Y-94678000D01*
X166177000Y-94678000D01*
X166177000Y-94698000D01*
X167226250Y-94698000D01*
X167385000Y-94539250D01*
X167388072Y-94250000D01*
X167375812Y-94125518D01*
X167364453Y-94088072D01*
X167750000Y-94088072D01*
X167874482Y-94075812D01*
X167994180Y-94039502D01*
X168104494Y-93980537D01*
X168201185Y-93901185D01*
X168280537Y-93804494D01*
X168339502Y-93694180D01*
X168375812Y-93574482D01*
X168388072Y-93450000D01*
X168388072Y-92550000D01*
X168375812Y-92425518D01*
X168339502Y-92305820D01*
X168280537Y-92195506D01*
X168201185Y-92098815D01*
X168188095Y-92088072D01*
X168700000Y-92088072D01*
X168824482Y-92075812D01*
X168840001Y-92071104D01*
X168840001Y-97490000D01*
X167335594Y-97490000D01*
X167371008Y-97373255D01*
X167388072Y-97200001D01*
X167388072Y-96549999D01*
X167371008Y-96376745D01*
X167320472Y-96210149D01*
X167238405Y-96056613D01*
X167127962Y-95922038D01*
X167121406Y-95916658D01*
X167201185Y-95851185D01*
X167280537Y-95754494D01*
X167339502Y-95644180D01*
X167375812Y-95524482D01*
X167388072Y-95400000D01*
X167385000Y-95110750D01*
X167226250Y-94952000D01*
X166177000Y-94952000D01*
X166177000Y-94972000D01*
X165923000Y-94972000D01*
X165923000Y-94952000D01*
X164873750Y-94952000D01*
X164715000Y-95110750D01*
X164711928Y-95400000D01*
X164720714Y-95489208D01*
X164712678Y-95490000D01*
X163503711Y-95490000D01*
X163459774Y-95446063D01*
X163290256Y-95332795D01*
X163101898Y-95254774D01*
X162901939Y-95215000D01*
X162698061Y-95215000D01*
X162498102Y-95254774D01*
X162309744Y-95332795D01*
X162140226Y-95446063D01*
X162096289Y-95490000D01*
X160387322Y-95490000D01*
X160349999Y-95486324D01*
X160312676Y-95490000D01*
X160312667Y-95490000D01*
X160201014Y-95500997D01*
X160057753Y-95544454D01*
X159925724Y-95615026D01*
X159925722Y-95615027D01*
X159925723Y-95615027D01*
X159838996Y-95686201D01*
X159838992Y-95686205D01*
X159809999Y-95709999D01*
X159786205Y-95738992D01*
X156163270Y-99361928D01*
X153500000Y-99361928D01*
X153375518Y-99374188D01*
X153255820Y-99410498D01*
X153145506Y-99469463D01*
X153048815Y-99548815D01*
X152969463Y-99645506D01*
X152910498Y-99755820D01*
X152874188Y-99875518D01*
X152861928Y-100000000D01*
X152861928Y-102440000D01*
X151773381Y-102440000D01*
X147460000Y-98126620D01*
X147460000Y-75123380D01*
X149283380Y-73300000D01*
X152861928Y-73300000D01*
X152874188Y-73424482D01*
X152910498Y-73544180D01*
X152969463Y-73654494D01*
X153048815Y-73751185D01*
X153145506Y-73830537D01*
X153255820Y-73889502D01*
X153375518Y-73925812D01*
X153500000Y-73938072D01*
X155014250Y-73935000D01*
X155173000Y-73776250D01*
X155173000Y-72127000D01*
X155427000Y-72127000D01*
X155427000Y-73776250D01*
X155585750Y-73935000D01*
X157100000Y-73938072D01*
X157224482Y-73925812D01*
X157344180Y-73889502D01*
X157454494Y-73830537D01*
X157551185Y-73751185D01*
X157630537Y-73654494D01*
X157689502Y-73544180D01*
X157725812Y-73424482D01*
X157738072Y-73300000D01*
X157735000Y-72285750D01*
X157576250Y-72127000D01*
X155427000Y-72127000D01*
X155173000Y-72127000D01*
X153023750Y-72127000D01*
X152865000Y-72285750D01*
X152861928Y-73300000D01*
X149283380Y-73300000D01*
X151773381Y-70810000D01*
X152862261Y-70810000D01*
X152865000Y-71714250D01*
G37*
%TD.AperFunction*%
%TD*%
M02*
