%TF.GenerationSoftware,KiCad,Pcbnew,(5.1.7)-1*%
%TF.CreationDate,2022-08-04T10:30:13+03:00*%
%TF.ProjectId,battbrd,62617474-6272-4642-9e6b-696361645f70,rev?*%
%TF.SameCoordinates,Original*%
%TF.FileFunction,Copper,L2,Bot*%
%TF.FilePolarity,Positive*%
%FSLAX46Y46*%
G04 Gerber Fmt 4.6, Leading zero omitted, Abs format (unit mm)*
G04 Created by KiCad (PCBNEW (5.1.7)-1) date 2022-08-04 10:30:13*
%MOMM*%
%LPD*%
G01*
G04 APERTURE LIST*
%TA.AperFunction,ViaPad*%
%ADD10C,0.800000*%
%TD*%
%TA.AperFunction,Conductor*%
%ADD11C,0.250000*%
%TD*%
%TA.AperFunction,Conductor*%
%ADD12C,0.254000*%
%TD*%
%TA.AperFunction,Conductor*%
%ADD13C,0.100000*%
%TD*%
G04 APERTURE END LIST*
D10*
%TO.N,Net-(BT1-Pad1)*%
X164950000Y-81550000D03*
X165100000Y-90950000D03*
X162800000Y-96250000D03*
%TO.N,VCC*%
X166050000Y-88900000D03*
X162950000Y-77800000D03*
%TD*%
D11*
%TO.N,Net-(BT1-Pad1)*%
X164950000Y-90800000D02*
X165100000Y-90950000D01*
X164950000Y-81550000D02*
X164950000Y-90800000D01*
X165100000Y-90950000D02*
X165100000Y-92150000D01*
X162800000Y-94450000D02*
X162800000Y-96250000D01*
X165100000Y-92150000D02*
X162800000Y-94450000D01*
%TO.N,VCC*%
X166050000Y-88900000D02*
X166050000Y-81350000D01*
X162950000Y-78250000D02*
X162950000Y-77800000D01*
X166050000Y-81350000D02*
X162950000Y-78250000D01*
%TD*%
D12*
%TO.N,VCC*%
X163810388Y-75593769D02*
X163831052Y-75618948D01*
X163931550Y-75701425D01*
X164046207Y-75762710D01*
X164170617Y-75800450D01*
X164267581Y-75810000D01*
X164267591Y-75810000D01*
X164300000Y-75813192D01*
X164332409Y-75810000D01*
X168840000Y-75810000D01*
X168840001Y-97490000D01*
X164132408Y-97490000D01*
X164099999Y-97486808D01*
X164067590Y-97490000D01*
X164067581Y-97490000D01*
X163970617Y-97499550D01*
X163846207Y-97537290D01*
X163731549Y-97598575D01*
X163656233Y-97660386D01*
X163631052Y-97681052D01*
X163610388Y-97706231D01*
X158876620Y-102440000D01*
X151773381Y-102440000D01*
X147460000Y-98126620D01*
X147460000Y-96148061D01*
X161765000Y-96148061D01*
X161765000Y-96351939D01*
X161804774Y-96551898D01*
X161882795Y-96740256D01*
X161996063Y-96909774D01*
X162140226Y-97053937D01*
X162309744Y-97167205D01*
X162498102Y-97245226D01*
X162698061Y-97285000D01*
X162901939Y-97285000D01*
X163101898Y-97245226D01*
X163290256Y-97167205D01*
X163459774Y-97053937D01*
X163603937Y-96909774D01*
X163717205Y-96740256D01*
X163795226Y-96551898D01*
X163835000Y-96351939D01*
X163835000Y-96148061D01*
X163795226Y-95948102D01*
X163717205Y-95759744D01*
X163603937Y-95590226D01*
X163560000Y-95546289D01*
X163560000Y-94764801D01*
X165611003Y-92713799D01*
X165640001Y-92690001D01*
X165734974Y-92574276D01*
X165805546Y-92442247D01*
X165849003Y-92298986D01*
X165860000Y-92187333D01*
X165860000Y-92187324D01*
X165863676Y-92150001D01*
X165860000Y-92112678D01*
X165860000Y-91653711D01*
X165903937Y-91609774D01*
X166017205Y-91440256D01*
X166095226Y-91251898D01*
X166135000Y-91051939D01*
X166135000Y-90848061D01*
X166095226Y-90648102D01*
X166017205Y-90459744D01*
X165903937Y-90290226D01*
X165759774Y-90146063D01*
X165710000Y-90112805D01*
X165710000Y-82253711D01*
X165753937Y-82209774D01*
X165867205Y-82040256D01*
X165945226Y-81851898D01*
X165985000Y-81651939D01*
X165985000Y-81448061D01*
X165945226Y-81248102D01*
X165867205Y-81059744D01*
X165753937Y-80890226D01*
X165609774Y-80746063D01*
X165440256Y-80632795D01*
X165251898Y-80554774D01*
X165051939Y-80515000D01*
X164848061Y-80515000D01*
X164648102Y-80554774D01*
X164459744Y-80632795D01*
X164290226Y-80746063D01*
X164146063Y-80890226D01*
X164032795Y-81059744D01*
X163954774Y-81248102D01*
X163915000Y-81448061D01*
X163915000Y-81651939D01*
X163954774Y-81851898D01*
X164032795Y-82040256D01*
X164146063Y-82209774D01*
X164190000Y-82253711D01*
X164190001Y-90448959D01*
X164182795Y-90459744D01*
X164104774Y-90648102D01*
X164065000Y-90848061D01*
X164065000Y-91051939D01*
X164104774Y-91251898D01*
X164182795Y-91440256D01*
X164296063Y-91609774D01*
X164340001Y-91653712D01*
X164340001Y-91835197D01*
X162289003Y-93886196D01*
X162259999Y-93909999D01*
X162204871Y-93977174D01*
X162165026Y-94025724D01*
X162094455Y-94157753D01*
X162094454Y-94157754D01*
X162050997Y-94301015D01*
X162040000Y-94412668D01*
X162040000Y-94412678D01*
X162036324Y-94450000D01*
X162040000Y-94487323D01*
X162040001Y-95546288D01*
X161996063Y-95590226D01*
X161882795Y-95759744D01*
X161804774Y-95948102D01*
X161765000Y-96148061D01*
X147460000Y-96148061D01*
X147460000Y-75123380D01*
X151773381Y-70810000D01*
X159026620Y-70810000D01*
X163810388Y-75593769D01*
%TA.AperFunction,Conductor*%
D13*
G36*
X163810388Y-75593769D02*
G01*
X163831052Y-75618948D01*
X163931550Y-75701425D01*
X164046207Y-75762710D01*
X164170617Y-75800450D01*
X164267581Y-75810000D01*
X164267591Y-75810000D01*
X164300000Y-75813192D01*
X164332409Y-75810000D01*
X168840000Y-75810000D01*
X168840001Y-97490000D01*
X164132408Y-97490000D01*
X164099999Y-97486808D01*
X164067590Y-97490000D01*
X164067581Y-97490000D01*
X163970617Y-97499550D01*
X163846207Y-97537290D01*
X163731549Y-97598575D01*
X163656233Y-97660386D01*
X163631052Y-97681052D01*
X163610388Y-97706231D01*
X158876620Y-102440000D01*
X151773381Y-102440000D01*
X147460000Y-98126620D01*
X147460000Y-96148061D01*
X161765000Y-96148061D01*
X161765000Y-96351939D01*
X161804774Y-96551898D01*
X161882795Y-96740256D01*
X161996063Y-96909774D01*
X162140226Y-97053937D01*
X162309744Y-97167205D01*
X162498102Y-97245226D01*
X162698061Y-97285000D01*
X162901939Y-97285000D01*
X163101898Y-97245226D01*
X163290256Y-97167205D01*
X163459774Y-97053937D01*
X163603937Y-96909774D01*
X163717205Y-96740256D01*
X163795226Y-96551898D01*
X163835000Y-96351939D01*
X163835000Y-96148061D01*
X163795226Y-95948102D01*
X163717205Y-95759744D01*
X163603937Y-95590226D01*
X163560000Y-95546289D01*
X163560000Y-94764801D01*
X165611003Y-92713799D01*
X165640001Y-92690001D01*
X165734974Y-92574276D01*
X165805546Y-92442247D01*
X165849003Y-92298986D01*
X165860000Y-92187333D01*
X165860000Y-92187324D01*
X165863676Y-92150001D01*
X165860000Y-92112678D01*
X165860000Y-91653711D01*
X165903937Y-91609774D01*
X166017205Y-91440256D01*
X166095226Y-91251898D01*
X166135000Y-91051939D01*
X166135000Y-90848061D01*
X166095226Y-90648102D01*
X166017205Y-90459744D01*
X165903937Y-90290226D01*
X165759774Y-90146063D01*
X165710000Y-90112805D01*
X165710000Y-82253711D01*
X165753937Y-82209774D01*
X165867205Y-82040256D01*
X165945226Y-81851898D01*
X165985000Y-81651939D01*
X165985000Y-81448061D01*
X165945226Y-81248102D01*
X165867205Y-81059744D01*
X165753937Y-80890226D01*
X165609774Y-80746063D01*
X165440256Y-80632795D01*
X165251898Y-80554774D01*
X165051939Y-80515000D01*
X164848061Y-80515000D01*
X164648102Y-80554774D01*
X164459744Y-80632795D01*
X164290226Y-80746063D01*
X164146063Y-80890226D01*
X164032795Y-81059744D01*
X163954774Y-81248102D01*
X163915000Y-81448061D01*
X163915000Y-81651939D01*
X163954774Y-81851898D01*
X164032795Y-82040256D01*
X164146063Y-82209774D01*
X164190000Y-82253711D01*
X164190001Y-90448959D01*
X164182795Y-90459744D01*
X164104774Y-90648102D01*
X164065000Y-90848061D01*
X164065000Y-91051939D01*
X164104774Y-91251898D01*
X164182795Y-91440256D01*
X164296063Y-91609774D01*
X164340001Y-91653712D01*
X164340001Y-91835197D01*
X162289003Y-93886196D01*
X162259999Y-93909999D01*
X162204871Y-93977174D01*
X162165026Y-94025724D01*
X162094455Y-94157753D01*
X162094454Y-94157754D01*
X162050997Y-94301015D01*
X162040000Y-94412668D01*
X162040000Y-94412678D01*
X162036324Y-94450000D01*
X162040000Y-94487323D01*
X162040001Y-95546288D01*
X161996063Y-95590226D01*
X161882795Y-95759744D01*
X161804774Y-95948102D01*
X161765000Y-96148061D01*
X147460000Y-96148061D01*
X147460000Y-75123380D01*
X151773381Y-70810000D01*
X159026620Y-70810000D01*
X163810388Y-75593769D01*
G37*
%TD.AperFunction*%
%TD*%
M02*
